<svg width="279" height="279" viewBox="0 0 279 279" fill="none" xmlns="http://www.w3.org/2000/svg">
<g clipPath="url(#clip0_92_8373)">
<path d="M139.507 6.10352e-05C62.5851 6.10352e-05 0 62.5852 0 139.507C0 216.429 62.5851 279.014 139.507 279.014C216.429 279.014 279.014 216.429 279.014 139.507C279.014 62.5852 216.429 6.10352e-05 139.507 6.10352e-05ZM139.507 273.322C65.7222 273.322 5.67794 213.292 5.67794 139.493C5.67794 65.6939 65.708 5.678 139.507 5.678C213.306 5.678 273.336 65.7081 273.336 139.507C273.336 213.306 213.306 273.336 139.507 273.336V273.322Z" fill="#F7F7F6"/>
<path d="M160.53 148.123C168.678 155.249 173.078 160.913 175.406 164.675H193.817C192.34 159.891 187.472 149.472 171.517 135.533C163.326 128.378 159.721 121.792 156.825 116.511C155.05 113.275 153.517 110.479 151.303 108.108C148.109 104.701 144.135 102.984 139.493 102.984C134.851 102.984 130.862 104.716 127.683 108.108C125.468 110.479 123.935 113.275 122.161 116.511C119.265 121.792 115.66 128.378 107.469 135.533C91.5143 149.472 86.6455 159.891 85.1692 164.675H103.58C105.908 160.913 110.308 155.249 118.456 148.123C128.889 139.01 133.659 130.309 136.81 124.546C137.648 123.013 138.741 121.011 139.493 120.003C140.245 121.025 141.324 123.013 142.176 124.546C145.327 130.309 150.096 139.025 160.53 148.123Z" fill="#F7F7F6"/>
<path d="M84.1187 55.8994C84.8142 56.3111 85.5098 56.595 86.2195 56.7227C86.9293 56.8647 87.8094 56.9782 88.874 57.0634C90.1089 57.1628 90.9748 57.2905 91.4574 57.4325C91.9401 57.5744 92.3233 57.8725 92.593 58.3126C92.8485 58.7384 92.9479 59.1642 92.8627 59.5759C92.7917 59.9875 92.5646 60.2998 92.2098 60.5128C91.8549 60.7257 91.4716 60.7683 91.06 60.6263C90.6483 60.4844 90.3076 60.1863 90.0379 59.732L89.7399 59.2494C89.6973 59.1784 89.6263 59.1217 89.5411 59.1075C89.456 59.0933 89.385 59.1075 89.2998 59.15L86.7447 60.6831C86.6738 60.7257 86.617 60.7967 86.6028 60.8676C86.5886 60.9528 86.6028 61.0238 86.6312 61.1089L87.0144 61.7619C87.4971 62.5568 88.1074 63.1672 88.8314 63.5646C89.5553 63.9621 90.3502 64.1466 91.2019 64.0899C92.0678 64.0331 92.9195 63.7492 93.7854 63.2382C95.0913 62.4575 95.9146 61.4354 96.2553 60.1721C96.596 58.9229 96.3688 57.6312 95.5881 56.3253C95.1623 55.6155 94.6655 55.0761 94.0977 54.7213C93.5299 54.3664 92.8911 54.1109 92.1672 53.9689C91.4432 53.827 90.4212 53.685 89.0869 53.5573C87.8945 53.4437 87.0428 53.3018 86.5602 53.1314C86.0776 52.9611 85.6943 52.6488 85.4246 52.2088C85.1407 51.7545 85.0414 51.3287 85.1123 50.9312C85.1833 50.5338 85.3962 50.2357 85.7511 50.0228C86.1202 49.7956 86.5034 49.7531 86.9009 49.895C87.2983 50.037 87.6248 50.335 87.9087 50.7893L88.2636 51.3855C88.3062 51.4564 88.3771 51.5132 88.4481 51.5274C88.5333 51.5416 88.6043 51.5274 88.6894 51.4848L91.2445 49.9518C91.3155 49.9092 91.3581 49.8382 91.3865 49.7672C91.4148 49.6963 91.3865 49.6111 91.3439 49.5259L91.0174 48.9865C90.2509 47.709 89.2288 46.9141 87.9655 46.6018C86.7022 46.2895 85.4104 46.5308 84.1045 47.3115C82.8128 48.0923 82.0037 49.0859 81.663 50.3208C81.3365 51.5558 81.5494 52.7908 82.3017 54.0541C82.7844 54.849 83.3664 55.4594 84.0619 55.871L84.1187 55.8994Z" fill="#F7F7F6"/>
<path d="M99.7757 59.5191L102.572 58.3409C102.757 58.2558 102.828 58.128 102.771 57.9435L102.189 55.4878C102.16 55.4026 102.189 55.3458 102.288 55.3032L105.326 54.0257C105.425 53.9831 105.482 54.0115 105.525 54.0825L106.873 56.2259C106.958 56.3962 107.1 56.4388 107.299 56.3537L110.166 55.1471C110.337 55.0761 110.393 54.9626 110.337 54.8206L110.266 54.7354L99.9602 40.0154C99.8467 39.8592 99.7189 39.8025 99.5344 39.8876L96.298 41.2503C96.1276 41.3213 96.0566 41.4491 96.0992 41.6478L99.3924 59.3204C99.435 59.5475 99.5628 59.6185 99.7615 59.5333L99.7757 59.5191ZM99.8467 45.3384C99.8467 45.3384 99.9177 45.3384 99.946 45.381L103.821 51.4422C103.878 51.5132 103.85 51.57 103.779 51.5984L101.621 52.5069C101.621 52.5069 101.507 52.5069 101.479 52.4217L99.8041 45.4236C99.8041 45.4236 99.8041 45.3384 99.8467 45.3243V45.3384Z" fill="#F7F7F6"/>
<path d="M112.551 54.3096C112.622 54.3522 112.707 54.3664 112.792 54.338L117.349 53.174C118.882 52.7766 119.989 52.0242 120.685 50.9028C121.38 49.7814 121.536 48.4755 121.167 46.9992L119.152 39.1495C118.768 37.6732 118.016 36.6086 116.866 35.9556C115.717 35.3027 114.382 35.1749 112.849 35.5582L108.293 36.7222C108.207 36.7364 108.151 36.7931 108.108 36.8641C108.066 36.9351 108.051 37.0203 108.08 37.1054L112.423 54.1251C112.452 54.2102 112.494 54.267 112.565 54.3096H112.551ZM112.438 38.9082L113.545 38.6243C114.027 38.4965 114.467 38.5817 114.851 38.8798C115.234 39.1779 115.504 39.6463 115.66 40.2851L117.548 47.6806C117.69 48.291 117.661 48.8162 117.463 49.2562C117.278 49.6963 116.951 49.9802 116.497 50.1221L115.376 50.4344C115.291 50.4628 115.234 50.4344 115.22 50.335L112.338 39.0501C112.31 38.965 112.338 38.9082 112.438 38.894V38.9082Z" fill="#F7F7F6"/>
<path d="M125.114 51.3287C125.114 51.3287 125.256 51.3996 125.341 51.3996L130.011 50.9028C131.572 50.7325 132.793 50.1505 133.645 49.1285C134.496 48.1206 134.837 46.8573 134.681 45.3384L133.829 37.2758C133.673 35.7569 133.063 34.5929 132.026 33.7838C130.976 32.9747 129.67 32.6482 128.109 32.8186L123.439 33.3154C123.353 33.3154 123.282 33.358 123.226 33.429C123.169 33.4999 123.155 33.5709 123.155 33.6561L125 51.1299C125 51.2151 125.043 51.2861 125.114 51.3429V51.3287ZM127.229 36.0692L128.364 35.9556C128.861 35.8989 129.273 36.055 129.613 36.3957C129.94 36.7506 130.153 37.2474 130.21 37.9003L131.004 45.4946C131.047 46.1192 130.948 46.6302 130.692 47.0418C130.437 47.4535 130.082 47.6948 129.613 47.7516L128.449 47.9077C128.364 47.9077 128.322 47.8793 128.307 47.7942L127.087 36.2111C127.087 36.126 127.115 36.0834 127.2 36.0692H127.229Z" fill="#F7F7F6"/>
<path d="M138.372 50.3208L147.3 50.6047C147.385 50.6047 147.456 50.5763 147.527 50.5196C147.598 50.4628 147.627 50.3918 147.627 50.3066L147.712 47.78C147.712 47.6948 147.683 47.6238 147.627 47.5528C147.57 47.4961 147.499 47.4535 147.414 47.4535L141.963 47.2831C141.878 47.2831 141.835 47.2406 141.835 47.1554L142.304 32.5631C142.304 32.4779 142.275 32.4069 142.218 32.336C142.162 32.2792 142.091 32.2366 142.005 32.2366L138.968 32.1372C138.883 32.1372 138.812 32.1656 138.741 32.2224C138.684 32.2792 138.641 32.3501 138.641 32.4353L138.073 49.9944C138.073 50.0795 138.102 50.1505 138.159 50.2215C138.215 50.2783 138.286 50.3208 138.372 50.3208Z" fill="#F7F7F6"/>
<path d="M150.096 50.917L158.883 52.3791C158.968 52.3933 159.039 52.3791 159.11 52.3223C159.181 52.2655 159.224 52.2088 159.238 52.1236L159.65 49.6395C159.664 49.5543 159.65 49.4833 159.593 49.4124C159.536 49.3414 159.479 49.2988 159.394 49.2846L154.043 48.3903C153.957 48.3903 153.929 48.3336 153.929 48.2342L154.61 44.1603C154.61 44.0751 154.667 44.0325 154.767 44.0467L157.847 44.5577C157.932 44.5577 158.017 44.5577 158.074 44.5009C158.145 44.4584 158.188 44.3874 158.202 44.3022L158.613 41.8181C158.613 41.7329 158.613 41.6478 158.557 41.591C158.5 41.52 158.443 41.4774 158.358 41.4632L155.278 40.9522C155.192 40.9522 155.164 40.8955 155.164 40.8103L155.845 36.7647C155.845 36.6796 155.902 36.6512 156.002 36.6512L161.353 37.5455C161.438 37.5455 161.509 37.5455 161.58 37.4887C161.651 37.4319 161.694 37.3751 161.708 37.29L162.12 34.8059C162.12 34.7207 162.12 34.6497 162.063 34.5787C162.006 34.5078 161.949 34.4652 161.864 34.451L153.077 32.9889C152.992 32.9747 152.907 32.9889 152.85 33.0457C152.779 33.1025 152.737 33.1593 152.723 33.2444L149.827 50.5763C149.813 50.6615 149.827 50.7467 149.884 50.8035C149.94 50.8602 149.997 50.917 150.082 50.9312L150.096 50.917Z" fill="#F7F7F6"/>
<path d="M161.779 53.0037C161.821 53.0746 161.878 53.1314 161.963 53.1598L164.873 54.0541C164.959 54.0825 165.03 54.0683 165.115 54.0257C165.2 53.9831 165.242 53.9263 165.271 53.8412L167.357 47.056C167.386 46.9709 167.443 46.9425 167.528 46.9709L170.48 47.8793C170.566 47.9077 170.636 47.8935 170.722 47.8509C170.793 47.8083 170.849 47.7516 170.878 47.6664L171.616 45.2533C171.644 45.1681 171.63 45.0971 171.602 45.012C171.559 44.941 171.502 44.8842 171.417 44.8558L168.465 43.9473C168.38 43.919 168.351 43.8622 168.38 43.7912L169.586 39.8734C169.614 39.7883 169.671 39.7599 169.756 39.7883L174.923 41.3781C175.009 41.4065 175.079 41.3923 175.165 41.3639C175.236 41.3213 175.292 41.2645 175.321 41.1794L176.059 38.7662C176.087 38.6811 176.073 38.6101 176.045 38.5249C176.002 38.4539 175.945 38.3972 175.86 38.3688L167.372 35.7427C167.287 35.7143 167.216 35.7285 167.13 35.7711C167.045 35.8137 167.003 35.8705 166.974 35.9556L161.793 52.734C161.765 52.8191 161.779 52.8901 161.821 52.9753L161.779 53.0037Z" fill="#F7F7F6"/>
<path d="M172.95 56.7795C172.979 56.8647 173.035 56.9215 173.121 56.9498L175.917 58.1422C176.002 58.1706 176.073 58.1706 176.158 58.1422C176.243 58.1138 176.3 58.057 176.329 57.9719L183.241 41.8181C183.27 41.733 183.27 41.662 183.241 41.5768C183.213 41.4916 183.156 41.4349 183.071 41.4065L180.275 40.2141C180.19 40.1857 180.119 40.1857 180.033 40.2141C179.948 40.2425 179.892 40.2993 179.863 40.3844L172.95 56.5382C172.922 56.6234 172.908 56.6943 172.95 56.7795Z" fill="#F7F7F6"/>
<path d="M189.005 47.8368C189.076 47.8793 189.09 47.9361 189.047 48.0071L181.85 60.7115C181.808 60.7825 181.794 60.8676 181.822 60.9528C181.85 61.038 181.893 61.0947 181.964 61.1373L184.604 62.642C184.675 62.6846 184.76 62.6988 184.845 62.6704C184.931 62.642 184.987 62.5994 185.03 62.5284L192.227 49.824C192.269 49.7531 192.326 49.7389 192.397 49.7673L195.222 51.3713C195.293 51.4139 195.378 51.428 195.463 51.3997C195.548 51.3713 195.605 51.3287 195.648 51.2577L196.897 49.0717C196.939 49.0007 196.954 48.9156 196.925 48.8304C196.897 48.7452 196.854 48.6884 196.783 48.6459L187.826 43.5783C187.755 43.5357 187.67 43.5215 187.585 43.5499C187.5 43.5783 187.443 43.6209 187.401 43.6919L186.151 45.8779C186.109 45.9488 186.095 46.034 186.123 46.1192C186.151 46.2043 186.194 46.2611 186.265 46.3037L188.976 47.8368H189.005Z" fill="#F7F7F6"/>
<path d="M64.4873 206.748C64.4873 206.748 64.5441 206.748 64.5724 206.762C65.2538 206.975 65.9635 207.004 66.7017 206.819C67.4398 206.635 68.1496 206.266 68.8309 205.684C69.5406 205.073 70.0659 204.406 70.3923 203.654C70.7188 202.916 70.8182 202.163 70.7046 201.411C70.5911 200.659 70.2646 199.963 69.7252 199.324L66.7585 195.832C66.7585 195.832 66.6449 195.747 66.5739 195.733C66.5029 195.719 66.432 195.747 66.3752 195.79L54.6644 205.726C54.6644 205.726 54.5793 205.84 54.5651 205.911C54.5651 205.982 54.5793 206.053 54.636 206.109L56.3536 208.139C56.3536 208.139 56.4672 208.224 56.5382 208.239C56.6091 208.253 56.6801 208.224 56.7369 208.182L61.4638 204.165C61.4638 204.165 61.5773 204.122 61.6199 204.165L62.1167 204.747C62.1167 204.747 62.1451 204.832 62.1167 204.889L58.4687 210.283C58.3835 210.41 58.3977 210.538 58.497 210.666L60.2572 212.738C60.3708 212.866 60.4701 212.88 60.5979 212.781L60.6547 212.71L64.4021 206.777C64.4021 206.777 64.4305 206.734 64.4589 206.72L64.4873 206.748ZM63.4936 202.575C63.4936 202.575 63.451 202.461 63.4936 202.419L66.4604 199.906C66.4604 199.906 66.5739 199.864 66.6165 199.906L67.2837 200.687C67.5818 201.042 67.6953 201.454 67.5959 201.922C67.5108 202.39 67.2127 202.83 66.7301 203.242C66.2616 203.64 65.779 203.852 65.3106 203.867C64.8421 203.881 64.4447 203.711 64.1466 203.356L63.4936 202.575Z" fill="#F7F7F6"/>
<path d="M76.2548 206.294C76.2548 206.223 76.2264 206.152 76.1696 206.109L74.2675 204.25C74.2675 204.25 74.1539 204.165 74.0688 204.179C73.9978 204.179 73.9268 204.207 73.8842 204.264L63.1529 215.237C63.1529 215.237 63.0677 215.35 63.0677 215.436C63.0677 215.506 63.0961 215.577 63.1529 215.634L65.055 217.494C65.055 217.494 65.1686 217.579 65.2538 217.579C65.3247 217.579 65.3957 217.551 65.4383 217.494L76.1696 206.521C76.1696 206.521 76.2548 206.408 76.2548 206.322V206.294Z" fill="#F7F7F6"/>
<path d="M83.4658 213.931C83.3239 212.781 82.7135 211.773 81.6489 210.907L78.4551 208.324C78.4551 208.324 78.3273 208.253 78.2563 208.267C78.1853 208.281 78.1144 208.31 78.0718 208.366L68.4051 220.29C68.4051 220.29 68.3341 220.418 68.3483 220.489C68.3483 220.56 68.3909 220.617 68.4477 220.673L71.6415 223.257C72.7061 224.123 73.8275 224.506 74.9773 224.407C76.1271 224.307 77.1207 223.739 77.9582 222.703L82.4154 217.196C83.2529 216.159 83.6078 215.066 83.4658 213.917V213.931ZM79.8036 215.35L75.6019 220.531C75.247 220.943 74.8638 221.199 74.4521 221.298C74.0405 221.397 73.6714 221.326 73.3449 221.071L72.5358 220.446C72.5358 220.446 72.4648 220.347 72.5216 220.29L78.9235 212.384C78.9235 212.384 79.0228 212.313 79.0796 212.369L79.8603 212.994C80.201 213.264 80.3714 213.618 80.3572 214.044C80.3572 214.47 80.1584 214.896 79.8036 215.35Z" fill="#F7F7F6"/>
<path d="M87.2558 215.208C87.2558 215.208 87.1281 215.152 87.0571 215.166C86.9861 215.18 86.9293 215.223 86.8867 215.279L78.6679 228.253C78.6679 228.253 78.6111 228.381 78.6253 228.452C78.6395 228.523 78.6821 228.58 78.7389 228.623L85.3253 232.796C85.3253 232.796 85.4531 232.853 85.524 232.838C85.595 232.824 85.6518 232.782 85.6944 232.725L86.8725 230.865C86.8725 230.865 86.9293 230.738 86.9151 230.667C86.9009 230.596 86.8583 230.539 86.7874 230.496L82.7844 227.955C82.7844 227.955 82.7134 227.856 82.7418 227.799L84.6723 224.747C84.6723 224.747 84.7575 224.676 84.8285 224.719L87.128 226.181C87.128 226.181 87.2558 226.238 87.341 226.224C87.4119 226.209 87.4687 226.167 87.5113 226.11L88.6895 224.25C88.6895 224.25 88.7463 224.123 88.7321 224.052C88.7179 223.981 88.6753 223.924 88.6043 223.881L86.3047 222.419C86.3047 222.419 86.2338 222.334 86.2622 222.263L88.1785 219.24C88.1785 219.24 88.2636 219.169 88.3346 219.197L92.3518 221.738C92.3518 221.738 92.4795 221.795 92.5505 221.781C92.6215 221.766 92.6782 221.724 92.7208 221.667L93.899 219.808C93.899 219.808 93.9558 219.68 93.9416 219.609C93.9274 219.538 93.8848 219.481 93.8138 219.438L87.2416 215.265L87.2558 215.208Z" fill="#F7F7F6"/>
<path d="M107.285 230.326C107.824 228.992 107.838 227.828 107.327 226.834C106.816 225.84 105.851 225.06 104.446 224.478L100.94 223.044C100.869 223.016 100.798 223.016 100.727 223.044C100.656 223.072 100.613 223.115 100.585 223.186L94.7649 237.395C94.7649 237.395 94.7365 237.537 94.7649 237.608C94.7933 237.679 94.8359 237.721 94.9211 237.75L98.8956 239.382C100.145 239.893 101.295 239.964 102.373 239.581C103.452 239.198 104.247 238.36 104.787 237.054C105.411 235.507 105.34 234.116 104.559 232.881C104.531 232.824 104.559 232.782 104.63 232.767C105.837 232.526 106.731 231.717 107.299 230.326H107.285ZM101.99 235.408C101.735 236.018 101.408 236.444 101.011 236.671C100.599 236.898 100.173 236.912 99.7047 236.728L98.7821 236.345C98.7821 236.345 98.6969 236.274 98.7253 236.203L100.258 232.455C100.258 232.455 100.329 232.37 100.4 232.398L101.351 232.782C101.806 232.966 102.089 233.293 102.203 233.761C102.317 234.229 102.26 234.783 102.004 235.393L101.99 235.408ZM104.247 229.46C104.02 229.999 103.708 230.383 103.324 230.567C102.927 230.766 102.501 230.752 102.033 230.567L101.28 230.255C101.209 230.227 101.195 230.184 101.224 230.113L102.572 226.82C102.572 226.82 102.643 226.735 102.714 226.763L103.466 227.075C103.963 227.274 104.261 227.586 104.403 227.998C104.545 228.41 104.488 228.906 104.247 229.474V229.46Z" fill="#F7F7F6"/>
<path d="M118.754 229.148L111.245 227.061C111.174 227.047 111.103 227.061 111.032 227.089C110.961 227.132 110.919 227.189 110.904 227.26L106.788 242.051C106.774 242.122 106.788 242.193 106.816 242.264C106.859 242.335 106.901 242.377 106.987 242.391L114.496 244.478C114.567 244.492 114.638 244.478 114.709 244.45C114.78 244.421 114.822 244.365 114.836 244.279L115.433 242.15C115.461 242.079 115.433 242.008 115.404 241.937C115.362 241.866 115.319 241.824 115.234 241.81L110.663 240.532C110.592 240.518 110.564 240.461 110.592 240.39L111.557 236.912C111.572 236.841 111.628 236.813 111.699 236.827L114.325 237.551C114.396 237.565 114.467 237.551 114.524 237.523C114.595 237.48 114.638 237.437 114.652 237.352L115.234 235.223C115.262 235.152 115.234 235.081 115.205 235.01C115.163 234.939 115.106 234.897 115.035 234.882L112.409 234.158C112.338 234.144 112.31 234.088 112.338 234.017L113.303 230.553C113.332 230.482 113.374 230.454 113.445 230.468L118.016 231.745C118.087 231.76 118.158 231.745 118.229 231.717C118.3 231.674 118.343 231.632 118.357 231.547L118.953 229.417C118.981 229.346 118.953 229.275 118.925 229.204C118.882 229.133 118.839 229.091 118.754 229.077V229.148Z" fill="#F7F7F6"/>
<path d="M127.115 230.596C126.945 230.567 126.831 230.624 126.76 230.766L124.546 235.919C124.546 235.919 124.489 235.975 124.475 235.975C124.446 235.975 124.418 235.947 124.418 235.904L123.85 230.326C123.822 230.17 123.737 230.085 123.566 230.056L120.798 229.63C120.628 229.602 120.543 229.659 120.514 229.801C120.514 229.843 120.514 229.886 120.514 229.914L122.246 239.538V239.68L121.352 245.514C121.352 245.585 121.352 245.656 121.409 245.713C121.465 245.77 121.508 245.812 121.579 245.827L124.205 246.238C124.276 246.238 124.347 246.238 124.404 246.196C124.461 246.153 124.503 246.096 124.503 246.011L125.412 240.177L125.454 240.049L130.025 231.405C130.068 231.305 130.082 231.22 130.025 231.163C129.982 231.107 129.926 231.064 129.84 231.05L127.072 230.624L127.115 230.596Z" fill="#F7F7F6"/>
<path d="M136.015 231.163C134.624 231.107 133.489 231.476 132.637 232.271C131.771 233.051 131.317 234.13 131.274 235.493L131.004 242.761C130.948 244.123 131.331 245.231 132.126 246.068C132.921 246.905 134.028 247.36 135.419 247.417C136.81 247.473 137.946 247.104 138.812 246.309C139.677 245.529 140.146 244.45 140.188 243.087L140.458 235.819C140.515 234.457 140.132 233.349 139.323 232.512C138.513 231.674 137.406 231.206 136.015 231.163ZM136.98 243.101C136.966 243.584 136.824 243.967 136.555 244.251C136.285 244.535 135.944 244.677 135.518 244.663C135.093 244.649 134.766 244.492 134.525 244.18C134.283 243.882 134.17 243.485 134.198 243.002L134.482 235.464C134.496 234.982 134.638 234.599 134.894 234.315C135.149 234.031 135.49 233.889 135.916 233.903C136.342 233.917 136.682 234.073 136.924 234.386C137.165 234.684 137.279 235.081 137.264 235.564L136.98 243.101Z" fill="#F7F7F6"/>
<path d="M152.325 230.723C152.325 230.723 152.197 230.652 152.126 230.666L149.5 230.894C149.429 230.894 149.358 230.936 149.316 230.993C149.273 231.05 149.245 231.121 149.259 231.192L150.04 239.879C150.04 239.879 150.04 239.95 149.983 239.964C149.94 239.964 149.926 239.964 149.898 239.907L146.306 231.39C146.25 231.248 146.136 231.177 145.994 231.192L143.027 231.447C142.957 231.447 142.886 231.49 142.843 231.547C142.8 231.603 142.772 231.674 142.786 231.745L144.12 247.047C144.12 247.118 144.163 247.189 144.22 247.232C144.277 247.274 144.348 247.303 144.419 247.289L147.045 247.062C147.116 247.062 147.187 247.019 147.229 246.962C147.272 246.905 147.3 246.834 147.286 246.763L146.505 238.076C146.505 238.076 146.505 238.005 146.562 237.991C146.605 237.991 146.633 237.991 146.647 238.048L150.21 246.565C150.267 246.707 150.366 246.778 150.522 246.763L153.503 246.508C153.574 246.508 153.645 246.465 153.688 246.409C153.73 246.352 153.759 246.281 153.745 246.21L152.41 230.908C152.41 230.837 152.368 230.766 152.311 230.723H152.325Z" fill="#F7F7F6"/>
<path d="M164.462 232.654C164.178 231.348 163.553 230.397 162.56 229.786C161.58 229.176 160.416 229.02 159.068 229.318L155.051 230.184C154.98 230.198 154.923 230.241 154.88 230.297C154.838 230.354 154.823 230.425 154.838 230.496L158.088 245.5C158.088 245.571 158.145 245.628 158.202 245.671C158.259 245.713 158.33 245.727 158.415 245.713L162.432 244.847C163.78 244.549 164.774 243.925 165.413 242.973C166.066 242.008 166.236 240.887 165.952 239.581L164.448 232.654H164.462ZM162.673 241.44C162.489 241.824 162.205 242.065 161.807 242.164L160.814 242.406C160.743 242.42 160.7 242.406 160.686 242.321L158.528 232.384C158.514 232.313 158.528 232.271 158.613 232.242L159.593 232.029C160.019 231.93 160.402 232.029 160.714 232.299C161.041 232.569 161.254 232.98 161.381 233.548L162.801 240.078C162.9 240.617 162.858 241.071 162.673 241.455V241.44Z" fill="#F7F7F6"/>
<path d="M183.497 235.11C183.497 235.11 183.355 235.081 183.284 235.11L178.869 236.927C178.869 236.927 178.756 236.927 178.727 236.87L173.887 225.06C173.887 225.06 173.816 224.946 173.745 224.918C173.674 224.889 173.603 224.889 173.532 224.918L171.076 225.925C171.076 225.925 170.963 226.011 170.935 226.067C170.906 226.138 170.906 226.209 170.935 226.28L176.769 240.489C176.769 240.489 176.84 240.603 176.911 240.646C176.982 240.688 177.052 240.674 177.123 240.646L184.349 237.679C184.349 237.679 184.462 237.608 184.505 237.537C184.533 237.466 184.533 237.395 184.505 237.324L183.667 235.28C183.667 235.28 183.596 235.166 183.525 235.138L183.497 235.11Z" fill="#F7F7F6"/>
<path d="M183.241 220.673C183.241 220.673 183.156 220.56 183.085 220.546C183.014 220.517 182.943 220.531 182.872 220.56L180.516 221.781C180.516 221.781 180.402 221.866 180.388 221.937C180.36 222.008 180.374 222.079 180.402 222.15L187.457 235.777C187.457 235.777 187.542 235.89 187.613 235.904C187.684 235.933 187.755 235.919 187.826 235.89L190.183 234.67C190.183 234.67 190.296 234.584 190.31 234.513C190.339 234.442 190.325 234.371 190.296 234.3L183.241 220.673Z" fill="#F7F7F6"/>
<path d="M194.356 213.775C194.356 213.775 194.257 213.675 194.186 213.661C194.115 213.647 194.044 213.661 193.987 213.704L191.787 215.152C191.645 215.237 191.588 215.35 191.602 215.492L191.943 219.58C191.943 219.651 191.9 219.68 191.829 219.651L188.167 217.735C188.039 217.678 187.912 217.692 187.784 217.763L185.598 219.197C185.598 219.197 185.498 219.296 185.484 219.367C185.484 219.438 185.484 219.509 185.527 219.566L193.944 232.413C193.944 232.413 194.044 232.512 194.115 232.526C194.186 232.54 194.257 232.526 194.313 232.484L196.542 231.021C196.542 231.021 196.641 230.922 196.656 230.851C196.67 230.78 196.656 230.709 196.613 230.652L191.02 222.121C191.02 222.121 190.978 222.036 191.02 222.022C191.049 222.008 191.077 222.022 191.134 222.022L194.328 223.669C194.455 223.725 194.541 223.739 194.583 223.725C194.626 223.711 194.64 223.612 194.64 223.47L194.399 219.878C194.399 219.878 194.399 219.793 194.441 219.765C194.484 219.737 194.498 219.765 194.526 219.822L200.119 228.353C200.119 228.353 200.219 228.452 200.29 228.466C200.36 228.481 200.431 228.466 200.488 228.424L202.717 226.962C202.717 226.962 202.816 226.862 202.83 226.791C202.845 226.72 202.83 226.649 202.788 226.593L194.37 213.746L194.356 213.775Z" fill="#F7F7F6"/>
<path d="M198.771 210.112C198.771 210.112 198.657 210.027 198.586 210.013C198.515 210.013 198.444 210.013 198.387 210.07L196.315 211.745C196.315 211.745 196.23 211.858 196.216 211.929C196.216 212 196.216 212.071 196.272 212.128L205.953 224.052C205.953 224.052 206.067 224.151 206.138 224.151C206.209 224.151 206.28 224.151 206.337 224.094L208.395 222.419C208.395 222.419 208.48 222.306 208.494 222.235C208.508 222.164 208.494 222.093 208.437 222.036L198.756 210.112H198.771Z" fill="#F7F7F6"/>
<path d="M206.833 206.209C206.833 206.209 206.777 206.095 206.833 206.053L208.863 204.065C208.863 204.065 208.948 203.952 208.948 203.881C208.948 203.81 208.92 203.739 208.863 203.682L207.33 202.106C207.33 202.106 207.217 202.021 207.146 202.021C207.075 202.021 207.004 202.05 206.947 202.106L200.517 208.395C200.517 208.395 200.431 208.508 200.431 208.579C200.431 208.65 200.46 208.721 200.502 208.778L202.05 210.354C202.05 210.354 202.163 210.439 202.234 210.439C202.305 210.439 202.376 210.41 202.433 210.368L204.378 208.466C204.378 208.466 204.491 208.409 204.534 208.466L213.448 217.593C213.448 217.593 213.562 217.678 213.647 217.678C213.718 217.678 213.789 217.65 213.831 217.607L215.734 215.748C215.734 215.748 215.819 215.634 215.819 215.563C215.819 215.492 215.79 215.421 215.734 215.364L206.819 206.237L206.833 206.209Z" fill="#F7F7F6"/>
<path d="M222.959 201.099C222.391 200.644 221.823 200.346 221.255 200.233C220.687 200.105 220.077 200.105 219.438 200.204C218.8 200.304 217.919 200.502 216.784 200.786C215.776 201.056 215.038 201.198 214.584 201.198C214.129 201.198 213.732 201.056 213.377 200.772C213.008 200.474 212.795 200.162 212.738 199.821C212.682 199.48 212.753 199.168 212.98 198.884C213.221 198.586 213.519 198.444 213.888 198.43C214.257 198.43 214.612 198.572 214.981 198.856L215.464 199.239C215.464 199.239 215.592 199.31 215.662 199.296C215.733 199.296 215.804 199.253 215.847 199.197L217.494 197.167C217.494 197.167 217.565 197.039 217.55 196.968C217.536 196.897 217.508 196.826 217.451 196.783L217.025 196.443C216.017 195.619 214.939 195.279 213.803 195.407C212.667 195.534 211.688 196.116 210.85 197.152C210.027 198.175 209.658 199.239 209.743 200.346C209.843 201.454 210.396 202.419 211.39 203.228C212.029 203.739 212.696 204.065 213.377 204.193C214.073 204.321 214.726 204.335 215.35 204.236C215.975 204.136 216.741 203.966 217.636 203.725C218.686 203.441 219.424 203.285 219.864 203.256C220.304 203.228 220.702 203.356 221.057 203.64C221.397 203.923 221.596 204.236 221.653 204.591C221.71 204.945 221.624 205.272 221.397 205.556C221.17 205.84 220.858 205.982 220.489 205.996C220.105 205.996 219.736 205.854 219.382 205.57L218.998 205.258C218.998 205.258 218.871 205.187 218.8 205.201C218.729 205.201 218.672 205.244 218.615 205.3L216.968 207.33C216.968 207.33 216.897 207.458 216.912 207.529C216.912 207.6 216.954 207.671 217.011 207.713L217.522 208.125C218.161 208.636 218.842 208.948 219.552 209.062C220.276 209.176 220.971 209.076 221.667 208.778C222.348 208.48 222.973 207.983 223.526 207.302C224.364 206.266 224.733 205.187 224.634 204.051C224.534 202.916 223.967 201.936 222.93 201.099H222.959Z" fill="#F7F7F6"/>
</g>
<defs>
<clipPath id="clip0_92_8373">
<rect width="279" height="279" fill="white"/>
</clipPath>
</defs>
</svg>
