<svg width="605" height="598" viewBox="0 0 605 598" fill="none" xmlns="http://www.w3.org/2000/svg">
<path opacity="0.5" d="M302.5 0C135.291 0 0 133.726 0 299C0 463.803 135.291 598 302.5 598C469.709 598 605 464.274 605 299C605 133.726 469.232 0 302.5 0ZM410.161 392.232C403.016 380.931 389.677 363.509 364.429 342.32C332.512 314.539 317.744 288.641 308.217 270.748C305.835 266.039 302.5 259.918 300.118 257.093C297.736 260.389 294.402 266.039 292.02 270.748C282.492 288.17 267.724 314.539 235.807 342.32C211.035 363.98 197.22 380.931 190.075 392.232H134.339C138.626 377.635 153.87 346.087 202.461 304.18C227.709 282.52 238.665 262.743 247.24 246.734C252.48 236.846 257.244 228.37 264.39 221.307C274.394 210.948 286.303 205.769 300.594 205.769C314.886 205.769 326.795 210.948 336.799 221.307C343.469 228.37 348.232 236.846 353.949 246.734C363 262.743 373.957 282.52 398.728 304.18C447.319 346.087 462.087 377.635 466.85 392.232H410.161Z" fill="#EFF2F8"/>
</svg>
