<svg width="36" height="33" viewBox="0 0 36 33" fill="none" xmlns="http://www.w3.org/2000/svg">
<path id="Vector" d="M21.9608 13.1047L18.6363 2.91497C18.645 2.98766 18.6356 3.07185 18.6052 3.11862C18.5113 3.25967 18.3675 3.36545 18.2439 3.48635C18.1724 3.36401 18.1009 3.2424 18.0178 3.10063C18.1081 2.91713 18.1818 2.76817 18.2548 2.61849C18.374 2.67966 18.5192 2.71708 18.6023 2.81207C18.6023 2.81207 18.6023 2.81207 18.6023 2.81279L17.848 0.499954L16.8783 3.47195C16.9188 3.54176 16.952 3.60005 16.9809 3.65977C16.986 3.67057 16.9043 3.7267 16.8624 3.76196C16.8436 3.73821 16.8263 3.71374 16.8075 3.69L13.7359 13.1054H0.427734L4.21902 15.8486C4.20745 15.6557 4.14387 15.4665 4.00514 15.2779C3.9813 15.2448 4.068 15.0915 4.13592 15.039C4.16482 15.0167 4.32812 15.093 4.34546 15.1505C4.43145 15.4377 4.95386 15.537 4.65328 15.9544C4.66556 16.0371 4.67857 16.1141 4.69157 16.1904L8.59196 19.0127C8.39181 18.8443 8.11796 18.4349 8.17143 18.2794C8.23573 18.0923 8.43733 17.9549 8.51826 17.8649C8.91639 17.8887 9.31452 18.4054 9.21553 18.6853C9.15556 18.8558 8.93373 18.9983 8.75237 19.0818C8.71769 19.0976 8.6606 19.0688 8.59485 19.0149L11.1932 20.8952L7.08108 33.5L17.8473 25.7094L28.6134 33.5L26.9739 28.4742C26.9682 28.4807 26.9638 28.485 26.958 28.4915C26.8858 28.3806 26.8251 28.3094 26.7969 28.2274C26.7926 28.2151 26.8301 28.177 26.867 28.1482L24.5006 20.8952L35.2668 13.1047H21.9586H21.9608ZM3.57304 14.0172C3.52607 14.0287 3.4596 13.9546 3.40179 13.9179C3.4437 13.8488 3.48561 13.7797 3.5557 13.6645C3.63301 13.7603 3.7125 13.8185 3.70527 13.8603C3.69444 13.9215 3.62868 14.0035 3.57304 14.0172ZM11.5855 20.2497C11.5306 20.1166 11.4837 20.0346 11.4685 19.9468C11.4634 19.9194 11.5458 19.8762 11.5877 19.8403C11.6296 19.9194 11.6831 19.995 11.7076 20.0799C11.7163 20.1087 11.6527 20.1598 11.5855 20.2497ZM12.0046 17.0654C11.902 17.0575 11.8023 17.0151 11.7011 16.987C11.7546 16.9467 11.8066 16.8755 11.863 16.8719C11.9663 16.8654 12.0725 16.8978 12.3168 16.9366C12.1246 17.0201 12.0624 17.0712 12.0046 17.0662V17.0654ZM16.0423 12.0174C16.0987 12.0541 16.2049 12.0944 16.2027 12.1267C16.1948 12.2304 16.1471 12.3311 16.0849 12.529C16.0076 12.3836 15.9491 12.3239 15.9534 12.2699C15.9606 12.1836 16.0105 12.1016 16.043 12.0174H16.0423ZM16.1514 18.1175C16.0604 18.1657 15.9729 18.2319 15.8754 18.2542C15.8335 18.2636 15.7721 18.183 15.72 18.1434C15.8154 18.0621 15.9021 17.9606 16.0112 17.9074C16.0625 17.8822 16.1565 17.9484 16.2309 17.9736C16.2042 18.0218 16.1781 18.0693 16.1514 18.1175ZM16.7663 8.39123C16.6615 8.1919 16.5459 7.99688 16.4621 7.78891C16.4477 7.75221 16.5676 7.65938 16.7099 7.49531C16.8017 7.75797 16.8877 7.92204 16.9086 8.09475C16.9195 8.18614 16.8176 8.29192 16.7663 8.39123ZM19.3683 23.5434C19.3047 23.3887 19.2447 23.2325 19.1818 23.072C19.2382 22.972 19.2801 22.8986 19.3213 22.8245C19.3552 22.8921 19.413 22.9569 19.4188 23.0267C19.4333 23.1951 19.4232 23.3656 19.4196 23.5355C19.4196 23.5384 19.369 23.547 19.3675 23.5427L19.3683 23.5434ZM26.3735 29.4543C26.44 29.6601 26.4927 29.7803 26.5101 29.9055C26.5144 29.9393 26.4103 29.9882 26.3554 30.03C26.3063 29.9436 26.2246 29.8594 26.2167 29.7688C26.2102 29.6939 26.2904 29.6112 26.3735 29.4543ZM25.2492 14.4079C25.2514 14.3647 25.3699 14.2841 25.4096 14.2985C25.4681 14.3194 25.5028 14.4101 25.5816 14.5159C25.4818 14.5511 25.4024 14.6072 25.3619 14.5864C25.3055 14.5576 25.2463 14.4676 25.2499 14.4079H25.2492Z" fill="#2B364B"/>
</svg>
