<svg width="303" height="34" viewBox="0 0 303 34" fill="none" xmlns="http://www.w3.org/2000/svg">
<g clip-path="url(#clip0_5488_10396)">
<path d="M169.895 13.6048L173.219 3.41507C173.211 3.48775 173.22 3.57194 173.25 3.61872C173.344 3.75976 173.488 3.86554 173.612 3.98644C173.683 3.8641 173.755 3.74249 173.838 3.60073C173.747 3.41723 173.674 3.26827 173.601 3.11859C173.481 3.17975 173.336 3.21717 173.253 3.31216C173.253 3.31216 173.253 3.31216 173.253 3.31288L174.007 1.00005L174.977 3.97205C174.937 4.04185 174.903 4.10014 174.875 4.15987C174.87 4.17066 174.951 4.22679 174.993 4.26205C175.012 4.2383 175.029 4.21384 175.048 4.19009L178.12 13.6055H191.428L187.636 16.3487C187.648 16.1558 187.712 15.9666 187.85 15.778C187.874 15.7449 187.787 15.5916 187.72 15.5391C187.691 15.5168 187.527 15.5931 187.51 15.6506C187.424 15.9378 186.902 16.0371 187.202 16.4544C187.19 16.5372 187.177 16.6142 187.164 16.6905L183.264 19.5128C183.464 19.3444 183.738 18.935 183.684 18.7795C183.62 18.5924 183.418 18.455 183.337 18.365C182.939 18.3888 182.541 18.9055 182.64 19.1854C182.7 19.3559 182.922 19.4984 183.103 19.5819C183.138 19.5977 183.195 19.5689 183.261 19.515L180.662 21.3953L184.774 34L174.008 26.2095L163.242 34L164.882 28.9743C164.887 28.9807 164.892 28.9851 164.897 28.9915C164.97 28.8807 165.03 28.8095 165.059 28.7274C165.063 28.7152 165.025 28.6771 164.988 28.6483L167.355 21.3953L156.589 13.6048H169.897H169.895ZM188.282 14.5173C188.329 14.5288 188.396 14.4546 188.454 14.4179C188.412 14.3489 188.37 14.2798 188.3 14.1646C188.222 14.2604 188.143 14.3186 188.15 14.3604C188.161 14.4215 188.227 14.5036 188.282 14.5173ZM180.27 20.7498C180.325 20.6167 180.372 20.5347 180.387 20.4469C180.392 20.4195 180.31 20.3763 180.268 20.3404C180.226 20.4195 180.172 20.4951 180.148 20.58C180.139 20.6088 180.203 20.6599 180.27 20.7498ZM179.851 17.5655C179.953 17.5576 180.053 17.5152 180.154 17.4871C180.101 17.4468 180.049 17.3756 179.992 17.372C179.889 17.3655 179.783 17.3979 179.539 17.4367C179.731 17.5202 179.793 17.5713 179.851 17.5663V17.5655ZM175.813 12.5174C175.757 12.5541 175.651 12.5944 175.653 12.6268C175.661 12.7305 175.708 12.8312 175.771 13.0291C175.848 12.8837 175.906 12.824 175.902 12.77C175.895 12.6837 175.845 12.6016 175.812 12.5174H175.813ZM175.704 18.6176C175.795 18.6658 175.883 18.732 175.98 18.7543C176.022 18.7637 176.083 18.6831 176.135 18.6435C176.04 18.5622 175.953 18.4607 175.844 18.4075C175.793 18.3823 175.699 18.4485 175.625 18.4737C175.651 18.5219 175.677 18.5694 175.704 18.6176ZM175.089 8.89132C175.194 8.69199 175.31 8.49697 175.393 8.289C175.408 8.2523 175.288 8.15947 175.146 7.9954C175.054 8.25806 174.968 8.42213 174.947 8.59484C174.936 8.68623 175.038 8.79201 175.089 8.89132ZM172.487 24.0435C172.551 23.8888 172.611 23.7326 172.674 23.5721C172.617 23.4721 172.575 23.3987 172.534 23.3246C172.5 23.3922 172.442 23.457 172.437 23.5268C172.422 23.6952 172.432 23.8657 172.436 24.0356C172.436 24.0384 172.486 24.0471 172.488 24.0428L172.487 24.0435ZM165.482 29.9544C165.416 30.1602 165.363 30.2804 165.345 30.4056C165.341 30.4394 165.445 30.4883 165.5 30.5301C165.549 30.4437 165.631 30.3595 165.639 30.2689C165.645 30.194 165.565 30.1113 165.482 29.9544ZM166.606 14.908C166.604 14.8648 166.486 14.7842 166.446 14.7986C166.387 14.8195 166.353 14.9102 166.274 15.0159C166.374 15.0512 166.453 15.1073 166.494 15.0865C166.55 15.0577 166.609 14.9677 166.606 14.908H166.606Z" fill="#2B364B"/>
<path d="M169.895 13.6048L173.219 3.41507C173.211 3.48775 173.22 3.57194 173.25 3.61872C173.344 3.75976 173.488 3.86554 173.612 3.98644C173.683 3.8641 173.755 3.74249 173.838 3.60073C173.747 3.41723 173.674 3.26827 173.601 3.11859C173.481 3.17975 173.336 3.21717 173.253 3.31216C173.253 3.31216 173.253 3.31216 173.253 3.31288L174.007 1.00005L174.977 3.97205C174.937 4.04185 174.903 4.10014 174.875 4.15987C174.87 4.17066 174.951 4.22679 174.993 4.26205C175.012 4.2383 175.029 4.21384 175.048 4.19009L178.12 13.6055H191.428L187.636 16.3487C187.648 16.1558 187.712 15.9666 187.85 15.778C187.874 15.7449 187.787 15.5916 187.72 15.5391C187.691 15.5168 187.527 15.5931 187.51 15.6506C187.424 15.9378 186.902 16.0371 187.202 16.4544C187.19 16.5372 187.177 16.6142 187.164 16.6905L183.264 19.5128C183.464 19.3444 183.738 18.935 183.684 18.7795C183.62 18.5924 183.418 18.455 183.337 18.365C182.939 18.3888 182.541 18.9055 182.64 19.1854C182.7 19.3559 182.922 19.4984 183.103 19.5819C183.138 19.5977 183.195 19.5689 183.261 19.515L180.662 21.3953L184.774 34L174.008 26.2095L163.242 34L164.882 28.9743C164.887 28.9807 164.892 28.9851 164.897 28.9915C164.97 28.8807 165.03 28.8095 165.059 28.7274C165.063 28.7152 165.025 28.6771 164.988 28.6483L167.355 21.3953L156.589 13.6048H169.897H169.895ZM188.282 14.5173C188.329 14.5288 188.396 14.4546 188.454 14.4179C188.412 14.3489 188.37 14.2798 188.3 14.1646C188.222 14.2604 188.143 14.3186 188.15 14.3604C188.161 14.4215 188.227 14.5036 188.282 14.5173ZM180.27 20.7498C180.325 20.6167 180.372 20.5347 180.387 20.4469C180.392 20.4195 180.31 20.3763 180.268 20.3404C180.226 20.4195 180.172 20.4951 180.148 20.58C180.139 20.6088 180.203 20.6599 180.27 20.7498ZM179.851 17.5655C179.953 17.5576 180.053 17.5152 180.154 17.4871C180.101 17.4468 180.049 17.3756 179.992 17.372C179.889 17.3655 179.783 17.3979 179.539 17.4367C179.731 17.5202 179.793 17.5713 179.851 17.5663V17.5655ZM175.813 12.5174C175.757 12.5541 175.651 12.5944 175.653 12.6268C175.661 12.7305 175.708 12.8312 175.771 13.0291C175.848 12.8837 175.906 12.824 175.902 12.77C175.895 12.6837 175.845 12.6016 175.812 12.5174H175.813ZM175.704 18.6176C175.795 18.6658 175.883 18.732 175.98 18.7543C176.022 18.7637 176.083 18.6831 176.135 18.6435C176.04 18.5622 175.953 18.4607 175.844 18.4075C175.793 18.3823 175.699 18.4485 175.625 18.4737C175.651 18.5219 175.677 18.5694 175.704 18.6176ZM175.089 8.89132C175.194 8.69199 175.31 8.49697 175.393 8.289C175.408 8.2523 175.288 8.15947 175.146 7.9954C175.054 8.25806 174.968 8.42213 174.947 8.59484C174.936 8.68623 175.038 8.79201 175.089 8.89132ZM172.487 24.0435C172.551 23.8888 172.611 23.7326 172.674 23.5721C172.617 23.4721 172.575 23.3987 172.534 23.3246C172.5 23.3922 172.442 23.457 172.437 23.5268C172.422 23.6952 172.432 23.8657 172.436 24.0356C172.436 24.0384 172.486 24.0471 172.488 24.0428L172.487 24.0435ZM165.482 29.9544C165.416 30.1602 165.363 30.2804 165.345 30.4056C165.341 30.4394 165.445 30.4883 165.5 30.5301C165.549 30.4437 165.631 30.3595 165.639 30.2689C165.645 30.194 165.565 30.1113 165.482 29.9544ZM166.606 14.908C166.604 14.8648 166.486 14.7842 166.446 14.7986C166.387 14.8195 166.353 14.9102 166.274 15.0159C166.374 15.0512 166.453 15.1073 166.494 15.0865C166.55 15.0577 166.609 14.9677 166.606 14.908H166.606Z" fill="#2B364B"/>
<path d="M113.467 13.6048L116.791 3.41507C116.783 3.48775 116.792 3.57194 116.823 3.61872C116.916 3.75976 117.06 3.86554 117.184 3.98644C117.255 3.8641 117.327 3.74249 117.41 3.60073C117.32 3.41723 117.246 3.26827 117.173 3.11859C117.054 3.17975 116.908 3.21717 116.825 3.31216C116.825 3.31216 116.825 3.31216 116.825 3.31288L117.58 1.00005L118.549 3.97205C118.509 4.04185 118.476 4.10014 118.447 4.15987C118.442 4.17066 118.523 4.22679 118.565 4.26205C118.584 4.2383 118.601 4.21384 118.62 4.19009L121.692 13.6055H135L131.209 16.3487C131.22 16.1558 131.284 15.9666 131.423 15.778C131.446 15.7449 131.36 15.5916 131.292 15.5391C131.263 15.5168 131.1 15.5931 131.082 15.6506C130.996 15.9378 130.474 16.0371 130.774 16.4544C130.762 16.5372 130.749 16.6142 130.736 16.6905L126.836 19.5128C127.036 19.3444 127.31 18.935 127.256 18.7795C127.192 18.5924 126.99 18.455 126.909 18.365C126.511 18.3888 126.113 18.9055 126.212 19.1854C126.272 19.3559 126.494 19.4984 126.675 19.5819C126.71 19.5977 126.767 19.5689 126.833 19.515L124.235 21.3953L128.347 34L117.58 26.2095L106.814 34L108.454 28.9743C108.46 28.9807 108.464 28.9851 108.47 28.9915C108.542 28.8807 108.603 28.8095 108.631 28.7274C108.635 28.7152 108.598 28.6771 108.561 28.6483L110.927 21.3953L100.161 13.6048H113.469H113.467ZM131.855 14.5173C131.902 14.5288 131.968 14.4546 132.026 14.4179C131.984 14.3489 131.942 14.2798 131.872 14.1646C131.795 14.2604 131.715 14.3186 131.722 14.3604C131.733 14.4215 131.799 14.5036 131.855 14.5173ZM123.842 20.7498C123.897 20.6167 123.944 20.5347 123.959 20.4469C123.964 20.4195 123.882 20.3763 123.84 20.3404C123.798 20.4195 123.745 20.4951 123.72 20.58C123.711 20.6088 123.775 20.6599 123.842 20.7498ZM123.423 17.5655C123.526 17.5576 123.625 17.5152 123.727 17.4871C123.673 17.4468 123.621 17.3756 123.565 17.372C123.461 17.3655 123.355 17.3979 123.111 17.4367C123.303 17.5202 123.365 17.5713 123.423 17.5663V17.5655ZM119.385 12.5174C119.329 12.5541 119.223 12.5944 119.225 12.6268C119.233 12.7305 119.281 12.8312 119.343 13.0291C119.42 12.8837 119.479 12.824 119.474 12.77C119.467 12.6837 119.417 12.6016 119.385 12.5174H119.385ZM119.276 18.6176C119.367 18.6658 119.455 18.732 119.552 18.7543C119.594 18.7637 119.656 18.6831 119.708 18.6435C119.612 18.5622 119.526 18.4607 119.417 18.4075C119.365 18.3823 119.271 18.4485 119.197 18.4737C119.224 18.5219 119.25 18.5694 119.276 18.6176ZM118.661 8.89132C118.766 8.69199 118.882 8.49697 118.966 8.289C118.98 8.2523 118.86 8.15947 118.718 7.9954C118.626 8.25806 118.54 8.42213 118.519 8.59484C118.508 8.68623 118.61 8.79201 118.661 8.89132ZM116.059 24.0435C116.123 23.8888 116.183 23.7326 116.246 23.5721C116.19 23.4721 116.148 23.3987 116.106 23.3246C116.072 23.3922 116.015 23.457 116.009 23.5268C115.994 23.6952 116.005 23.8657 116.008 24.0356C116.008 24.0384 116.059 24.0471 116.06 24.0428L116.059 24.0435ZM109.054 29.9544C108.988 30.1602 108.935 30.2804 108.918 30.4056C108.913 30.4394 109.017 30.4883 109.072 30.5301C109.121 30.4437 109.203 30.3595 109.211 30.2689C109.218 30.194 109.137 30.1113 109.054 29.9544ZM110.179 14.908C110.176 14.8648 110.058 14.7842 110.018 14.7986C109.96 14.8195 109.925 14.9102 109.846 15.0159C109.946 15.0512 110.025 15.1073 110.066 15.0865C110.122 15.0577 110.181 14.9677 110.178 14.908H110.179Z" fill="#2B364B"/>
<path d="M57.0392 13.6048L60.3637 3.41507C60.355 3.48775 60.3644 3.57194 60.3948 3.61872C60.4887 3.75976 60.6325 3.86554 60.7561 3.98644C60.8276 3.8641 60.8991 3.74249 60.9822 3.60073C60.8919 3.41723 60.8182 3.26827 60.7452 3.11859C60.626 3.17975 60.4808 3.21717 60.3977 3.31216C60.3977 3.31216 60.3977 3.31216 60.3977 3.31288L61.152 1.00005L62.1217 3.97205C62.0812 4.04185 62.048 4.10014 62.0191 4.15987C62.014 4.17066 62.0957 4.22679 62.1376 4.26205C62.1564 4.2383 62.1737 4.21384 62.1925 4.19009L65.2641 13.6055H78.5723L74.781 16.3487C74.7925 16.1558 74.8561 15.9666 74.9949 15.778C75.0187 15.7449 74.932 15.5916 74.8641 15.5391C74.8352 15.5168 74.6719 15.5931 74.6545 15.6506C74.5686 15.9378 74.0461 16.0371 74.3467 16.4544C74.3344 16.5372 74.3214 16.6142 74.3084 16.6905L70.408 19.5128C70.6082 19.3444 70.882 18.935 70.8286 18.7795C70.7643 18.5924 70.5627 18.455 70.4817 18.365C70.0836 18.3888 69.6855 18.9055 69.7845 19.1854C69.8444 19.3559 70.0663 19.4984 70.2476 19.5819C70.2823 19.5977 70.3394 19.5689 70.4052 19.515L67.8068 21.3953L71.9189 34L61.1527 26.2095L50.3866 34L52.0261 28.9743C52.0318 28.9807 52.0362 28.9851 52.042 28.9915C52.1142 28.8807 52.1749 28.8095 52.2031 28.7274C52.2074 28.7152 52.1699 28.6771 52.133 28.6483L54.4994 21.3953L43.7332 13.6048H57.0414H57.0392ZM75.427 14.5173C75.4739 14.5288 75.5404 14.4546 75.5982 14.4179C75.5563 14.3489 75.5144 14.2798 75.4443 14.1646C75.367 14.2604 75.2875 14.3186 75.2947 14.3604C75.3056 14.4215 75.3713 14.5036 75.427 14.5173ZM67.4145 20.7498C67.4694 20.6167 67.5163 20.5347 67.5315 20.4469C67.5366 20.4195 67.4542 20.3763 67.4123 20.3404C67.3704 20.4195 67.3169 20.4951 67.2924 20.58C67.2837 20.6088 67.3473 20.6599 67.4145 20.7498ZM66.9954 17.5655C67.098 17.5576 67.1977 17.5152 67.2989 17.4871C67.2454 17.4468 67.1934 17.3756 67.137 17.372C67.0337 17.3655 66.9275 17.3979 66.6832 17.4367C66.8754 17.5202 66.9376 17.5713 66.9954 17.5663V17.5655ZM62.9577 12.5174C62.9013 12.5541 62.7951 12.5944 62.7973 12.6268C62.8052 12.7305 62.8529 12.8312 62.9151 13.0291C62.9924 12.8837 63.0509 12.824 63.0466 12.77C63.0394 12.6837 62.9895 12.6016 62.957 12.5174H62.9577ZM62.8486 18.6176C62.9396 18.6658 63.0271 18.732 63.1246 18.7543C63.1665 18.7637 63.2279 18.6831 63.28 18.6435C63.1846 18.5622 63.0979 18.4607 62.9888 18.4075C62.9375 18.3823 62.8435 18.4485 62.7691 18.4737C62.7958 18.5219 62.8219 18.5694 62.8486 18.6176ZM62.2337 8.89132C62.3385 8.69199 62.4541 8.49697 62.5379 8.289C62.5523 8.2523 62.4324 8.15947 62.2901 7.9954C62.1983 8.25806 62.1123 8.42213 62.0914 8.59484C62.0805 8.68623 62.1824 8.79201 62.2337 8.89132ZM59.6317 24.0435C59.6953 23.8888 59.7553 23.7326 59.8182 23.5721C59.7618 23.4721 59.7199 23.3987 59.6787 23.3246C59.6448 23.3922 59.587 23.457 59.5812 23.5268C59.5667 23.6952 59.5768 23.8657 59.5804 24.0356C59.5804 24.0384 59.631 24.0471 59.6325 24.0428L59.6317 24.0435ZM52.6265 29.9544C52.56 30.1602 52.5073 30.2804 52.4899 30.4056C52.4856 30.4394 52.5897 30.4883 52.6446 30.5301C52.6937 30.4437 52.7754 30.3595 52.7833 30.2689C52.7898 30.194 52.7096 30.1113 52.6265 29.9544ZM53.7508 14.908C53.7486 14.8648 53.6301 14.7842 53.5904 14.7986C53.5319 14.8195 53.4972 14.9102 53.4184 15.0159C53.5182 15.0512 53.5976 15.1073 53.6381 15.0865C53.6945 15.0577 53.7537 14.9677 53.7501 14.908H53.7508Z" fill="#2B364B"/>
<path d="M287.237 26.8636C287.166 26.7723 287.04 26.7269 286.965 26.6377C286.897 26.5564 286.864 26.4434 286.817 26.3441C286.755 26.4326 286.692 26.5204 286.633 26.6096L286.08 26.2095L280.504 30.2437C280.522 30.1436 280.541 30.0436 280.554 29.9429C280.564 29.8544 280.546 29.6881 280.515 29.6809C280.416 29.6586 280.234 29.6615 280.209 29.7148C280.081 29.9896 279.992 30.2832 279.89 30.5704C279.921 30.5812 279.951 30.592 279.981 30.6028C279.979 30.61 279.979 30.6171 279.978 30.6243L275.314 33.9993L279.426 21.3946L277.35 19.892C277.41 19.887 277.475 19.8597 277.537 19.8438C277.499 19.7503 277.479 19.5891 277.422 19.5733C277.194 19.5121 276.962 19.4696 276.728 19.4423L268.66 13.6048H281.968L282.521 11.9094C282.637 11.854 282.75 11.7863 282.864 11.723C282.799 11.6669 282.731 11.5589 282.673 11.5647C282.659 11.5661 282.645 11.5697 282.632 11.5719L286.08 1.00005L290.192 13.6048H290.605C290.649 13.6364 290.699 13.6731 290.735 13.7034C290.86 13.6724 290.956 13.6415 291.037 13.6048H293.261C293.218 13.6811 293.172 13.7559 293.133 13.8336C293.098 13.9027 293.217 14.0668 293.287 14.1733C293.642 14.7231 293.546 15.3326 293.034 15.7284C292.681 16.0018 292.473 15.9198 292.39 15.4765C292.373 15.3822 292.373 15.2325 292.32 15.2059C291.95 15.0246 292.005 14.6892 291.992 14.369C291.982 14.097 291.839 13.9473 291.57 14.0049C291.446 14.0315 291.335 14.1294 291.219 14.1949C291.283 14.2841 291.367 14.3647 291.407 14.4647C291.51 14.7202 291.644 14.9792 291.667 15.2455C291.688 15.4887 291.782 15.5744 291.969 15.6895C292.297 15.8932 292.571 16.1896 292.901 16.3897C293.197 16.5681 293.534 16.6761 293.862 16.7927C293.89 16.8027 294.016 16.6523 294.024 16.5689C294.039 16.412 294.001 16.2501 293.985 16.0903C294.016 16.0853 294.047 16.0795 294.078 16.0738C294.02 15.7636 293.935 15.4556 293.915 15.1426C293.903 14.9454 293.934 14.6964 294.045 14.5504C294.283 14.238 294.356 13.9365 294.229 13.6026H298.994C299.029 13.635 299.063 13.6674 299.09 13.6983C299.106 13.6645 299.12 13.6357 299.136 13.6026H303.5L292.734 21.3932L296.846 33.9979L294.139 32.0398C294.251 31.9204 294.343 31.78 294.388 31.6016C294.435 31.4174 294.485 31.3094 294.196 31.3411C293.875 31.3756 293.551 31.3792 293.227 31.3799L287.427 27.1839C287.369 27.0731 287.312 26.9601 287.236 26.8622L287.237 26.8636ZM278.877 14.5129C278.877 14.5129 278.798 14.5518 278.733 14.5849C278.817 14.7231 278.886 14.8375 278.955 14.9519C278.989 14.921 279.059 14.8742 279.054 14.8605C279.004 14.7403 278.942 14.6259 278.876 14.5137L278.877 14.5129ZM279.599 25.9253C279.451 26.2016 279.689 26.2239 279.833 26.3563C280.265 26.7535 280.77 26.9385 281.428 27.0112C281.436 26.9291 281.491 26.7723 281.448 26.7363C281.022 26.3779 280.594 26.0174 280.136 25.7044C279.926 25.5611 279.719 25.7029 279.6 25.926L279.599 25.9253ZM282.201 14.5871C282.149 14.5676 282.085 14.5835 281.942 14.5835C281.415 14.9066 281.117 14.4525 280.79 14.0653C280.713 13.9747 280.622 13.8955 280.53 13.8214C280.487 13.7861 280.402 13.7394 280.375 13.7573C280.064 13.9689 280.229 14.3697 280.062 14.6461C280.053 14.6597 280.203 14.8094 280.298 14.8454C280.434 14.8979 280.642 14.854 280.719 14.9425C280.869 15.1153 280.971 15.3441 281.036 15.5664C281.049 15.6118 280.806 15.7276 280.692 15.8241C280.64 15.8687 280.611 15.945 280.572 16.0061C280.64 16.0342 280.719 16.1004 280.771 16.0824C281.111 15.968 281.432 15.8766 281.751 16.168C281.798 16.2112 282.072 16.1098 282.121 16.0119C282.222 15.8111 282.074 15.7636 281.882 15.7356C281.564 15.6895 281.59 15.5305 281.812 15.3513C281.981 15.2146 282.148 15.0742 282.312 14.9303C282.379 14.8713 282.435 14.7993 282.497 14.7331C282.399 14.6828 282.304 14.6238 282.202 14.5849L282.201 14.5871ZM281.8 17.9606C281.807 18.0326 281.882 18.098 281.962 18.2161C282.042 18.0952 282.133 18.016 282.122 17.9577C282.11 17.8951 282.007 17.8275 281.934 17.8109C281.898 17.803 281.795 17.9117 281.8 17.9599V17.9606ZM282.5 21.5838C282.38 21.4198 282.271 21.2464 282.143 21.0895C282.088 21.0226 281.997 20.9527 281.92 20.9492C281.829 20.9448 281.735 21.0118 281.643 21.047C281.681 21.0866 281.72 21.1262 281.758 21.165C281.754 21.4133 282.251 21.7659 282.519 21.7033C282.545 21.6968 282.567 21.6731 282.591 21.658C282.56 21.6335 282.523 21.6141 282.501 21.5838H282.5ZM282.437 25.8058C282.413 25.7929 282.283 25.9037 282.291 25.9346C282.311 26.0145 282.381 26.0807 282.459 26.193C282.531 26.098 282.617 26.0253 282.605 25.9915C282.577 25.9166 282.508 25.844 282.438 25.8058H282.437ZM283.44 25.6086C283.61 25.6741 283.696 25.7425 283.749 25.7216C283.947 25.6446 284.14 25.5496 284.322 25.4374C284.403 25.387 284.515 25.2172 284.505 25.2078C284.392 25.0884 284.173 24.8768 284.144 24.9005C283.91 25.0891 283.711 25.323 283.44 25.6086ZM284.523 18.6306C284.419 18.6615 284.27 18.6586 284.221 18.7291C284.101 18.9055 284.026 19.1149 283.907 19.3646C283.995 19.379 284.077 19.4193 284.108 19.3941C284.258 19.2689 284.418 19.1436 284.526 18.9839C284.579 18.9047 284.527 18.7507 284.523 18.6306ZM284.685 26.683C284.64 26.7125 284.596 26.7428 284.519 26.7931C284.612 26.9176 284.691 27.0248 284.771 27.1321C284.807 27.0954 284.879 27.0421 284.872 27.0256C284.819 26.9068 284.75 26.796 284.685 26.683ZM285.804 24.8286C285.72 25.0222 285.64 25.1171 285.661 25.1747C285.703 25.2949 285.799 25.3949 285.873 25.5036C285.91 25.4259 285.984 25.3438 285.976 25.2719C285.962 25.1567 285.893 25.0481 285.804 24.8286ZM297.61 17.2856C297.774 17.21 297.938 17.1352 298.102 17.0596C298.069 17.0172 298.019 16.9323 298.004 16.9387C297.851 17.0021 297.704 17.0791 297.557 17.1518C297.584 17.2216 297.597 17.2539 297.61 17.2856ZM296.613 18.2477C296.719 18.1916 296.817 18.1175 296.98 18.0045C296.846 17.9361 296.768 17.8671 296.735 17.885C296.644 17.934 296.566 18.0139 296.501 18.0966C296.491 18.1096 296.602 18.2535 296.613 18.2484L296.613 18.2477ZM294.765 17.8008C295.014 17.6814 295.284 17.5828 295.491 17.4079C295.732 17.205 295.939 17.0287 296.269 17.1849C296.313 17.2057 296.397 17.1402 296.464 17.1143C296.402 17.0798 296.338 17.0129 296.278 17.0157C295.941 17.0337 295.883 16.8495 295.919 16.5581C295.936 16.4213 295.955 16.2364 295.884 16.1457C295.735 15.9529 295.527 15.8075 295.342 15.6427C295.28 15.814 295.214 15.9831 295.157 16.1558C295.113 16.2882 295.079 16.4242 295.04 16.5566C295.061 16.643 295.082 16.7207 295.099 16.7984C295.219 17.3597 295.217 17.3576 294.686 17.6526C294.628 17.685 294.593 17.7605 294.547 17.816C294.62 17.8116 294.704 17.8296 294.765 17.8001V17.8008ZM293.079 27.992C293.112 27.9524 293.179 27.9042 293.172 27.874C293.149 27.7754 293.099 27.6833 293.029 27.5192C292.948 27.6351 292.868 27.7106 292.881 27.7351C292.931 27.8294 293.011 27.9078 293.078 27.992H293.079ZM292.998 17.8088C293.191 17.98 293.313 17.9491 293.409 17.7454C293.479 17.5965 293.505 17.4259 293.551 17.2655C293.412 17.2288 293.272 17.1921 293.133 17.1554C293.112 17.1978 293.091 17.2403 293.07 17.2827C292.948 17.1942 292.782 17.1323 292.711 17.0121C292.54 16.7207 292.4 16.7991 292.292 17.028C292.164 17.2971 292.073 17.585 291.978 17.8685C291.965 17.9073 292.02 17.97 292.043 18.021C292.073 18.0067 292.129 17.9887 292.128 17.9771C292.103 17.7339 292.119 17.4885 292.433 17.5346C292.631 17.5641 292.844 17.672 292.998 17.8073V17.8088ZM292.276 20.4274C292.287 20.4015 292.219 20.3137 292.212 20.3173C292.085 20.3699 291.961 20.4325 291.766 20.5267C292 20.7016 292.054 20.7419 292.108 20.7822C292.166 20.6649 292.23 20.5498 292.277 20.4282L292.276 20.4274ZM291.891 27.0385C291.925 26.9622 291.959 26.8867 291.978 26.8457C291.908 26.6269 291.856 26.4621 291.803 26.2973C291.743 26.4556 291.642 26.6139 291.638 26.7737C291.637 26.8601 291.802 26.95 291.891 27.0385ZM289.266 12.1756C289.185 12.2922 289.08 12.3908 289.098 12.4325C289.135 12.5189 289.232 12.5966 289.32 12.6326C289.351 12.6448 289.492 12.5038 289.481 12.4685C289.449 12.3735 289.362 12.298 289.266 12.1749V12.1756ZM288.865 15.6168C288.917 15.6082 288.972 15.5852 289.016 15.5528C289.13 15.4657 289.305 15.2714 289.341 15.2959C289.529 15.424 289.695 15.5945 289.837 15.7751C289.925 15.8874 289.923 16.104 290.025 16.1702C290.197 16.281 290.419 16.3127 290.623 16.3659C290.641 16.371 290.708 16.2889 290.708 16.2472C290.704 15.5614 289.888 14.9066 289.248 15.103C289.065 15.1591 288.92 15.3426 288.759 15.4657C288.824 15.5593 288.85 15.6183 288.866 15.6154L288.865 15.6168ZM287.508 25.8497C287.437 25.8763 287.372 25.9015 287.307 25.9267C287.436 25.9807 287.562 26.057 287.696 26.0807C287.769 26.0937 287.857 26.0188 287.937 25.9836C287.798 25.9404 287.659 25.8965 287.508 25.8497Z" fill="#2B364B"/>
<path d="M212.624 13.6048H217.689C217.627 13.6523 217.559 13.694 217.493 13.7386C217.404 13.7991 217.342 13.9041 217.268 13.9883C217.359 14.0466 217.445 14.1136 217.539 14.1625C217.714 14.2532 217.893 14.3309 218.069 14.4179C218.567 14.6641 219.024 14.5417 219.463 14.2568C219.508 14.2273 219.536 14.1697 219.572 14.1251C219.511 14.0833 219.453 14.015 219.386 14.0042C219.076 13.9552 218.763 13.8977 218.451 13.8898C218.151 13.8826 218.052 13.7825 218.077 13.6041H225.931L227.928 7.48304C228.107 7.53269 228.152 7.3787 228.163 6.85122C228.163 6.85194 228.157 6.83251 228.149 6.80588L229.754 1.88517L229.899 1.44189L230.043 0.999329L230.184 1.4311L230.358 1.96361L234.035 13.2342C233.845 13.3925 233.668 13.5702 233.495 13.7487C233.462 13.7825 233.443 13.8602 233.457 13.9041C233.471 13.9466 233.536 13.9725 233.614 14.033C233.825 13.8926 234.034 13.7523 234.239 13.6048H239.877C239.91 13.6501 239.941 13.6983 239.973 13.7465C240.01 13.6983 240.047 13.6523 240.084 13.6048H247.463L245.998 14.6648C245.983 14.6302 245.97 14.5943 245.956 14.5597C245.922 14.6302 245.89 14.6979 245.857 14.767L236.697 21.3946L240.321 32.5033C240.259 32.5608 240.199 32.6162 240.131 32.6796C240.276 32.8156 240.353 32.8868 240.429 32.9581C240.438 32.9422 240.446 32.9264 240.455 32.9113L240.81 34L230.809 26.7636C230.815 26.76 230.82 26.755 230.826 26.7514C230.79 26.7089 230.756 26.6312 230.72 26.6305C230.697 26.6305 230.669 26.6384 230.644 26.6434L230.045 26.2102L229.489 26.6125C229.436 26.5715 229.382 26.5298 229.296 26.4635C229.157 26.5801 229.035 26.683 228.913 26.7859C228.977 26.8205 229.061 26.9004 229.1 26.8816C229.136 26.8644 229.169 26.8406 229.203 26.8198L219.279 34.0008L223.391 21.396L212.625 13.6055L212.624 13.6048ZM243.632 15.0498C243.81 14.8835 243.974 14.7022 244.141 14.5245C244.05 14.469 243.917 14.3438 243.875 14.3705C243.699 14.482 243.55 14.6389 243.344 14.8209C243.505 14.9497 243.622 15.0591 243.632 15.0498ZM242.38 14.9944C242.482 14.8799 242.585 14.7655 242.712 14.623C242.614 14.5151 242.525 14.4021 242.516 14.4079C242.383 14.5036 242.259 14.6144 242.133 14.7223C242.215 14.813 242.297 14.9037 242.379 14.9936L242.38 14.9944ZM240.299 15.6636C240.319 15.6161 240.363 15.5614 240.353 15.5211C240.309 15.3405 240.25 15.1635 240.196 14.9857C240.139 15.0275 240.082 15.0685 239.995 15.1318C240.108 15.329 240.203 15.4966 240.299 15.6643V15.6636ZM239.339 17.5072C239.523 17.3914 239.71 17.2784 239.875 17.1388C239.936 17.0877 239.979 16.9481 239.954 16.8776C239.929 16.8078 239.788 16.715 239.731 16.7351C239.49 16.8171 239.258 16.9301 239.032 17.0496C238.979 17.0776 238.959 17.1748 238.936 17.218C239.023 17.431 239.047 17.6922 239.339 17.5072ZM238.101 18.0837C238.171 17.9966 238.237 17.9498 238.231 17.9181C238.209 17.8088 238.163 17.7044 238.126 17.5986C238.073 17.6389 237.971 17.6871 237.976 17.7195C237.991 17.8275 238.044 17.9304 238.1 18.0837H238.101ZM228.413 9.33173C228.331 9.44974 228.26 9.51163 228.246 9.58503C228.237 9.63468 228.308 9.70017 228.344 9.75846C228.408 9.69009 228.487 9.62964 228.53 9.54977C228.545 9.5217 228.476 9.4447 228.412 9.33101L228.413 9.33173ZM229.003 9.30582C229.169 9.17989 229.355 9.03668 229.437 8.8539C229.497 8.72077 229.434 8.50633 229.371 8.35017C229.353 8.30556 229.072 8.29404 229.044 8.34442C228.924 8.56246 228.853 8.80857 228.741 9.10649C228.821 9.16981 228.975 9.32597 229.002 9.30582H229.003ZM228.747 13.7768C228.777 13.9214 228.837 14.0603 228.91 14.2776C229.001 14.1395 229.089 14.0567 229.074 14.0186C229.017 13.8797 228.925 13.7552 228.847 13.6257C228.811 13.6767 228.739 13.7358 228.748 13.7768H228.747ZM229.406 12.9593C229.529 13.0262 229.646 13.1126 229.777 13.15C229.824 13.1629 229.902 13.055 229.967 13.0025C229.852 12.9615 229.737 12.9204 229.621 12.8787C229.538 12.9096 229.472 12.9348 229.405 12.9593H229.406ZM229.574 5.93371C229.384 5.90349 229.28 5.48971 229.053 5.75309C228.884 5.94811 228.744 6.22732 229.001 6.50221C229.051 6.55546 229.043 6.66628 229.06 6.75047C229.08 6.85122 229.098 6.95268 229.116 7.05415C229.178 6.94477 229.244 6.83827 229.298 6.72529C229.31 6.69938 229.277 6.65117 229.254 6.57921C229.186 6.32806 229.34 6.21364 229.579 6.1496C229.645 6.13161 229.702 6.07692 229.762 6.0395C229.699 6.0028 229.64 5.94451 229.574 5.93443L229.574 5.93371ZM229.671 10.6968C229.743 10.8415 229.835 10.976 230.001 11.2459C230.062 11.0847 230.115 11.0113 230.098 10.9811C230.009 10.8328 229.902 10.6968 229.803 10.5558C229.757 10.604 229.662 10.6767 229.672 10.6961L229.671 10.6968ZM230.842 8.11198C230.83 7.95511 230.793 7.79247 230.732 7.64927C230.701 7.57731 230.586 7.49815 230.514 7.50319C230.455 7.50751 230.404 7.62984 230.391 7.64711C230.353 7.98533 230.664 8.28541 230.291 8.50849C230.28 8.51568 230.272 8.52936 230.263 8.53943C230.301 8.54519 230.338 8.54879 230.375 8.55814C230.624 8.62363 231.002 8.8244 231.095 8.73085C231.356 8.46459 230.862 8.36456 230.843 8.1127L230.842 8.11198ZM235.757 26.0123C235.775 26.026 235.947 25.8907 235.937 25.8598C235.902 25.7461 235.82 25.6482 235.727 25.4978C235.625 25.6166 235.505 25.7151 235.52 25.7454C235.572 25.8504 235.661 25.944 235.757 26.0123ZM234.528 17.5972C234.68 17.6418 234.955 17.6987 234.991 17.6368C235.216 17.2475 235.39 16.8258 235.606 16.3616C235.473 16.1565 235.378 15.8694 235.253 15.855C235.093 15.837 234.828 15.9968 234.752 16.1529C234.561 16.543 234.442 16.9719 234.319 17.3928C234.306 17.4389 234.442 17.5727 234.527 17.5972H234.528ZM234.079 16.0342C234.173 15.9615 234.236 15.8478 234.311 15.7492C234.238 15.7125 234.154 15.6341 234.094 15.6499C234.004 15.6737 233.929 15.7643 233.806 15.8579C233.937 15.9442 234.055 16.0529 234.08 16.0342H234.079ZM233.595 22.2768C233.644 22.2812 233.7 22.2034 233.753 22.1624C233.703 22.1077 233.654 22.0538 233.573 21.9652C233.508 22.0473 233.465 22.1005 233.423 22.1538C233.48 22.1977 233.535 22.2711 233.595 22.2768ZM233.519 16.3717C233.466 16.2141 233.447 16.0277 233.351 15.9068C233.236 15.7629 233.061 15.66 232.895 15.5729C232.845 15.5463 232.739 15.6319 232.575 15.7017C232.794 15.8946 232.944 16.0479 233.114 16.1709C233.235 16.258 233.383 16.3055 233.519 16.371V16.3717ZM232.743 21.4349C232.632 21.3881 232.52 21.3068 232.408 21.3061C232.33 21.3054 232.251 21.4133 232.172 21.4723C232.26 21.5572 232.348 21.6421 232.486 21.7745C232.598 21.627 232.67 21.5306 232.742 21.4349H232.743ZM231.163 25.9785C231.616 26.5593 231.801 26.5506 232.233 25.9656C232.265 25.9224 232.303 25.8648 232.299 25.8173C232.274 25.528 232.249 25.238 232.199 24.9524C232.181 24.8516 232.095 24.7631 232.014 24.6235C231.931 24.7206 231.84 24.7833 231.848 24.8243C231.912 25.1301 231.839 25.1977 231.517 25.1632C231.349 25.1452 231.112 25.346 230.994 25.5122C230.939 25.5885 231.061 25.849 231.162 25.9778L231.163 25.9785ZM230.84 13.2047C230.91 13.3443 231.007 13.4702 231.094 13.6012C231.134 13.5429 231.22 13.4659 231.206 13.4299C231.147 13.2781 231.059 13.1385 230.923 12.8845C230.869 13.0795 230.819 13.1615 230.84 13.2047ZM231.143 12.1281C231.427 12.0173 231.704 11.8856 231.912 11.795C232.412 12.0346 232.486 11.5676 232.744 11.4776C232.72 11.4272 232.702 11.338 232.671 11.3322C232.283 11.2675 231.884 11.2473 231.507 11.1444C231.358 11.1034 231.202 10.9062 231.143 10.7443C231.034 10.445 231.015 10.1125 230.921 9.80667C230.793 9.39505 230.527 9.31805 230.244 9.60374C230.172 9.67714 230.116 9.86064 230.155 9.9398C230.279 10.1873 230.437 10.4219 230.608 10.6393C230.955 11.0789 230.915 11.3934 230.458 11.6993C230.361 11.7647 230.285 11.8633 230.193 11.9367C230.092 12.0166 229.981 12.0842 229.875 12.1569C230.024 12.2418 230.182 12.4109 230.319 12.3944C230.6 12.3591 230.874 12.2346 231.144 12.1289L231.143 12.1281ZM230.102 25.3158C230.226 25.2452 230.347 25.1639 230.459 25.074C230.475 25.061 230.443 24.9847 230.434 24.9372C230.288 25.0243 230.143 25.1114 229.97 25.2157C230.029 25.2618 230.085 25.3251 230.103 25.315L230.102 25.3158ZM230.197 14.9958C230.285 14.8972 230.426 14.7324 230.397 14.6648C230.342 14.5417 230.184 14.4079 230.059 14.3964C229.974 14.3892 229.845 14.5712 229.788 14.6943C229.743 14.7921 229.78 14.9289 229.78 15.0483C229.772 15.0483 229.766 15.0483 229.759 15.0483C229.766 15.1469 229.773 15.2448 229.78 15.3434C229.837 15.2757 229.884 15.1958 229.952 15.1419C230.026 15.0822 230.137 15.0634 230.197 14.9951V14.9958ZM228.674 22.279C228.963 22.3474 229.296 22.053 229.309 21.6609C229.282 21.6414 229.151 21.5155 229.131 21.532C228.898 21.7235 228.373 21.3766 228.371 21.9393C228.371 22.0566 228.549 22.2488 228.674 22.2783V22.279ZM228.173 20.1043C228.773 20.082 229.234 20.0151 229.577 19.6337C229.695 19.5027 229.823 19.3653 229.887 19.2063C229.932 19.0961 229.919 18.904 229.849 18.8227C229.798 18.7637 229.61 18.8141 229.488 18.84C229.322 18.8745 229.162 18.9551 228.995 18.9745C228.659 19.0134 228.111 19.5099 228.075 19.8647C228.066 19.959 228.156 20.0633 228.174 20.1043H228.173ZM227.541 22.2488C227.621 22.179 227.672 22.0761 227.735 21.9861C227.682 21.9753 227.616 21.9393 227.58 21.9595C227.488 22.0106 227.41 22.0861 227.242 22.22C227.415 22.2401 227.507 22.2783 227.542 22.2488H227.541ZM226.884 14.4446C226.944 14.3971 227.005 14.3496 227.065 14.3021C227.082 14.2632 227.12 14.1941 227.113 14.1891C227.011 14.1107 226.903 14.0409 226.794 13.9739C226.793 13.9732 226.735 14.0351 226.742 14.0553C226.784 14.187 226.835 14.315 226.884 14.4446ZM220.094 16.6286C220.019 16.7236 219.964 16.792 219.909 16.8596C219.97 16.8898 220.043 16.9582 220.089 16.9423C220.16 16.9186 220.213 16.8373 220.273 16.7804C220.222 16.7365 220.17 16.6926 220.094 16.6286ZM222.521 15.9745C222.417 16.0284 222.348 16.1573 222.264 16.253C222.372 16.2134 222.48 16.1724 222.589 16.1357C222.732 16.0882 222.874 16.04 223.019 16.0011C223.11 15.9766 223.205 15.9687 223.298 15.9536C223.193 15.9198 223.087 15.8852 223.001 15.8579C222.82 15.8982 222.656 15.9061 222.521 15.9752V15.9745ZM223.213 14.4482C223.184 14.4086 223.111 14.4021 223.058 14.3805C223.07 14.4439 223.069 14.5137 223.095 14.5698C223.15 14.69 223.226 14.8008 223.28 14.9217C223.31 14.9879 223.313 15.0663 223.329 15.139C223.363 15.0498 223.398 14.9605 223.45 14.8267C223.376 14.7051 223.302 14.5698 223.212 14.4475L223.213 14.4482ZM225.285 20.9204C225.326 20.9333 225.397 20.852 225.454 20.8131C225.352 20.7448 225.251 20.6764 225.171 20.6224C225.025 20.6663 224.935 20.6937 224.844 20.7203C224.99 20.7894 225.133 20.87 225.285 20.9196L225.285 20.9204ZM223.493 28.8678C223.611 28.6828 223.739 28.5022 223.842 28.3086C223.866 28.2619 223.808 28.1697 223.758 27.9934C223.506 28.2705 223.35 28.3806 223.294 28.5303C223.266 28.6058 223.42 28.7534 223.492 28.8678H223.493ZM223.279 25.8404C223.387 25.9677 223.507 26.085 223.664 26.2441C223.737 26.1232 223.81 26.0224 223.8 26.0131C223.678 25.8965 223.545 25.79 223.407 25.6936C223.399 25.6885 223.273 25.8332 223.279 25.8404Z" fill="#2B364B"/>
</g>
<defs>
<clipPath id="clip0_5488_10396">
<rect width="303" height="33" fill="white" transform="matrix(-1 0 0 1 303 0.500092)"/>
</clipPath>
</defs>
</svg>
