<svg width="42" height="42" viewBox="0 0 42 42" fill="none" xmlns="http://www.w3.org/2000/svg">
<path id="Vector" d="M21 0C9.39213 0 0 9.39213 0 21C0 32.5748 9.39213 42 21 42C32.6079 42 42 32.6079 42 21C42 9.39213 32.5748 0 21 0ZM28.474 27.548C27.978 26.7543 27.052 25.5307 25.2992 24.0425C23.0835 22.0913 22.0583 20.2724 21.3968 19.0157C21.2315 18.685 21 18.2551 20.8346 18.0567C20.6693 18.2882 20.4378 18.685 20.2724 19.0157C19.611 20.2394 18.5858 22.0913 16.3701 24.0425C14.6504 25.5638 13.6913 26.7543 13.1953 27.548H9.32598C9.62362 26.5228 10.6819 24.3071 14.0551 21.3638C15.8079 19.8425 16.5685 18.4535 17.1638 17.3291C17.5276 16.6346 17.8583 16.0394 18.3543 15.5433C19.0488 14.8157 19.8756 14.452 20.8677 14.452C21.8598 14.452 22.6866 14.8157 23.3811 15.5433C23.8441 16.0394 24.1748 16.6346 24.5717 17.3291C25.2 18.4535 25.9606 19.8425 27.6803 21.3638C31.0535 24.3071 32.0787 26.5228 32.4094 27.548H28.474Z" fill="#2B364B"/>
</svg>
