<svg width="17" height="18" viewBox="0 0 17 18" fill="none" xmlns="http://www.w3.org/2000/svg">
<path fill-rule="evenodd" clip-rule="evenodd" d="M16.246 1.40255C17.2678 2.50729 17.3258 4.31123 15.9576 5.68494L4.93696 16.7495C4.45845 17.2299 3.80831 17.5 3.13025 17.5H1.70326C0.758174 17.5 0 16.7296 0 15.7933V14.3539C0 13.6793 0.267267 13.0323 0.743291 12.5543L11.7667 1.48695C11.7849 1.46874 11.8038 1.45136 11.8235 1.43487C12.5942 0.790078 13.4294 0.481789 14.2355 0.500831C15.0387 0.519802 15.7478 0.863883 16.246 1.40255ZM12.9425 2.71549C13.4399 2.3083 13.8743 2.19277 14.1954 2.20036C14.5254 2.20815 14.8029 2.34594 14.998 2.55685C15.3628 2.95126 15.518 3.7173 14.7531 4.48526L14.2212 5.0193L12.4309 3.22904L12.9425 2.71549ZM13.0215 6.22377L11.2313 4.43351L1.94776 13.754C1.78909 13.9133 1.7 14.129 1.7 14.3539V15.7933L1.70013 15.7953L1.70028 15.7958C1.70039 15.796 1.7006 15.7964 1.70094 15.797C1.70133 15.7975 1.70187 15.7983 1.7026 15.799L1.70373 15.8H3.13025C3.35627 15.8 3.57298 15.71 3.73249 15.5498L13.0215 6.22377ZM8.5 16.65C8.5 16.1805 8.88056 15.8 9.35 15.8H16.15C16.6194 15.8 17 16.1805 17 16.65C17 17.1194 16.6194 17.5 16.15 17.5H9.35C8.88056 17.5 8.5 17.1194 8.5 16.65Z" fill="#455C81"/>
</svg>
