<svg width="16" height="16" viewBox="0 0 16 16" fill="none" xmlns="http://www.w3.org/2000/svg">
<g id="user">
<path id="Vector" d="M14.9996 11.733V13.69C15.0003 13.8717 14.963 14.0515 14.8901 14.218C14.8172 14.3845 14.7102 14.5339 14.5761 14.6567C14.442 14.7795 14.2836 14.873 14.1111 14.9312C13.9387 14.9894 13.756 15.0111 13.5747 14.9947C11.5633 14.7766 9.63128 14.0907 7.93379 12.992C6.35449 11.9905 5.01552 10.6541 4.01197 9.07797C2.90731 7.37614 2.21986 5.43855 2.00531 3.42217C1.98897 3.24177 2.01045 3.05996 2.06838 2.88831C2.12631 2.71665 2.21942 2.55892 2.34178 2.42514C2.46413 2.29137 2.61306 2.18449 2.77907 2.1113C2.94509 2.03812 3.12455 2.00023 3.30604 2.00006H5.26695C5.58416 1.99695 5.89169 2.10906 6.13221 2.31549C6.37273 2.52193 6.52983 2.80861 6.57422 3.12209C6.65699 3.74838 6.81048 4.36332 7.03177 4.95517C7.11971 5.18866 7.13874 5.44241 7.08661 5.68637C7.03448 5.93032 6.91337 6.15425 6.73763 6.33161L5.90751 7.16008C6.838 8.79325 8.19292 10.1455 9.82933 11.0741L10.6595 10.2457C10.8372 10.0703 11.0615 9.9494 11.306 9.89737C11.5504 9.84534 11.8047 9.86434 12.0386 9.95211C12.6317 10.173 13.2478 10.3261 13.8753 10.4087C14.1929 10.4534 14.4828 10.6131 14.6901 10.8572C14.8974 11.1014 15.0076 11.4131 14.9996 11.733Z" stroke="#2B364B" stroke-linecap="round" stroke-linejoin="round"/>
</g>
</svg>
