<svg width="16" height="16" viewBox="0 0 16 16" fill="none" xmlns="http://www.w3.org/2000/svg">
<g id="edit (1)" clip-path="url(#clip0_296_6176)">
<path id="Vector" d="M7.33594 2.66699H2.66927C2.31565 2.66699 1.97651 2.80747 1.72646 3.05752C1.47641 3.30756 1.33594 3.6467 1.33594 4.00033V13.3337C1.33594 13.6873 1.47641 14.0264 1.72646 14.2765C1.97651 14.5265 2.31565 14.667 2.66927 14.667H12.0026C12.3562 14.667 12.6954 14.5265 12.9454 14.2765C13.1955 14.0264 13.3359 13.6873 13.3359 13.3337V8.66699" stroke="#5C80B6" stroke-linecap="round" stroke-linejoin="round"/>
<path id="Vector_2" d="M12.3359 1.66714C12.6012 1.40193 12.9609 1.25293 13.3359 1.25293C13.711 1.25293 14.0707 1.40193 14.3359 1.66714C14.6012 1.93236 14.7502 2.29207 14.7502 2.66714C14.7502 3.04222 14.6012 3.40193 14.3359 3.66714L8.0026 10.0005L5.33594 10.6671L6.0026 8.00048L12.3359 1.66714Z" stroke="#5C80B6" stroke-linecap="round" stroke-linejoin="round"/>
</g>
<defs>
<clipPath id="clip0_296_6176">
<rect width="16" height="16" fill="white"/>
</clipPath>
</defs>
</svg>
