<svg width="32" height="32" viewBox="0 0 32 32" fill="none" xmlns="http://www.w3.org/2000/svg">
    <path fill-rule="evenodd" clip-rule="evenodd" d="M16 3.2C8.93075 3.2 3.2 8.93075 3.2 16C3.2 23.0692 8.93075 28.8 16 28.8C23.0692 28.8 28.8 23.0692 28.8 16C28.8 8.93075 23.0692 3.2 16 3.2ZM0 16C0 7.16344 7.16344 0 16 0C24.8366 0 32 7.16344 32 16C32 24.8366 24.8366 32 16 32C7.16344 32 0 24.8366 0 16Z" fill="var(--color-primary)"/>
    <path fill-rule="evenodd" clip-rule="evenodd" d="M21.931 11.6688C22.5558 12.2937 22.5558 13.3067 21.931 13.9316L16.0385 19.824C15.1334 20.7292 13.6658 20.7292 12.7607 19.824C12.7604 19.8238 12.7602 19.8235 12.7599 19.8233L10.0682 17.1316C9.4434 16.5067 9.4434 15.4937 10.0682 14.8688C10.6931 14.244 11.7061 14.244 12.331 14.8688L14.3996 16.9375L19.6682 11.6688C20.2931 11.044 21.3061 11.044 21.931 11.6688Z" fill="var(--color-primary)"/>
</svg>
