<svg width="74" height="74" viewBox="0 0 74 74" fill="none" xmlns="http://www.w3.org/2000/svg">
<g id="Group 1410103584">
<g id="Ellipse 16" filter="url(#filter0_d_834_6960)">
<circle cx="37" cy="29" r="21" fill="#2B364B"/>
</g>
<path id="Vector" d="M37 8C25.3921 8 16 17.3921 16 29C16 40.5748 25.3921 50 37 50C48.6079 50 58 40.6079 58 29C58 17.3921 48.5748 8 37 8ZM44.474 35.548C43.978 34.7543 43.052 33.5307 41.2992 32.0425C39.0835 30.0913 38.0583 28.2724 37.3968 27.0157C37.2315 26.685 37 26.2551 36.8346 26.0567C36.6693 26.2882 36.4378 26.685 36.2724 27.0157C35.611 28.2394 34.5858 30.0913 32.3701 32.0425C30.6504 33.5638 29.6913 34.7543 29.1953 35.548H25.326C25.6236 34.5228 26.6819 32.3071 30.0551 29.3638C31.8079 27.8425 32.5685 26.4535 33.1638 25.3291C33.5276 24.6346 33.8583 24.0394 34.3543 23.5433C35.0488 22.8157 35.8756 22.452 36.8677 22.452C37.8598 22.452 38.6866 22.8157 39.3811 23.5433C39.8441 24.0394 40.1748 24.6346 40.5717 25.3291C41.2 26.4535 41.9606 27.8425 43.6803 29.3638C47.0535 32.3071 48.0787 34.5228 48.4094 35.548H44.474Z" fill="white"/>
</g>
<defs>
<filter id="filter0_d_834_6960" x="0" y="0" width="74" height="74" filterUnits="userSpaceOnUse" color-interpolation-filters="sRGB">
<feFlood flood-opacity="0" result="BackgroundImageFix"/>
<feColorMatrix in="SourceAlpha" type="matrix" values="0 0 0 0 0 0 0 0 0 0 0 0 0 0 0 0 0 0 127 0" result="hardAlpha"/>
<feOffset dy="8"/>
<feGaussianBlur stdDeviation="8"/>
<feComposite in2="hardAlpha" operator="out"/>
<feColorMatrix type="matrix" values="0 0 0 0 0 0 0 0 0 0 0 0 0 0 0 0 0 0 0.3 0"/>
<feBlend mode="normal" in2="BackgroundImageFix" result="effect1_dropShadow_834_6960"/>
<feBlend mode="normal" in="SourceGraphic" in2="effect1_dropShadow_834_6960" result="shape"/>
</filter>
</defs>
</svg>
