<svg xmlns="http://www.w3.org/2000/svg" width="24" height="24" viewBox="0 0 24 24" fill="none">
    <path opacity="0.1" d="M22.8002 12.0002C22.8002 17.9649 17.9649 22.8002 12.0002 22.8002C6.03552 22.8002 1.2002 17.9649 1.2002 12.0002C1.2002 6.03552 6.03552 1.2002 12.0002 1.2002C17.9649 1.2002 22.8002 6.03552 22.8002 12.0002Z" fill="var(--color-primary)"/>
    <path fill-rule="evenodd" clip-rule="evenodd" d="M12 2.4C6.69807 2.4 2.4 6.69807 2.4 12C2.4 17.3019 6.69807 21.6 12 21.6C17.3019 21.6 21.6 17.3019 21.6 12C21.6 6.69807 17.3019 2.4 12 2.4ZM0 12C0 5.37258 5.37258 0 12 0C18.6274 0 24 5.37258 24 12C24 18.6274 18.6274 24 12 24C5.37258 24 0 18.6274 0 12Z" fill="var(--color-primary)"/>
    <path fill-rule="evenodd" clip-rule="evenodd" d="M16.4487 8.75186C16.9174 9.22049 16.9174 9.98029 16.4487 10.4489L12.0294 14.8683C11.3505 15.5471 10.2499 15.5471 9.57101 14.8683C9.57082 14.8681 9.57063 14.8679 9.57045 14.8677L7.55167 12.8489C7.08304 12.3803 7.08304 11.6205 7.55167 11.1519C8.0203 10.6832 8.78009 10.6832 9.24872 11.1519L10.8002 12.7033L14.7517 8.75186C15.2203 8.28323 15.9801 8.28323 16.4487 8.75186Z" fill="var(--color-primary)"/>
</svg>