<svg width="29" height="31" viewBox="0 0 29 31" fill="none" xmlns="http://www.w3.org/2000/svg">
<path d="M6.17074 30.7203H22.8275C25.7509 30.7203 28.1291 28.3927 28.1291 25.5315V10.0203C28.1291 9.51431 27.7061 9.10031 27.1891 9.10031H21.5491V7.72031C21.5491 3.91611 18.386 0.820312 14.4991 0.820312C10.6122 0.820312 7.44914 3.91611 7.44914 7.72031V9.10031H1.80914C1.29214 9.10031 0.869141 9.51431 0.869141 10.0203V25.5315C0.869141 28.3927 3.24734 30.7203 6.17074 30.7203ZM9.32914 7.72031C9.32914 4.92811 11.6462 2.66031 14.4991 2.66031C17.352 2.66031 19.6691 4.92811 19.6691 7.72031V9.10031H9.32914V7.72031ZM2.74914 10.9403H7.44914V13.2403C7.44914 13.7463 7.87214 14.1603 8.38914 14.1603C8.90614 14.1603 9.32914 13.7463 9.32914 13.2403V10.9403H19.6691V13.2403C19.6691 13.7463 20.0921 14.1603 20.6091 14.1603C21.1261 14.1603 21.5491 13.7463 21.5491 13.2403V10.9403H26.2491V25.5315C26.2491 27.3761 24.7122 28.8803 22.8275 28.8803H6.17074C4.28604 28.8803 2.74914 27.3761 2.74914 25.5315V10.9403Z" fill="white"/>
</svg>
