<svg width="30" height="29" viewBox="0 0 30 29" fill="none" xmlns="http://www.w3.org/2000/svg">
    <g clipPath="url(#clip0_3_3356)">
        <path d="M20.5018 6.8639C22.4617 6.63983 24.4592 6.09112 26.0301 4.8449C26.2885 4.65788 26.4941 4.41263 26.6963 4.16856C26.442 3.13642 25.9492 2.1625 25.2555 1.35796C24.8652 0.89864 24.4158 0.459906 23.8416 0.246419C22.8789 -0.119977 21.8195 -0.0170565 20.8287 0.165848C18.2898 0.67398 15.9174 1.76023 13.4213 2.42362C10.6562 3.17406 7.83262 3.70866 4.98438 4.0186C7.34336 5.05309 9.81953 5.80941 12.3391 6.33166C15.0186 6.86919 17.7748 7.15678 20.5018 6.8639Z" fill="white"/>
        <path d="M4.32656 11.1054C4.34473 10.7325 4.36758 10.3602 4.39453 9.98796C3.83965 9.798 3.27422 9.63391 2.69531 9.53511C2.14746 9.44866 1.65176 9.0999 1.37695 8.61824C1.15605 8.23831 1.10273 7.78958 1.06582 7.35908C0.979688 6.08934 1.51992 4.80489 2.46973 3.96447C2.20664 3.81039 1.89023 3.63513 1.58145 3.7704C1.06699 3.99564 0.741211 4.49495 0.498633 4.98074C0.207422 5.58532 0.0515625 6.24872 0 6.91623V7.49376C0.0480469 8.34006 0.342773 9.20694 0.970312 9.798C1.42734 10.2391 2.03086 10.4937 2.64609 10.6167C3.21914 10.7307 3.78164 10.8948 4.32656 11.1054Z" fill="white"/>
        <path d="M29.4173 3.93629C28.8776 3.84513 28.2782 4.01392 27.9056 4.42795C26.9868 5.41893 26.1425 6.47695 25.3462 7.56849C24.6747 8.50301 24.039 9.46811 23.5192 10.4973C22.6802 12.1452 22.3931 13.996 21.7538 15.7198C21.2446 17.1054 20.4829 18.4563 19.3017 19.3732C18.2499 20.1889 16.9128 20.6223 15.5845 20.577C14.4231 20.5359 13.2583 20.1642 12.3378 19.4414C11.5099 18.8074 10.9093 17.9111 10.5401 16.9407C10.2765 16.2403 10.0825 15.5139 9.78778 14.8253C9.48602 14.1042 9.07235 13.4332 8.57313 12.8339C8.57196 13.4208 8.5743 14.0078 8.57138 14.5947C8.55848 14.7847 8.66571 14.9493 8.73837 15.1164C9.13739 16.0197 9.37352 16.9866 9.78602 17.8846C10.488 19.4261 11.8116 20.68 13.4071 21.2487C14.7829 21.7439 16.314 21.7833 17.7149 21.368C19.3063 20.9081 20.6763 19.8137 21.5886 18.4386C22.4827 17.096 23.0007 15.5463 23.429 14.0013C23.6856 13.0897 23.8766 12.1564 24.2294 11.2748C24.4772 10.6443 24.8136 10.0474 25.2431 9.5228C25.7968 8.84 26.4923 8.28658 27.2294 7.81491C27.5516 7.60848 27.8915 7.42911 28.1938 7.19269C29.0599 6.52988 29.7231 5.58301 30.0015 4.52205V4.44559C29.9663 4.15271 29.6868 3.97687 29.4173 3.93629Z" fill="white"/>
        <path d="M2.26134 7.98546C2.34512 8.26541 2.63165 8.3995 2.89356 8.46184C3.43497 8.59416 3.97755 8.72061 4.50841 8.89116C4.62384 7.67376 4.90801 6.47283 5.34864 5.33247C4.73282 5.06723 4.11466 4.8067 3.51407 4.50793C2.41309 5.24014 1.86524 6.71455 2.26134 7.98546Z" fill="white"/>
        <path d="M7.75441 8.46827C7.86339 7.76488 8.00929 7.05796 8.31281 6.41045C7.65187 6.19578 6.99445 5.96995 6.3423 5.72882C5.77511 7.05796 5.5964 8.51237 5.46984 9.94091C5.33156 11.5653 5.35851 13.1973 5.35617 14.8258C5.35675 16.5002 5.35617 18.1745 5.35734 19.8489H7.49894C7.49542 17.5464 7.47492 15.2439 7.49191 12.9421C7.51535 11.4482 7.5423 9.94914 7.75441 8.46827ZM6.29308 11.8035C6.66632 11.6882 7.05773 12.0764 6.9464 12.4522C6.86788 12.848 6.31359 12.9985 6.0464 12.6974C5.75695 12.428 5.90695 11.8852 6.29308 11.8035ZM6.28253 14.4947C6.66574 14.3659 7.07062 14.7758 6.94113 15.1587C6.85089 15.5386 6.3212 15.6786 6.05519 15.3957C5.75988 15.1316 5.89757 14.5853 6.28253 14.4947ZM6.94874 17.8187C6.88077 18.1945 6.37628 18.3692 6.09152 18.1163C5.77745 17.8828 5.85831 17.3323 6.22745 17.2024C6.60538 17.0259 7.06124 17.4176 6.94874 17.8187Z" fill="white"/>
        <path d="M17.5205 8.0419C14.7578 7.95779 12.018 7.47142 9.3584 6.72687C9.13164 7.15972 8.99629 7.63257 8.89902 8.10953C8.6916 9.15402 8.63711 10.2215 8.59375 11.283C9.30625 11.9705 9.9332 12.7539 10.4014 13.6296C10.7605 14.2918 11.0172 15.0028 11.2492 15.718C11.4443 16.3143 11.6406 16.9189 11.9816 17.4506C12.5061 18.2922 13.3123 18.9844 14.2703 19.2673C15.4451 19.6378 16.7635 19.5513 17.8691 19.002C18.9285 18.4598 19.7389 17.5176 20.2563 16.4549C21.1961 14.5388 21.4744 12.3793 22.3563 10.4396C22.9305 9.21577 23.6354 8.05425 24.4475 6.97446C22.2602 7.86899 19.8637 8.10012 17.5205 8.0419Z" fill="white"/>
        <path d="M10.484 23.8822C10.1969 23.4888 9.94844 23.0577 9.57695 22.7354C9.14688 22.3502 8.60196 22.1055 8.0336 22.0167C8.03125 21.8144 8.04238 21.6115 8.02774 21.4092C8.01133 21.1446 7.76582 20.9223 7.50215 20.9293C6.79727 20.9246 6.0918 20.9275 5.38692 20.9275C5.2 20.9187 5.01133 21.0075 4.90938 21.1675C4.75293 21.4216 4.84317 21.7368 4.81973 22.0185C4.01113 22.142 3.25996 22.6019 2.79473 23.2788C2.31074 23.9816 1.73945 24.658 1.5086 25.4978C1.3 26.33 1.58828 27.2568 2.21817 27.8338C2.55625 28.1555 2.99512 28.3331 3.4211 28.5042C4.37969 28.8818 5.41797 29.0365 6.44512 28.993C7.4834 29.0353 8.53223 28.8689 9.49844 28.4813C9.88516 28.3225 10.2818 28.1573 10.5947 27.8703C11.2164 27.3257 11.5246 26.4464 11.374 25.6313C11.2363 24.9808 10.8643 24.4145 10.484 23.8822ZM9.62617 27.2474C8.64766 27.7456 7.53789 27.9679 6.44336 27.9185C5.50879 27.9602 4.56309 27.8161 3.6959 27.4586C3.4586 27.3562 3.20723 27.2692 3.00918 27.0969C2.65 26.794 2.45137 26.2965 2.53457 25.8301C2.68574 25.3343 2.94356 24.8732 3.26406 24.4686C3.52246 24.1351 3.72754 23.7529 4.05508 23.4788C4.27246 23.2894 4.54375 23.1794 4.81914 23.1071C4.83262 23.3441 4.7834 23.5929 4.86192 23.8217C4.94395 24.0269 5.16074 24.1587 5.3793 24.1522C6.08653 24.1545 6.79375 24.1569 7.50098 24.151C7.74942 24.1522 7.98555 23.961 8.02188 23.7117C8.04531 23.5117 8.03067 23.3094 8.03418 23.1089C8.40215 23.203 8.74785 23.3935 9.00508 23.6758C9.49141 24.2469 9.91856 24.8744 10.2145 25.5672C10.5309 26.1624 10.1928 26.9404 9.62617 27.2474Z" fill="white"/>
    </g>
    <defs>
        <clipPath id="clip0_3_3356">
            <rect width="30" height="29" fill="white"/>
        </clipPath>
    </defs>
</svg>
