<svg xmlns="http://www.w3.org/2000/svg" width="64" height="64" viewBox="0 0 64 64" fill="none">
  <g clip-path="url(#clip0_7098_2815)">
    <path d="M4.00405 4.06746C3.43198 4.06746 3.00293 3.6317 3.00293 3.0507C3.00293 2.46969 3.43198 2.03394 4.00405 2.03394C4.57611 2.03394 5.00516 2.46969 5.00516 3.0507C5.00516 3.6317 4.57611 4.06746 4.00405 4.06746Z" fill="#F7F7F6"/>
    <path d="M7.00795 4.06746C6.43589 4.06746 6.00684 3.6317 6.00684 3.0507C6.00684 2.46969 6.43589 2.03394 7.00795 2.03394C7.58002 2.03394 8.00907 2.46969 8.00907 3.0507C8.00907 3.6317 7.58002 4.06746 7.00795 4.06746Z" fill="#F7F7F6"/>
    <path d="M10.0109 4.06746C9.43882 4.06746 9.00977 3.6317 9.00977 3.0507C9.00977 2.46969 9.43882 2.03394 10.0109 2.03394C10.5829 2.03394 11.012 2.46969 11.012 3.0507C11.012 3.6317 10.5829 4.06746 10.0109 4.06746Z" fill="#F7F7F6"/>
    <path d="M62.9989 64.0001H1.00112C0.42905 64.0001 0 63.5643 0 62.9831V5.1579C0 4.57674 0.42905 4.14087 1.00112 4.14087H62.9989C63.5709 4.14087 64 4.57674 64 5.1579V62.9831C64 63.4916 63.5709 64.0001 62.9989 64.0001ZM2.00223 61.9661H61.9978V6.10228H2.00223V61.9661Z" fill="#F7F7F6"/>
    <path d="M1.00112 4.0681C0.42905 4.0681 0 3.63224 0 3.05108C0 1.38025 1.35866 0 3.00335 0C3.57542 0 4.00447 0.435868 4.00447 1.01703C4.00447 1.59818 3.57542 2.03405 3.00335 2.03405C2.43128 2.03405 2.00223 2.46992 2.00223 3.05108C2.00223 3.63224 1.57318 4.0681 1.00112 4.0681Z" fill="#F7F7F6"/>
    <path d="M1.00112 6.10204C0.42905 6.10204 0 5.66617 0 5.08501V3.05096C0 2.4698 0.42905 2.03394 1.00112 2.03394C1.57318 2.03394 2.00223 2.4698 2.00223 3.05096V5.08501C2.00223 5.66617 1.57318 6.10204 1.00112 6.10204Z" fill="#F7F7F6"/>
    <path d="M62.9985 4.0681C62.4264 4.0681 61.9973 3.63224 61.9973 3.05108C61.9973 2.46992 61.5683 2.03405 60.9962 2.03405C60.4242 2.03405 59.9951 1.59818 59.9951 1.01703C59.9951 0.435868 60.4242 0 60.9962 0C62.6409 0 63.9996 1.38025 63.9996 3.05108C63.9996 3.63224 63.499 4.0681 62.9985 4.0681Z" fill="#F7F7F6"/>
    <path d="M62.9992 6.10204C62.4271 6.10204 61.998 5.66617 61.998 5.08501V3.05096C61.998 2.4698 62.4271 2.03394 62.9992 2.03394C63.5712 2.03394 64.0003 2.4698 64.0003 3.05096V5.08501C64.0003 5.66617 63.4997 6.10204 62.9992 6.10204Z" fill="#F7F7F6"/>
    <path d="M60.9964 2.03352H3.00307C2.431 2.03352 2.00195 1.59777 2.00195 1.01676C2.00195 0.435754 2.431 0 3.00307 0H60.9964C61.5684 0 61.9975 0.435754 61.9975 1.01676C61.9975 1.59777 61.5684 2.03352 60.9964 2.03352Z" fill="#F7F7F6"/>
    <path d="M19.0215 56.8802H6.00698C5.43491 56.8802 5.00586 56.4444 5.00586 55.8634C5.00586 55.2824 5.43491 54.8467 6.00698 54.8467H19.0215C19.5936 54.8467 20.0226 55.2824 20.0226 55.8634C20.0226 56.4444 19.5936 56.8802 19.0215 56.8802Z" fill="#F7F7F6"/>
    <path d="M57.9932 56.8802H44.9787C44.4066 56.8802 43.9775 56.4444 43.9775 55.8634C43.9775 55.2824 44.4066 54.8467 44.9787 54.8467H57.9932C58.5652 54.8467 58.9943 55.2824 58.9943 55.8634C58.9943 56.4444 58.5652 56.8802 57.9932 56.8802Z" fill="#F7F7F6"/>
    <path d="M38.4717 56.8802H25.4572C24.8851 56.8802 24.4561 56.4444 24.4561 55.8634C24.4561 55.2824 24.8851 54.8467 25.4572 54.8467H38.4717C39.0438 54.8467 39.4728 55.2824 39.4728 55.8634C39.4728 56.4444 39.0438 56.8802 38.4717 56.8802Z" fill="#F7F7F6"/>
    <path d="M35.5392 59.9315H28.5314C27.9593 59.9315 27.5303 59.4957 27.5303 58.9147C27.5303 58.3337 27.9593 57.8979 28.5314 57.8979H35.5392C36.1113 57.8979 36.5403 58.3337 36.5403 58.9147C36.5403 59.4957 36.0398 59.9315 35.5392 59.9315Z" fill="#F7F7F6"/>
    <path d="M54.9904 59.9315H47.9826C47.4105 59.9315 46.9814 59.4957 46.9814 58.9147C46.9814 58.3337 47.4105 57.8979 47.9826 57.8979H54.9904C55.5625 57.8979 55.9915 58.3337 55.9915 58.9147C55.9915 59.4957 55.5625 59.9315 54.9904 59.9315Z" fill="#F7F7F6"/>
    <path d="M16.0177 59.9312H9.00991C8.43784 59.9312 8.00879 59.4955 8.00879 58.9145C8.00879 58.3335 8.43784 57.8977 9.00991 57.8977H16.0177C16.5898 57.8977 17.0188 58.3335 17.0188 58.9145C17.0188 59.4955 16.5898 59.9312 16.0177 59.9312Z" fill="#F7F7F6"/>
    <path d="M58.9948 42.6425H5.006C4.43393 42.6425 4.00488 42.2066 4.00488 41.6254V9.15326C4.00488 8.5721 4.43393 8.13623 5.006 8.13623H58.9948C59.5669 8.13623 59.9959 8.5721 59.9959 9.15326V41.6254C59.9959 42.2066 59.5669 42.6425 58.9948 42.6425ZM6.00712 40.6084H57.9937V10.1703H6.00712V40.6084Z" fill="#F7F7F6"/>
    <path d="M53.9884 26.442H39.9728C39.4007 26.442 38.9717 26.0062 38.9717 25.4252C38.9717 24.8442 39.4007 24.4084 39.9728 24.4084H53.9884C54.5605 24.4084 54.9896 24.8442 54.9896 25.4252C54.9896 26.0062 54.5605 26.442 53.9884 26.442Z" fill="#F7F7F6"/>
    <path d="M53.9884 23.3909H39.9728C39.4007 23.3909 38.9717 22.9552 38.9717 22.3742C38.9717 21.7932 39.4007 21.3574 39.9728 21.3574H53.9884C54.5605 21.3574 54.9896 21.7932 54.9896 22.3742C54.9896 22.9552 54.5605 23.3909 53.9884 23.3909Z" fill="#F7F7F6"/>
    <path d="M53.9884 20.3399H39.9728C39.4007 20.3399 38.9717 19.9042 38.9717 19.3232C38.9717 18.7422 39.4007 18.3064 39.9728 18.3064H53.9884C54.5605 18.3064 54.9896 18.7422 54.9896 19.3232C54.9896 19.9042 54.5605 20.3399 53.9884 20.3399Z" fill="#F7F7F6"/>
    <path d="M45.9795 29.4932H39.9728C39.4007 29.4932 38.9717 29.0575 38.9717 28.4765C38.9717 27.8955 39.4007 27.4597 39.9728 27.4597H45.9795C46.5516 27.4597 46.9806 27.8955 46.9806 28.4765C46.9806 29.0575 46.5516 29.4932 45.9795 29.4932Z" fill="#F7F7F6"/>
    <path d="M41.975 34.5782H39.9728C39.4007 34.5782 38.9717 34.1424 38.9717 33.5614C38.9717 32.9804 39.4007 32.5447 39.9728 32.5447H41.975C42.5471 32.5447 42.9761 32.9804 42.9761 33.5614C42.9761 34.0698 42.5471 34.5782 41.975 34.5782Z" fill="#F7F7F6"/>
    <path d="M45.9798 33.5614H44.9787C44.4066 33.5614 43.9775 33.1256 43.9775 32.5446C43.9775 31.9636 44.4066 31.5278 44.9787 31.5278H45.9798C46.5518 31.5278 46.9809 31.9636 46.9809 32.5446C46.9809 33.053 46.5518 33.5614 45.9798 33.5614Z" fill="#F7F7F6"/>
    <path d="M45.9794 35.5957C45.6219 35.5957 45.2643 35.3778 45.0498 35.0146L44.0487 32.9805C43.8342 32.472 43.9772 31.8908 44.4777 31.6003C44.9783 31.3823 45.5504 31.5276 45.8364 32.0361L46.8375 34.0702C47.052 34.5787 46.909 35.1599 46.4085 35.4504C46.2654 35.5231 46.1224 35.5957 45.9794 35.5957Z" fill="#F7F7F6"/>
    <path d="M45.9798 35.5953H44.9787C44.4066 35.5953 43.9775 35.1595 43.9775 34.5785C43.9775 33.9975 44.4066 33.5618 44.9787 33.5618H45.9798C46.5518 33.5618 46.9809 33.9975 46.9809 34.5785C46.9809 35.0869 46.5518 35.5953 45.9798 35.5953Z" fill="#F7F7F6"/>
    <path d="M12.5137 52.8128C10.5829 52.8128 9.00977 51.2146 9.00977 49.2532C9.00977 47.2918 10.5829 45.6936 12.5137 45.6936C14.4444 45.6936 16.0176 47.2918 16.0176 49.2532C16.0176 51.2146 14.4444 52.8128 12.5137 52.8128ZM12.5137 47.7277C11.6556 47.7277 11.012 48.3815 11.012 49.2532C11.012 50.1249 11.6556 50.7787 12.5137 50.7787C13.3718 50.7787 14.0154 50.1249 14.0154 49.2532C14.0154 48.3815 13.3718 47.7277 12.5137 47.7277Z" fill="#F7F7F6"/>
    <path d="M32.0361 52.8128C30.1054 52.8128 28.5322 51.2146 28.5322 49.2532C28.5322 47.2918 30.1054 45.6936 32.0361 45.6936C33.9669 45.6936 35.54 47.2918 35.54 49.2532C35.54 51.2146 33.9669 52.8128 32.0361 52.8128ZM32.0361 47.7277C31.178 47.7277 30.5345 48.3815 30.5345 49.2532C30.5345 50.1249 31.178 50.7787 32.0361 50.7787C32.8942 50.7787 33.5378 50.1249 33.5378 49.2532C33.5378 48.3815 32.8227 47.7277 32.0361 47.7277Z" fill="#F7F7F6"/>
    <path d="M51.4854 52.8128C49.5546 52.8128 47.9814 51.2146 47.9814 49.2532C47.9814 47.2918 49.5546 45.6936 51.4854 45.6936C53.4161 45.6936 54.9893 47.2918 54.9893 49.2532C54.9893 51.2146 53.4161 52.8128 51.4854 52.8128ZM51.4854 47.7277C50.6273 47.7277 49.9837 48.3815 49.9837 49.2532C49.9837 50.1249 50.6273 50.7787 51.4854 50.7787C52.3435 50.7787 52.987 50.1249 52.987 49.2532C52.987 48.3815 52.3435 47.7277 51.4854 47.7277Z" fill="#F7F7F6"/>
    <path d="M13.0149 32.5443H5.006C4.43393 32.5443 4.00488 32.1085 4.00488 31.5275C4.00488 30.9465 4.43393 30.5107 5.006 30.5107H13.0149C13.587 30.5107 14.0161 30.9465 14.0161 31.5275C14.0161 32.1085 13.587 32.5443 13.0149 32.5443Z" fill="#F7F7F6"/>
    <path d="M13.0145 32.5449C12.8715 32.5449 12.7285 32.5449 12.5855 32.4722C12.0849 32.2543 11.8704 31.6005 12.1564 31.092L21.095 12.7855C21.3095 12.277 21.9531 12.0591 22.4536 12.3496C22.9542 12.5676 23.1687 13.2214 22.8827 13.7299L13.9441 31.9637C13.7296 32.3269 13.3721 32.5449 13.0145 32.5449Z" fill="#F7F7F6"/>
    <path d="M9.01063 32.5449C8.86761 32.5449 8.7246 32.5449 8.58158 32.4722C8.08102 32.2543 7.8665 31.6005 8.15253 31.092L15.1604 16.8536C15.3749 16.3451 16.0185 16.1272 16.519 16.4177C17.0196 16.6357 17.2341 17.2895 16.9481 17.798L9.94024 32.0364C9.72571 32.3269 9.36817 32.5449 9.01063 32.5449Z" fill="#F7F7F6"/>
    <path d="M24.0274 18.3065C23.6699 18.3065 23.3123 18.0886 23.0978 17.7254L21.0956 13.6573C20.881 13.1488 21.0241 12.5676 21.5246 12.277C22.0252 12.0591 22.5972 12.2044 22.8833 12.7129L24.8855 16.781C25.1 17.2895 24.957 17.8707 24.4565 18.1612C24.3134 18.2339 24.1704 18.3065 24.0274 18.3065Z" fill="#F7F7F6"/>
    <path d="M36.0402 21.3575H35.8257L23.8123 18.3064C23.3117 18.1611 22.9542 17.6526 23.0972 17.0715C23.2402 16.563 23.7408 16.1997 24.3129 16.345L36.3263 19.3961C36.8268 19.5414 37.1844 20.0499 37.0413 20.6311C36.8983 21.0669 36.4693 21.3575 36.0402 21.3575Z" fill="#F7F7F6"/>
    <path d="M34.0388 26.4427C33.8958 26.4427 33.8243 26.4427 33.6812 26.3701C33.1807 26.1522 32.8946 25.571 33.1092 25.0625L35.1114 19.9774C35.3259 19.4689 35.898 19.1783 36.3986 19.3962C36.8991 19.6141 37.1852 20.1953 36.9706 20.7038L34.9684 25.7889C34.7539 26.1522 34.3963 26.4427 34.0388 26.4427Z" fill="#F7F7F6"/>
    <path d="M34.0387 26.4422H24.0275C23.4554 26.4422 23.0264 26.0065 23.0264 25.4255C23.0264 24.8444 23.4554 24.4087 24.0275 24.4087H34.0387C34.6107 24.4087 35.0398 24.8444 35.0398 25.4255C35.0398 26.0065 34.5392 26.4422 34.0387 26.4422Z" fill="#F7F7F6"/>
    <path d="M23.0265 42.6425C22.9788 42.6425 22.9788 42.6425 23.0265 42.6425C22.3829 42.5699 22.0254 42.134 22.0254 41.5528L23.0265 25.2804C23.0265 24.6993 23.5271 24.2634 24.0991 24.336C24.6712 24.336 25.1003 24.8446 25.0287 25.4257L24.0276 41.6981C23.9561 42.2793 23.5271 42.6425 23.0265 42.6425Z" fill="#F7F7F6"/>
    <path d="M19.9517 18.306H16.0187C15.4466 18.306 15.0176 17.8702 15.0176 17.2892C15.0176 16.7082 15.4466 16.2725 16.0187 16.2725H19.9517C20.5237 16.2725 20.9528 16.7082 20.9528 17.2892C20.9528 17.8702 20.5237 18.306 19.9517 18.306Z" fill="#F7F7F6"/>
  </g>
  <defs>
    <clipPath id="clip0_7098_2815">
      <rect width="64" height="64" fill="white"/>
    </clipPath>
  </defs>
</svg>
