<svg xmlns="http://www.w3.org/2000/svg" width="17" height="16" viewBox="0 0 17 16" fill="none">
  <path d="M6.43998 13.78C6.31332 13.78 6.18665 13.7333 6.08665 13.6333C5.89332 13.44 5.89332 13.12 6.08665 12.9267L10.4333 8.58002C10.7533 8.26002 10.7533 7.74002 10.4333 7.42002L6.08665 3.07335C5.89332 2.88002 5.89332 2.56001 6.08665 2.36668C6.27998 2.17335 6.59998 2.17335 6.79332 2.36668L11.14 6.71335C11.48 7.05335 11.6733 7.51335 11.6733 8.00002C11.6733 8.48668 11.4867 8.94668 11.14 9.28668L6.79332 13.6333C6.69332 13.7267 6.56665 13.78 6.43998 13.78Z" fill="#292D32"/>
</svg>