<svg width="26" height="26" viewBox="0 0 26 26" fill="none" xmlns="http://www.w3.org/2000/svg">
<g id="Group 1410103587">
<circle id="Ellipse 16" cx="13" cy="13" r="12" fill="#2B364B"/>
<g id="Vector">
<path d="M13 1C6.36693 1 1 6.36693 1 13C1 19.6142 6.36693 25 13 25C19.6331 25 25 19.6331 25 13C25 6.36693 19.6142 1 13 1ZM17.2709 16.7417C16.9874 16.2882 16.4583 15.589 15.4567 14.7386C14.1906 13.6236 13.6047 12.5843 13.2268 11.8661C13.1323 11.6772 13 11.4315 12.9055 11.3181C12.811 11.4504 12.6787 11.6772 12.5843 11.8661C12.2063 12.5654 11.6205 13.6236 10.3543 14.7386C9.37165 15.6079 8.82362 16.2882 8.54016 16.7417H6.32913C6.49921 16.1559 7.10394 14.8898 9.0315 13.2079C10.0331 12.3386 10.4677 11.5449 10.8079 10.9024C11.0157 10.5055 11.2047 10.1654 11.4882 9.88189C11.885 9.46614 12.3575 9.25827 12.9244 9.25827C13.4913 9.25827 13.9638 9.46614 14.3606 9.88189C14.6252 10.1654 14.8142 10.5055 15.0409 10.9024C15.4 11.5449 15.8346 12.3386 16.8173 13.2079C18.7449 14.8898 19.3307 16.1559 19.5197 16.7417H17.2709Z" fill="white"/>
<path d="M12.4986 11.0275C12.3859 11.1853 12.2427 11.4322 12.1407 11.6352C11.7723 12.3166 11.2197 13.3103 10.0239 14.3633L10.023 14.3641C9.16227 15.1255 8.61131 15.7588 8.27231 16.2417H7.08148C7.4102 15.6275 8.06767 14.7126 9.35954 13.5852C10.4303 12.6558 10.8995 11.798 11.2498 11.1363L11.2508 11.1344C11.46 10.7349 11.6185 10.4587 11.8417 10.2354L11.8418 10.2355L11.8499 10.2271C12.1557 9.90677 12.4988 9.75827 12.9244 9.75827C13.3491 9.75827 13.6917 9.90613 13.997 10.2251C14.2072 10.4509 14.3636 10.7248 14.5897 11.1204L14.6056 11.1483C14.6121 11.1598 14.6185 11.1714 14.625 11.1831C14.9862 11.8297 15.4564 12.6715 16.486 13.5824L16.4886 13.5846C17.7749 14.707 18.4264 15.6215 18.759 16.2417H17.5405C17.208 15.759 16.6688 15.1123 15.7838 14.3604C14.5875 13.306 14.0359 12.3297 13.6716 11.6377C13.5821 11.4591 13.4267 11.1625 13.2896 10.998L12.875 10.5005L12.4986 11.0275ZM13 0.5C6.09079 0.5 0.5 6.09079 0.5 13C0.5 19.8898 6.09027 25.5 13 25.5C19.9092 25.5 25.5 19.9092 25.5 13C25.5 6.09027 19.8898 0.5 13 0.5Z" stroke="#2B364B" stroke-opacity="0.08"/>
</g>
</g>
</svg>
