<svg width="186" height="183" viewBox="0 0 186 183" fill="none" xmlns="http://www.w3.org/2000/svg">
<g clip-path="url(#clip0_2345_12861)">
<path d="M11.5989 12.069C9.9453 12.069 8.70508 10.8295 8.70508 9.17684C8.70508 7.52417 9.9453 6.28467 11.5989 6.28467C13.2526 6.28467 14.4928 7.52417 14.4928 9.17684C14.4928 10.8295 13.2526 12.069 11.5989 12.069Z" fill="#F7F7F6"/>
<path d="M20.2806 12.069C18.6269 12.069 17.3867 10.8295 17.3867 9.17684C17.3867 7.52417 18.6269 6.28467 20.2806 6.28467C21.9342 6.28467 23.1744 7.52417 23.1744 9.17684C23.1744 10.8295 21.9342 12.069 20.2806 12.069Z" fill="#F7F7F6"/>
<path d="M28.9622 12.069C27.3086 12.069 26.0684 10.8295 26.0684 9.17684C26.0684 7.52417 27.3086 6.28467 28.9622 6.28467C30.6158 6.28467 31.8561 7.52417 31.8561 9.17684C31.8561 10.8295 30.6158 12.069 28.9622 12.069Z" fill="#F7F7F6"/>
<path d="M182.13 182.501H2.91729C1.26366 182.501 0.0234375 181.261 0.0234375 179.608V15.168C0.0234375 13.5154 1.26366 12.2759 2.91729 12.2759H182.13C183.783 12.2759 185.023 13.5154 185.023 15.168V179.608C185.023 181.055 183.783 182.501 182.13 182.501ZM5.81115 176.716H179.236V17.8536H5.81115V176.716Z" fill="#F7F7F6"/>
<path d="M2.91729 12.0692C1.26366 12.0692 0.0234375 10.8297 0.0234375 9.17699C0.0234375 4.42557 3.95081 0.500488 8.705 0.500488C10.3586 0.500488 11.5989 1.73999 11.5989 3.39266C11.5989 5.04532 10.3586 6.28482 8.705 6.28482C7.05137 6.28482 5.81115 7.52432 5.81115 9.17699C5.81115 10.8297 4.57092 12.0692 2.91729 12.0692Z" fill="#F7F7F6"/>
<path d="M2.91729 17.8533C1.26366 17.8533 0.0234375 16.6138 0.0234375 14.9612V9.17684C0.0234375 7.52417 1.26366 6.28467 2.91729 6.28467C4.57092 6.28467 5.81115 7.52417 5.81115 9.17684V14.9612C5.81115 16.6138 4.57092 17.8533 2.91729 17.8533Z" fill="#F7F7F6"/>
<path d="M182.129 12.0692C180.475 12.0692 179.235 10.8297 179.235 9.17699C179.235 7.52432 177.995 6.28482 176.341 6.28482C174.687 6.28482 173.447 5.04532 173.447 3.39266C173.447 1.73999 174.687 0.500488 176.341 0.500488C181.095 0.500488 185.023 4.42557 185.023 9.17699C185.023 10.8297 183.576 12.0692 182.129 12.0692Z" fill="#F7F7F6"/>
<path d="M182.13 17.8533C180.477 17.8533 179.236 16.6138 179.236 14.9612V9.17684C179.236 7.52417 180.477 6.28467 182.13 6.28467C183.784 6.28467 185.024 7.52417 185.024 9.17684V14.9612C185.024 16.6138 183.577 17.8533 182.13 17.8533Z" fill="#F7F7F6"/>
<path d="M176.341 6.28482H8.7044C7.05077 6.28482 5.81055 5.04532 5.81055 3.39266C5.81055 1.73999 7.05077 0.500488 8.7044 0.500488H176.341C177.995 0.500488 179.235 1.73999 179.235 3.39266C179.235 5.04532 177.995 6.28482 176.341 6.28482Z" fill="#F7F7F6"/>
<path d="M55.0062 162.256H17.386C15.7324 162.256 14.4922 161.016 14.4922 159.363C14.4922 157.711 15.7324 156.471 17.386 156.471H55.0062C56.6598 156.471 57.9 157.711 57.9 159.363C57.9 161.016 56.6598 162.256 55.0062 162.256Z" fill="#F7F7F6"/>
<path d="M167.66 162.256H130.04C128.387 162.256 127.146 161.016 127.146 159.363C127.146 157.711 128.387 156.471 130.04 156.471H167.66C169.314 156.471 170.554 157.711 170.554 159.363C170.554 161.016 169.314 162.256 167.66 162.256Z" fill="#F7F7F6"/>
<path d="M111.231 162.256H73.6106C71.957 162.256 70.7168 161.016 70.7168 159.363C70.7168 157.711 71.957 156.471 73.6106 156.471H111.231C112.884 156.471 114.125 157.711 114.125 159.363C114.125 161.016 112.884 162.256 111.231 162.256Z" fill="#F7F7F6"/>
<path d="M102.754 170.932H82.4974C80.8437 170.932 79.6035 169.692 79.6035 168.04C79.6035 166.387 80.8437 165.147 82.4974 165.147H102.754C104.408 165.147 105.648 166.387 105.648 168.04C105.648 169.692 104.201 170.932 102.754 170.932Z" fill="#F7F7F6"/>
<path d="M158.979 170.932H138.722C137.068 170.932 135.828 169.692 135.828 168.04C135.828 166.387 137.068 165.147 138.722 165.147H158.979C160.633 165.147 161.873 166.387 161.873 168.04C161.873 169.692 160.633 170.932 158.979 170.932Z" fill="#F7F7F6"/>
<path d="M46.3247 170.932H26.0677C24.4141 170.932 23.1738 169.692 23.1738 168.04C23.1738 166.387 24.4141 165.147 26.0677 165.147H46.3247C47.9783 165.147 49.2185 166.387 49.2185 168.04C49.2185 169.692 47.9783 170.932 46.3247 170.932Z" fill="#F7F7F6"/>
<path d="M170.555 121.765H14.4935C12.8398 121.765 11.5996 120.525 11.5996 118.873V26.5299C11.5996 24.8772 12.8398 23.6377 14.4935 23.6377H170.555C172.209 23.6377 173.449 24.8772 173.449 26.5299V118.873C173.449 120.525 172.209 121.765 170.555 121.765ZM17.3873 115.98H167.661V29.422H17.3873V115.98Z" fill="#F7F7F6"/>
<path d="M156.086 75.6969H115.572C113.918 75.6969 112.678 74.4574 112.678 72.8048C112.678 71.1521 113.918 69.9126 115.572 69.9126H156.086C157.739 69.9126 158.979 71.1521 158.979 72.8048C158.979 74.4574 157.739 75.6969 156.086 75.6969Z" fill="#F7F7F6"/>
<path d="M156.086 67.0202H115.572C113.918 67.0202 112.678 65.7807 112.678 64.128C112.678 62.4753 113.918 61.2358 115.572 61.2358H156.086C157.739 61.2358 158.979 62.4753 158.979 64.128C158.979 65.7807 157.739 67.0202 156.086 67.0202Z" fill="#F7F7F6"/>
<path d="M156.086 58.3439H115.572C113.918 58.3439 112.678 57.1044 112.678 55.4517C112.678 53.7991 113.918 52.5596 115.572 52.5596H156.086C157.739 52.5596 158.979 53.7991 158.979 55.4517C158.979 57.1044 157.739 58.3439 156.086 58.3439Z" fill="#F7F7F6"/>
<path d="M132.935 84.3732H115.572C113.918 84.3732 112.678 83.1337 112.678 81.481C112.678 79.8284 113.918 78.5889 115.572 78.5889H132.935C134.588 78.5889 135.829 79.8284 135.829 81.481C135.829 83.1337 134.588 84.3732 132.935 84.3732Z" fill="#F7F7F6"/>
<path d="M121.359 98.8341H115.572C113.918 98.8341 112.678 97.5946 112.678 95.942C112.678 94.2893 113.918 93.0498 115.572 93.0498H121.359C123.013 93.0498 124.253 94.2893 124.253 95.942C124.253 97.3881 123.013 98.8341 121.359 98.8341Z" fill="#F7F7F6"/>
<path d="M132.934 95.942H130.04C128.387 95.942 127.146 94.7025 127.146 93.0499C127.146 91.3972 128.387 90.1577 130.04 90.1577H132.934C134.588 90.1577 135.828 91.3972 135.828 93.0499C135.828 94.496 134.588 95.942 132.934 95.942Z" fill="#F7F7F6"/>
<path d="M132.934 101.726C131.901 101.726 130.867 101.107 130.247 100.074L127.353 94.2894C126.733 92.8433 127.147 91.1907 128.593 90.3643C130.04 89.7446 131.694 90.1578 132.521 91.6038L135.415 97.3882C136.035 98.8343 135.621 100.487 134.175 101.313C133.761 101.52 133.348 101.726 132.934 101.726Z" fill="#F7F7F6"/>
<path d="M132.934 101.726H130.04C128.387 101.726 127.146 100.487 127.146 98.8341C127.146 97.1814 128.387 95.9419 130.04 95.9419H132.934C134.588 95.9419 135.828 97.1814 135.828 98.8341C135.828 100.28 134.588 101.726 132.934 101.726Z" fill="#F7F7F6"/>
<path d="M36.1968 150.687C30.6158 150.687 26.0684 146.142 26.0684 140.564C26.0684 134.986 30.6158 130.441 36.1968 130.441C41.7779 130.441 46.3253 134.986 46.3253 140.564C46.3253 146.142 41.7779 150.687 36.1968 150.687ZM36.1968 136.226C33.7164 136.226 31.8561 138.085 31.8561 140.564C31.8561 143.043 33.7164 144.902 36.1968 144.902C38.6773 144.902 40.5376 143.043 40.5376 140.564C40.5376 138.085 38.6773 136.226 36.1968 136.226Z" fill="#F7F7F6"/>
<path d="M92.6265 150.687C87.0455 150.687 82.498 146.142 82.498 140.564C82.498 134.986 87.0455 130.441 92.6265 130.441C98.2075 130.441 102.755 134.986 102.755 140.564C102.755 146.142 98.2075 150.687 92.6265 150.687ZM92.6265 136.226C90.1461 136.226 88.2858 138.085 88.2858 140.564C88.2858 143.043 90.1461 144.902 92.6265 144.902C95.107 144.902 96.9673 143.043 96.9673 140.564C96.9673 138.085 94.9003 136.226 92.6265 136.226Z" fill="#F7F7F6"/>
<path d="M148.851 150.687C143.27 150.687 138.723 146.142 138.723 140.564C138.723 134.986 143.27 130.441 148.851 130.441C154.432 130.441 158.98 134.986 158.98 140.564C158.98 146.142 154.432 150.687 148.851 150.687ZM148.851 136.226C146.371 136.226 144.51 138.085 144.51 140.564C144.51 143.043 146.371 144.902 148.851 144.902C151.332 144.902 153.192 143.043 153.192 140.564C153.192 138.085 151.332 136.226 148.851 136.226Z" fill="#F7F7F6"/>
<path d="M37.6443 93.05H14.4935C12.8398 93.05 11.5996 91.8105 11.5996 90.1578C11.5996 88.5051 12.8398 87.2656 14.4935 87.2656H37.6443C39.2979 87.2656 40.5382 88.5051 40.5382 90.1578C40.5382 91.8105 39.2979 93.05 37.6443 93.05Z" fill="#F7F7F6"/>
<path d="M37.6437 93.0498C37.2303 93.0498 36.8169 93.0498 36.4035 92.8432C34.9566 92.2235 34.3365 90.3642 35.1633 88.9182L61.0013 36.8591C61.6214 35.413 63.4817 34.7933 64.9287 35.6196C66.3756 36.2394 66.9957 38.0986 66.1689 39.5447L40.3309 91.3972C39.7108 92.4301 38.6773 93.0498 37.6437 93.0498Z" fill="#F7F7F6"/>
<path d="M26.0695 93.05C25.6561 93.05 25.2427 93.05 24.8293 92.8434C23.3824 92.2237 22.7623 90.3644 23.5891 88.9183L43.8461 48.428C44.4662 46.9819 46.3265 46.3621 47.7734 47.1885C49.2204 47.8082 49.8405 49.6675 49.0137 51.1136L28.7567 91.6039C28.1366 92.4302 27.103 93.05 26.0695 93.05Z" fill="#F7F7F6"/>
<path d="M69.4766 52.5596C68.443 52.5596 67.4095 51.9398 66.7894 50.9069L61.0017 39.3382C60.3816 37.8922 60.795 36.2395 62.2419 35.4132C63.6889 34.7934 65.3425 35.2066 66.1693 36.6527L71.957 48.2213C72.5771 49.6674 72.1637 51.3201 70.7168 52.1464C70.3034 52.353 69.89 52.5596 69.4766 52.5596Z" fill="#F7F7F6"/>
<path d="M104.203 61.2362H103.582L68.8562 52.5597C67.4092 52.1465 66.3757 50.7004 66.7891 49.0478C67.2025 47.6017 68.6495 46.5688 70.3031 46.9819L105.029 55.6584C106.476 56.0716 107.51 57.5177 107.096 59.1704C106.683 60.4099 105.443 61.2362 104.203 61.2362Z" fill="#F7F7F6"/>
<path d="M98.415 75.697C98.0016 75.697 97.7949 75.697 97.3815 75.4904C95.9345 74.8706 95.1077 73.218 95.7278 71.7719L101.516 57.3111C102.136 55.865 103.789 55.0386 105.236 55.6584C106.683 56.2781 107.51 57.9308 106.89 59.3769L101.102 73.8377C100.482 74.8706 99.4485 75.697 98.415 75.697Z" fill="#F7F7F6"/>
<path d="M98.4144 75.6969H69.4759C67.8222 75.6969 66.582 74.4574 66.582 72.8048C66.582 71.1521 67.8222 69.9126 69.4759 69.9126H98.4144C100.068 69.9126 101.308 71.1521 101.308 72.8048C101.308 74.4574 99.8614 75.6969 98.4144 75.6969Z" fill="#F7F7F6"/>
<path d="M66.5833 121.765C66.4455 121.765 66.4455 121.765 66.5833 121.765C64.723 121.559 63.6895 120.319 63.6895 118.666L66.5833 72.3917C66.5833 70.739 68.0302 69.4995 69.6839 69.7061C71.3375 69.7061 72.5777 71.1522 72.371 72.8049L69.4772 119.08C69.2705 120.732 68.0302 121.765 66.5833 121.765Z" fill="#F7F7F6"/>
<path d="M57.6942 52.5597H46.3255C44.6719 52.5597 43.4316 51.3202 43.4316 49.6676C43.4316 48.0149 44.6719 46.7754 46.3255 46.7754H57.6942C59.3478 46.7754 60.5881 48.0149 60.5881 49.6676C60.5881 51.3202 59.3478 52.5597 57.6942 52.5597Z" fill="#F7F7F6"/>
</g>
<defs>
<clipPath id="clip0_2345_12861">
<rect width="185" height="182" fill="white" transform="translate(0.0234375 0.500488)"/>
</clipPath>
</defs>
</svg>
