<svg width="211" height="188" viewBox="0 0 211 188" fill="none" xmlns="http://www.w3.org/2000/svg">
<g id="icons" clip-path="url(#clip0_3268_17619)">
<g id="Group">
<path id="Vector" d="M32.973 98.1397C30.9025 98.1397 29.3496 96.597 29.3496 94.5401C29.3496 78.5989 42.2902 65.7432 58.3365 65.7432C60.407 65.7432 61.9599 67.2859 61.9599 69.3428C61.9599 71.3997 60.407 72.9424 58.3365 72.9424C46.4312 72.9424 36.5963 82.7128 36.5963 94.5401C36.5963 96.597 34.7847 98.1397 32.973 98.1397Z" fill="#F7F7F6"/>
<path id="Vector_2" d="M75.4183 126.937C74.6418 126.937 73.8654 126.679 73.3478 126.165C71.7949 125.137 71.2773 122.823 72.5713 121.28C75.1594 117.68 76.4535 113.309 76.4535 108.938C76.4535 106.882 78.0064 105.339 80.0769 105.339C82.1474 105.339 83.7002 106.882 83.7002 108.938C83.7002 114.852 81.8886 120.509 78.524 125.394C77.7476 126.422 76.4535 126.937 75.4183 126.937Z" fill="#F7F7F6"/>
<path id="Vector_3" d="M11.2327 98.1397C9.16225 98.1397 7.60938 96.597 7.60938 94.5401C7.60938 78.5989 20.55 65.7432 36.5963 65.7432C38.6668 65.7432 40.2197 67.2859 40.2197 69.3428C40.2197 71.3997 38.6668 72.9424 36.5963 72.9424C24.691 72.9424 14.8561 82.7128 14.8561 94.5401C14.8561 96.597 13.3032 98.1397 11.2327 98.1397Z" fill="#F7F7F6"/>
<path id="Vector_4" d="M11.2327 159.359C9.16225 159.359 7.60938 157.816 7.60938 155.759V94.5659C7.60938 92.509 9.16225 90.9663 11.2327 90.9663C13.3032 90.9663 14.8561 92.509 14.8561 94.5659V155.759C14.8561 157.559 13.3032 159.359 11.2327 159.359Z" fill="#F7F7F6"/>
<path id="Vector_5" d="M32.973 137.735C30.9025 137.735 29.3496 136.193 29.3496 134.136V94.54C29.3496 92.4831 30.9025 90.9404 32.973 90.9404C35.0435 90.9404 36.5963 92.4831 36.5963 94.54V134.136C36.5963 135.936 34.7847 137.735 32.973 137.735Z" fill="#F7F7F6"/>
<path id="Vector_6" d="M61.9596 72.9424H36.596C34.5255 72.9424 32.9727 71.3997 32.9727 69.3428C32.9727 67.2859 34.5255 65.7432 36.596 65.7432H61.9596C64.0301 65.7432 65.583 67.2859 65.583 69.3428C65.583 71.3997 63.7713 72.9424 61.9596 72.9424Z" fill="#F7F7F6"/>
<path id="Vector_7" d="M3.98665 166.275C1.91615 166.275 0.363281 164.733 0.363281 162.676C0.363281 160.619 1.91615 159.076 3.98665 159.076C17.9625 159.076 29.3502 147.763 29.3502 133.879C29.3502 131.822 30.9031 130.279 32.9736 130.279C35.0441 130.279 36.597 131.822 36.597 133.879C36.597 151.877 21.8447 166.275 3.98665 166.275Z" fill="#F7F7F6"/>
<path id="Vector_8" d="M3.98665 166.558C1.91615 166.558 0.363281 165.015 0.363281 162.959C0.363281 160.902 1.91615 159.359 3.98665 159.359C6.05714 159.359 7.61001 157.816 7.61001 155.759C7.61001 153.702 9.16289 152.16 11.2334 152.16C13.3039 152.16 14.8567 153.702 14.8567 155.759C14.8567 161.673 9.93932 166.558 3.98665 166.558Z" fill="#F7F7F6"/>
<path id="Vector_9" d="M58.3363 187.873C56.2658 187.873 54.7129 186.33 54.7129 184.273V152.134C54.7129 151.363 54.9717 150.848 55.2305 150.334L72.3121 121.537C73.3473 119.737 75.6767 119.223 77.2295 120.252C79.0412 121.28 79.5588 123.594 78.5236 125.137L61.9596 153.162V184.273C61.9596 186.33 60.1479 187.873 58.3363 187.873Z" fill="#F7F7F6"/>
<path id="Vector_10" d="M43.8441 187.873C41.7736 187.873 40.2207 186.33 40.2207 184.274V126.68C40.2207 124.623 41.7736 123.08 43.8441 123.08C45.9146 123.08 47.4674 124.623 47.4674 126.68V184.274C47.4674 186.33 45.6558 187.873 43.8441 187.873Z" fill="#F7F7F6"/>
<path id="Vector_11" d="M58.3375 187.873H43.8441C41.7736 187.873 40.2207 186.33 40.2207 184.273C40.2207 182.217 41.7736 180.674 43.8441 180.674H58.3375C60.408 180.674 61.9609 182.217 61.9609 184.273C61.9609 186.33 60.1492 187.873 58.3375 187.873Z" fill="#F7F7F6"/>
<path id="Vector_12" d="M123.298 72.9424H108.805C106.735 72.9424 105.182 71.3997 105.182 69.3428C105.182 67.2859 106.735 65.7432 108.805 65.7432H123.298C125.369 65.7432 126.922 67.2859 126.922 69.3428C126.922 71.3997 125.369 72.9424 123.298 72.9424Z" fill="#F7F7F6"/>
<path id="Vector_13" d="M123.3 72.9426C122.782 72.9426 122.265 72.9426 121.747 72.6855C119.935 71.9142 119.159 69.6001 120.194 67.8003L152.804 3.00725C153.581 1.20744 155.91 0.436094 157.722 1.46455C159.534 2.2359 160.31 4.54994 159.275 6.34975L126.664 71.1428C125.888 72.1713 124.594 72.9426 123.3 72.9426Z" fill="#F7F7F6"/>
<path id="Vector_14" d="M108.806 72.9426C108.288 72.9426 107.771 72.9426 107.253 72.6855C105.441 71.9141 104.665 69.6001 105.7 67.8003L131.064 17.4057C131.84 15.6059 134.169 14.8345 135.981 15.863C137.793 16.6343 138.569 18.9484 137.534 20.7482L112.17 71.1428C111.394 72.1713 110.1 72.9426 108.806 72.9426Z" fill="#F7F7F6"/>
<path id="Vector_15" d="M163.156 22.5734C161.862 22.5734 160.568 21.8021 159.791 20.5165L152.545 6.11804C151.768 4.31823 152.286 2.26131 154.098 1.23285C155.909 0.461502 157.98 0.975733 159.015 2.77554L166.262 17.174C167.038 18.9738 166.521 21.0307 164.709 22.0592C164.191 22.5734 163.674 22.5734 163.156 22.5734Z" fill="#F7F7F6"/>
<path id="Vector_16" d="M206.636 33.3723H205.859L162.379 22.5735C160.567 22.0592 159.273 20.2594 159.791 18.2025C160.308 16.4027 162.12 15.1171 164.191 15.6314L207.671 26.4302C209.483 26.9444 210.777 28.7442 210.259 30.8012C209.742 32.3438 208.189 33.3723 206.636 33.3723Z" fill="#F7F7F6"/>
<path id="Vector_17" d="M199.389 51.3707C198.871 51.3707 198.613 51.3707 198.095 51.1136C196.283 50.3422 195.248 48.2853 196.024 46.4855L203.271 28.4874C204.048 26.6876 206.118 25.6592 207.93 26.4305C209.742 27.2018 210.777 29.2588 210 31.0586L202.754 49.0567C202.236 50.5993 200.683 51.3707 199.389 51.3707Z" fill="#F7F7F6"/>
<path id="Vector_18" d="M199.39 51.3706H163.157C161.086 51.3706 159.533 49.8279 159.533 47.771C159.533 45.7141 161.086 44.1714 163.157 44.1714H199.39C201.461 44.1714 203.014 45.7141 203.014 47.771C203.014 49.8279 201.202 51.3706 199.39 51.3706Z" fill="#F7F7F6"/>
<path id="Vector_19" d="M159.534 112.564C157.204 112.564 155.91 110.764 155.91 108.707L159.534 47.5136C159.534 45.4567 161.345 43.914 163.416 44.1711C165.486 44.1711 167.039 45.9709 166.78 48.0278L163.157 109.221C163.157 111.021 161.345 112.564 159.534 112.564Z" fill="#F7F7F6"/>
<path id="Vector_20" d="M145.039 126.937C142.969 126.937 141.416 125.394 141.416 123.337C141.416 121.28 142.969 119.737 145.039 119.737C150.992 119.737 155.909 114.852 155.909 108.938C155.909 106.882 157.462 105.339 159.533 105.339C161.603 105.339 163.156 106.882 163.156 108.938C163.156 118.709 155.133 126.937 145.039 126.937Z" fill="#F7F7F6"/>
<path id="Vector_21" d="M145.039 187.873C142.969 187.873 141.416 186.33 141.416 184.274V123.08C141.416 121.023 142.969 119.48 145.039 119.48C147.11 119.48 148.663 121.023 148.663 123.08V184.274C148.663 186.33 147.11 187.873 145.039 187.873Z" fill="#F7F7F6"/>
<path id="Vector_22" d="M130.545 187.873C128.475 187.873 126.922 186.33 126.922 184.274V123.08C126.922 121.023 128.475 119.48 130.545 119.48C132.616 119.48 134.169 121.023 134.169 123.08V184.274C134.169 186.33 132.616 187.873 130.545 187.873Z" fill="#F7F7F6"/>
<path id="Vector_23" d="M145.039 187.873H130.545C128.475 187.873 126.922 186.33 126.922 184.273C126.922 182.217 128.475 180.674 130.545 180.674H145.039C147.109 180.674 148.662 182.217 148.662 184.273C148.662 186.33 147.109 187.873 145.039 187.873Z" fill="#F7F7F6"/>
<path id="Vector_24" d="M130.545 126.937H75.4183C73.3478 126.937 71.7949 125.394 71.7949 123.337C71.7949 121.28 73.3478 119.737 75.4183 119.737H130.545C132.616 119.737 134.169 121.28 134.169 123.337C134.169 125.394 132.616 126.937 130.545 126.937Z" fill="#F7F7F6"/>
<path id="Vector_25" d="M148.403 22.5737H134.168C132.098 22.5737 130.545 21.031 130.545 18.9741C130.545 16.9172 132.098 15.3745 134.168 15.3745H148.403C150.473 15.3745 152.026 16.9172 152.026 18.9741C152.026 21.031 150.473 22.5737 148.403 22.5737Z" fill="#F7F7F6"/>
<path id="Vector_26" d="M43.8431 130.562C35.8199 130.562 29.3496 124.134 29.3496 116.164C29.3496 114.107 30.9025 112.564 32.973 112.564C35.0435 112.564 36.5963 114.107 36.5963 116.164C36.5963 120.02 39.9609 123.363 43.8431 123.363C45.9136 123.363 47.4664 124.906 47.4664 126.962C47.4664 129.019 45.6548 130.562 43.8431 130.562Z" fill="#F7F7F6"/>
</g>
<path id="Vector_27" d="M108.805 101.739H61.7015C59.631 101.739 58.0781 100.197 58.0781 98.1397V65.7432C58.0781 63.6862 59.631 62.1436 61.7015 62.1436C63.772 62.1436 65.3249 63.6862 65.3249 65.7432V94.5401H105.182V65.7432C105.182 63.6862 106.735 62.1436 108.805 62.1436C110.876 62.1436 112.429 63.6862 112.429 65.7432V98.1397C112.429 100.197 110.876 101.739 108.805 101.739Z" fill="#F7F7F6"/>
<path id="Vector_28" d="M97.9362 80.1416H72.5726C70.5021 80.1416 68.9492 78.5989 68.9492 76.542V62.1436C68.9492 60.0866 70.5021 58.5439 72.5726 58.5439H97.9362C100.007 58.5439 101.56 60.0866 101.56 62.1436V76.542C101.56 78.5989 100.007 80.1416 97.9362 80.1416ZM76.196 72.9424H94.3128V65.7432H76.196V72.9424Z" fill="#F7F7F6"/>
<path id="Vector_29" d="M72.5716 69.3687H61.7015C59.631 69.3687 58.0781 67.826 58.0781 65.769C58.0781 63.7121 59.631 62.1694 61.7015 62.1694H72.5716C74.6421 62.1694 76.195 63.7121 76.195 65.769C76.195 67.826 74.6421 69.3687 72.5716 69.3687Z" fill="#F7F7F6"/>
<path id="Vector_30" d="M108.806 69.3687H97.9359C95.8654 69.3687 94.3125 67.826 94.3125 65.769C94.3125 63.7121 95.8654 62.1694 97.9359 62.1694H108.806C110.876 62.1694 112.429 63.7121 112.429 65.769C112.429 67.826 110.876 69.3687 108.806 69.3687Z" fill="#F7F7F6"/>
<path id="Vector_31" d="M108.805 126.937C106.735 126.937 105.182 125.394 105.182 123.337V98.1397C105.182 96.0827 106.735 94.54 108.805 94.54C110.876 94.54 112.428 96.0827 112.428 98.1397V123.337C112.428 125.137 110.876 126.937 108.805 126.937Z" fill="#F7F7F6"/>
<path id="Vector_32" d="M97.9359 126.937C95.8654 126.937 94.3125 125.394 94.3125 123.337V98.1397C94.3125 96.0827 95.8654 94.54 97.9359 94.54C100.006 94.54 101.559 96.0827 101.559 98.1397V123.337C101.559 125.137 100.006 126.937 97.9359 126.937Z" fill="#F7F7F6"/>
</g>
<defs>
<clipPath id="clip0_3268_17619">
<rect width="210" height="187" fill="white" transform="translate(0.363281 0.873047)"/>
</clipPath>
</defs>
</svg>
