<svg width="185" height="185" viewBox="0 0 185 185" fill="none" xmlns="http://www.w3.org/2000/svg">
<mask id="mask0_2345_12835" style="mask-type:luminance" maskUnits="userSpaceOnUse" x="0" y="0" width="185" height="186">
<path d="M0.220703 0.720703H184.507V185.007H0.220703V0.720703Z" fill="white"/>
</mask>
<g mask="url(#mask0_2345_12835)">
<path d="M158.419 15.2977C153.27 12.0061 146.427 13.5124 143.136 18.662L126.407 44.8346C123.927 48.7132 119.148 50.4334 114.785 49.0188C103.364 45.3144 83.2382 41.4311 63.0027 39.8556C64.9665 43.4298 66.2612 47.5636 66.2612 52.2586C66.2612 55.9508 64.9953 59.3453 62.8789 62.0398C81.652 63.6185 99.3481 67.2794 107.955 70.0714C111.228 71.1328 114.572 71.6436 117.878 71.6436C128.653 71.6436 139.008 66.2154 145.055 56.7542L161.784 30.5816C165.075 25.432 163.569 18.5893 158.419 15.2977Z" stroke="#F7F7F6" stroke-width="2" stroke-miterlimit="10" stroke-linecap="round" stroke-linejoin="round"/>
<path d="M161.423 97.2435C163.846 92.3044 165.208 86.751 165.208 80.8791V48.7201H150.191L145.055 56.7559C139.008 66.2172 128.653 71.6453 117.877 71.6453C114.572 71.6453 111.227 71.1346 107.954 70.0731C105.937 69.4184 103.417 68.7162 100.501 68.0039L100.363 67.9704L108.107 118.084H128.007C138.815 118.084 148.545 113.472 155.342 106.111" stroke="#F7F7F6" stroke-width="2" stroke-miterlimit="10" stroke-linecap="round" stroke-linejoin="round"/>
<path d="M49.9451 68.1047C41.4039 67.86 34.5547 60.8592 34.5547 52.2586C34.5547 51.0518 34.5011 49.873 34.4093 48.7187H19.5195V80.8773C19.5195 96.4801 29.1272 109.839 42.7482 115.365L50.0509 68.1025L49.9451 68.1047Z" stroke="#F7F7F6" stroke-width="2" stroke-miterlimit="10" stroke-linecap="round" stroke-linejoin="round"/>
<path d="M20.7422 120.876C27.3718 126.845 35.4923 131.189 44.478 133.281C42.2778 129.386 41.3013 124.742 42.047 119.914L42.7504 115.366C29.1294 109.839 19.5213 96.4813 19.5213 80.8785V48.7195C19.5213 46.0552 17.3617 43.8956 14.6978 43.8956H7.74571C5.08148 43.8956 2.92188 46.0552 2.92188 48.7195V80.8785C2.92188 92.8646 6.84227 103.935 13.4697 112.878" stroke="#F7F7F6" stroke-width="2" stroke-miterlimit="10" stroke-linecap="round" stroke-linejoin="round"/>
<path d="M155.345 106.11C148.548 113.471 138.818 118.083 128.009 118.083H108.109L108.392 119.914C109.23 125.335 107.897 130.526 105.096 134.683H128.009C157.674 134.683 181.81 110.547 181.81 80.8779V48.7192C181.81 46.055 179.65 43.8954 176.986 43.8954H170.034C167.37 43.8954 165.21 46.055 165.21 48.7192V80.8779C165.21 86.7502 163.848 92.3036 161.425 97.2427" stroke="#F7F7F6" stroke-width="2" stroke-miterlimit="10" stroke-linecap="round" stroke-linejoin="round"/>
<path d="M96.9809 141.759C94.2374 143.103 91.1467 143.868 87.8522 143.868H62.5823C59.7839 143.868 57.1304 143.319 54.7135 142.33L50.0685 165.316C48.5644 172.757 54.2527 179.71 61.8445 179.71H89.9654C97.5568 179.71 103.245 172.757 101.742 165.316L96.9809 141.759Z" stroke="#F7F7F6" stroke-width="2" stroke-miterlimit="10" stroke-linecap="round" stroke-linejoin="round"/>
<path d="M82.3566 143.868H69.4595L66.5267 158.381C65.8396 161.779 68.4376 164.955 71.9049 164.955H79.9109C83.3781 164.955 85.9765 161.779 85.2894 158.381L82.3566 143.868Z" stroke="#F7F7F6" stroke-width="2" stroke-miterlimit="10" stroke-linecap="round" stroke-linejoin="round"/>
<path d="M100.365 67.9695C90.8552 65.6544 77.1828 63.2432 62.8797 62.0403C59.9776 65.7354 55.4723 68.112 50.4091 68.112C50.2896 68.112 50.1716 68.1056 50.0528 68.103L42.0471 119.914C40.101 132.506 49.8426 143.868 62.5839 143.868H87.8538C100.596 143.868 110.337 132.506 108.391 119.914L100.365 67.9695Z" stroke="#F7F7F6" stroke-width="2" stroke-miterlimit="10" stroke-linecap="round" stroke-linejoin="round"/>
<path d="M43.9011 22.8805H24.4766C24.4766 22.8805 34.5576 34.9995 34.5576 52.2597C34.5576 61.0151 41.6551 68.1123 50.4102 68.1123C59.1655 68.1123 66.2631 61.0151 66.2631 52.2597C66.2631 32.7326 43.9011 22.8805 43.9011 22.8805Z" stroke="#F7F7F6" stroke-width="2" stroke-miterlimit="10" stroke-linecap="round" stroke-linejoin="round"/>
<path d="M43.9006 6.01842H24.4757C19.8199 6.01842 16.0449 9.79305 16.0449 14.4492C16.0449 19.1053 19.8199 22.8799 24.4757 22.8799H43.9006C48.5567 22.8799 52.3313 19.1053 52.3313 14.4492C52.3313 9.79305 48.5567 6.01842 43.9006 6.01842Z" stroke="#F7F7F6" stroke-width="2" stroke-miterlimit="10" stroke-linecap="round" stroke-linejoin="round"/>
</g>
</svg>
