<svg width="538" height="481" viewBox="0 0 538 481" fill="none" xmlns="http://www.w3.org/2000/svg">
<path opacity="0.5" d="M269.24 -49.5C120.825 -49.5 0.740234 69.0197 0.740234 215.5C0.740234 361.563 120.825 480.5 269.24 480.5C417.655 480.5 537.74 361.98 537.74 215.5C537.74 69.0197 417.232 -49.5 269.24 -49.5ZM364.801 298.13C358.458 288.114 346.619 272.673 324.209 253.894C295.879 229.272 282.771 206.319 274.314 190.461C272.2 186.287 269.24 180.862 267.126 178.358C265.012 181.28 262.052 186.287 259.938 190.461C251.481 205.902 238.373 229.272 210.043 253.894C188.056 273.091 175.794 288.114 169.451 298.13H119.98C123.785 285.193 137.316 257.232 180.445 220.091C202.855 200.894 212.58 183.366 220.191 169.177C224.843 160.413 229.071 152.902 235.413 146.642C244.293 137.461 254.864 132.87 267.549 132.87C280.234 132.87 290.805 137.461 299.684 146.642C305.604 152.902 309.832 160.413 314.906 169.177C322.94 183.366 332.665 200.894 354.653 220.091C397.782 257.232 410.89 285.193 415.118 298.13H364.801Z" fill="#DEE6F0"/>
</svg>
