<svg xmlns="http://www.w3.org/2000/svg" width="29" height="28" viewBox="0 0 29 28" fill="none">
<path d="M1 13.5225C1 7.72278 5.70032 3.02246 11.5 3.02246C17.2986 3.02246 22 7.72282 22 13.5225C22 19.3221 17.2997 24.0225 11.5 24.0225C5.70032 24.0225 1 19.3221 1 13.5225Z" stroke="#808693"/>
<path d="M10.042 9.52246H12.646L12.212 15.9205H10.476L10.042 9.52246ZM11.344 19.4345C10.9613 19.4345 10.6393 19.3131 10.378 19.0705C10.126 18.8185 10 18.5151 10 18.1605C10 17.8058 10.126 17.5118 10.378 17.2785C10.63 17.0358 10.952 16.9145 11.344 16.9145C11.736 16.9145 12.058 17.0358 12.31 17.2785C12.562 17.5118 12.688 17.8058 12.688 18.1605C12.688 18.5151 12.5573 18.8185 12.296 19.0705C12.044 19.3131 11.7267 19.4345 11.344 19.4345Z" fill="#808693"/>
</svg>