<svg width="252" height="149" viewBox="0 0 252 149" fill="none" xmlns="http://www.w3.org/2000/svg">
<path d="M252 122H-120C-119.243 104.615 -111.841 88.1906 -99.3313 76.1349C-86.8212 64.0792 -70.1633 57.3184 -52.8154 57.2559C-44.5491 38.4614 -30.491 22.822 -12.7068 12.6355C5.07741 2.4491 25.65 -1.74713 45.9879 0.663436C66.3259 3.07401 85.3568 11.9643 100.284 26.0279C115.212 40.0915 125.249 58.5868 128.92 78.7962C130.631 78.598 132.352 78.4954 134.074 78.4886C141.217 78.4934 148.261 80.1638 154.65 83.3681C161.039 86.5723 166.598 91.2226 170.888 96.9517C173.816 96.2091 176.825 95.8369 179.846 95.8439C185.05 95.8429 190.197 96.9381 194.953 99.0584C199.709 101.179 203.969 104.277 207.456 108.153C215.158 104.133 224.126 103.313 232.426 105.87C240.725 108.426 247.69 114.153 251.816 121.815L252 122Z" fill="white"/>
<path d="M-53.2755 138.709H201.754C202.206 138.701 202.637 138.516 202.953 138.194C203.27 137.872 203.447 137.439 203.447 136.987C203.447 136.539 203.269 136.109 202.951 135.792C202.634 135.475 202.203 135.297 201.754 135.297H-53.2755C-53.7274 135.297 -54.1613 135.474 -54.4838 135.79C-54.8062 136.106 -54.9915 136.536 -54.9998 136.987C-54.9998 137.444 -54.8181 137.882 -54.4947 138.205C-54.1713 138.528 -53.7328 138.709 -53.2755 138.709Z" fill="white"/>
<path d="M134.791 148.287H228.307C228.759 148.279 229.19 148.094 229.506 147.772C229.823 147.45 230 147.016 230 146.565C230 146.117 229.822 145.687 229.504 145.37C229.187 145.053 228.756 144.875 228.307 144.875H134.791C134.342 144.875 133.911 145.053 133.594 145.37C133.277 145.687 133.098 146.117 133.098 146.565C133.098 147.016 133.275 147.45 133.592 147.772C133.909 148.094 134.339 148.279 134.791 148.287Z" fill="white"/>
<path d="M25.3806 148.287H76.7314C76.9579 148.287 77.1821 148.242 77.3913 148.156C77.6005 148.069 77.7906 147.942 77.9507 147.783C78.1108 147.623 78.2378 147.433 78.3244 147.224C78.4111 147.015 78.4557 146.791 78.4557 146.565C78.4474 146.114 78.2622 145.684 77.9397 145.368C77.6172 145.052 77.1833 144.875 76.7314 144.875H25.3806C24.9316 144.875 24.501 145.053 24.1836 145.37C23.8661 145.687 23.6877 146.117 23.6877 146.565C23.6877 147.016 23.865 147.45 24.1816 147.772C24.4983 148.094 24.9288 148.279 25.3806 148.287Z" fill="white"/>
</svg>
