<svg width="279" height="95" viewBox="0 0 279 95" fill="none" xmlns="http://www.w3.org/2000/svg">
<path d="M66.1833 79.0522H308.565C308.113 67.7691 303.303 57.0991 295.144 49.2789C286.986 41.4588 276.111 37.096 264.802 37.105C259.415 24.9253 250.26 14.7908 238.679 8.18962C227.098 1.58848 213.703 -1.13146 200.46 0.429202C187.217 1.98987 174.824 7.74891 165.101 16.8606C155.378 25.9724 148.837 37.9567 146.439 51.0538C145.328 51.0538 144.217 51.0538 143.072 51.0538C138.392 51.0537 133.778 52.1481 129.598 54.2494C125.418 56.3507 121.789 59.4003 119.002 63.1539C114.746 62.1071 110.285 62.2258 106.091 63.4976C101.896 64.7694 98.1229 67.1472 95.1682 70.3804C90.1528 67.7864 84.3188 67.2591 78.9185 68.9119C73.5182 70.5647 68.9822 74.2656 66.2843 79.2203L66.1833 79.0522Z" fill="white"/>
<path d="M361.081 82.447H36.0202C35.4488 82.447 34.9008 82.2203 34.4968 81.8169C34.0927 81.4135 33.8657 80.8664 33.8657 80.2958C33.8657 79.7222 34.0916 79.1715 34.4947 78.7627C34.8978 78.354 35.4457 78.1199 36.0202 78.1111H361.081C361.655 78.1199 362.203 78.354 362.607 78.7627C363.01 79.1715 363.236 79.7222 363.236 80.2958C363.236 80.8664 363.009 81.4135 362.605 81.8169C362.201 82.2203 361.652 82.447 361.081 82.447Z" fill="white"/>
<path d="M121.359 94.6818H2.1545C1.58002 94.673 1.03205 94.439 0.628942 94.0302C0.225834 93.6214 -6.7983e-05 93.0707 1.53467e-08 92.4971C1.53466e-08 91.9266 0.226949 91.3794 0.630997 90.976C1.03504 90.5726 1.58309 90.3459 2.1545 90.3459H121.359C121.931 90.3459 122.479 90.5726 122.883 90.976C123.287 91.3794 123.514 91.9266 123.514 92.4971C123.514 93.0707 123.288 93.6214 122.885 94.0302C122.482 94.439 121.934 94.673 121.359 94.6818Z" fill="white"/>
<path d="M260.796 94.6816H195.353C195.065 94.6816 194.781 94.6251 194.515 94.5153C194.25 94.4055 194.009 94.2446 193.805 94.0417C193.602 93.8389 193.441 93.598 193.331 93.3329C193.221 93.0679 193.165 92.7838 193.165 92.4969C193.165 92.2115 193.221 91.929 193.332 91.6658C193.442 91.4026 193.604 91.164 193.807 90.9638C194.011 90.7636 194.253 90.6058 194.518 90.4997C194.783 90.3936 195.067 90.3413 195.353 90.3457H260.796C261.082 90.3413 261.365 90.3936 261.631 90.4997C261.896 90.6058 262.137 90.7636 262.341 90.9638C262.545 91.164 262.706 91.4026 262.817 91.6658C262.927 91.929 262.984 92.2115 262.984 92.4969C262.984 92.7838 262.927 93.0679 262.817 93.3329C262.707 93.598 262.546 93.8389 262.343 94.0417C262.14 94.2446 261.899 94.4055 261.633 94.5153C261.368 94.6251 261.083 94.6816 260.796 94.6816Z" fill="white"/>
</svg>
