<svg width="149" height="66" viewBox="0 0 149 66" fill="none" xmlns="http://www.w3.org/2000/svg">
<path d="M45.9155 54.8436H214.071C213.758 47.0158 210.421 39.6133 204.76 34.188C199.1 28.7627 191.556 25.7358 183.71 25.7421C179.973 17.2923 173.621 10.2613 165.587 5.68166C157.553 1.10203 148.259 -0.784968 139.072 0.297765C129.884 1.3805 121.287 5.37591 114.541 11.6973C107.795 18.0187 103.258 26.333 101.594 35.4193C100.823 35.4193 100.052 35.4193 99.2583 35.4193C96.0116 35.4192 92.8101 36.1785 89.9103 37.6363C87.0104 39.0941 84.4929 41.2098 82.5595 43.814C79.6065 43.0877 76.512 43.17 73.6019 44.0523C70.6919 44.9347 68.074 46.5843 66.0242 48.8274C62.5447 47.0278 58.4973 46.662 54.7507 47.8086C51.0042 48.9552 47.8573 51.5229 45.9856 54.9602L45.9155 54.8436Z" fill="white"/>
<path d="M250.505 57.1988H24.9896C24.5932 57.1988 24.213 57.0415 23.9327 56.7616C23.6524 56.4818 23.4949 56.1022 23.4949 55.7064C23.4948 55.3084 23.6515 54.9264 23.9312 54.6428C24.2109 54.3592 24.591 54.1968 24.9896 54.1907H250.505C250.904 54.1968 251.284 54.3592 251.564 54.6428C251.843 54.9264 252 55.3084 252 55.7064C252 56.1022 251.842 56.4818 251.562 56.7616C251.282 57.0415 250.902 57.1988 250.505 57.1988Z" fill="white"/>
<path d="M84.1946 65.6868H1.49472C1.09616 65.6807 0.716 65.5183 0.436338 65.2347C0.156675 64.9511 -4.71642e-05 64.5691 1.0647e-08 64.1711C1.06469e-08 63.7753 0.157449 63.3957 0.437763 63.1158C0.718077 62.8359 1.09829 62.6787 1.49472 62.6787H84.1946C84.5911 62.6787 84.9712 62.8359 85.2516 63.1158C85.5319 63.3957 85.6894 63.7753 85.6894 64.1711C85.6894 64.5691 85.5327 64.9511 85.2531 65.2347C84.9734 65.5183 84.5932 65.6807 84.1946 65.6868Z" fill="white"/>
<path d="M180.931 65.6867H135.529C135.329 65.6867 135.132 65.6475 134.948 65.5714C134.764 65.4952 134.596 65.3836 134.455 65.2428C134.314 65.1021 134.203 64.935 134.126 64.7511C134.05 64.5672 134.011 64.3701 134.011 64.171C134.011 63.9731 134.05 63.7771 134.127 63.5945C134.203 63.4119 134.315 63.2463 134.457 63.1074C134.598 62.9685 134.766 62.8591 134.95 62.7855C135.134 62.7119 135.331 62.6756 135.529 62.6786H180.931C181.129 62.6756 181.326 62.7119 181.51 62.7855C181.694 62.8591 181.862 62.9685 182.003 63.1074C182.144 63.2463 182.256 63.4119 182.333 63.5945C182.41 63.7771 182.449 63.9731 182.449 64.171C182.449 64.3701 182.41 64.5672 182.333 64.7511C182.257 64.935 182.145 65.1021 182.004 65.2428C181.863 65.3836 181.696 65.4952 181.512 65.5714C181.328 65.6475 181.13 65.6867 180.931 65.6867Z" fill="white"/>
</svg>
