<svg width="486" height="127" viewBox="0 0 486 127" fill="none" xmlns="http://www.w3.org/2000/svg">
<path d="M88.5518 105.77H412.852C412.247 90.6734 405.812 76.3971 394.896 65.934C383.979 55.4708 369.43 49.6334 354.298 49.6455C347.091 33.3494 334.841 19.7896 319.347 10.9575C303.852 2.12534 285.929 -1.51387 268.21 0.574262C250.492 2.66239 233.91 10.3678 220.901 22.5591C207.892 34.7504 199.14 50.7851 195.931 68.3086C194.445 68.3086 192.959 68.3086 191.427 68.3086C185.166 68.3085 178.991 69.7729 173.399 72.5843C167.806 75.3957 162.951 79.4761 159.222 84.4983C153.527 83.0977 147.559 83.2565 141.947 84.9581C136.335 86.6597 131.286 89.8412 127.333 94.1672C120.622 90.6965 112.817 89.991 105.591 92.2023C98.3656 94.4137 92.2965 99.3655 88.6869 105.995L88.5518 105.77Z" fill="white"/>
<path d="M483.117 110.312H48.1944C47.4299 110.312 46.6967 110.009 46.1561 109.469C45.6155 108.929 45.3118 108.197 45.3118 107.434C45.3117 106.666 45.6139 105.93 46.1533 105.383C46.6926 104.836 47.4258 104.523 48.1944 104.511H483.117C483.886 104.523 484.619 104.836 485.159 105.383C485.698 105.93 486 106.666 486 107.434C486 108.197 485.696 108.929 485.156 109.469C484.615 110.009 483.882 110.312 483.117 110.312Z" fill="white"/>
<path d="M162.375 126.682H2.88267C2.11402 126.67 1.38086 126.357 0.841508 125.81C0.30216 125.263 -9.09595e-05 124.526 2.05334e-08 123.759C2.05333e-08 122.995 0.303652 122.263 0.844257 121.723C1.38486 121.184 2.11814 120.88 2.88267 120.88H162.375C163.14 120.88 163.873 121.184 164.414 121.723C164.954 122.263 165.258 122.995 165.258 123.759C165.258 124.526 164.956 125.263 164.417 125.81C163.877 126.357 163.144 126.67 162.375 126.682Z" fill="white"/>
<path d="M348.938 126.682H261.377C260.992 126.682 260.612 126.606 260.256 126.459C259.901 126.312 259.579 126.097 259.307 125.825C259.035 125.554 258.819 125.232 258.672 124.877C258.525 124.522 258.449 124.142 258.449 123.758C258.449 123.377 258.525 122.999 258.673 122.647C258.821 122.294 259.037 121.975 259.309 121.707C259.582 121.439 259.905 121.228 260.26 121.086C260.615 120.944 260.995 120.874 261.377 120.88H348.938C349.32 120.874 349.7 120.944 350.055 121.086C350.41 121.228 350.733 121.439 351.006 121.707C351.278 121.975 351.494 122.294 351.642 122.647C351.79 122.999 351.866 123.377 351.866 123.758C351.866 124.142 351.79 124.522 351.643 124.877C351.496 125.232 351.28 125.554 351.008 125.825C350.736 126.097 350.414 126.312 350.058 126.459C349.703 126.606 349.323 126.682 348.938 126.682Z" fill="white"/>
</svg>
