<svg width="131" height="47" viewBox="0 0 131 47" fill="none" xmlns="http://www.w3.org/2000/svg">
<g id="Group 1410103676">
<path id="Vector" d="M98.2116 39.1885H-21.8347C-21.5905 33.6042 -19.2019 28.3283 -15.1648 24.4558C-11.1277 20.5833 -5.75216 18.4117 -0.153881 18.3916C2.51369 12.3545 7.0503 7.3308 12.7894 4.05875C18.5284 0.786692 25.1673 -0.561209 31.7305 0.213107C38.2936 0.987423 44.435 3.84313 49.2522 8.3606C54.0694 12.8781 57.3084 18.8191 58.4932 25.3107C59.0453 25.247 59.6006 25.214 60.1564 25.2119C62.4615 25.2134 64.7347 25.75 66.7964 26.7792C68.8581 27.8085 70.652 29.3023 72.0363 31.1425C72.9812 30.904 73.9524 30.7844 74.9271 30.7867C76.6066 30.7864 78.2676 31.1382 79.8024 31.8192C81.3372 32.5003 82.7117 33.4955 83.837 34.7405C86.3224 33.4494 89.2167 33.186 91.895 34.0071C94.5733 34.8282 96.8207 36.6679 98.1523 39.1292L98.2116 39.1885Z" fill="white"/>
<path id="Vector_2" d="M-47.911 40.8689H113.161C113.446 40.8637 113.718 40.7469 113.918 40.5436C114.118 40.3402 114.23 40.0666 114.23 39.7816C114.23 39.4985 114.117 39.227 113.917 39.0268C113.716 38.8266 113.444 38.7141 113.161 38.7141H-47.911C-48.1964 38.7141 -48.4704 38.8259 -48.6741 39.0255C-48.8778 39.2252 -48.9948 39.4967 -49 39.7816C-49 40.07 -48.8852 40.3466 -48.681 40.5505C-48.4768 40.7544 -48.1998 40.8689 -47.911 40.8689Z" fill="white"/>
<path id="Vector_3" d="M70.868 46.918H129.931C130.216 46.9128 130.488 46.796 130.688 46.5926C130.888 46.3893 131 46.1157 131 45.8307C131 45.5476 130.887 45.276 130.687 45.0758C130.486 44.8756 130.214 44.7632 129.931 44.7632H70.868C70.5845 44.7632 70.3125 44.8756 70.112 45.0758C69.9115 45.276 69.7988 45.5476 69.7988 45.8307C69.7988 46.1157 69.9108 46.3893 70.1108 46.5926C70.3107 46.796 70.5827 46.9128 70.868 46.918Z" fill="white"/>
<path id="Vector_4" d="M1.76669 46.918H34.1988C34.3418 46.918 34.4834 46.8899 34.6156 46.8352C34.7477 46.7806 34.8677 46.7005 34.9689 46.5995C35.07 46.4986 35.1502 46.3787 35.2049 46.2468C35.2596 46.1149 35.2878 45.9735 35.2878 45.8307C35.2826 45.5458 35.1656 45.2743 34.9619 45.0746C34.7583 44.875 34.4842 44.7631 34.1988 44.7632H1.76669C1.48312 44.7632 1.21117 44.8756 1.01066 45.0758C0.810146 45.276 0.69751 45.5476 0.69751 45.8307C0.697463 46.1157 0.809488 46.3893 1.00945 46.5926C1.20941 46.796 1.48131 46.9128 1.76669 46.918Z" fill="white"/>
</g>
</svg>
