<svg width="482" height="126" viewBox="0 0 482 126" fill="none" xmlns="http://www.w3.org/2000/svg">
<path d="M393.695 104.804H72.6494C73.3026 89.8693 79.6905 75.7597 90.4871 65.4033C101.284 55.0469 115.66 49.2391 130.631 49.1854C137.765 33.0401 149.898 19.6051 165.246 10.8545C180.594 2.10389 198.349 -1.50087 215.901 0.569922C233.454 2.64071 249.878 10.2779 262.761 22.3592C275.643 34.4404 284.306 50.3287 287.474 67.6896C288.951 67.5193 290.436 67.4311 291.922 67.4253C298.087 67.4294 304.166 68.8644 309.68 71.617C315.194 74.3696 319.991 78.3644 323.693 83.2859C326.22 82.648 328.817 82.3282 331.424 82.3343C335.916 82.3335 340.358 83.2742 344.462 85.0957C348.567 86.9171 352.243 89.5786 355.252 92.9081C361.899 89.4554 369.639 88.751 376.802 90.9468C383.965 93.1427 389.975 98.0628 393.536 104.645L393.695 104.804Z" fill="white"/>
<path d="M2.91235 109.297H433.674C434.437 109.284 435.164 108.971 435.699 108.427C436.234 107.883 436.533 107.152 436.533 106.39C436.533 105.632 436.232 104.906 435.696 104.371C435.159 103.835 434.432 103.535 433.674 103.535H2.91235C2.14904 103.535 1.41624 103.834 0.871565 104.368C0.326893 104.901 0.0138784 105.628 0 106.39C0 107.161 0.306893 107.9 0.853063 108.446C1.39923 108.991 2.13995 109.297 2.91235 109.297Z" fill="white"/>
<path d="M320.569 125.475H478.524C479.287 125.461 480.014 125.149 480.549 124.605C481.084 124.061 481.383 123.33 481.383 122.568C481.383 121.81 481.082 121.084 480.545 120.549C480.009 120.013 479.282 119.713 478.524 119.713H320.569C319.811 119.713 319.083 120.013 318.547 120.549C318.011 121.084 317.709 121.81 317.709 122.568C317.709 123.33 318.009 124.061 318.544 124.605C319.078 125.149 319.806 125.461 320.569 125.475Z" fill="white"/>
<path d="M135.768 125.475H222.503C222.885 125.475 223.264 125.4 223.617 125.254C223.971 125.108 224.292 124.894 224.562 124.624C224.833 124.354 225.047 124.033 225.193 123.68C225.34 123.328 225.415 122.949 225.415 122.568C225.401 121.806 225.088 121.079 224.544 120.545C223.999 120.012 223.266 119.713 222.503 119.713H135.768C135.01 119.713 134.282 120.013 133.746 120.549C133.21 121.084 132.909 121.81 132.909 122.568C132.909 123.33 133.208 124.061 133.743 124.605C134.278 125.149 135.005 125.461 135.768 125.475Z" fill="white"/>
</svg>
