<svg xmlns="http://www.w3.org/2000/svg" width="18" height="18" viewBox="0 0 18 18" fill="none">
  <g clip-path="url(#clip0_1419_15105)">
    <path d="M16.4981 12.6901V14.9401C16.499 15.1489 16.4562 15.3557 16.3725 15.5471C16.2888 15.7385 16.1661 15.9103 16.0122 16.0515C15.8583 16.1927 15.6765 16.3002 15.4787 16.3671C15.2808 16.434 15.0711 16.4589 14.8631 16.4401C12.5552 16.1893 10.3384 15.4007 8.39062 14.1376C6.57849 12.9861 5.04212 11.4497 3.89062 9.63757C2.6231 7.68098 1.8343 5.45332 1.58812 3.13507C1.56938 2.92767 1.59402 2.71864 1.66049 2.52129C1.72696 2.32394 1.8338 2.14259 1.97419 1.98879C2.11459 1.83499 2.28547 1.7121 2.47596 1.62796C2.66645 1.54382 2.87237 1.50027 3.08062 1.50007H5.33062C5.6946 1.49649 6.04746 1.62538 6.32344 1.86272C6.59942 2.10006 6.77968 2.42966 6.83062 2.79007C6.92559 3.51012 7.10171 4.21712 7.35562 4.89757C7.45653 5.16602 7.47837 5.45776 7.41855 5.73823C7.35873 6.01871 7.21977 6.27616 7.01812 6.48007L6.06562 7.43257C7.13329 9.31023 8.68796 10.8649 10.5656 11.9326L11.5181 10.9801C11.722 10.7784 11.9795 10.6395 12.26 10.5796C12.5404 10.5198 12.8322 10.5417 13.1006 10.6426C13.7811 10.8965 14.4881 11.0726 15.2081 11.1676C15.5724 11.219 15.9052 11.4025 16.143 11.6832C16.3809 11.9639 16.5072 12.3223 16.4981 12.6901Z" stroke="#5C80B6" stroke-width="2" stroke-linecap="round" stroke-linejoin="round"/>
  </g>
  <defs>
    <clipPath id="clip0_1419_15105">
      <rect width="18" height="18" fill="white"/>
    </clipPath>
  </defs>
</svg>