<svg width="1920" height="1240" viewBox="0 0 1920 1240" fill="none" xmlns="http://www.w3.org/2000/svg">
<g filter="url(#filter0_b_5802_15363)">
<path d="M2286 1483C2249.95 1368 2131.06 1117.54 1741.47 782.448C1541.47 610.466 1453.43 452.134 1382.72 325.195C1339.39 247.394 1301.96 180.171 1247.88 123.185C1169.9 41.289 1072.84 -0.000244141 959.5 -0.000244141C846.156 -0.000244141 748.757 41.6302 671.115 123.185C617.043 180.171 579.609 247.394 536.282 325.195C465.572 452.134 377.531 610.466 177.534 782.448C-212.063 1117.54 -330.952 1368 -367 1483C600.914 1483 1401.52 1483 2286 1483Z" fill="#F7F7F6" fill-opacity="0.05"/>
<path d="M1382.72 325.195L1382.28 325.438L1382.6 326.011C1453.26 452.866 1541.37 611.045 1741.14 782.827C2129.95 1117.24 2249.06 1367.32 2285.32 1482.5H2280.82H2275.64H2270.46H2265.29H2260.11H2254.94H2249.77H2244.6H2239.43H2234.27H2229.11H2223.95H2218.79H2213.63H2208.47H2203.32H2198.17H2193.02H2187.87H2182.72H2177.57H2172.43H2167.29H2162.15H2157.01H2151.87H2146.74H2141.6H2136.47H2131.34H2126.21H2121.08H2115.96H2110.83H2105.71H2100.59H2095.47H2090.35H2085.23H2080.12H2075H2069.89H2064.78H2059.67H2054.56H2049.45H2044.35H2039.25H2034.14H2029.04H2023.94H2018.84H2013.75H2008.65H2003.56H1998.46H1993.37H1988.28H1983.19H1978.1H1973.02H1967.93H1962.84H1957.76H1952.68H1947.6H1942.52H1937.44H1932.36H1927.29H1922.21H1917.14H1912.07H1906.99H1901.92H1896.85H1891.79H1886.72H1881.65H1876.59H1871.52H1866.46H1861.4H1856.33H1851.27H1846.21H1841.16H1836.1H1831.04H1825.99H1820.93H1815.88H1810.83H1805.77H1800.72H1795.67H1790.62H1785.57H1780.53H1775.48H1770.43H1765.39H1760.34H1755.3H1750.25H1745.21H1740.17H1735.13H1730.09H1725.05H1720.01H1714.97H1709.94H1704.9H1699.86H1694.83H1689.79H1684.76H1679.72H1674.69H1669.66H1664.62H1659.59H1654.56H1649.53H1644.5H1639.47H1634.44H1629.41H1624.39H1619.36H1614.33H1609.31H1604.28H1599.25H1594.23H1589.2H1584.18H1579.15H1574.13H1569.11H1564.08H1559.06H1554.04H1549.01H1543.99H1538.97H1533.95H1528.93H1523.91H1518.89H1513.87H1508.85H1503.83H1498.81H1493.79H1488.77H1483.75H1478.73H1473.71H1468.69H1463.67H1458.65H1453.63H1448.61H1443.6H1438.58H1433.56H1428.54H1423.52H1418.5H1413.49H1408.47H1403.45H1398.43H1393.41H1388.39H1383.37H1378.36H1373.34H1368.32H1363.3H1358.28H1353.26H1348.24H1343.22H1338.2H1333.18H1328.16H1323.14H1318.12H1313.1H1308.08H1303.06H1298.04H1293.01H1287.99H1282.97H1277.95H1272.92H1267.9H1262.88H1257.85H1252.83H1247.8H1242.78H1237.75H1232.73H1227.7H1222.67H1217.65H1212.62H1207.59H1202.56H1197.53H1192.5H1187.47H1182.44H1177.41H1172.38H1167.35H1162.32H1157.28H1152.25H1147.21H1142.18H1137.14H1132.11H1127.07H1122.03H1116.99H1111.96H1106.92H1101.88H1096.83H1091.79H1086.75H1081.71H1076.66H1071.62H1066.57H1061.53H1056.48H1051.43H1046.38H1041.33H1036.28H1031.23H1026.18H1021.13H1016.07H1011.02H1005.96H1000.91H995.848H990.789H985.73H980.669H975.608H970.545H965.482H960.417H955.352H950.286H945.218H940.15H935.08H930.009H924.937H919.864H914.79H909.715H904.639H899.562H894.483H889.403H884.322H879.24H874.157H869.072H863.987H858.9H853.811H848.722H843.631H838.539H833.446H828.351H823.255H818.158H813.059H807.959H802.858H797.755H792.651H787.546H782.439H777.33H772.221H767.109H761.997H756.883H751.767H746.65H741.532H736.412H731.29H726.167H721.042H715.916H710.789H705.659H700.528H695.396H690.262H685.126H679.989H674.85H669.709H664.567H659.423H654.278H649.13H643.981H638.83H633.678H628.524H623.368H618.21H613.05H607.889H602.726H597.561H592.394H587.226H582.056H576.883H571.709H566.533H561.355H556.176H550.994H545.81H540.625H535.437H530.248H525.056H519.863H514.668H509.47H504.271H499.07H493.866H488.661H483.453H478.244H473.032H467.818H462.602H457.384H452.164H446.942H441.718H436.491H431.262H426.032H420.799H415.563H410.326H405.086H399.844H394.6H389.354H384.105H378.854H373.601H368.345H363.087H357.827H352.564H347.299H342.032H336.763H331.491H326.216H320.939H315.66H310.378H305.094H299.808H294.519H289.227H283.933H278.637H273.338H268.037H262.733H257.426H252.117H246.805H241.491H236.174H230.855H225.533H220.208H214.881H209.551H204.219H198.884H193.546H188.205H182.862H177.516H172.167H166.816H161.462H156.105H150.745H145.383H140.018H134.65H129.279H123.905H118.529H113.15H107.768H102.383H96.9946H91.6038H86.2102H80.8136H75.4141H70.0117H64.6063H59.198H53.7867H48.3725H42.9552H37.535H32.1117H26.6854H21.2561H15.8238H10.3884H4.94989H-0.491671H-5.93631H-11.384H-16.8349H-22.2889H-27.746H-33.2062H-38.6696H-44.1362H-49.6059H-55.0789H-60.555H-66.0344H-71.5169H-77.0027H-82.4918H-87.9841H-93.4797H-98.9785H-104.481H-109.986H-115.495H-121.007H-126.522H-132.041H-137.563H-143.089H-148.618H-154.15H-159.686H-165.225H-170.767H-176.313H-181.863H-187.415H-192.972H-198.532H-204.095H-209.662H-215.232H-220.806H-226.383H-231.964H-237.549H-243.137H-248.728H-254.323H-259.922H-265.525H-271.131H-276.741H-282.354H-287.971H-293.592H-299.216H-304.844H-310.476H-316.111H-321.751H-327.394H-333.04H-338.691H-344.345H-350.003H-355.665H-361.331H-366.319C-330.06 1367.32 -210.948 1117.24 177.86 782.827C377.625 611.045 465.736 452.867 536.399 326.012L536.719 325.438C580.052 247.626 617.457 180.461 671.477 123.53C749.024 42.0748 846.292 0.499756 959.5 0.499756C1072.71 0.499756 1169.63 41.7338 1247.52 123.529C1301.54 180.461 1338.95 247.626 1382.28 325.438L1382.72 325.195Z" stroke="#F7F7F6" stroke-opacity="0.08"/>
</g>
<defs>
<filter id="filter0_b_5802_15363" x="-619.3" y="-252.3" width="3157.6" height="1987.6" filterUnits="userSpaceOnUse" color-interpolation-filters="sRGB">
<feFlood flood-opacity="0" result="BackgroundImageFix"/>
<feGaussianBlur in="BackgroundImageFix" stdDeviation="126.15"/>
<feComposite in2="SourceAlpha" operator="in" result="effect1_backgroundBlur_5802_15363"/>
<feBlend mode="normal" in="SourceGraphic" in2="effect1_backgroundBlur_5802_15363" result="shape"/>
</filter>
</defs>
</svg>
