<svg  viewBox="0 0 26 26" fill="none" xmlns="http://www.w3.org/2000/svg">
<path id="Vector" d="M12.4986 11.0275C12.3859 11.1853 12.2427 11.4322 12.1407 11.6352C11.7723 12.3166 11.2197 13.3103 10.0239 14.3633L10.023 14.3641C9.16227 15.1255 8.61131 15.7588 8.27231 16.2417H7.08148C7.4102 15.6275 8.06767 14.7126 9.35954 13.5852C10.4303 12.6558 10.8995 11.798 11.2498 11.1363L11.2508 11.1344C11.46 10.7349 11.6185 10.4587 11.8417 10.2354L11.8418 10.2355L11.8499 10.2271C12.1557 9.90677 12.4988 9.75827 12.9244 9.75827C13.3491 9.75827 13.6917 9.90613 13.997 10.2251C14.2072 10.4509 14.3636 10.7248 14.5897 11.1204L14.6056 11.1483C14.6121 11.1598 14.6185 11.1714 14.625 11.1831C14.9862 11.8297 15.4564 12.6715 16.486 13.5824L16.4886 13.5846C17.7749 14.707 18.4264 15.6215 18.759 16.2417H17.5405C17.208 15.759 16.6688 15.1123 15.7838 14.3604C14.5875 13.306 14.0359 12.3297 13.6716 11.6377C13.5821 11.4591 13.4267 11.1625 13.2896 10.998L12.875 10.5005L12.4986 11.0275ZM13 0.5C6.09079 0.5 0.5 6.09079 0.5 13C0.5 19.8898 6.09027 25.5 13 25.5C19.9092 25.5 25.5 19.9092 25.5 13C25.5 6.09027 19.8898 0.5 13 0.5Z" fill="#5C80B6" stroke="white"/>
</svg>
