<svg width="26" height="27" viewBox="0 0 26 27" fill="none" xmlns="http://www.w3.org/2000/svg">
<g id="Layer_1" clip-path="url(#clip0_5488_14403)">
<path id="Vector" d="M12.7391 0.423828C5.71468 0.423828 0.0187988 6.31073 0.0187988 13.5707C0.0187988 20.8307 5.71468 26.7176 12.7391 26.7176C19.7635 26.7176 25.4594 20.8307 25.4594 13.5707C25.4594 6.31073 19.7661 0.423828 12.7391 0.423828ZM16.477 7.95843H14.6584C14.2766 7.93176 13.8819 8.23571 13.8122 8.6303C13.8045 9.31551 13.8071 9.99805 13.8071 10.6833C14.6945 10.6886 15.5844 10.6833 16.4718 10.6886C16.4048 11.6777 16.2861 12.6642 16.1468 13.6427C15.3626 13.6507 14.5758 13.6427 13.789 13.648C13.7813 16.5675 13.7942 19.4843 13.7838 22.4037C12.6153 22.4091 11.4518 22.3984 10.2833 22.4091C10.2626 19.4896 10.2833 16.5702 10.2704 13.648C9.70283 13.6427 9.13015 13.6534 8.56262 13.6427C8.56778 12.6616 8.56262 11.6777 8.56262 10.7019C9.13015 10.6939 9.70283 10.7019 10.2704 10.6966C10.2858 9.74476 10.2549 8.7876 10.2858 7.83578C10.3477 7.07592 10.6238 6.3134 11.1707 5.79083C11.8336 5.14028 12.77 4.91899 13.66 4.895C14.5964 4.887 15.5354 4.88966 16.4718 4.88966C16.477 5.91347 16.477 6.93462 16.4718 7.95843H16.477Z" fill="#F7F7F6"/>
</g>
<defs>
<clipPath id="clip0_5488_14403">
<rect width="25.4406" height="26.2938" fill="white" transform="translate(0.0187988 0.423828)"/>
</clipPath>
</defs>
</svg>
