<svg xmlns="http://www.w3.org/2000/svg" width="240" height="56" viewBox="0 0 240 56" fill="none">
  <path d="M74.4086 40.8592C73.2652 40.26 72.3824 39.4276 71.7603 38.3481C71.1383 37.2686 70.8272 36.0291 70.8272 34.6295V33.4997C70.8272 33.3716 70.873 33.2619 70.9645 33.1704C71.0559 33.0789 71.1657 33.0332 71.2938 33.0332H75.7717C75.8998 33.0332 76.0095 33.0789 76.101 33.1704C76.1925 33.2619 76.2382 33.3716 76.2382 33.4997V34.355C76.2382 35.1601 76.4441 35.8096 76.8603 36.3035C77.2765 36.7975 77.7934 37.0445 78.42 37.0445C79.0466 37.0445 79.5635 36.8113 79.9797 36.3447C80.396 35.8782 80.6018 35.2698 80.6018 34.5151C80.6018 33.7604 80.3411 33.0698 79.8242 32.5117C79.3028 31.9537 78.2919 31.1304 76.7871 30.0372C75.4881 29.1041 74.4361 28.2717 73.6311 27.5444C72.8261 26.8172 72.14 25.9207 71.5682 24.8595C70.9965 23.7938 70.7129 22.5634 70.7129 21.1592C70.7129 18.9545 71.399 17.189 72.7757 15.8625C74.1525 14.5407 75.9684 13.8774 78.2279 13.8774C80.4874 13.8774 82.349 14.5635 83.7395 15.9403C85.1254 17.3171 85.8207 19.1192 85.8207 21.3513V22.2844C85.8207 22.4124 85.7749 22.5222 85.6834 22.6137C85.592 22.7052 85.4822 22.7509 85.3541 22.7509H80.8762C80.7481 22.7509 80.6338 22.7052 80.5469 22.6137C80.46 22.5222 80.4097 22.4124 80.4097 22.2844V21.2324C80.4097 20.4273 80.2084 19.787 79.8059 19.3067C79.4034 18.8265 78.8774 18.5886 78.2279 18.5886C77.5784 18.5886 77.0981 18.8173 76.7093 19.2701C76.3206 19.723 76.1239 20.3542 76.1239 21.1592C76.1239 21.9642 76.3709 22.6274 76.8649 23.222C77.3588 23.8212 78.3331 24.6491 79.783 25.7148C81.3931 26.9086 82.6052 27.8737 83.4239 28.6147C84.2426 29.3557 84.8784 30.1744 85.3312 31.0664C85.7841 31.9629 86.0128 33.0332 86.0128 34.2773C86.0128 36.5643 85.313 38.3801 83.9087 39.7294C82.5045 41.0788 80.6612 41.7557 78.3788 41.7557C76.874 41.7557 75.5476 41.4584 74.4086 40.8592Z" fill="#424143"/>
  <path d="M101.664 41.0147L101.042 37.2778C101.042 37.1497 100.965 37.0811 100.809 37.0811H95.8646C95.7091 37.0811 95.6314 37.1452 95.6314 37.2778L95.0093 41.0147C94.9819 41.2983 94.8126 41.4447 94.5016 41.4447H89.9459C89.6075 41.4447 89.4794 41.2754 89.5572 40.937L95.2792 14.6184C95.3295 14.3348 95.4987 14.1885 95.7869 14.1885H101.042C101.326 14.1885 101.495 14.3303 101.55 14.6184L107.235 40.937L107.272 41.0925C107.272 41.3257 107.13 41.4447 106.842 41.4447H102.172C101.861 41.4447 101.692 41.3029 101.664 41.0147ZM96.5645 32.8365H100.068C100.196 32.8365 100.251 32.7725 100.224 32.6398L98.394 22.0099C98.3666 21.9322 98.33 21.891 98.2751 21.891C98.2202 21.891 98.1836 21.9276 98.1562 22.0099L96.4044 32.6398C96.4044 32.7679 96.4547 32.8365 96.5599 32.8365H96.5645Z" fill="#424143"/>
  <path d="M111.952 41.3075C111.86 41.216 111.814 41.1063 111.814 40.9782V14.6597C111.814 14.5316 111.86 14.4218 111.952 14.3303C112.043 14.2389 112.153 14.1931 112.281 14.1931H119.329C121.69 14.1931 123.588 14.8838 125.015 16.256C126.442 17.6327 127.155 19.4623 127.155 21.7447V33.8931C127.155 36.1801 126.442 38.0097 125.015 39.3819C123.588 40.7586 121.694 41.4447 119.329 41.4447H112.281C112.153 41.4447 112.039 41.399 111.952 41.3075ZM117.5 36.729L119.252 36.6924C119.952 36.665 120.523 36.3677 120.962 35.7959C121.401 35.2242 121.639 34.4695 121.662 33.5364V22.0878C121.662 21.0998 121.443 20.3222 120.999 19.7505C120.555 19.1787 119.961 18.8951 119.206 18.8951H117.495C117.367 18.8951 117.299 18.9592 117.299 19.0918V36.5369C117.299 36.665 117.363 36.7336 117.495 36.7336L117.5 36.729Z" fill="#424143"/>
  <path d="M132.631 41.3075C132.539 41.216 132.493 41.1063 132.493 40.9782V14.6597C132.493 14.5316 132.539 14.4218 132.631 14.3303C132.722 14.2389 132.832 14.1931 132.96 14.1931H140.008C142.368 14.1931 144.267 14.8838 145.694 16.256C147.121 17.6327 147.834 19.4623 147.834 21.7447V33.8931C147.834 36.1801 147.121 38.0097 145.694 39.3819C144.267 40.7586 142.373 41.4447 140.008 41.4447H132.96C132.832 41.4447 132.717 41.399 132.631 41.3075ZM138.179 36.729L139.931 36.6924C140.63 36.665 141.202 36.3677 141.641 35.7959C142.08 35.2242 142.318 34.4695 142.341 33.5364V22.0878C142.341 21.0998 142.121 20.3222 141.678 19.7505C141.234 19.1787 140.64 18.8951 139.885 18.8951H138.174C138.046 18.8951 137.977 18.9592 137.977 19.0918V36.5369C137.977 36.665 138.042 36.7336 138.174 36.7336L138.179 36.729Z" fill="#424143"/>
  <path d="M153.227 41.3075C153.136 41.216 153.09 41.1063 153.09 40.9782V14.6597C153.09 14.5316 153.136 14.4218 153.227 14.3303C153.319 14.2389 153.428 14.1931 153.556 14.1931H158.112C158.24 14.1931 158.35 14.2389 158.441 14.3303C158.533 14.4218 158.579 14.5316 158.579 14.6597V36.5415C158.579 36.6695 158.643 36.7381 158.775 36.7381H166.953C167.082 36.7381 167.191 36.7839 167.283 36.8754C167.374 36.9668 167.42 37.0766 167.42 37.2047V40.9828C167.42 41.1108 167.374 41.2252 167.283 41.3121C167.191 41.399 167.082 41.4493 166.953 41.4493H153.561C153.433 41.4493 153.319 41.4036 153.232 41.3121L153.227 41.3075Z" fill="#424143"/>
  <path d="M186.352 18.7624C186.261 18.8539 186.151 18.8996 186.023 18.8996H177.886C177.758 18.8996 177.689 18.9636 177.689 19.0963V25.2483C177.689 25.3763 177.753 25.4449 177.886 25.4449H182.56C182.688 25.4449 182.798 25.4907 182.89 25.5821C182.981 25.6736 183.027 25.7834 183.027 25.9115V29.6896C183.027 29.8176 182.981 29.9274 182.89 30.0189C182.798 30.1104 182.688 30.1561 182.56 30.1561H177.886C177.758 30.1561 177.689 30.2201 177.689 30.3528V36.5459C177.689 36.674 177.753 36.7426 177.886 36.7426H186.023C186.151 36.7426 186.261 36.7883 186.352 36.8798C186.443 36.9713 186.489 37.0811 186.489 37.2091V40.9872C186.489 41.1153 186.443 41.2296 186.352 41.3166C186.261 41.4035 186.151 41.4538 186.023 41.4538H172.667C172.539 41.4538 172.424 41.408 172.337 41.3166C172.246 41.2251 172.2 41.1153 172.2 40.9872V14.6687C172.2 14.5406 172.246 14.4308 172.337 14.3394C172.429 14.2479 172.539 14.2021 172.667 14.2021H186.023C186.151 14.2021 186.261 14.2479 186.352 14.3394C186.443 14.4308 186.489 14.5406 186.489 14.6687V18.4468C186.489 18.5749 186.443 18.6892 186.352 18.7761V18.7624Z" fill="#424143"/>
  <path d="M206.321 18.7623C206.23 18.8538 206.12 18.8995 205.992 18.8995H197.892C197.764 18.8995 197.695 18.9636 197.695 19.0962V25.2482C197.695 25.3763 197.759 25.4449 197.892 25.4449H202.525C202.653 25.4449 202.763 25.4906 202.854 25.5821C202.946 25.6736 202.992 25.7833 202.992 25.9114V29.6895C202.992 29.8176 202.946 29.9273 202.854 30.0188C202.763 30.1103 202.653 30.156 202.525 30.156H197.892C197.764 30.156 197.695 30.2201 197.695 30.3527V40.9826C197.695 41.1107 197.649 41.225 197.558 41.3119C197.466 41.4034 197.357 41.4491 197.228 41.4491H192.673C192.545 41.4491 192.43 41.4034 192.343 41.3119C192.252 41.2204 192.206 41.1107 192.206 40.9826V14.6641C192.206 14.536 192.252 14.4262 192.343 14.3347C192.435 14.2432 192.545 14.1975 192.673 14.1975H205.988C206.116 14.1975 206.225 14.2432 206.317 14.3347C206.408 14.4262 206.454 14.536 206.454 14.6641V18.4421C206.454 18.5702 206.408 18.6846 206.317 18.7715L206.321 18.7623Z" fill="#5B7FB4"/>
  <path d="M212.172 41.3075C212.08 41.216 212.034 41.1063 212.034 40.9782V14.6597C212.034 14.5316 212.08 14.4218 212.172 14.3303C212.263 14.2389 212.373 14.1931 212.501 14.1931H217.057C217.185 14.1931 217.294 14.2389 217.386 14.3303C217.477 14.4218 217.523 14.5316 217.523 14.6597V40.9782C217.523 41.1063 217.477 41.2206 217.386 41.3075C217.294 41.399 217.185 41.4447 217.057 41.4447H212.501C212.373 41.4447 212.258 41.399 212.172 41.3075Z" fill="#5B7FB4"/>
  <path d="M239.867 14.3211C239.958 14.4125 240.004 14.5223 240.004 14.6504V18.4285C240.004 18.5565 239.958 18.6709 239.867 18.7578C239.775 18.8447 239.666 18.895 239.538 18.895H234.671C234.543 18.895 234.474 18.959 234.474 19.0917V40.9735C234.474 41.1016 234.428 41.2159 234.337 41.3028C234.246 41.3943 234.136 41.44 234.008 41.44H229.452C229.324 41.44 229.214 41.3943 229.123 41.3028C229.031 41.2113 228.985 41.1016 228.985 40.9735V19.0917C228.985 18.9636 228.921 18.895 228.789 18.895H224.114C223.986 18.895 223.872 18.8493 223.785 18.7578C223.693 18.6663 223.648 18.5565 223.648 18.4285V14.6504C223.648 14.5223 223.693 14.4125 223.785 14.3211C223.876 14.2296 223.986 14.1838 224.114 14.1838H239.533C239.661 14.1838 239.771 14.2296 239.862 14.3211H239.867Z" fill="#5B7FB4"/>
  <path d="M27.8142 0C12.4549 0 0 12.4549 0 27.8142C0 43.1736 12.4549 55.6284 27.8142 55.6284C43.1736 55.6284 55.6284 43.1736 55.6284 27.8142C55.6284 12.4549 43.1736 0 27.8142 0ZM37.7351 36.5002C37.0811 35.4436 35.8415 33.8473 33.5454 31.8393C30.6089 29.2733 29.2687 26.8217 28.3768 25.1979C28.139 24.7634 27.8325 24.2054 27.6221 23.9172C27.4117 24.2054 27.1053 24.7634 26.8674 25.1979C25.9801 26.8217 24.6353 29.2733 21.6988 31.8393C19.4027 33.8427 18.1677 35.439 17.5091 36.5002H12.3222C12.7385 35.1508 14.1061 32.2189 18.5977 28.2945C20.903 26.2819 21.9184 24.4295 22.7326 22.9384C23.2311 22.0282 23.6656 21.2369 24.2877 20.5691C25.1842 19.6085 26.3048 19.1237 27.613 19.1237C28.9211 19.1237 30.0417 19.6085 30.9382 20.5691C31.5649 21.2369 31.9948 22.0236 32.4934 22.9384C33.3075 24.4249 34.323 26.2774 36.6282 28.2945C41.1199 32.2189 42.4875 35.1508 42.9037 36.5002H37.7168H37.7351Z" fill="url(#paint0_linear_197_9881)"/>
  <defs>
    <linearGradient id="paint0_linear_197_9881" x1="0" y1="27.8142" x2="55.6284" y2="27.8142" gradientUnits="userSpaceOnUse">
      <stop stopColor="#5A7DB2"/>
      <stop offset="1" stopColor="#2A354B"/>
    </linearGradient>
  </defs>
</svg>