<svg xmlns="http://www.w3.org/2000/svg" width="24" height="25" viewBox="0 0 24 25" fill="none">
  <path d="M4.20639 12.1472L3.85283 12.5007L4.20639 12.8543L9.74639 18.3943C9.84113 18.489 9.84113 18.6524 9.74639 18.7472L9.74029 18.7533L9.73441 18.7596C9.70417 18.792 9.6453 18.8207 9.56994 18.8207C9.50539 18.8207 9.44478 18.7985 9.39349 18.7472L3.32349 12.6772C3.22876 12.5824 3.22876 12.419 3.32349 12.3243L9.39349 6.25428C9.48823 6.15954 9.65165 6.15954 9.74639 6.25428C9.84113 6.34902 9.84113 6.51244 9.74639 6.60717L4.20639 12.1472Z" fill="#292D32" stroke="#10061A"/>
  <path d="M20.4999 12.7507H3.66992C3.53606 12.7507 3.41992 12.6346 3.41992 12.5007C3.41992 12.3669 3.53606 12.2507 3.66992 12.2507H20.4999C20.6338 12.2507 20.7499 12.3669 20.7499 12.5007C20.7499 12.6346 20.6338 12.7507 20.4999 12.7507Z" fill="#292D32" stroke="#10061A"/>
</svg>