<svg width="166" height="167" viewBox="0 0 166 167" fill="none" xmlns="http://www.w3.org/2000/svg">
<rect x="0.580078" y="0.986572" width="165.282" height="165.282" rx="82.641" fill="white"/>
<path d="M83.2202 11.5911C43.4759 11.5911 11.1836 43.8833 11.1836 83.6276C11.1836 123.372 43.4759 155.664 83.2202 155.664C122.965 155.664 155.257 123.372 155.257 83.6276C155.257 43.8833 122.965 11.5911 83.2202 11.5911ZM103.092 109.089C101.229 109.71 99.9873 109.089 99.3663 107.226L93.1563 92.9427H83.2202V86.7327H90.6722L83.2202 68.7235L67.074 107.226C67.074 108.468 65.832 109.089 64.59 109.089C63.969 109.089 63.969 109.089 63.348 109.089C62.106 108.468 60.864 106.605 61.485 105.363L80.1152 60.0295C80.7362 57.5454 84.4622 57.5454 85.7042 60.0295L104.334 105.363C104.955 106.605 104.334 108.468 103.092 109.089Z" fill="black"/>
</svg>
