<svg xmlns="http://www.w3.org/2000/svg" width="64" height="65" viewBox="0 0 64 65" fill="none">
  <g clip-path="url(#clip0_7098_2891)">
    <path d="M9.93825 33.5434C9.30724 33.5434 8.83398 33.0154 8.83398 32.3114C8.83398 26.8556 12.7778 22.4558 17.6681 22.4558C18.2991 22.4558 18.7724 22.9838 18.7724 23.6878C18.7724 24.3917 18.2991 24.9197 17.6681 24.9197C14.0398 24.9197 11.0425 28.2636 11.0425 32.3114C11.0425 33.0154 10.4904 33.5434 9.93825 33.5434Z" fill="#F7F7F6"/>
    <path d="M22.8734 43.399C22.6368 43.399 22.4001 43.311 22.2424 43.1351C21.7691 42.7831 21.6114 41.9911 22.0057 41.4631C22.7945 40.2312 23.1889 38.7352 23.1889 37.2393C23.1889 36.5353 23.6621 36.0073 24.2932 36.0073C24.9242 36.0073 25.3974 36.5353 25.3974 37.2393C25.3974 39.2632 24.8453 41.1991 23.8199 42.8711C23.5833 43.2231 23.1889 43.399 22.8734 43.399Z" fill="#F7F7F6"/>
    <path d="M3.31325 33.5434C2.68224 33.5434 2.20898 33.0154 2.20898 32.3114C2.20898 26.8556 6.15279 22.4558 11.0431 22.4558C11.6741 22.4558 12.1474 22.9838 12.1474 23.6878C12.1474 24.3917 11.6741 24.9197 11.0431 24.9197C7.4148 24.9197 4.41751 28.2636 4.41751 32.3114C4.41751 33.0154 3.94426 33.5434 3.31325 33.5434Z" fill="#F7F7F6"/>
    <path d="M3.31325 54.4953C2.68224 54.4953 2.20898 53.9673 2.20898 53.2633V32.3201C2.20898 31.6161 2.68224 31.0881 3.31325 31.0881C3.94426 31.0881 4.41751 31.6161 4.41751 32.3201V53.2633C4.41751 53.8793 3.94426 54.4953 3.31325 54.4953Z" fill="#F7F7F6"/>
    <path d="M9.93825 47.0947C9.30724 47.0947 8.83398 46.5668 8.83398 45.8628V32.3113C8.83398 31.6073 9.30724 31.0793 9.93825 31.0793C10.5693 31.0793 11.0425 31.6073 11.0425 32.3113V45.8628C11.0425 46.4788 10.4904 47.0947 9.93825 47.0947Z" fill="#F7F7F6"/>
    <path d="M18.7726 24.9197H11.0427C10.4117 24.9197 9.93848 24.3917 9.93848 23.6878C9.93848 22.9838 10.4117 22.4558 11.0427 22.4558H18.7726C19.4036 22.4558 19.8769 22.9838 19.8769 23.6878C19.8769 24.3917 19.3247 24.9197 18.7726 24.9197Z" fill="#F7F7F6"/>
    <path d="M1.10426 56.8625C0.473256 56.8625 0 56.3345 0 55.6306C0 54.9266 0.473256 54.3986 1.10426 54.3986C5.36357 54.3986 8.83411 50.5267 8.83411 45.7749C8.83411 45.0709 9.30737 44.543 9.93838 44.543C10.5694 44.543 11.0426 45.0709 11.0426 45.7749C11.0426 51.9347 6.54671 56.8625 1.10426 56.8625Z" fill="#F7F7F6"/>
    <path d="M1.10426 56.9593C0.473256 56.9593 0 56.4313 0 55.7274C0 55.0234 0.473256 54.4954 1.10426 54.4954C1.73527 54.4954 2.20853 53.9674 2.20853 53.2634C2.20853 52.5595 2.68178 52.0315 3.31279 52.0315C3.9438 52.0315 4.41706 52.5595 4.41706 53.2634C4.41706 55.2874 2.91841 56.9593 1.10426 56.9593Z" fill="#F7F7F6"/>
    <path d="M17.6687 64.2542C17.0377 64.2542 16.5645 63.7262 16.5645 63.0222V52.0226C16.5645 51.7586 16.6433 51.5826 16.7222 51.4067L21.928 41.551C22.2435 40.935 22.9534 40.7591 23.4267 41.111C23.9788 41.463 24.1366 42.255 23.821 42.783L18.773 52.3746V63.0222C18.773 63.7262 18.2208 64.2542 17.6687 64.2542Z" fill="#F7F7F6"/>
    <path d="M13.2517 64.254C12.6207 64.254 12.1475 63.726 12.1475 63.0221V43.3108C12.1475 42.6068 12.6207 42.0789 13.2517 42.0789C13.8827 42.0789 14.356 42.6068 14.356 43.3108V63.0221C14.356 63.726 13.8039 64.254 13.2517 64.254Z" fill="#F7F7F6"/>
    <path d="M17.6688 64.2542H13.2517C12.6207 64.2542 12.1475 63.7262 12.1475 63.0222C12.1475 62.3183 12.6207 61.7903 13.2517 61.7903H17.6688C18.2998 61.7903 18.773 62.3183 18.773 63.0222C18.773 63.7262 18.2209 64.2542 17.6688 64.2542Z" fill="#F7F7F6"/>
    <path d="M37.4657 24.9197H33.0486C32.4176 24.9197 31.9443 24.3917 31.9443 23.6878C31.9443 22.9838 32.4176 22.4558 33.0486 22.4558H37.4657C38.0967 22.4558 38.5699 22.9838 38.5699 23.6878C38.5699 24.3917 38.0967 24.9197 37.4657 24.9197Z" fill="#F7F7F6"/>
    <path d="M37.4667 24.9196C37.309 24.9196 37.1512 24.9196 36.9935 24.8316C36.4413 24.5676 36.2047 23.7756 36.5202 23.1596L46.4586 0.984463C46.6952 0.368487 47.4051 0.104496 47.9572 0.456483C48.5094 0.720473 48.746 1.51244 48.4305 2.12842L38.4921 24.3036C38.2555 24.6556 37.8611 24.9196 37.4667 24.9196Z" fill="#F7F7F6"/>
    <path d="M33.0488 24.9195C32.891 24.9195 32.7333 24.9195 32.5755 24.8315C32.0234 24.5675 31.7867 23.7755 32.1023 23.1595L39.8321 5.9122C40.0687 5.29622 40.7786 5.03223 41.3307 5.38422C41.8829 5.64821 42.1195 6.44018 41.804 7.05615L34.0742 24.3035C33.8375 24.6555 33.4431 24.9195 33.0488 24.9195Z" fill="#F7F7F6"/>
    <path d="M49.6129 7.68107C49.2185 7.68107 48.8241 7.41708 48.5875 6.97709L46.3789 2.04928C46.1423 1.4333 46.3001 0.729327 46.8522 0.37734C47.4043 0.11335 48.0353 0.289344 48.3508 0.905321L50.5594 5.83314C50.796 6.44911 50.6382 7.15309 50.0861 7.50507C49.9284 7.68107 49.7706 7.68107 49.6129 7.68107Z" fill="#F7F7F6"/>
    <path d="M62.8643 11.377H62.6277L49.3765 7.68113C48.8244 7.50514 48.43 6.88916 48.5878 6.18519C48.7455 5.56921 49.2977 5.12923 49.9287 5.30522L63.1798 9.00108C63.732 9.17707 64.1264 9.79305 63.9686 10.497C63.8109 11.025 63.3376 11.377 62.8643 11.377Z" fill="#F7F7F6"/>
    <path d="M60.6557 17.5367C60.4979 17.5367 60.419 17.5367 60.2613 17.4487C59.7091 17.1847 59.3936 16.4808 59.6303 15.8648L61.8388 9.70501C62.0754 9.08903 62.7064 8.73704 63.2586 9.00103C63.8107 9.26502 64.1262 9.969 63.8896 10.585L61.681 16.7447C61.5233 17.2727 61.05 17.5367 60.6557 17.5367Z" fill="#F7F7F6"/>
    <path d="M60.6557 17.5367H49.6131C48.982 17.5367 48.5088 17.0087 48.5088 16.3047C48.5088 15.6007 48.982 15.0728 49.6131 15.0728H60.6557C61.2867 15.0728 61.76 15.6007 61.76 16.3047C61.76 17.0087 61.2078 17.5367 60.6557 17.5367Z" fill="#F7F7F6"/>
    <path d="M48.5086 38.4799C47.7987 38.4799 47.4043 37.864 47.4043 37.16L48.5086 16.2168C48.5086 15.5128 49.0607 14.9848 49.6917 15.0728C50.3227 15.0728 50.796 15.6888 50.7171 16.3928L49.6128 37.336C49.6128 37.952 49.0607 38.4799 48.5086 38.4799Z" fill="#F7F7F6"/>
    <path d="M44.0916 43.399C43.4606 43.399 42.9873 42.8711 42.9873 42.1671C42.9873 41.4631 43.4606 40.9351 44.0916 40.9351C45.9057 40.9351 47.4044 39.2632 47.4044 37.2393C47.4044 36.5353 47.8776 36.0073 48.5086 36.0073C49.1396 36.0073 49.6129 36.5353 49.6129 37.2393C49.6129 40.5831 47.1677 43.399 44.0916 43.399Z" fill="#F7F7F6"/>
    <path d="M44.0916 64.254C43.4606 64.254 42.9873 63.7261 42.9873 63.0221V42.0789C42.9873 41.3749 43.4606 40.8469 44.0916 40.8469C44.7226 40.8469 45.1958 41.3749 45.1958 42.0789V63.0221C45.1958 63.7261 44.7226 64.254 44.0916 64.254Z" fill="#F7F7F6"/>
    <path d="M39.6746 64.254C39.0436 64.254 38.5703 63.7261 38.5703 63.0221V42.0789C38.5703 41.3749 39.0436 40.8469 39.6746 40.8469C40.3056 40.8469 40.7788 41.3749 40.7788 42.0789V63.0221C40.7788 63.7261 40.3056 64.254 39.6746 64.254Z" fill="#F7F7F6"/>
    <path d="M44.0916 64.2542H39.6746C39.0436 64.2542 38.5703 63.7262 38.5703 63.0222C38.5703 62.3183 39.0436 61.7903 39.6746 61.7903H44.0916C44.7226 61.7903 45.1959 62.3183 45.1959 63.0222C45.1959 63.7262 44.7226 64.2542 44.0916 64.2542Z" fill="#F7F7F6"/>
    <path d="M39.6744 43.399H22.8738C22.2428 43.399 21.7695 42.871 21.7695 42.167C21.7695 41.463 22.2428 40.9351 22.8738 40.9351H39.6744C40.3054 40.9351 40.7787 41.463 40.7787 42.167C40.7787 42.871 40.3054 43.399 39.6744 43.399Z" fill="#F7F7F6"/>
    <path d="M45.1173 7.68095H40.7791C40.1481 7.68095 39.6748 7.15297 39.6748 6.44899C39.6748 5.74502 40.1481 5.21704 40.7791 5.21704H45.1173C45.7483 5.21704 46.2215 5.74502 46.2215 6.44899C46.2215 7.15297 45.7483 7.68095 45.1173 7.68095Z" fill="#F7F7F6"/>
    <path d="M13.251 44.6397C10.8059 44.6397 8.83398 42.4398 8.83398 39.7119C8.83398 39.008 9.30724 38.48 9.93825 38.48C10.5693 38.48 11.0425 39.008 11.0425 39.7119C11.0425 41.0319 12.0679 42.1758 13.251 42.1758C13.882 42.1758 14.3553 42.7038 14.3553 43.4078C14.3553 44.1118 13.8032 44.6397 13.251 44.6397Z" fill="#F7F7F6"/>
    <path d="M33.0486 34.7754H18.6931C18.0621 34.7754 17.5889 34.2474 17.5889 33.5434V22.4558C17.5889 21.7519 18.0621 21.2239 18.6931 21.2239C19.3241 21.2239 19.7974 21.7519 19.7974 22.4558V32.3115H31.9443V22.4558C31.9443 21.7519 32.4176 21.2239 33.0486 21.2239C33.6796 21.2239 34.1528 21.7519 34.1528 22.4558V33.5434C34.1528 34.2474 33.6796 34.7754 33.0486 34.7754Z" fill="#F7F7F6"/>
    <path d="M29.7365 27.3834H22.0066C21.3756 27.3834 20.9023 26.8554 20.9023 26.1515V21.2237C20.9023 20.5197 21.3756 19.9917 22.0066 19.9917H29.7365C30.3675 19.9917 30.8407 20.5197 30.8407 21.2237V26.1515C30.8407 26.8554 30.3675 27.3834 29.7365 27.3834ZM23.1109 24.9195H28.6322V22.4556H23.1109V24.9195Z" fill="#F7F7F6"/>
    <path d="M22.0059 23.6966H18.6931C18.0621 23.6966 17.5889 23.1686 17.5889 22.4646C17.5889 21.7606 18.0621 21.2327 18.6931 21.2327H22.0059C22.6369 21.2327 23.1102 21.7606 23.1102 22.4646C23.1102 23.1686 22.6369 23.6966 22.0059 23.6966Z" fill="#F7F7F6"/>
    <path d="M33.0489 23.6966H29.7361C29.1051 23.6966 28.6318 23.1686 28.6318 22.4646C28.6318 21.7606 29.1051 21.2327 29.7361 21.2327H33.0489C33.6799 21.2327 34.1532 21.7606 34.1532 22.4646C34.1532 23.1686 33.6799 23.6966 33.0489 23.6966Z" fill="#F7F7F6"/>
    <path d="M33.0486 43.3989C32.4176 43.3989 31.9443 42.8709 31.9443 42.1669V33.5432C31.9443 32.8393 32.4176 32.3113 33.0486 32.3113C33.6796 32.3113 34.1529 32.8393 34.1529 33.5432V42.1669C34.1529 42.7829 33.6796 43.3989 33.0486 43.3989Z" fill="#F7F7F6"/>
    <path d="M29.7361 43.3989C29.1051 43.3989 28.6318 42.8709 28.6318 42.1669V33.5432C28.6318 32.8393 29.1051 32.3113 29.7361 32.3113C30.3671 32.3113 30.8404 32.8393 30.8404 33.5432V42.1669C30.8404 42.7829 30.3671 43.3989 29.7361 43.3989Z" fill="#F7F7F6"/>
  </g>
  <defs>
    <clipPath id="clip0_7098_2891">
      <rect width="64" height="64" fill="white" transform="translate(0 0.25415)"/>
    </clipPath>
  </defs>
</svg>
