<svg width="26" height="27" viewBox="0 0 26 27" fill="none" xmlns="http://www.w3.org/2000/svg">
<g id="Layer_1" clip-path="url(#clip0_5488_14396)">
<path id="Vector" d="M16.2906 6.948H9.599C7.9248 6.948 6.56274 8.35574 6.56274 10.0861V17.0661C6.56274 18.7965 7.9248 20.2042 9.599 20.2042H16.2906C17.9648 20.2042 19.3269 18.7965 19.3269 17.0661V10.0861C19.3269 8.35574 17.9648 6.948 16.2906 6.948ZM12.9577 17.7567C10.6876 17.7567 8.84058 15.869 8.84058 13.5468C8.84058 11.2245 10.6876 9.33689 12.9577 9.33689C15.2278 9.33689 17.0748 11.2245 17.0748 13.5468C17.0748 15.869 15.2278 17.7567 12.9577 17.7567ZM17.1471 10.1661C16.6131 10.1661 16.1771 9.71815 16.1771 9.16359C16.1771 8.60902 16.6105 8.16111 17.1471 8.16111C17.6836 8.16111 18.1144 8.60902 18.1144 9.16359C18.1144 9.71815 17.6811 10.1661 17.1471 10.1661Z" fill="#F7F7F6"/>
<path id="Vector_2" d="M12.9764 0.423828C5.95199 0.423828 0.256104 6.31073 0.256104 13.5707C0.256104 20.8307 5.95199 26.7176 12.9764 26.7176C20.0008 26.7176 25.6967 20.8307 25.6967 13.5707C25.6967 6.31073 20.0034 0.423828 12.9764 0.423828ZM20.8314 17.0661C20.8314 19.6522 18.7961 21.7585 16.2913 21.7585H9.59962C7.09735 21.7585 5.05942 19.6549 5.05942 17.0661V10.086C5.05942 7.49984 7.09735 5.39357 9.59962 5.39357H16.2913C18.7935 5.39357 20.8314 7.49984 20.8314 10.086V17.0661Z" fill="#F7F7F6"/>
<path id="Vector_3" d="M12.9584 10.8884C11.5138 10.8884 10.3401 12.0802 10.3401 13.5493C10.3401 15.0183 11.5138 16.2101 12.9584 16.2101C14.403 16.2101 15.5768 15.0183 15.5768 13.5493C15.5768 12.0802 14.403 10.8884 12.9584 10.8884Z" fill="#F7F7F6"/>
</g>
<defs>
<clipPath id="clip0_5488_14396">
<rect width="25.4406" height="26.2938" fill="white" transform="translate(0.256104 0.423828)"/>
</clipPath>
</defs>
</svg>
