<svg width="66" height="66" viewBox="0 0 66 66" fill="none" xmlns="http://www.w3.org/2000/svg">
    <rect x="0.5" y="0.5" width="65" height="65" rx="4.5" stroke="#455C81"/>
    <g clipPath="url(#clip0_0_1)">
        <mask id="mask0_0_1" style="mask-type:luminance" maskUnits="userSpaceOnUse" x="14" y="16" width="37" height="37">
            <path d="M14 16H51V53H14V16Z" fill="white"/>
        </mask>
        <g mask="url(#mask0_0_1)">
            <path d="M45.7622 18.9268C44.7283 18.2659 43.3544 18.5684 42.6936 19.6023L39.3349 24.8571C38.8371 25.6358 37.8775 25.9812 37.0014 25.6972C34.7085 24.9534 30.6677 24.1737 26.6049 23.8574C26.9992 24.575 27.2592 25.405 27.2592 26.3476C27.2592 27.0889 27.005 27.7705 26.5801 28.3114C30.3492 28.6284 33.9022 29.3634 35.6302 29.924C36.2873 30.1371 36.9588 30.2396 37.6224 30.2396C39.7859 30.2396 41.8648 29.1498 43.079 27.2502L46.4377 21.9954C47.0985 20.9615 46.7962 19.5877 45.7622 18.9268Z" stroke="#455C81" stroke-miterlimit="10" stroke-linecap="round" stroke-linejoin="round"/>
            <path d="M46.3653 35.3791C46.8517 34.3875 47.1253 33.2725 47.1253 32.0935V25.6368H44.1102L43.079 27.2502C41.8649 29.1498 39.7859 30.2396 37.6225 30.2396C36.9588 30.2396 36.2873 30.1371 35.6302 29.924C35.225 29.7925 34.7191 29.6515 34.1338 29.5085L34.1061 29.5018L35.6608 39.5634H39.6562C41.8263 39.5634 43.7798 38.6374 45.1444 37.1595" stroke="#455C81" stroke-miterlimit="10" stroke-linecap="round" stroke-linejoin="round"/>
            <path d="M23.9834 29.5291C22.2686 29.4799 20.8934 28.0744 20.8934 26.3476C20.8934 26.1053 20.8827 25.8686 20.8642 25.6369H17.8748V32.0935C17.8748 35.2261 19.8037 37.9082 22.5385 39.0177L24.0047 29.5286L23.9834 29.5291Z" stroke="#455C81" stroke-miterlimit="10" stroke-linecap="round" stroke-linejoin="round"/>
            <path d="M18.1199 40.1241C19.4509 41.3224 21.0813 42.1947 22.8854 42.6147C22.4437 41.8326 22.2476 40.9003 22.3973 39.9309L22.5385 39.0177C19.8038 37.9082 17.8747 35.2262 17.8747 32.0935V25.6368C17.8747 25.1019 17.4411 24.6683 16.9063 24.6683H15.5105C14.9756 24.6683 14.542 25.1019 14.542 25.6368V32.0935C14.542 34.5001 15.3291 36.7227 16.6597 38.5182" stroke="#455C81" stroke-miterlimit="10" stroke-linecap="round" stroke-linejoin="round"/>
            <path d="M45.1445 37.1595C43.7798 38.6374 41.8264 39.5634 39.6562 39.5634H35.6609L35.7176 39.9309C35.8858 41.0195 35.6182 42.0615 35.0558 42.8961H39.6562C45.6122 42.8961 50.458 38.0503 50.458 32.0935V25.6368C50.458 25.1019 50.0245 24.6683 49.4895 24.6683H48.0938C47.5589 24.6683 47.1253 25.1019 47.1253 25.6368V32.0935C47.1253 33.2725 46.8518 34.3875 46.3654 35.3791" stroke="#455C81" stroke-miterlimit="10" stroke-linecap="round" stroke-linejoin="round"/>
            <path d="M33.4271 44.3169C32.8763 44.5868 32.2557 44.7403 31.5943 44.7403H26.5207C25.9588 44.7403 25.4261 44.63 24.9408 44.4315L24.0083 49.0465C23.7063 50.5404 24.8483 51.9365 26.3726 51.9365H32.0185C33.5427 51.9365 34.6848 50.5404 34.3829 49.0465L33.4271 44.3169Z" stroke="#455C81" stroke-miterlimit="10" stroke-linecap="round" stroke-linejoin="round"/>
            <path d="M30.4903 44.7403H27.9008L27.312 47.6541C27.1741 48.3363 27.6957 48.9739 28.3918 48.9739H29.9992C30.6954 48.9739 31.217 48.3363 31.0791 47.6541L30.4903 44.7403Z" stroke="#455C81" stroke-miterlimit="10" stroke-linecap="round" stroke-linejoin="round"/>
            <path d="M34.1061 29.5019C32.1968 29.037 29.4517 28.5529 26.58 28.3114C25.9974 29.0533 25.0928 29.5305 24.0763 29.5305C24.0523 29.5305 24.0286 29.5292 24.0047 29.5287L22.3974 39.9309C22.0066 42.4592 23.9625 44.7403 26.5206 44.7403H31.5942C34.1525 44.7403 36.1082 42.4592 35.7175 39.9309L34.1061 29.5019Z" stroke="#455C81" stroke-miterlimit="10" stroke-linecap="round" stroke-linejoin="round"/>
            <path d="M22.7695 20.449H18.8695C18.8695 20.449 20.8935 22.8822 20.8935 26.3476C20.8935 28.1055 22.3185 29.5304 24.0763 29.5304C25.8342 29.5304 27.2592 28.1055 27.2592 26.3476C27.2592 22.427 22.7695 20.449 22.7695 20.449Z" stroke="#455C81" stroke-miterlimit="10" stroke-linecap="round" stroke-linejoin="round"/>
            <path d="M22.7695 17.0636H18.8694C17.9347 17.0636 17.1768 17.8215 17.1768 18.7563C17.1768 19.6911 17.9347 20.449 18.8694 20.449H22.7695C23.7043 20.449 24.4621 19.6911 24.4621 18.7563C24.4621 17.8215 23.7043 17.0636 22.7695 17.0636Z" stroke="#455C81" stroke-miterlimit="10" stroke-linecap="round" stroke-linejoin="round"/>
        </g>
    </g>
    <defs>
        <clipPath id="clip0_0_1">
            <rect width="37" height="37" fill="white" transform="translate(14 16)"/>
        </clipPath>
    </defs>
</svg>
