<svg width="66" height="66" viewBox="0 0 66 66" fill="none" xmlns="http://www.w3.org/2000/svg">
    <rect x="0.5" y="0.5" width="65" height="65" rx="4.5" stroke="#455C81"/>
    <path d="M39.38 23.6067C40.4863 23.6067 41.3866 22.7064 41.3866 21.6C41.3866 20.4936 40.4863 19.5933 39.38 19.5933C38.2736 19.5933 37.3733 20.4936 37.3733 21.6C37.3733 22.7064 38.2736 23.6067 39.38 23.6067ZM39.38 20.74C39.8542 20.74 40.24 21.1257 40.24 21.6C40.24 22.0743 39.8542 22.46 39.38 22.46C38.9057 22.46 38.52 22.0743 38.52 21.6C38.52 21.1257 38.9057 20.74 39.38 20.74Z" fill="#455C81"/>
    <path d="M44.2534 19.02C44.57 19.02 44.8267 18.7633 44.8267 18.4467C44.8267 18.13 44.57 17.8733 44.2534 17.8733C43.9367 17.8733 43.6801 18.13 43.6801 18.4467C43.6801 18.7633 43.9367 19.02 44.2534 19.02Z" fill="#455C81"/>
    <path d="M30.424 26.5427C30.5359 26.6546 30.6827 26.7107 30.8293 26.7107C30.976 26.7107 31.1228 26.6546 31.2347 26.5427L31.64 26.1373L32.0454 26.5427C32.1573 26.6546 32.3041 26.7107 32.4507 26.7107C32.5974 26.7107 32.7441 26.6546 32.8561 26.5427C33.08 26.3188 33.08 25.9559 32.8561 25.732L32.4507 25.3266L32.8561 24.9213C33.08 24.6974 33.08 24.3345 32.8561 24.1106C32.6322 23.8867 32.2693 23.8867 32.0454 24.1106L31.64 24.516L31.2347 24.1106C31.0108 23.8867 30.6479 23.8867 30.424 24.1106C30.2001 24.3345 30.2001 24.6974 30.424 24.9213L30.8293 25.3266L30.424 25.732C30.2 25.956 30.2 26.3188 30.424 26.5427Z" fill="#455C81"/>
    <path d="M48.84 28.7667H46.8576L47.5071 23.8945C47.5747 23.3878 47.4201 22.8765 47.0833 22.492C46.7465 22.1074 46.26 21.8867 45.7489 21.8867C44.9605 21.8867 44.2665 22.4095 44.0462 23.1632L41.7186 28.7667H23.6133V20.1667C23.6133 19.8497 23.3566 19.5933 23.04 19.5933C22.2105 19.5933 21.4266 19.8257 20.7467 20.2204V19.88C20.7467 19.0894 20.104 18.4467 19.3136 18.4467H17.1575C16.9237 18.4467 16.7333 18.2563 16.7333 18.0228V17.3C16.7333 16.9831 16.4766 16.7267 16.16 16.7267C15.8434 16.7267 15.5867 16.9831 15.5867 17.3V18.0228C15.5867 18.889 16.2913 19.5933 17.1575 19.5933H19.3136C19.4716 19.5933 19.6 19.722 19.6 19.88V21.1532C18.8915 21.9448 18.4533 22.9698 18.4533 24.0758V32.2067C18.4533 35.6564 20.8524 38.665 24.1867 39.4534V47.1133C23.9014 47.1133 23.6595 47.3233 23.6192 47.6055L23.0459 51.6189C23.0224 51.7834 23.0714 51.9503 23.1803 52.0758C23.2893 52.2014 23.4471 52.2733 23.6133 52.2733H29.3467C29.5129 52.2733 29.6709 52.2011 29.7797 52.0757C29.8885 51.9503 29.9376 51.7834 29.9141 51.6187L29.3408 47.6054C29.3005 47.3233 29.0586 47.1133 28.7733 47.1133V39.66H30.4933V43.3867C30.4933 45.1251 31.9079 46.54 33.6467 46.54H35.3667C37.1054 46.54 38.52 45.1251 38.52 43.3867V36.5042L41.3867 36.3086V43.3867C41.3867 44.493 42.2869 45.3933 43.3933 45.3933H43.9667C45.0731 45.3933 45.9733 44.493 45.9733 43.3867V35.3551C48.0234 34.2004 49.4133 32.006 49.4133 29.4901V29.34C49.4133 29.0231 49.1566 28.7667 48.84 28.7667ZM45.1184 23.5714C45.1281 23.5479 45.1363 23.5238 45.143 23.4992C45.2161 23.2248 45.4652 23.0333 45.7489 23.0333C45.9322 23.0333 46.0999 23.1094 46.2209 23.2472C46.3416 23.3855 46.3947 23.5612 46.3707 23.7433L45.7007 28.7667H42.96L45.1184 23.5714ZM19.6 32.2067V24.0758C19.6 22.4565 20.8633 21.0619 22.4667 20.7886V34.024C22.4667 35.2731 23.1567 36.363 24.1867 36.9364V38.2724C21.5039 37.5131 19.6 35.0343 19.6 32.2067ZM24.2742 51.1267L24.6838 48.26H25.9067V49.4067C25.9067 49.7236 26.1634 49.98 26.48 49.98C26.7966 49.98 27.0533 49.7236 27.0533 49.4067V48.26H28.2761L28.6856 51.1267H24.2742ZM25.3333 47.1133V37.3235C25.5006 37.3485 25.6706 37.3655 25.8453 37.3655H25.8479L27.6267 37.2447V47.1133H25.3333ZM28.7733 38.5133V37.1667L30.4933 37.0499V38.5133H28.7733ZM44.8267 43.3867C44.8267 43.8609 44.441 44.2467 43.9667 44.2467H43.3933C42.919 44.2467 42.5333 43.8609 42.5333 43.3867V36.2302L42.6834 36.22C43.4333 36.22 44.1526 36.0914 44.8267 35.8641V43.3867ZM42.6444 35.0745L38.52 35.3547V33.9267C38.52 33.6097 38.2633 33.3533 37.9467 33.3533C37.63 33.3533 37.3733 33.6097 37.3733 33.9267V43.3867C37.3733 44.493 36.4731 45.3933 35.3667 45.3933H33.6467C32.5403 45.3933 31.64 44.493 31.64 43.3867V35.0733C31.64 34.7564 31.3833 34.5 31.0667 34.5C30.75 34.5 30.4933 34.7564 30.4933 35.0733V35.9004L25.8089 36.22C24.5982 36.22 23.6133 35.2351 23.6133 34.0241V29.9133H48.2508C48.0338 32.795 45.6179 35.0733 42.6444 35.0745Z" fill="#455C81"/>
    <path d="M43.68 43.1C43.9967 43.1 44.2534 42.8433 44.2534 42.5266C44.2534 42.21 43.9967 41.9533 43.68 41.9533C43.3634 41.9533 43.1067 42.21 43.1067 42.5266C43.1067 42.8433 43.3634 43.1 43.68 43.1Z" fill="#455C81"/>
    <path d="M43.68 40.8066C43.9967 40.8066 44.2534 40.5499 44.2534 40.2333C44.2534 39.9167 43.9967 39.66 43.68 39.66C43.3634 39.66 43.1067 39.9167 43.1067 40.2333C43.1067 40.5499 43.3634 40.8066 43.68 40.8066Z" fill="#455C81"/>
    <path d="M43.68 38.5133C43.9967 38.5133 44.2534 38.2566 44.2534 37.94C44.2534 37.6234 43.9967 37.3667 43.68 37.3667C43.3634 37.3667 43.1067 37.6234 43.1067 37.94C43.1067 38.2566 43.3634 38.5133 43.68 38.5133Z" fill="#455C81"/>
    <path d="M46.5467 31.6333C46.8634 31.6333 47.1201 31.3766 47.1201 31.06C47.1201 30.7434 46.8634 30.4867 46.5467 30.4867C46.2301 30.4867 45.9734 30.7434 45.9734 31.06C45.9734 31.3766 46.2301 31.6333 46.5467 31.6333Z" fill="#455C81"/>
    <path d="M25.3333 35.0733C25.65 35.0733 25.9067 34.8166 25.9067 34.5C25.9067 34.1834 25.65 33.9267 25.3333 33.9267C25.0167 33.9267 24.76 34.1834 24.76 34.5C24.76 34.8166 25.0167 35.0733 25.3333 35.0733Z" fill="#455C81"/>
    <path d="M26.4799 44.82C26.7966 44.82 27.0533 44.5633 27.0533 44.2467C27.0533 43.93 26.7966 43.6733 26.4799 43.6733C26.1633 43.6733 25.9066 43.93 25.9066 44.2467C25.9066 44.5633 26.1633 44.82 26.4799 44.82Z" fill="#455C81"/>
    <path d="M26.4799 42.5267C26.7966 42.5267 27.0533 42.27 27.0533 41.9533C27.0533 41.6367 26.7966 41.38 26.4799 41.38C26.1633 41.38 25.9066 41.6367 25.9066 41.9533C25.9066 42.27 26.1633 42.5267 26.4799 42.5267Z" fill="#455C81"/>
    <path d="M26.4799 40.2333C26.7966 40.2333 27.0533 39.9766 27.0533 39.66C27.0533 39.3434 26.7966 39.0867 26.4799 39.0867C26.1633 39.0867 25.9066 39.3434 25.9066 39.66C25.9066 39.9766 26.1633 40.2333 26.4799 40.2333Z" fill="#455C81"/>
    <path d="M32.7867 40.8066H36.2267C36.5433 40.8066 36.8 40.5502 36.8 40.2333C36.8 39.9164 36.5433 39.66 36.2267 39.66H32.7867C32.4701 39.66 32.2134 39.9164 32.2134 40.2333C32.2134 40.5502 32.4701 40.8066 32.7867 40.8066Z" fill="#455C81"/>
</svg>
