<svg width="66" height="66" viewBox="0 0 66 66" fill="none" xmlns="http://www.w3.org/2000/svg">
    <rect x="0.5" y="0.5" width="65" height="65" rx="4.5" stroke="#455C81"/>
    <path d="M43.6666 26.8667C43.9612 26.8667 44.2 26.6279 44.2 26.3333C44.2 26.0388 43.9612 25.8 43.6666 25.8C43.3721 25.8 43.1333 26.0388 43.1333 26.3333C43.1333 26.6279 43.3721 26.8667 43.6666 26.8667Z" fill="#455C81"/>
    <path d="M44.3563 22.4437C44.4604 22.548 44.5969 22.6 44.7333 22.6C44.8697 22.6 45.0063 22.5479 45.1104 22.4437L45.5333 22.0209L45.9563 22.4439C46.0604 22.548 46.1969 22.6 46.3333 22.6C46.4697 22.6 46.6063 22.5479 46.7104 22.4437C46.9187 22.2355 46.9187 21.8979 46.7104 21.6896L46.2875 21.2667L46.7104 20.8437C46.9187 20.6355 46.9187 20.2979 46.7104 20.0896C46.5021 19.8813 46.1645 19.8813 45.9563 20.0896L45.5333 20.5125L45.1104 20.0896C44.9021 19.8813 44.5645 19.8813 44.3563 20.0896C44.148 20.2979 44.148 20.6355 44.3563 20.8437L44.7792 21.2667L44.3563 21.6896C44.1479 21.898 44.1479 22.2355 44.3563 22.4437Z" fill="#455C81"/>
    <path d="M38.8667 21.5333C39.749 21.5333 40.4667 20.8156 40.4667 19.9333C40.4667 19.0511 39.749 18.3333 38.8667 18.3333C37.9845 18.3333 37.2667 19.0511 37.2667 19.9333C37.2667 20.8156 37.9845 21.5333 38.8667 21.5333ZM38.8667 19.4C39.161 19.4 39.4001 19.6393 39.4001 19.9333C39.4001 20.2273 39.161 20.4667 38.8667 20.4667C38.5725 20.4667 38.3334 20.2273 38.3334 19.9333C38.3334 19.6393 38.5725 19.4 38.8667 19.4Z" fill="#455C81"/>
    <path d="M29.2667 22.0667C29.5613 22.0667 29.8001 21.8279 29.8001 21.5333C29.8001 21.2388 29.5613 21 29.2667 21C28.9722 21 28.7334 21.2388 28.7334 21.5333C28.7334 21.8279 28.9722 22.0667 29.2667 22.0667Z" fill="#455C81"/>
    <path d="M49 48.2H41.7687L42.4521 45.7057L43.2261 43.8227C43.4835 43.1975 43.4059 42.4901 43.0188 41.9309C42.6319 41.3711 42.1677 40.4765 42.1584 39.3949C42.1548 38.9592 42.3021 38.4884 42.5844 38.0337C42.7699 37.7352 43.0103 37.2051 43.2177 36.554V38.4869C43.2177 39.7003 43.6365 40.89 44.3964 41.8375L45.9172 43.7336C46.0208 43.8631 46.1756 43.9333 46.3333 43.9333C46.4073 43.9333 46.4812 43.9183 46.5516 43.8864C46.7735 43.7869 46.9 43.5503 46.8595 43.3107L46.4491 40.8937V32.7541C46.4491 31.2724 45.2408 30.0667 43.7559 30.0667H41.7499C41.0905 29.6325 40.2988 29.3684 39.4001 29.2832V28.7273C39.4001 28.5804 39.3397 28.4401 39.2329 28.3393C39.1261 28.2388 38.9756 28.1891 38.836 28.1948C37.7647 28.2573 36.9605 28.5191 36.9667 28.5191C36.9355 28.5264 33.7568 29.2581 31.6521 28.13C31.486 28.0415 31.2871 28.0459 31.1261 28.1425C30.9651 28.2388 30.8667 28.4125 30.8667 28.6V29.0505C30.6749 28.9279 30.5005 28.7911 30.3453 28.6412C30.0131 28.3212 29.8229 27.8431 29.8229 27.3295V26.8233C30.4593 26.4904 31.0009 26.1348 31.4136 25.8347L31.8276 26.0241C32.2588 26.366 32.9193 26.332 33.1224 26.3124C33.4271 26.2821 33.9803 26.1695 34.2588 25.7536L34.7061 25.0851C35.0463 24.5769 34.9785 23.8949 34.5452 23.4629L32.0025 20.9304C31.9889 20.052 31.4552 19.2773 30.6343 18.9499L30.4925 18.8933C30.5381 18.8545 30.5795 18.81 30.6291 18.7769C30.8739 18.6136 30.9405 18.2827 30.7769 18.0373C30.6171 17.7968 30.2967 17.7312 30.0524 17.8832V17.2667C30.0524 17.082 29.9571 16.9104 29.7997 16.8133C29.6419 16.716 29.4471 16.7068 29.2809 16.7893C28.3559 17.25 27.9669 17.9773 27.8039 18.5164C27.4403 18.6435 27.1085 18.8489 26.8304 19.1213C25.6385 20.2883 22.8667 23.3273 22.8667 26.3333V26.9637V26.9653V31.7091C22.8667 33.1669 23.2921 35.8489 24.238 37.2479L24.5397 37.694L25.0517 42.3333H24.6401C23.8781 42.3333 23.236 42.9005 23.1199 43.6461L22.4419 46.6H22.1145C21.4604 46.6 20.9593 46.3248 20.74 45.8451C20.6536 45.6552 20.464 45.5333 20.2551 45.5333H20.0667C19.7719 45.5333 19.5333 45.7721 19.5333 46.0667C19.5333 46.8867 19.846 47.6332 20.3549 48.2H17C16.7052 48.2 16.4667 48.4388 16.4667 48.7333C16.4667 49.0279 16.7052 49.2667 17 49.2667H49C49.2948 49.2667 49.5333 49.0279 49.5333 48.7333C49.5333 48.4388 49.2948 48.2 49 48.2ZM45.3823 32.7543V40.9387C45.3823 40.9687 45.3849 40.9983 45.3896 41.028L45.4636 41.4637L45.2287 41.1703C44.6199 40.4115 44.2844 39.4585 44.2844 38.4872V32.5145C44.2844 31.9976 44.0948 31.5107 43.7719 31.1336C44.6615 31.1423 45.3823 31.8659 45.3823 32.7543ZM36.2 29.7272V31.6667H34.0667V29.8083C34.8764 29.8539 35.6279 29.7995 36.2 29.7272ZM31.9333 29.4128C32.2824 29.5347 32.6413 29.6211 33 29.6849V32.2C33 32.4945 33.2385 32.7333 33.5333 32.7333H36.7333C37.0281 32.7333 37.2667 32.4945 37.2667 32.2V29.5413C37.3195 29.5247 37.7357 29.3967 38.3333 29.3152V33.2275C38.3333 33.5433 38.0765 33.8001 37.7609 33.8001H32.3281C32.1104 33.8001 31.9333 33.6228 31.9333 33.4051V29.4128ZM29.8229 25.5913V25.1068L30.2744 25.3135C30.1332 25.4047 29.9825 25.498 29.8229 25.5913ZM27.5765 19.8836C27.7921 19.6727 28.062 19.5287 28.3568 19.4675C28.5704 19.4232 28.7355 19.2535 28.7735 19.0388C28.8005 18.8861 28.8595 18.674 28.986 18.4549V19.08C28.986 19.2983 29.1193 19.4945 29.322 19.5756L30.2397 19.9409C30.6632 20.1097 30.9367 20.5117 30.9367 20.9649V21.1524C30.9367 21.2943 30.9929 21.4303 31.0935 21.5303L33.7924 24.2188C33.8659 24.2917 33.8773 24.4063 33.82 24.4917L33.3856 25.1444C33.246 25.2712 32.6429 25.3001 32.4965 25.1936C32.4517 25.1491 32.3992 25.1129 32.3419 25.0865L32.328 25.0803C32.5056 24.8775 32.5119 24.5731 32.3241 24.3709C32.1241 24.1545 31.7861 24.1428 31.5711 24.3425C31.5647 24.3484 31.4589 24.4447 31.2707 24.5963L29.5117 23.7912C29.3467 23.7155 29.1544 23.7287 29.0019 23.8273C28.8488 23.9252 28.7565 24.0945 28.7565 24.276V26.1419C27.3823 26.7565 25.6564 27.1591 23.9336 26.5859V26.3333C23.9333 23.6592 26.7219 20.7204 27.5765 19.8836ZM23.9333 31.7092V27.698C24.2919 27.7969 24.648 27.8633 25 27.8995V33.8C25 34.0945 25.2385 34.3333 25.5333 34.3333C25.8281 34.3333 26.0667 34.0945 26.0667 33.8V27.9212C27.0297 27.8704 27.9429 27.6359 28.7563 27.3141V27.3295C28.7563 28.1313 29.0656 28.8891 29.6047 29.4087C29.9585 29.7505 30.3848 30.0333 30.8667 30.2593V33.4051C30.8667 34.2111 31.5224 34.8668 32.3281 34.8668H37.7609C38.6645 34.8668 39.4 34.1313 39.4 33.2275V30.3501C40.5225 30.4755 41.3901 30.9348 41.9817 31.7209C43.2401 33.3917 42.2744 36.5113 41.6781 37.4715C41.2891 38.098 41.0864 38.7663 41.0917 39.404C41.1037 40.7571 41.6693 41.8551 42.1417 42.5379C42.322 42.7988 42.3589 43.1275 42.2396 43.4171L41.6245 44.9135L41.6349 43.5684C41.6401 42.9635 41.4229 42.3793 41.0344 41.9372L37.1459 37.1953C37.1447 37.1939 37.1429 37.1931 37.1416 37.1916C37.1328 37.1809 37.1197 37.1743 37.11 37.1643C37.0724 37.1263 37.0323 37.0928 36.9868 37.0681C36.9811 37.0651 36.9779 37.0595 36.972 37.0565L35.9053 36.5232C35.6413 36.3912 35.322 36.498 35.1897 36.7617C35.0644 37.0125 35.1597 37.3099 35.3959 37.452C33.538 37.9311 31.2727 37.7256 30.3335 37.6052V36.4667C30.3335 36.1721 30.0949 35.9333 29.8001 35.9333C29.5053 35.9333 29.2668 36.1721 29.2668 36.4667C29.2668 36.4667 29.3365 39.4527 29.3371 40.8601C29.3373 42.2572 29.3267 43.7793 29.3157 44.9664L29.1371 44.1893L28.7433 42.0831C28.7297 42.0112 28.7017 41.9427 28.6605 41.8823L25.1213 36.6505C24.4109 35.5992 23.9333 33.2469 23.9333 31.7092ZM35.3624 48.2L36.7443 45.0625L37.6349 43.6917C37.9115 43.2657 38.0573 42.7707 38.0573 42.2603V41.1324L38.4993 40.5279L40.2213 42.6272C40.4479 42.8856 40.5713 43.2165 40.5683 43.5595L40.5543 45.3704L39.134 48.2H35.3624ZM31.7784 48.2C32.2873 47.6332 32.6 46.8867 32.6 46.0667C32.6 45.7721 32.3615 45.5333 32.0667 45.5333H31.8781C31.6693 45.5333 31.4797 45.6552 31.3932 45.8451C31.2153 46.2343 30.846 46.4797 30.3657 46.5619C30.378 45.5187 30.404 43.0345 30.4036 40.8599C30.4031 39.9953 30.3885 39.2221 30.3692 38.6861C31.2723 38.7953 32.9603 38.9281 34.6159 38.6913L35.1077 42.2268L34.5181 45.2525L32.7021 48.2H31.7784ZM27.6905 42.3517C27.6255 42.3432 27.5605 42.3335 27.4933 42.3335H27.4132L27.4405 41.9821L27.6905 42.3517ZM35.6639 38.4849C35.9788 38.4037 36.2867 38.3067 36.5796 38.1872L37.8004 39.6756L37.0931 40.6432C37.0264 40.7347 36.9904 40.8448 36.9904 40.958V42.2601C36.9904 42.564 36.904 42.8583 36.7399 43.1107L35.8259 44.5175C35.8103 44.5417 35.7967 44.5669 35.7852 44.5932L35.692 44.8052L36.1717 42.3435C36.1832 42.2856 36.1848 42.2263 36.1764 42.168L35.6639 38.4849ZM25.8223 39.59L26.4808 40.5636L26.3431 42.3333H26.1249L25.8223 39.59ZM24.1661 43.8485C24.2073 43.5887 24.4068 43.4001 24.6401 43.4001H27.4932C27.7265 43.4001 27.926 43.5887 27.9739 43.8848L28.0863 44.3745L28.4312 46.22L28.3371 46.6H28.2V46.0667C28.2 45.7721 27.9615 45.5333 27.6667 45.5333C27.3719 45.5333 27.1333 45.7721 27.1333 46.0667V46.6H26.6V46.0667C26.6 45.7721 26.3615 45.5333 26.0667 45.5333C25.7719 45.5333 25.5333 45.7721 25.5333 46.0667V46.6H25V46.0667C25 45.7721 24.7615 45.5333 24.4667 45.5333C24.1719 45.5333 23.9333 45.7721 23.9333 46.0667V46.6H23.536L24.1661 43.8485ZM22.7333 48.2C22.1183 48.2 21.5631 47.9383 21.1735 47.5203C21.462 47.6161 21.7787 47.6667 22.1147 47.6667H30.0188C30.3548 47.6667 30.6715 47.6161 30.96 47.5203C30.5703 47.9383 30.0151 48.2 29.4 48.2H22.7333ZM33.9552 48.2L34.8031 46.8229L34.1969 48.2H33.9552ZM40.3276 48.2L41.0651 46.73L40.6625 48.2H40.3276Z" fill="#455C81"/>
</svg>
