<svg width="66" height="66" viewBox="0 0 66 66" fill="none" xmlns="http://www.w3.org/2000/svg">
    <rect x="0.5" y="0.5" width="65" height="65" rx="4.5" stroke="#455C81"/>
    <path d="M34.2344 19.625H30.7656C30.4465 19.625 30.1875 19.366 30.1875 19.0469C30.1875 18.7278 30.4465 18.4688 30.7656 18.4688H34.2344C34.5535 18.4688 34.8125 18.7278 34.8125 19.0469C34.8125 19.366 34.5535 19.625 34.2344 19.625Z" fill="#455C81"/>
    <path d="M38.8594 50.8438H26.1406C24.5462 50.8438 23.25 49.5464 23.25 47.9531V28.2969C23.25 27.9778 23.509 27.7188 23.8281 27.7188C24.1472 27.7188 24.4062 27.9778 24.4062 28.2969V47.9531C24.4062 48.9093 25.1844 49.6875 26.1406 49.6875H38.8594C39.8156 49.6875 40.5938 48.9093 40.5938 47.9531V28.2969C40.5938 27.9778 40.8528 27.7188 41.1719 27.7188C41.491 27.7188 41.75 27.9778 41.75 28.2969V47.9531C41.75 49.5464 40.4538 50.8438 38.8594 50.8438Z" fill="#455C81"/>
    <path d="M41.1719 32.3438C40.8528 32.3438 40.5938 32.0848 40.5938 31.7656V19.0469C40.5938 18.0907 39.8156 17.3125 38.8594 17.3125H26.1406C25.1844 17.3125 24.4062 18.0907 24.4062 19.0469V31.7656C24.4062 32.0848 24.1472 32.3438 23.8281 32.3438C23.509 32.3438 23.25 32.0848 23.25 31.7656V19.0469C23.25 17.4536 24.5462 16.1562 26.1406 16.1562H38.8594C40.4538 16.1562 41.75 17.4536 41.75 19.0469V31.7656C41.75 32.0848 41.491 32.3438 41.1719 32.3438Z" fill="#455C81"/>
    <path d="M44.6406 21.9953C44.3215 21.9953 44.0625 21.7941 44.0625 21.475V21.3594C44.0625 21.0403 44.3215 20.7812 44.6406 20.7812C44.9597 20.7812 45.2188 21.0403 45.2188 21.3594C45.2188 21.6785 44.9597 21.9953 44.6406 21.9953Z" fill="#455C81"/>
    <path d="M44.6406 24.3078C44.3215 24.3078 44.0625 24.1066 44.0625 23.7875V23.6719C44.0625 23.3528 44.3215 23.0938 44.6406 23.0938C44.9597 23.0938 45.2188 23.3528 45.2188 23.6719C45.2188 23.991 44.9597 24.3078 44.6406 24.3078Z" fill="#455C81"/>
    <path d="M44.6406 26.6203C44.3215 26.6203 44.0625 26.4191 44.0625 26.1V25.9844C44.0625 25.6653 44.3215 25.4062 44.6406 25.4062C44.9597 25.4062 45.2188 25.6653 45.2188 25.9844C45.2188 26.3035 44.9597 26.6203 44.6406 26.6203Z" fill="#455C81"/>
    <path d="M20.3594 41.536C20.0403 41.536 19.7812 41.3348 19.7812 41.0156V40.9C19.7812 40.5809 20.0403 40.3219 20.3594 40.3219C20.6785 40.3219 20.9375 40.5809 20.9375 40.9C20.9375 41.2191 20.6785 41.536 20.3594 41.536Z" fill="#455C81"/>
    <path d="M20.3594 43.8485C20.0403 43.8485 19.7812 43.6473 19.7812 43.3281V43.2125C19.7812 42.8934 20.0403 42.6344 20.3594 42.6344C20.6785 42.6344 20.9375 42.8934 20.9375 43.2125C20.9375 43.5316 20.6785 43.8485 20.3594 43.8485Z" fill="#455C81"/>
    <path d="M20.3594 46.161C20.0403 46.161 19.7812 45.9598 19.7812 45.6406V45.525C19.7812 45.2059 20.0403 44.9469 20.3594 44.9469C20.6785 44.9469 20.9375 45.2059 20.9375 45.525C20.9375 45.8441 20.6785 46.161 20.3594 46.161Z" fill="#455C81"/>
    <path d="M42.7224 46.2188C42.6819 46.2188 42.6403 46.2153 42.5998 46.206C42.2877 46.139 42.0899 45.8314 42.157 45.5192L42.5386 43.7502C42.5848 43.5328 42.7525 43.3628 42.9675 43.3108C43.5133 43.179 44.0452 42.957 44.5481 42.6506C44.7343 42.5349 44.9736 42.5384 45.1598 42.6563L46.3045 43.3883L47.0132 42.6737L46.2813 41.5382C46.1611 41.3521 46.1588 41.1127 46.2733 40.9243C46.5797 40.4213 46.8017 39.8894 46.9323 39.3437C46.9843 39.1286 47.1532 38.9621 47.3694 38.9136L48.6875 38.621V37.6301L47.3705 37.3376C47.1543 37.289 46.9855 37.1225 46.9335 36.9075C46.8028 36.3617 46.5797 35.8298 46.2744 35.3269C46.1588 35.1384 46.1611 34.9002 46.2813 34.7141L47.0144 33.5682L46.3068 32.8606L45.1609 33.5937C44.9748 33.7127 44.7366 33.7151 44.5493 33.5994C44.0452 33.293 43.5133 33.071 42.9687 32.9392C42.7525 32.8872 42.586 32.7161 42.5397 32.4998L42.2553 31.1875H41.75C41.4309 31.1875 41.1719 30.9285 41.1719 30.6094C41.1719 30.2903 41.4309 30.0312 41.75 30.0312H42.7213C42.993 30.0312 43.2288 30.222 43.2855 30.488L43.5942 31.9136C44.0174 32.042 44.4325 32.2154 44.8326 32.4316L46.0744 31.6373C46.3033 31.4916 46.6016 31.524 46.7947 31.7159L48.1603 33.0803C48.3522 33.2722 48.3846 33.5717 48.2377 33.8006L47.4434 35.0424C47.6596 35.4437 47.833 35.8587 47.9614 36.2831L49.3893 36.5999C49.6553 36.6589 49.8438 36.8948 49.8438 37.1653V39.0847C49.8438 39.3553 49.6553 39.5911 49.3905 39.6489L47.9625 39.9657C47.8342 40.3901 47.6607 40.8052 47.4445 41.2052L48.2377 42.4355C48.3857 42.6633 48.3545 42.9639 48.1626 43.1558L46.797 44.5318C46.6039 44.7249 46.3045 44.7573 46.0755 44.6116L44.8337 43.8172C44.4325 44.0334 44.0186 44.2069 43.5954 44.3352L43.2867 45.7609C43.2277 46.0338 42.9872 46.2188 42.7224 46.2188Z" fill="#455C81"/>
    <path d="M43.3583 41.1058C43.1733 41.1058 42.9906 41.0156 42.8785 40.8503C42.7004 40.5855 42.771 40.2259 43.0369 40.0478C43.6786 39.6154 44.0625 38.8962 44.0625 38.125C44.0625 36.8497 43.0253 35.8125 41.75 35.8125C41.5927 35.8125 41.4366 35.8287 41.2875 35.8588C40.9776 35.9212 40.6689 35.7223 40.6041 35.4078C40.5405 35.0945 40.7417 34.7892 41.0551 34.7256C41.2817 34.6805 41.5153 34.6562 41.75 34.6562C43.6624 34.6562 45.2187 36.2126 45.2187 38.125C45.2187 39.2824 44.6441 40.36 43.6798 41.0075C43.5815 41.0734 43.4693 41.1058 43.3583 41.1058Z" fill="#455C81"/>
    <path d="M23.25 32.3438C21.3376 32.3438 19.7812 30.7875 19.7812 28.875C19.7812 27.713 20.3594 26.6342 21.3283 25.9867C21.5908 25.811 21.9515 25.8803 22.1296 26.1474C22.3065 26.4122 22.2348 26.7718 21.9689 26.9487C21.3237 27.3811 20.9375 28.1003 20.9375 28.875C20.9375 30.1504 21.9747 31.1875 23.25 31.1875C23.4049 31.1875 23.5576 31.1725 23.7033 31.1424C24.0097 31.0788 24.3207 31.2812 24.3843 31.5957C24.4479 31.909 24.2444 32.2131 23.931 32.2755C23.7102 32.3206 23.4836 32.3438 23.25 32.3438Z" fill="#455C81"/>
    <path d="M23.25 36.9687H22.2787C22.007 36.9687 21.7712 36.778 21.7145 36.512L21.4058 35.0864C20.9826 34.958 20.5675 34.7846 20.1674 34.5684L18.9256 35.3627C18.6955 35.5084 18.3984 35.4772 18.2053 35.2841L16.8398 33.9197C16.6478 33.7278 16.6154 33.4283 16.7623 33.1994L17.5566 31.9576C17.3404 31.5563 17.167 31.1412 17.0386 30.7169L15.6107 30.4001C15.3447 30.3411 15.1562 30.1052 15.1562 29.8347V27.9153C15.1562 27.6447 15.3447 27.4089 15.6095 27.3511L17.0375 27.0342C17.1658 26.6099 17.3393 26.1948 17.5555 25.7947L16.7634 24.5633C16.6154 24.3356 16.6467 24.0349 16.8386 23.843L18.2041 22.4671C18.3949 22.2728 18.6955 22.2404 18.9256 22.3873L20.1674 23.1816C20.5687 22.9654 20.9826 22.792 21.4058 22.6636L21.7145 21.238C21.7816 20.9246 22.0949 20.7257 22.4013 20.7951C22.7135 20.8622 22.9112 21.1697 22.8442 21.4819L22.4626 23.251C22.4163 23.4684 22.2487 23.6383 22.0336 23.6904C21.4879 23.8222 20.956 24.0442 20.4519 24.3506C20.2646 24.4662 20.0264 24.4627 19.8402 24.3448L18.6955 23.6129L17.9856 24.3275L18.7175 25.4629C18.8389 25.6491 18.8412 25.8884 18.7256 26.0769C18.4192 26.5798 18.1972 27.1117 18.0665 27.6575C18.0145 27.8725 17.8457 28.039 17.6295 28.0876L16.3125 28.379V29.3699L17.6295 29.6624C17.8457 29.711 18.0145 29.8775 18.0665 30.0925C18.1972 30.6383 18.4203 31.1702 18.7256 31.6731C18.8412 31.8616 18.8389 32.0998 18.7187 32.2859L17.9856 33.4306L18.6932 34.1382L19.8391 33.4052C20.0252 33.2872 20.2646 33.2849 20.4507 33.3994C20.9548 33.7058 21.4867 33.9278 22.0313 34.0596C22.2475 34.1117 22.414 34.2828 22.4603 34.499L22.7447 35.8125H23.25C23.5691 35.8125 23.8281 36.0715 23.8281 36.3906C23.8281 36.7097 23.5691 36.9687 23.25 36.9687Z" fill="#455C81"/>
    <path d="M31.9219 36.3906C31.8756 36.3906 31.8294 36.3848 31.782 36.3733C31.4709 36.2958 31.2836 35.9825 31.3611 35.6726L32.5173 31.0476C32.5937 30.7366 32.9024 30.5493 33.218 30.6267C33.5291 30.7042 33.7164 31.0175 33.6389 31.3274L32.4827 35.9524C32.4179 36.216 32.182 36.3906 31.9219 36.3906Z" fill="#455C81"/>
    <path d="M35.3907 36.3906C35.2427 36.3906 35.0947 36.334 34.9814 36.2218C34.7559 35.9963 34.7559 35.6298 34.9814 35.4043L36.8857 33.5L34.9825 31.5968C34.757 31.3713 34.757 31.0048 34.9825 30.7793C35.208 30.5539 35.5745 30.5539 35.8 30.7793L38.1125 33.0918C38.338 33.3173 38.338 33.6838 38.1125 33.9093L35.8 36.2218C35.6867 36.334 35.5387 36.3906 35.3907 36.3906Z" fill="#455C81"/>
    <path d="M29.6094 36.3906C29.4614 36.3906 29.3134 36.334 29.2001 36.2218L26.8876 33.9093C26.6621 33.6838 26.6621 33.3173 26.8876 33.0918L29.2001 30.7793C29.4256 30.5539 29.7921 30.5539 30.0176 30.7793C30.243 31.0048 30.243 31.3713 30.0176 31.5968L28.1144 33.5L30.0176 35.4032C30.243 35.6286 30.243 35.9952 30.0176 36.2206C29.9054 36.334 29.7574 36.3906 29.6094 36.3906Z" fill="#455C81"/>
</svg>
