<svg width="66" height="66" viewBox="0 0 66 66" fill="none" xmlns="http://www.w3.org/2000/svg">
    <rect x="0.5" y="0.5" width="65" height="65" rx="4.5" stroke="#455C81"/>
    <path d="M24.224 15.546C22.7203 15.546 21.4907 16.7756 21.4907 18.2792V46.7191C21.4907 48.2227 22.7203 49.4523 24.224 49.4523H32.1612H36.2467H39.5365H40.893H45.0192C46.5023 49.4523 47.6651 48.1394 47.4897 46.6667L46.1738 35.5896C46.1575 35.4566 46.093 35.3341 45.9924 35.2455C45.8917 35.1569 45.7621 35.1083 45.628 35.109H42.273V18.2792C42.273 16.7756 41.0402 15.546 39.5365 15.546H24.224ZM24.224 16.6408H39.5365C40.4491 16.6408 41.1793 17.3667 41.1793 18.2792V35.109H40.0855V18.8282C40.0855 18.2307 39.5894 17.7345 38.9918 17.7345H36.2542C36.1099 17.7351 35.9717 17.7927 35.8697 17.8947C35.7676 17.9967 35.71 18.135 35.7095 18.2792V18.8282C35.7095 19.1367 35.4732 19.373 35.1647 19.373H28.6001C28.2916 19.373 28.0511 19.1367 28.0511 18.8282V18.2792C28.0505 18.135 27.9929 17.9967 27.8909 17.8947C27.7889 17.7927 27.6506 17.7351 27.5063 17.7345H24.773C24.1755 17.7345 23.6793 18.2307 23.6793 18.8282V46.1701C23.6793 46.7676 24.1755 47.2638 24.773 47.2638H32.1003H33.774C33.8238 47.6629 33.9699 48.0361 34.1895 48.3575H32.1612H24.224C23.3115 48.3575 22.5855 47.6316 22.5855 46.7191V18.2792C22.5855 17.3667 23.3115 16.6408 24.224 16.6408ZM24.773 18.8282H26.9616C26.9616 19.7278 27.7005 20.4677 28.6001 20.4677H35.1647C36.0643 20.4677 36.8032 19.7278 36.8032 18.8282H38.9918V35.109H35.6326C35.4994 35.1096 35.371 35.1587 35.2715 35.2472C35.172 35.3357 35.1082 35.4575 35.0921 35.5896L34.1564 43.4368H26.9616C26.8898 43.4366 26.8186 43.4504 26.7522 43.4777C26.6857 43.5049 26.6253 43.5449 26.5743 43.5955C26.5233 43.6461 26.4828 43.7062 26.455 43.7725C26.4273 43.8387 26.4129 43.9097 26.4126 43.9816C26.4123 44.0537 26.4263 44.1252 26.4538 44.192C26.4813 44.2587 26.5217 44.3194 26.5728 44.3704C26.6238 44.4214 26.6844 44.4618 26.7512 44.4893C26.8179 44.5168 26.8894 44.5308 26.9616 44.5306H34.0261L33.8307 46.1701H32.1003H24.773V18.8282ZM31.8824 25.3927C29.7747 25.3927 28.0511 27.1119 28.0511 29.2196C28.0511 31.3273 29.7747 33.0465 31.8824 33.0465C33.9901 33.0465 35.7095 31.3273 35.7095 29.2196C35.7095 27.1119 33.9901 25.3927 31.8824 25.3927ZM31.8824 26.4821C33.399 26.4821 34.6157 27.703 34.6157 29.2196C34.6157 30.7362 33.399 31.9518 31.8824 31.9518C30.3658 31.9518 29.1448 30.7362 29.1448 29.2196C29.1448 27.703 30.3658 26.4821 31.8824 26.4821ZM32.9591 28.0394C32.835 28.0433 32.716 28.0892 32.6216 28.1697L31.4947 29.1224L31.1561 28.8116C31.0495 28.7139 30.9084 28.6624 30.7639 28.6684C30.6193 28.6744 30.4831 28.7374 30.3849 28.8436C30.3359 28.8965 30.2978 28.9586 30.2728 29.0263C30.2479 29.094 30.2366 29.166 30.2395 29.238C30.2425 29.3101 30.2597 29.3809 30.2902 29.4463C30.3206 29.5117 30.3637 29.5704 30.417 29.6191L31.1112 30.2524C31.2091 30.3427 31.3366 30.3941 31.4697 30.3971C31.6029 30.4001 31.7325 30.3544 31.8343 30.2686L33.3276 29.005C33.3825 28.9587 33.4278 28.902 33.4608 28.8381C33.4939 28.7743 33.514 28.7046 33.52 28.633C33.5261 28.5613 33.5179 28.4892 33.4961 28.4207C33.4742 28.3523 33.4391 28.2888 33.3927 28.2339C33.3465 28.1788 33.2899 28.1334 33.2261 28.1002C33.1623 28.067 33.0926 28.0468 33.021 28.0405C33.0004 28.039 32.9797 28.0386 32.9591 28.0394ZM36.1207 36.2027H45.1441L46.4034 46.796C46.5035 47.6363 45.8654 48.3575 45.0192 48.3575H40.893H39.5365H36.2467C35.4005 48.3575 34.7571 47.6363 34.8571 46.796L36.1207 36.2027ZM37.5018 37.4225C37.4299 37.4222 37.3588 37.4361 37.2923 37.4633C37.2259 37.4905 37.1654 37.5306 37.1144 37.5811C37.0635 37.6317 37.0229 37.6918 36.9952 37.7581C36.9675 37.8243 36.953 37.8954 36.9527 37.9672C36.9527 40.0029 38.6033 41.6692 40.6303 41.6692C42.6573 41.6692 44.3078 40.0029 44.3078 37.9672C44.3072 37.8229 44.2497 37.6847 44.1476 37.5826C44.0456 37.4806 43.9074 37.423 43.7631 37.4225C43.6912 37.4222 43.6201 37.4361 43.5536 37.4633C43.4872 37.4905 43.4267 37.5306 43.3757 37.5811C43.3247 37.6317 43.2842 37.6918 43.2565 37.7581C43.2288 37.8243 43.2143 37.8954 43.214 37.9672C43.214 39.4163 42.0616 40.5744 40.6303 40.5744C39.1989 40.5744 38.0465 39.4163 38.0465 37.9672C38.0459 37.8229 37.9884 37.6847 37.8863 37.5826C37.7843 37.4806 37.6461 37.423 37.5018 37.4225Z" fill="#455C81"/>
</svg>
