<svg width="1331" height="2344" viewBox="0 0 1331 2344" fill="none" xmlns="http://www.w3.org/2000/svg">
<path d="M1331 -5.81799e-05C1227.79 31.8496 1003 136.891 702.251 481.111C547.897 657.814 405.793 735.6 291.864 798.074C222.037 836.355 161.705 869.43 110.559 917.204C37.0573 986.109 -5.56071e-05 1071.86 -5.12297e-05 1172C-4.68524e-05 1272.14 37.3635 1358.2 110.559 1426.8C161.705 1474.57 222.037 1507.64 291.864 1545.93C405.793 1608.4 547.897 1686.19 702.251 1862.89C1003 2207.11 1227.79 2312.15 1331 2344C1331 1487.93 1331 960.323 1331 -5.81799e-05Z" fill="white"/>
</svg>
