<svg width="787" height="1814" viewBox="0 0 787 1814" fill="none" xmlns="http://www.w3.org/2000/svg">
<path fill-rule="evenodd" clip-rule="evenodd" d="M-341.989 1504.98C-278.684 1463.52 -188.362 1390.28 -76.9023 1262.88C15.9554 1156.44 -105.043 1065.46 -194.347 998.314C-253.133 954.113 -298.185 920.237 -259.47 899.076C-256.743 897.561 -253.932 896.004 -251.063 894.416C-240.747 888.704 -229.695 882.585 -219.202 876.563C-200.565 865.867 -200.503 841.418 -219.134 830.713C-232.516 823.024 -246.826 815.209 -259.316 808.388L-259.47 808.304C-296.921 787.833 -255.949 771.186 -199.992 748.451C-110.227 711.98 18.0985 659.843 -76.9023 551.118C-188.362 423.718 -278.684 350.476 -341.989 309.018C-351.262 302.944 -357 292.71 -357 281.624L-357 31.3599C-357 9.82028 -336.236 -5.47159 -316.308 2.70401C-236.291 35.532 -106.395 110.425 58.6668 280.882C85.203 268.534 117.242 269.619 147.065 290.424C209.243 333.799 285.182 399.374 371.77 498.479C462.9 602.807 546.809 648.82 614.122 685.733L614.425 685.899L614.434 685.904C655.718 708.537 691.389 728.093 721.628 756.34C764.907 796.902 787 847.786 787 907C787 966.214 765.089 1016.92 721.628 1057.66C691.388 1085.91 655.717 1105.46 614.432 1128.1L614.425 1128.1L614.122 1128.27C546.809 1165.18 462.9 1211.19 371.77 1315.52C285.182 1414.63 209.242 1480.2 147.065 1523.58C117.242 1544.38 85.2029 1545.47 58.6668 1533.12C-106.395 1703.57 -236.291 1778.47 -316.308 1811.3C-336.236 1819.47 -357 1804.18 -357 1782.64V1532.38C-357 1521.29 -351.262 1511.06 -341.989 1504.98Z" fill="white"/>
</svg>
