<svg width="24" height="24" viewBox="0 0 24 24" fill="none" xmlns="http://www.w3.org/2000/svg">
<g id="Group 1410103588">
<circle id="Ellipse 16" cx="12" cy="12" r="12" fill="white"/>
<path id="Vector" d="M12 0C5.36693 0 0 5.36693 0 12C0 18.6142 5.36693 24 12 24C18.6331 24 24 18.6331 24 12C24 5.36693 18.6142 0 12 0ZM16.2709 15.7417C15.9874 15.2882 15.4583 14.589 14.4567 13.7386C13.1906 12.6236 12.6047 11.5843 12.2268 10.8661C12.1323 10.6772 12 10.4315 11.9055 10.3181C11.811 10.4504 11.6787 10.6772 11.5843 10.8661C11.2063 11.5654 10.6205 12.6236 9.35433 13.7386C8.37165 14.6079 7.82362 15.2882 7.54016 15.7417H5.32913C5.49921 15.1559 6.10394 13.8898 8.0315 12.2079C9.03307 11.3386 9.46772 10.5449 9.80787 9.90236C10.0157 9.50551 10.2047 9.16535 10.4882 8.88189C10.885 8.46614 11.3575 8.25827 11.9244 8.25827C12.4913 8.25827 12.9638 8.46614 13.3606 8.88189C13.6252 9.16535 13.8142 9.50551 14.0409 9.90236C14.4 10.5449 14.8346 11.3386 15.8173 12.2079C17.7449 13.8898 18.3307 15.1559 18.5197 15.7417H16.2709Z" fill="#2B364B"/>
</g>
</svg>
