<svg width="154" height="36" viewBox="0 0 154 36" fill="none" xmlns="http://www.w3.org/2000/svg">
<g id="Frame" clipPath="url(#clip0_197_8880)">
<path id="Vector" d="M18.0658 0C8.07981 0 0 8.05039 0 18C0 27.9213 8.07981 36 18.0658 36C28.0517 36 36.1315 27.9496 36.1315 18C36.1315 8.05039 28.0233 0 18.0658 0ZM24.4955 23.6126C24.0687 22.9323 23.2721 21.8835 21.7643 20.6079C19.8581 18.9354 18.9762 17.3764 18.4072 16.2992C18.2649 16.0157 18.0658 15.6472 17.9235 15.4772C17.7813 15.6756 17.5821 16.0157 17.4399 16.2992C16.8709 17.348 15.9889 18.9354 14.0828 20.6079C12.6034 21.9118 11.7783 22.9323 11.3516 23.6126H8.02291C8.27896 22.7339 9.18936 20.8346 12.0913 18.3118C13.5991 17.0079 14.2535 15.8173 14.7656 14.8535C15.0785 14.2583 15.363 13.748 15.7898 13.3228C16.3872 12.6992 17.0985 12.3874 17.952 12.3874C18.8055 12.3874 19.5167 12.6992 20.1142 13.3228C20.5125 13.748 20.797 14.2583 21.1384 14.8535C21.6789 15.8173 22.3333 17.0079 23.8127 18.3118C26.7146 20.8346 27.5965 22.7339 27.881 23.6126H24.4955Z" fill="white"/>
<path id="Vector_2" d="M51.0114 26.0222C50.3001 25.6537 49.7596 25.1435 49.3613 24.4632C48.963 23.7829 48.7923 23.0175 48.7923 22.1671V21.4585C48.7923 21.3734 48.8207 21.3167 48.8776 21.26C48.9345 21.2033 48.9914 21.175 49.0768 21.175H51.8649C51.9502 21.175 52.0071 21.2033 52.064 21.26C52.1209 21.3167 52.1494 21.3734 52.1494 21.4585V21.997C52.1494 22.5073 52.2916 22.9041 52.5477 23.2159C52.8037 23.5277 53.1167 23.6695 53.515 23.6695C53.9133 23.6695 54.2262 23.5277 54.4823 23.2443C54.7383 22.9608 54.8806 22.564 54.8806 22.1104C54.8806 21.6285 54.7099 21.2033 54.3969 20.8632C54.084 20.523 53.4581 20.0128 52.5192 19.3325C51.7226 18.7655 51.0683 18.227 50.5562 17.8018C50.0441 17.3482 49.6173 16.8096 49.2759 16.1293C48.9345 15.4774 48.7354 14.712 48.7354 13.8333C48.7354 12.4726 49.1621 11.3671 50.0156 10.5451C50.8691 9.72302 52.0071 9.32617 53.4012 9.32617C54.8237 9.32617 55.9617 9.75137 56.8152 10.6018C57.6687 11.4522 58.1239 12.586 58.1239 13.9466V14.5136C58.1239 14.5986 58.0954 14.6553 58.0385 14.712C57.9816 14.7687 57.9247 14.797 57.8394 14.797H55.0513C54.9659 14.797 54.909 14.7687 54.8521 14.712C54.7952 14.6553 54.7668 14.5986 54.7668 14.5136V13.8616C54.7668 13.3514 54.653 12.9545 54.3969 12.6711C54.1409 12.3876 53.8279 12.2175 53.4296 12.2175C53.0313 12.2175 52.7184 12.3592 52.4908 12.6427C52.2347 12.9262 52.1209 13.323 52.1209 13.8049C52.1209 14.2868 52.2632 14.712 52.5761 15.0805C52.8891 15.449 53.4865 15.9592 54.3969 16.6112C55.3927 17.3482 56.1608 17.9435 56.6729 18.397C57.185 18.8506 57.5833 19.3608 57.8678 19.9277C58.1523 20.4947 58.2946 21.1466 58.2946 21.912C58.2946 23.3293 57.8678 24.4632 56.9859 25.2852C56.1039 26.1356 54.9659 26.5325 53.5434 26.5325C52.5477 26.5892 51.7226 26.3907 51.0114 26.0222Z" fill="white"/>
<path id="Vector_3" d="M67.9667 26.1071L67.5684 23.7827C67.5684 23.6977 67.5115 23.6693 67.4262 23.6693H64.3536C64.2682 23.6693 64.2113 23.6977 64.2113 23.7827L63.813 26.1071C63.7846 26.2772 63.6992 26.3622 63.5001 26.3622H60.6551C60.4559 26.3622 60.3706 26.2488 60.4275 26.0504L63.9837 9.75121C64.0122 9.58113 64.126 9.49609 64.2967 9.49609H67.5684C67.7391 9.49609 67.8529 9.58113 67.8814 9.75121L71.4092 26.0788L71.4376 26.1638C71.4376 26.3055 71.3523 26.3906 71.1816 26.3906H68.2797C68.0805 26.3906 67.9667 26.3055 67.9667 26.1071ZM64.7803 21.0614H66.971C67.0563 21.0614 67.0848 21.0331 67.0563 20.9481L65.9183 14.3717C65.8899 14.315 65.8899 14.2866 65.833 14.2866C65.8045 14.2866 65.7761 14.315 65.7476 14.3717L64.6665 20.9481C64.695 21.0048 64.7234 21.0614 64.7803 21.0614Z" fill="white"/>
<path id="Vector_4" d="M74.3685 26.3055C74.3116 26.2488 74.2832 26.1922 74.2832 26.1071V9.77956C74.2832 9.69452 74.3116 9.63783 74.3685 9.58113C74.4254 9.52444 74.4824 9.49609 74.5677 9.49609H78.949C80.4284 9.49609 81.5949 9.92129 82.4768 10.7717C83.3588 11.6221 83.814 12.7559 83.814 14.1733V21.7134C83.814 23.1307 83.3588 24.2646 82.4768 25.115C81.5949 25.9654 80.4 26.3906 78.949 26.3906H74.5677C74.4824 26.3906 74.4254 26.3622 74.3685 26.3055ZM77.811 23.4709L78.8921 23.4425C79.3189 23.4142 79.6887 23.2441 79.9448 22.8756C80.2293 22.5355 80.3715 22.0536 80.3715 21.4866V14.4C80.3715 13.7764 80.2293 13.2945 79.9732 12.9544C79.6887 12.6142 79.3189 12.4158 78.8637 12.4158H77.811C77.7257 12.4158 77.6972 12.4441 77.6972 12.5292V23.3292C77.6972 23.4142 77.7257 23.4709 77.811 23.4709Z" fill="white"/>
<path id="Vector_5" d="M87.2279 26.3055C87.171 26.2488 87.1426 26.1922 87.1426 26.1071V9.77956C87.1426 9.69452 87.171 9.63783 87.2279 9.58113C87.2848 9.52444 87.3417 9.49609 87.4271 9.49609H91.8084C93.2878 9.49609 94.4542 9.92129 95.3362 10.7717C96.2181 11.6221 96.6733 12.7559 96.6733 14.1733V21.7134C96.6733 23.1307 96.2181 24.2646 95.3362 25.115C94.4542 25.9654 93.2593 26.3906 91.8084 26.3906H87.4271C87.3417 26.3906 87.2848 26.3622 87.2279 26.3055ZM90.6704 23.4709L91.7515 23.4425C92.1782 23.4142 92.5481 23.2441 92.8041 22.8756C93.0886 22.5355 93.2309 22.0536 93.2309 21.4866V14.4C93.2309 13.7764 93.0886 13.2945 92.8326 12.9544C92.5481 12.6142 92.1782 12.4158 91.723 12.4158H90.6704C90.585 12.4158 90.5566 12.4441 90.5566 12.5292V23.3292C90.5566 23.4142 90.585 23.4709 90.6704 23.4709Z" fill="white"/>
<path id="Vector_6" d="M100.031 26.3055C99.9738 26.2489 99.9453 26.1922 99.9453 26.1071V9.77956C99.9453 9.69452 99.9738 9.63783 100.031 9.58113C100.088 9.52444 100.144 9.49609 100.23 9.49609H103.075C103.16 9.49609 103.217 9.52444 103.274 9.58113C103.331 9.63783 103.359 9.69452 103.359 9.77956V23.3292C103.359 23.4142 103.388 23.4426 103.473 23.4426H108.566C108.651 23.4426 108.708 23.4709 108.765 23.5276C108.822 23.5843 108.85 23.641 108.85 23.726V26.0788C108.85 26.1638 108.822 26.2205 108.765 26.2772C108.708 26.3339 108.651 26.3622 108.566 26.3622H100.23C100.144 26.3906 100.088 26.3622 100.031 26.3055Z" fill="white"/>
<path id="Vector_7" d="M120.628 12.3307C120.571 12.3874 120.514 12.4158 120.429 12.4158H115.365C115.279 12.4158 115.251 12.4441 115.251 12.5292V16.3559C115.251 16.441 115.279 16.4693 115.365 16.4693H118.267C118.352 16.4693 118.409 16.4977 118.466 16.5544C118.523 16.6111 118.551 16.6677 118.551 16.7528V19.1055C118.551 19.1906 118.523 19.2473 118.466 19.304C118.409 19.3607 118.352 19.389 118.267 19.389H115.365C115.279 19.389 115.251 19.4174 115.251 19.5024V23.3292C115.251 23.4142 115.279 23.4426 115.365 23.4426H120.429C120.514 23.4426 120.571 23.4709 120.628 23.5276C120.685 23.5843 120.713 23.641 120.713 23.726V26.0788C120.713 26.1638 120.685 26.2205 120.628 26.2772C120.571 26.3339 120.514 26.3622 120.429 26.3622H112.121C112.036 26.3622 111.979 26.3339 111.922 26.2772C111.865 26.2205 111.837 26.1638 111.837 26.0788V9.77956C111.837 9.69452 111.865 9.63783 111.922 9.58113C111.979 9.52444 112.036 9.49609 112.121 9.49609H120.429C120.514 9.49609 120.571 9.52444 120.628 9.58113C120.685 9.63783 120.713 9.69452 120.713 9.77956V12.1323C120.713 12.2174 120.685 12.274 120.628 12.3307Z" fill="white"/>
<path id="Vector_8" d="M133.06 12.3307C133.004 12.3874 132.947 12.4158 132.861 12.4158H127.826C127.74 12.4158 127.712 12.4441 127.712 12.5292V16.3559C127.712 16.441 127.74 16.4693 127.826 16.4693H130.699C130.784 16.4693 130.841 16.4977 130.898 16.5544C130.955 16.6111 130.984 16.6677 130.984 16.7528V19.1055C130.984 19.1906 130.955 19.2473 130.898 19.304C130.841 19.3607 130.784 19.389 130.699 19.389H127.826C127.74 19.389 127.712 19.4174 127.712 19.5024V26.0788C127.712 26.1638 127.683 26.2205 127.627 26.2772C127.57 26.3339 127.513 26.3622 127.427 26.3622H124.582C124.497 26.3622 124.44 26.3339 124.383 26.2772C124.326 26.2205 124.298 26.1638 124.298 26.0788V9.77956C124.298 9.69452 124.326 9.63783 124.383 9.58113C124.44 9.52444 124.497 9.49609 124.582 9.49609H132.861C132.947 9.49609 133.004 9.52444 133.06 9.58113C133.117 9.63783 133.146 9.69452 133.146 9.77956V12.1323C133.146 12.2174 133.117 12.274 133.06 12.3307Z" fill="white"/>
<path id="Vector_9" d="M136.703 26.3055C136.646 26.2489 136.617 26.1922 136.617 26.1071V9.77956C136.617 9.69452 136.646 9.63783 136.703 9.58113C136.759 9.52444 136.816 9.49609 136.902 9.49609H139.747C139.832 9.49609 139.889 9.52444 139.946 9.58113C140.003 9.63783 140.031 9.69452 140.031 9.77956V26.0788C140.031 26.1638 140.003 26.2205 139.946 26.2772C139.889 26.3339 139.832 26.3622 139.747 26.3622H136.902C136.816 26.3906 136.759 26.3622 136.703 26.3055Z" fill="white"/>
<path id="Vector_10" d="M153.915 9.58113C153.972 9.63783 154 9.69452 154 9.77956V12.1323C154 12.2174 153.972 12.274 153.915 12.3307C153.858 12.3874 153.801 12.4158 153.716 12.4158H150.7C150.615 12.4158 150.586 12.4441 150.586 12.5292V26.0788C150.586 26.1638 150.558 26.2205 150.501 26.2772C150.444 26.3339 150.387 26.3622 150.302 26.3622H147.457C147.371 26.3622 147.315 26.3339 147.258 26.2772C147.201 26.2205 147.172 26.1638 147.172 26.0788V12.5292C147.172 12.4441 147.144 12.4158 147.058 12.4158H144.157C144.071 12.4158 144.014 12.3874 143.957 12.3307C143.901 12.274 143.872 12.2174 143.872 12.1323V9.77956C143.872 9.69452 143.901 9.63783 143.957 9.58113C144.014 9.52444 144.071 9.49609 144.157 9.49609H153.744C153.801 9.49609 153.858 9.52444 153.915 9.58113Z" fill="white"/>
</g>
<defs>
<clipPath id="clip0_197_8880">
<rect width="154" height="36" fill="white"/>
</clipPath>
</defs>
</svg>
