<svg xmlns="http://www.w3.org/2000/svg" width="64" height="65" viewBox="0 0 64 65" fill="none">
  <path d="M35 8.25415H29C28.448 8.25415 28 7.80615 28 7.25415C28 6.70215 28.448 6.25415 29 6.25415H35C35.552 6.25415 36 6.70215 36 7.25415C36 7.80615 35.552 8.25415 35 8.25415Z" fill="#F7F7F6"/>
  <path d="M43 62.2542H21C18.242 62.2542 16 60.0102 16 57.2542V23.2542C16 22.7022 16.448 22.2542 17 22.2542C17.552 22.2542 18 22.7022 18 23.2542V57.2542C18 58.9081 19.346 60.2542 21 60.2542H43C44.654 60.2542 46 58.9081 46 57.2542V23.2542C46 22.7022 46.448 22.2542 47 22.2542C47.552 22.2542 48 22.7022 48 23.2542V57.2542C48 60.0102 45.758 62.2542 43 62.2542Z" fill="#F7F7F6"/>
  <path d="M47 30.2542C46.448 30.2542 46 29.8062 46 29.2542V7.25415C46 5.60015 44.654 4.25415 43 4.25415H21C19.346 4.25415 18 5.60015 18 7.25415V29.2542C18 29.8062 17.552 30.2542 17 30.2542C16.448 30.2542 16 29.8062 16 29.2542V7.25415C16 4.49815 18.242 2.25415 21 2.25415H43C45.758 2.25415 48 4.49815 48 7.25415V29.2542C48 29.8062 47.552 30.2542 47 30.2542Z" fill="#F7F7F6"/>
  <path d="M53 12.3542C52.448 12.3542 52 12.0062 52 11.4542V11.2542C52 10.7022 52.448 10.2542 53 10.2542C53.552 10.2542 54 10.7022 54 11.2542C54 11.8062 53.552 12.3542 53 12.3542Z" fill="#F7F7F6"/>
  <path d="M53 16.3542C52.448 16.3542 52 16.0062 52 15.4542V15.2542C52 14.7022 52.448 14.2542 53 14.2542C53.552 14.2542 54 14.7022 54 15.2542C54 15.8062 53.552 16.3542 53 16.3542Z" fill="#F7F7F6"/>
  <path d="M53 20.3542C52.448 20.3542 52 20.0062 52 19.4542V19.2542C52 18.7022 52.448 18.2542 53 18.2542C53.552 18.2542 54 18.7022 54 19.2542C54 19.8062 53.552 20.3542 53 20.3542Z" fill="#F7F7F6"/>
  <path d="M11 46.1542C10.448 46.1542 10 45.8062 10 45.2542V45.0542C10 44.5022 10.448 44.0542 11 44.0542C11.552 44.0542 12 44.5022 12 45.0542C12 45.6062 11.552 46.1542 11 46.1542Z" fill="#F7F7F6"/>
  <path d="M11 50.1542C10.448 50.1542 10 49.8062 10 49.2542V49.0542C10 48.5022 10.448 48.0542 11 48.0542C11.552 48.0542 12 48.5022 12 49.0542C12 49.6062 11.552 50.1542 11 50.1542Z" fill="#F7F7F6"/>
  <path d="M11 54.1542C10.448 54.1542 10 53.8062 10 53.2542V53.0542C10 52.5022 10.448 52.0542 11 52.0542C11.552 52.0542 12 52.5022 12 53.0542C12 53.6062 11.552 54.1542 11 54.1542Z" fill="#F7F7F6"/>
  <path d="M49.682 54.2542C49.612 54.2542 49.54 54.2482 49.47 54.2322C48.93 54.1162 48.588 53.5842 48.704 53.0442L49.364 49.9841C49.444 49.6082 49.734 49.3142 50.106 49.2242C51.05 48.9962 51.97 48.6122 52.84 48.0821C53.162 47.8821 53.576 47.8882 53.898 48.0922L55.878 49.3582L57.104 48.1222L55.838 46.1581C55.63 45.8361 55.626 45.4221 55.824 45.0961C56.354 44.2261 56.738 43.3062 56.964 42.3622C57.054 41.9902 57.346 41.7021 57.72 41.6181L60 41.1122V39.3982L57.722 38.8922C57.348 38.8082 57.056 38.5202 56.966 38.1482C56.74 37.2042 56.354 36.2842 55.826 35.4142C55.626 35.0882 55.63 34.6761 55.838 34.3541L57.106 32.3722L55.882 31.1481L53.9 32.4161C53.578 32.6221 53.166 32.6262 52.842 32.4262C51.97 31.8962 51.05 31.5122 50.108 31.2842C49.734 31.1942 49.446 30.8982 49.366 30.5242L48.874 28.2542H48C47.448 28.2542 47 27.8062 47 27.2542C47 26.7022 47.448 26.2542 48 26.2542H49.68C50.15 26.2542 50.558 26.5842 50.656 27.0442L51.19 29.5102C51.922 29.7322 52.64 30.0322 53.332 30.4062L55.48 29.0322C55.876 28.7802 56.392 28.8361 56.726 29.1681L59.088 31.5282C59.42 31.8602 59.476 32.3782 59.222 32.7742L57.848 34.9221C58.222 35.6161 58.522 36.3341 58.744 37.0681L61.214 37.6161C61.674 37.7182 62 38.1262 62 38.5942V41.9142C62 42.3822 61.674 42.7902 61.216 42.8902L58.746 43.4381C58.524 44.1721 58.224 44.8902 57.85 45.5821L59.222 47.7102C59.478 48.1042 59.424 48.6241 59.092 48.9562L56.73 51.3362C56.396 51.6702 55.878 51.7262 55.482 51.4742L53.334 50.1002C52.64 50.4742 51.924 50.7742 51.192 50.9962L50.658 53.4622C50.556 53.9342 50.14 54.2542 49.682 54.2542Z" fill="#F7F7F6"/>
  <path d="M50.7823 45.4101C50.4623 45.4101 50.1463 45.2542 49.9523 44.9682C49.6443 44.5102 49.7663 43.8882 50.2263 43.5802C51.3363 42.8322 52.0003 41.5882 52.0003 40.2542C52.0003 38.0482 50.2063 36.2542 48.0003 36.2542C47.7283 36.2542 47.4583 36.2822 47.2003 36.3342C46.6643 36.4422 46.1303 36.0981 46.0183 35.5541C45.9083 35.0121 46.2563 34.4841 46.7983 34.3741C47.1903 34.2961 47.5943 34.2542 48.0003 34.2542C51.3083 34.2542 54.0003 36.9462 54.0003 40.2542C54.0003 42.2562 53.0063 44.1202 51.3383 45.2402C51.1683 45.3542 50.9743 45.4101 50.7823 45.4101Z" fill="#F7F7F6"/>
  <path d="M16 30.254C12.692 30.254 10 27.562 10 24.254C10 22.244 11 20.378 12.676 19.258C13.13 18.954 13.754 19.074 14.062 19.536C14.368 19.994 14.244 20.616 13.784 20.922C12.668 21.67 12 22.914 12 24.254C12 26.46 13.794 28.254 16 28.254C16.268 28.254 16.532 28.228 16.784 28.176C17.314 28.066 17.852 28.416 17.962 28.96C18.072 29.502 17.72 30.028 17.178 30.136C16.796 30.214 16.404 30.254 16 30.254Z" fill="#F7F7F6"/>
  <path d="M16 38.254H14.32C13.85 38.254 13.442 37.924 13.344 37.464L12.81 34.998C12.078 34.776 11.36 34.476 10.668 34.102L8.52 35.476C8.122 35.728 7.608 35.674 7.274 35.34L4.912 32.98C4.58 32.648 4.524 32.13 4.778 31.734L6.152 29.586C5.778 28.892 5.478 28.174 5.256 27.44L2.786 26.892C2.326 26.79 2 26.382 2 25.914V22.594C2 22.126 2.326 21.718 2.784 21.618L5.254 21.07C5.476 20.336 5.776 19.618 6.15 18.926L4.78 16.796C4.524 16.402 4.578 15.882 4.91 15.55L7.272 13.17C7.602 12.834 8.122 12.778 8.52 13.032L10.668 14.406C11.362 14.032 12.078 13.732 12.81 13.51L13.344 11.044C13.46 10.502 14.002 10.158 14.532 10.278C15.072 10.394 15.414 10.926 15.298 11.466L14.638 14.526C14.558 14.902 14.268 15.196 13.896 15.286C12.952 15.514 12.032 15.898 11.16 16.428C10.836 16.628 10.424 16.622 10.102 16.418L8.122 15.152L6.894 16.388L8.16 18.352C8.37 18.674 8.374 19.088 8.174 19.414C7.644 20.284 7.26 21.204 7.034 22.148C6.944 22.52 6.652 22.808 6.278 22.892L4 23.396V25.11L6.278 25.616C6.652 25.7 6.944 25.988 7.034 26.36C7.26 27.304 7.646 28.224 8.174 29.094C8.374 29.42 8.37 29.832 8.162 30.154L6.894 32.134L8.118 33.358L10.1 32.09C10.422 31.886 10.836 31.882 11.158 32.08C12.03 32.61 12.95 32.994 13.892 33.222C14.266 33.312 14.554 33.608 14.634 33.982L15.126 36.254H16C16.552 36.254 17 36.702 17 37.254C17 37.806 16.552 38.254 16 38.254Z" fill="#F7F7F6"/>
  <path d="M30.9992 37.2541C30.9192 37.2541 30.8392 37.2441 30.7572 37.2241C30.2192 37.0901 29.8952 36.5481 30.0292 36.0121L32.0292 28.0121C32.1612 27.4741 32.6952 27.1501 33.2412 27.2841C33.7792 27.4181 34.1032 27.9601 33.9692 28.4961L31.9692 36.4961C31.8572 36.9521 31.4492 37.2541 30.9992 37.2541Z" fill="#F7F7F6"/>
  <path d="M36.9995 37.2541C36.7435 37.2541 36.4875 37.1561 36.2915 36.9621C35.9015 36.5721 35.9015 35.9381 36.2915 35.5481L39.5855 32.2541L36.2935 28.9621C35.9035 28.5721 35.9035 27.9381 36.2935 27.5481C36.6835 27.1581 37.3175 27.1581 37.7075 27.5481L41.7075 31.5481C42.0975 31.9381 42.0975 32.5721 41.7075 32.9621L37.7075 36.9621C37.5115 37.1561 37.2555 37.2541 36.9995 37.2541Z" fill="#F7F7F6"/>
  <path d="M26.9995 37.2541C26.7435 37.2541 26.4875 37.1561 26.2915 36.9621L22.2915 32.9621C21.9015 32.5721 21.9015 31.9381 22.2915 31.5481L26.2915 27.5481C26.6815 27.1581 27.3155 27.1581 27.7055 27.5481C28.0955 27.9381 28.0955 28.5721 27.7055 28.9621L24.4135 32.2541L27.7055 35.5461C28.0955 35.9361 28.0955 36.5701 27.7055 36.9601C27.5115 37.1561 27.2555 37.2541 26.9995 37.2541Z" fill="#F7F7F6"/>
</svg>