<svg width="2653" height="1483" viewBox="0 0 2653 1483" fill="none" xmlns="http://www.w3.org/2000/svg">
<path d="M1520.55 245.77H1844.85C1844.25 230.673 1837.81 216.397 1826.9 205.934C1815.98 195.471 1801.43 189.633 1786.3 189.646C1779.09 173.349 1766.84 159.79 1751.35 150.957C1735.85 142.125 1717.93 138.486 1700.21 140.574C1682.49 142.662 1665.91 150.368 1652.9 162.559C1639.89 174.75 1631.14 190.785 1627.93 208.309C1626.44 208.309 1624.96 208.309 1623.43 208.309C1617.17 208.309 1610.99 209.773 1605.4 212.584C1599.81 215.396 1594.95 219.476 1591.22 224.498C1585.53 223.098 1579.56 223.256 1573.95 224.958C1568.33 226.66 1563.29 229.841 1559.33 234.167C1552.62 230.696 1544.82 229.991 1537.59 232.202C1530.37 234.414 1524.3 239.366 1520.69 245.995L1520.55 245.77Z" fill="white"/>
<path d="M1915.12 250.312H1480.19C1479.43 250.312 1478.7 250.009 1478.16 249.469C1477.62 248.929 1477.31 248.197 1477.31 247.434C1477.31 246.666 1477.61 245.93 1478.15 245.383C1478.69 244.836 1479.43 244.523 1480.19 244.511H1915.12C1915.89 244.523 1916.62 244.836 1917.16 245.383C1917.7 245.93 1918 246.666 1918 247.434C1918 248.197 1917.7 248.929 1917.16 249.469C1916.61 250.009 1915.88 250.312 1915.12 250.312Z" fill="white"/>
<path d="M1594.38 266.682H1434.88C1434.11 266.67 1433.38 266.357 1432.84 265.81C1432.3 265.263 1432 264.526 1432 263.759C1432 262.995 1432.3 262.263 1432.84 261.723C1433.38 261.184 1434.12 260.88 1434.88 260.88H1594.38C1595.14 260.88 1595.87 261.184 1596.41 261.723C1596.95 262.263 1597.26 262.995 1597.26 263.759C1597.26 264.526 1596.96 265.263 1596.42 265.81C1595.88 266.357 1595.14 266.67 1594.38 266.682Z" fill="white"/>
<path d="M1780.94 266.682H1693.38C1692.99 266.682 1692.61 266.606 1692.26 266.459C1691.9 266.312 1691.58 266.097 1691.31 265.825C1691.03 265.554 1690.82 265.232 1690.67 264.877C1690.52 264.522 1690.45 264.142 1690.45 263.758C1690.45 263.377 1690.53 262.999 1690.67 262.647C1690.82 262.294 1691.04 261.975 1691.31 261.707C1691.58 261.439 1691.9 261.228 1692.26 261.086C1692.61 260.944 1692.99 260.874 1693.38 260.88H1780.94C1781.32 260.874 1781.7 260.944 1782.06 261.086C1782.41 261.228 1782.73 261.439 1783.01 261.707C1783.28 261.975 1783.49 262.294 1783.64 262.647C1783.79 262.999 1783.87 263.377 1783.87 263.758C1783.87 264.142 1783.79 264.522 1783.64 264.877C1783.5 265.232 1783.28 265.554 1783.01 265.825C1782.74 266.097 1782.41 266.312 1782.06 266.459C1781.7 266.606 1781.32 266.682 1780.94 266.682Z" fill="white"/>
<path d="M991.695 500.804H670.649C671.303 485.869 677.69 471.76 688.487 461.403C699.284 451.047 713.66 445.239 728.631 445.185C735.765 429.04 747.898 415.605 763.246 406.854C778.594 398.104 796.349 394.499 813.901 396.57C831.454 398.641 847.878 406.278 860.761 418.359C873.643 430.44 882.306 446.329 885.474 463.69C886.951 463.519 888.436 463.431 889.922 463.425C896.087 463.429 902.166 464.864 907.68 467.617C913.194 470.37 917.991 474.364 921.693 479.286C924.22 478.648 926.817 478.328 929.424 478.334C933.916 478.333 938.358 479.274 942.462 481.096C946.567 482.917 950.243 485.579 953.252 488.908C959.899 485.455 967.639 484.751 974.802 486.947C981.965 489.143 987.975 494.063 991.536 500.645L991.695 500.804Z" fill="white"/>
<path d="M600.912 505.297H1031.67C1032.44 505.284 1033.16 504.971 1033.7 504.427C1034.23 503.883 1034.53 503.152 1034.53 502.39C1034.53 501.632 1034.23 500.906 1033.7 500.371C1033.16 499.835 1032.43 499.535 1031.67 499.535H600.912C600.149 499.535 599.416 499.834 598.872 500.368C598.327 500.901 598.014 501.628 598 502.39C598 503.161 598.307 503.9 598.853 504.446C599.399 504.991 600.14 505.297 600.912 505.297Z" fill="white"/>
<path d="M918.569 521.476H1076.52C1077.29 521.462 1078.01 521.149 1078.55 520.605C1079.08 520.062 1079.38 519.33 1079.38 518.568C1079.38 517.811 1079.08 517.084 1078.55 516.549C1078.01 516.014 1077.28 515.713 1076.52 515.713H918.569C917.811 515.713 917.083 516.014 916.547 516.549C916.011 517.084 915.709 517.811 915.709 518.568C915.709 519.33 916.009 520.062 916.544 520.605C917.078 521.149 917.806 521.462 918.569 521.476Z" fill="white"/>
<path d="M733.768 521.476H820.503C820.885 521.476 821.264 521.4 821.617 521.254C821.971 521.108 822.292 520.894 822.562 520.624C822.833 520.354 823.047 520.033 823.193 519.681C823.34 519.328 823.415 518.95 823.415 518.568C823.401 517.806 823.088 517.08 822.544 516.546C821.999 516.012 821.266 515.713 820.503 515.713H733.768C733.01 515.713 732.282 516.014 731.746 516.549C731.21 517.084 730.909 517.811 730.909 518.568C730.909 519.33 731.208 520.062 731.743 520.605C732.278 521.149 733.005 521.462 733.768 521.476Z" fill="white"/>
<g filter="url(#filter0_b_6719_10274)">
<path d="M2653 1483C2616.95 1368 2498.06 1117.54 2108.47 782.448C1908.47 610.466 1820.43 452.134 1749.72 325.195C1706.39 247.394 1668.96 180.171 1614.88 123.185C1536.9 41.2893 1439.84 0 1326.5 0C1213.16 0 1115.76 41.6305 1038.12 123.185C984.043 180.171 946.609 247.394 903.282 325.195C832.572 452.134 744.532 610.466 544.534 782.448C154.937 1117.54 36.0481 1368 -2.40294e-06 1483C967.914 1483 1768.52 1483 2653 1483Z" fill="#F7F7F6" fill-opacity="0.05"/>
<path d="M1749.72 325.195L1749.28 325.439L1749.6 326.013C1820.26 452.867 1908.38 611.045 2108.14 782.827C2496.95 1117.24 2616.06 1367.32 2652.32 1482.5H2647.82H2642.64H2637.46H2632.29H2627.11H2621.94H2616.77H2611.6H2606.43H2601.27H2596.11H2590.95H2585.79H2580.63H2575.47H2570.32H2565.17H2560.02H2554.87H2549.72H2544.57H2539.43H2534.29H2529.15H2524.01H2518.87H2513.74H2508.6H2503.47H2498.34H2493.21H2488.08H2482.96H2477.83H2472.71H2467.59H2462.47H2457.35H2452.23H2447.12H2442H2436.89H2431.78H2426.67H2421.56H2416.45H2411.35H2406.25H2401.14H2396.04H2390.94H2385.84H2380.75H2375.65H2370.56H2365.46H2360.37H2355.28H2350.19H2345.1H2340.02H2334.93H2329.85H2324.76H2319.68H2314.6H2309.52H2304.44H2299.36H2294.29H2289.21H2284.14H2279.07H2273.99H2268.92H2263.85H2258.79H2253.72H2248.65H2243.59H2238.52H2233.46H2228.4H2223.33H2218.27H2213.22H2208.16H2203.1H2198.04H2192.99H2187.93H2182.88H2177.83H2172.77H2167.72H2162.67H2157.62H2152.57H2147.53H2142.48H2137.43H2132.39H2127.34H2122.3H2117.25H2112.21H2107.17H2102.13H2097.09H2092.05H2087.01H2081.97H2076.94H2071.9H2066.86H2061.83H2056.79H2051.76H2046.72H2041.69H2036.66H2031.62H2026.59H2021.56H2016.53H2011.5H2006.47H2001.44H1996.41H1991.39H1986.36H1981.33H1976.31H1971.28H1966.25H1961.23H1956.2H1951.18H1946.15H1941.13H1936.11H1931.08H1926.06H1921.04H1916.01H1910.99H1905.97H1900.95H1895.93H1890.91H1885.89H1880.87H1875.85H1870.83H1865.81H1860.79H1855.77H1850.75H1845.73H1840.71H1835.69H1830.67H1825.65H1820.63H1815.61H1810.6H1805.58H1800.56H1795.54H1790.52H1785.5H1780.49H1775.47H1770.45H1765.43H1760.41H1755.39H1750.37H1745.36H1740.34H1735.32H1730.3H1725.28H1720.26H1715.24H1710.22H1705.2H1700.18H1695.16H1690.14H1685.12H1680.1H1675.08H1670.06H1665.04H1660.01H1654.99H1649.97H1644.95H1639.92H1634.9H1629.88H1624.85H1619.83H1614.8H1609.78H1604.75H1599.73H1594.7H1589.68H1584.65H1579.62H1574.59H1569.56H1564.53H1559.51H1554.47H1549.44H1544.41H1539.38H1534.35H1529.32H1524.28H1519.25H1514.22H1509.18H1504.14H1499.11H1494.07H1489.03H1483.99H1478.96H1473.92H1468.88H1463.83H1458.79H1453.75H1448.71H1443.66H1438.62H1433.57H1428.53H1423.48H1418.43H1413.38H1408.33H1403.28H1398.23H1393.18H1388.13H1383.07H1378.02H1372.96H1367.91H1362.85H1357.79H1352.73H1347.67H1342.61H1337.55H1332.48H1327.42H1322.35H1317.29H1312.22H1307.15H1302.08H1297.01H1291.94H1286.86H1281.79H1276.72H1271.64H1266.56H1261.48H1256.4H1251.32H1246.24H1241.16H1236.07H1230.99H1225.9H1220.81H1215.72H1210.63H1205.54H1200.45H1195.35H1190.26H1185.16H1180.06H1174.96H1169.86H1164.76H1159.65H1154.55H1149.44H1144.33H1139.22H1134.11H1129H1123.88H1118.77H1113.65H1108.53H1103.41H1098.29H1093.17H1088.04H1082.92H1077.79H1072.66H1067.53H1062.4H1057.26H1052.13H1046.99H1041.85H1036.71H1031.57H1026.42H1021.28H1016.13H1010.98H1005.83H1000.68H995.524H990.368H985.21H980.051H974.889H969.726H964.561H959.395H954.226H949.056H943.883H938.709H933.533H928.355H923.176H917.994H912.81H907.625H902.437H897.248H892.057H886.863H881.668H876.47H871.271H866.07H860.866H855.661H850.453H845.244H840.032H834.818H829.602H824.384H819.164H813.942H808.718H803.491H798.263H793.032H787.799H782.563H777.326H772.086H766.844H761.6H756.354H751.105H745.854H740.601H735.345H730.087H724.827H719.564H714.299H709.032H703.763H698.491H693.216H687.939H682.66H677.379H672.094H666.808H661.519H656.227H650.934H645.637H640.338H635.037H629.733H624.426H619.117H613.805H608.491H603.174H597.855H592.533H587.209H581.881H576.551H571.219H565.884H560.546H555.205H549.862H544.516H539.168H533.816H528.462H523.105H517.745H512.383H507.018H501.65H496.279H490.905H485.529H480.15H474.768H469.383H463.995H458.604H453.21H447.814H442.414H437.012H431.606H426.198H420.787H415.372H409.955H404.535H399.112H393.685H388.256H382.824H377.388H371.95H366.508H361.064H355.616H350.165H344.711H339.254H333.794H328.33H322.864H317.394H311.921H306.445H300.966H295.483H289.997H284.508H279.016H273.52H268.021H262.519H257.014H251.505H245.993H240.478H234.959H229.437H223.911H218.382H212.85H207.314H201.775H196.233H190.687H185.137H179.585H174.028H168.469H162.905H157.338H151.768H146.194H140.617H135.036H129.451H123.863H118.272H112.677H107.078H101.475H95.8692H90.2595H84.6461H79.0291H73.4084H67.784H62.1559H56.5241H50.8886H45.2494H39.6064H33.9597H28.3092H22.655H16.9969H11.3351H5.66946H0.681147C36.9398 1367.32 156.052 1117.24 544.86 782.827C744.625 611.045 832.736 452.867 903.399 326.012L903.719 325.439C947.052 247.627 984.457 180.462 1038.48 123.53C1116.02 42.075 1213.29 0.5 1326.5 0.5C1439.71 0.5 1536.63 41.734 1614.52 123.529C1668.54 180.462 1705.95 247.627 1749.28 325.439L1749.72 325.195Z" stroke="#F7F7F6" stroke-opacity="0.08"/>
</g>
<path d="M1520.55 245.77H1844.85C1844.25 230.673 1837.81 216.397 1826.9 205.934C1815.98 195.471 1801.43 189.633 1786.3 189.646C1779.09 173.349 1766.84 159.79 1751.35 150.957C1735.85 142.125 1717.93 138.486 1700.21 140.574C1682.49 142.662 1665.91 150.368 1652.9 162.559C1639.89 174.75 1631.14 190.785 1627.93 208.309C1626.44 208.309 1624.96 208.309 1623.43 208.309C1617.17 208.309 1610.99 209.773 1605.4 212.584C1599.81 215.396 1594.95 219.476 1591.22 224.498C1585.53 223.098 1579.56 223.256 1573.95 224.958C1568.33 226.66 1563.29 229.841 1559.33 234.167C1552.62 230.696 1544.82 229.991 1537.59 232.202C1530.37 234.414 1524.3 239.366 1520.69 245.995L1520.55 245.77Z" fill="white"/>
<path d="M1915.12 250.312H1480.19C1479.43 250.312 1478.7 250.009 1478.16 249.469C1477.62 248.929 1477.31 248.197 1477.31 247.434C1477.31 246.666 1477.61 245.93 1478.15 245.383C1478.69 244.836 1479.43 244.523 1480.19 244.511H1915.12C1915.89 244.523 1916.62 244.836 1917.16 245.383C1917.7 245.93 1918 246.666 1918 247.434C1918 248.197 1917.7 248.929 1917.16 249.469C1916.61 250.009 1915.88 250.312 1915.12 250.312Z" fill="white"/>
<path d="M1594.38 266.682H1434.88C1434.11 266.67 1433.38 266.357 1432.84 265.81C1432.3 265.263 1432 264.526 1432 263.759C1432 262.995 1432.3 262.263 1432.84 261.723C1433.38 261.184 1434.12 260.88 1434.88 260.88H1594.38C1595.14 260.88 1595.87 261.184 1596.41 261.723C1596.95 262.263 1597.26 262.995 1597.26 263.759C1597.26 264.526 1596.96 265.263 1596.42 265.81C1595.88 266.357 1595.14 266.67 1594.38 266.682Z" fill="white"/>
<path d="M1780.94 266.682H1693.38C1692.99 266.682 1692.61 266.606 1692.26 266.459C1691.9 266.312 1691.58 266.097 1691.31 265.825C1691.03 265.554 1690.82 265.232 1690.67 264.877C1690.52 264.522 1690.45 264.142 1690.45 263.758C1690.45 263.377 1690.53 262.999 1690.67 262.647C1690.82 262.294 1691.04 261.975 1691.31 261.707C1691.58 261.439 1691.9 261.228 1692.26 261.086C1692.61 260.944 1692.99 260.874 1693.38 260.88H1780.94C1781.32 260.874 1781.7 260.944 1782.06 261.086C1782.41 261.228 1782.73 261.439 1783.01 261.707C1783.28 261.975 1783.49 262.294 1783.64 262.647C1783.79 262.999 1783.87 263.377 1783.87 263.758C1783.87 264.142 1783.79 264.522 1783.64 264.877C1783.5 265.232 1783.28 265.554 1783.01 265.825C1782.74 266.097 1782.41 266.312 1782.06 266.459C1781.7 266.606 1781.32 266.682 1780.94 266.682Z" fill="white"/>
<defs>
<filter id="filter0_b_6719_10274" x="-252.3" y="-252.3" width="3157.6" height="1987.6" filterUnits="userSpaceOnUse" color-interpolation-filters="sRGB">
<feFlood flood-opacity="0" result="BackgroundImageFix"/>
<feGaussianBlur in="BackgroundImageFix" stdDeviation="126.15"/>
<feComposite in2="SourceAlpha" operator="in" result="effect1_backgroundBlur_6719_10274"/>
<feBlend mode="normal" in="SourceGraphic" in2="effect1_backgroundBlur_6719_10274" result="shape"/>
</filter>
</defs>
</svg>
