<svg width="1606" height="897" viewBox="0 0 1606 897" fill="none" xmlns="http://www.w3.org/2000/svg">
<path d="M683.119 284H311.119C311.876 266.615 319.277 250.191 331.787 238.135C344.297 226.079 360.955 219.318 378.303 219.256C386.57 200.461 400.628 184.822 418.412 174.636C436.196 164.449 456.769 160.253 477.107 162.663C497.445 165.074 516.475 173.964 531.403 188.028C546.331 202.092 556.367 220.587 560.039 240.796C561.75 240.598 563.471 240.495 565.193 240.489C572.336 240.493 579.38 242.164 585.769 245.368C592.158 248.572 597.717 253.223 602.006 258.952C604.935 258.209 607.944 257.837 610.964 257.844C616.169 257.843 621.316 258.938 626.072 261.058C630.828 263.179 635.087 266.277 638.574 270.153C646.276 266.133 655.245 265.313 663.545 267.87C671.844 270.426 678.808 276.153 682.935 283.815L683.119 284Z" fill="white"/>
<path d="M377.843 300.709H632.873C633.325 300.7 633.756 300.515 634.072 300.193C634.389 299.872 634.566 299.438 634.566 298.987C634.566 298.539 634.388 298.109 634.07 297.792C633.753 297.475 633.322 297.297 632.873 297.297H377.843C377.391 297.297 376.958 297.474 376.635 297.79C376.313 298.106 376.127 298.536 376.119 298.987C376.119 299.444 376.301 299.882 376.624 300.204C376.948 300.527 377.386 300.709 377.843 300.709Z" fill="white"/>
<path d="M565.91 310.287H659.426C659.878 310.279 660.308 310.094 660.625 309.772C660.941 309.45 661.119 309.016 661.119 308.565C661.119 308.117 660.94 307.687 660.623 307.37C660.305 307.053 659.875 306.875 659.426 306.875H565.91C565.461 306.875 565.03 307.053 564.713 307.37C564.395 307.687 564.217 308.117 564.217 308.565C564.217 309.016 564.394 309.45 564.711 309.772C565.027 310.094 565.458 310.279 565.91 310.287Z" fill="white"/>
<path d="M456.5 310.287H507.85C508.077 310.287 508.301 310.242 508.51 310.156C508.719 310.069 508.909 309.942 509.07 309.783C509.23 309.623 509.357 309.433 509.443 309.224C509.53 309.015 509.575 308.791 509.575 308.565C509.566 308.114 509.381 307.684 509.059 307.368C508.736 307.052 508.302 306.875 507.85 306.875H456.5C456.051 306.875 455.62 307.053 455.302 307.37C454.985 307.687 454.807 308.117 454.807 308.565C454.807 309.016 454.984 309.45 455.301 309.772C455.617 310.094 456.048 310.279 456.5 310.287Z" fill="white"/>
<path d="M962.302 134.052H1204.68C1204.23 122.769 1199.42 112.099 1191.26 104.279C1183.1 96.4588 1172.23 92.096 1160.92 92.105C1155.53 79.9253 1146.38 69.7908 1134.8 63.1896C1123.22 56.5885 1109.82 53.8685 1096.58 55.4292C1083.34 56.9899 1070.94 62.7489 1061.22 71.8606C1051.5 80.9724 1044.96 92.9567 1042.56 106.054C1041.45 106.054 1040.34 106.054 1039.19 106.054C1034.51 106.054 1029.9 107.148 1025.72 109.249C1021.54 111.351 1017.91 114.4 1015.12 118.154C1010.86 117.107 1006.4 117.226 1002.21 118.498C998.015 119.769 994.242 122.147 991.287 125.38C986.272 122.786 980.437 122.259 975.037 123.912C969.637 125.565 965.101 129.266 962.403 134.22L962.302 134.052Z" fill="white"/>
<path d="M1257.2 137.447H932.139C931.567 137.447 931.019 137.221 930.615 136.817C930.211 136.414 929.984 135.867 929.984 135.296C929.984 134.722 930.21 134.172 930.613 133.763C931.016 133.354 931.564 133.12 932.139 133.111H1257.2C1257.77 133.12 1258.32 133.354 1258.73 133.763C1259.13 134.172 1259.35 134.722 1259.35 135.296C1259.35 135.867 1259.13 136.414 1258.72 136.817C1258.32 137.221 1257.77 137.447 1257.2 137.447Z" fill="white"/>
<path d="M1017.48 149.682H898.273C897.699 149.673 897.151 149.439 896.748 149.03C896.344 148.621 896.119 148.07 896.119 147.497C896.119 146.926 896.346 146.379 896.75 145.976C897.154 145.572 897.702 145.346 898.273 145.346H1017.48C1018.05 145.346 1018.6 145.572 1019 145.976C1019.41 146.379 1019.63 146.926 1019.63 147.497C1019.63 148.07 1019.41 148.621 1019 149.03C1018.6 149.439 1018.05 149.673 1017.48 149.682Z" fill="white"/>
<path d="M1156.91 149.682H1091.47C1091.18 149.682 1090.9 149.625 1090.63 149.516C1090.37 149.406 1090.13 149.245 1089.92 149.042C1089.72 148.839 1089.56 148.598 1089.45 148.333C1089.34 148.068 1089.28 147.784 1089.28 147.497C1089.28 147.212 1089.34 146.929 1089.45 146.666C1089.56 146.403 1089.72 146.164 1089.93 145.964C1090.13 145.764 1090.37 145.606 1090.64 145.5C1090.9 145.394 1091.19 145.342 1091.47 145.346H1156.91C1157.2 145.342 1157.48 145.394 1157.75 145.5C1158.01 145.606 1158.26 145.764 1158.46 145.964C1158.66 146.164 1158.83 146.403 1158.94 146.666C1159.05 146.929 1159.1 147.212 1159.1 147.497C1159.1 147.784 1159.05 148.068 1158.94 148.333C1158.83 148.598 1158.66 148.839 1158.46 149.042C1158.26 149.245 1158.02 149.406 1157.75 149.516C1157.49 149.625 1157.2 149.682 1156.91 149.682Z" fill="white"/>
<g filter="url(#filter0_b_6719_10273)">
<path d="M1605.24 897C1583.43 827.444 1511.49 675.949 1275.76 473.268C1154.75 369.244 1101.48 273.476 1058.69 196.696C1032.48 149.638 1009.83 108.977 977.11 74.5092C929.922 24.974 871.199 0 802.619 0C734.039 0 675.106 25.1804 628.127 74.5092C595.41 108.977 572.76 149.638 546.544 196.696C503.76 273.476 450.49 369.244 329.478 473.268C93.7472 675.949 21.8114 827.444 -1.45343e-06 897C585.651 897 1070.07 897 1605.24 897Z" fill="#F7F7F6" fill-opacity="0.05"/>
<path d="M1604.21 896.245H1602.1H1598.97H1595.84H1592.7H1589.57H1586.44H1583.32H1580.19H1577.06H1573.94H1570.81H1567.69H1564.57H1561.45H1558.33H1555.21H1552.09H1548.98H1545.86H1542.75H1539.63H1536.52H1533.41H1530.3H1527.19H1524.08H1520.97H1517.87H1514.76H1511.66H1508.55H1505.45H1502.35H1499.25H1496.15H1493.05H1489.95H1486.86H1483.76H1480.66H1477.57H1474.48H1471.38H1468.29H1465.2H1462.11H1459.02H1455.93H1452.85H1449.76H1446.68H1443.59H1440.51H1437.42H1434.34H1431.26H1428.18H1425.1H1422.02H1418.94H1415.86H1412.78H1409.71H1406.63H1403.56H1400.48H1397.41H1394.34H1391.26H1388.19H1385.12H1382.05H1378.98H1375.91H1372.85H1369.78H1366.71H1363.65H1360.58H1357.52H1354.45H1351.39H1348.32H1345.26H1342.2H1339.14H1336.08H1333.02H1329.96H1326.9H1323.84H1320.78H1317.73H1314.67H1311.61H1308.56H1305.5H1302.45H1299.39H1296.34H1293.29H1290.23H1287.18H1284.13H1281.08H1278.03H1274.98H1271.93H1268.88H1265.83H1262.78H1259.73H1256.68H1253.63H1250.59H1247.54H1244.49H1241.45H1238.4H1235.35H1232.31H1229.27H1226.22H1223.18H1220.13H1217.09H1214.05H1211H1207.96H1204.92H1201.88H1198.83H1195.79H1192.75H1189.71H1186.67H1183.63H1180.59H1177.55H1174.51H1171.47H1168.43H1165.39H1162.35H1159.31H1156.27H1153.24H1150.2H1147.16H1144.12H1141.08H1138.05H1135.01H1131.97H1128.93H1125.9H1122.86H1119.82H1116.79H1113.75H1110.71H1107.67H1104.64H1101.6H1098.56H1095.53H1092.49H1089.46H1086.42H1083.38H1080.35H1077.31H1074.27H1071.24H1068.2H1065.16H1062.13H1059.09H1056.05H1053.02H1049.98H1046.94H1043.91H1040.87H1037.83H1034.8H1031.76H1028.72H1025.68H1022.65H1019.61H1016.57H1013.53H1010.49H1007.46H1004.42H1001.38H998.339H995.3H992.261H989.221H986.182H983.142H980.102H977.062H974.021H970.98H967.939H964.898H961.857H958.815H955.773H952.731H949.688H946.645H943.602H940.558H937.515H934.47H931.426H928.381H925.336H922.291H919.245H916.198H913.152H910.105H907.058H904.01H900.962H897.913H894.864H891.815H888.765H885.715H882.665H879.614H876.562H873.51H870.458H867.405H864.351H861.298H858.243H855.188H852.133H849.077H846.021H842.964H839.907H836.849H833.79H830.731H827.672H824.611H821.551H818.489H815.427H812.365H809.302H806.238H803.174H800.109H797.043H793.977H790.91H787.843H784.775H781.706H778.637H775.566H772.496H769.424H766.352H763.279H760.206H757.131H754.056H750.981H747.904H744.827H741.749H738.67H735.591H732.51H729.429H726.348H723.265H720.182H717.097H714.012H710.927H707.84H704.753H701.664H698.575H695.485H692.394H689.302H686.21H683.116H680.022H676.927H673.831H670.734H667.636H664.537H661.437H658.336H655.235H652.132H649.029H645.924H642.819H639.712H636.605H633.496H630.387H627.277H624.165H621.053H617.939H614.825H611.709H608.593H605.475H602.357H599.237H596.116H592.994H589.871H586.747H583.622H580.496H577.369H574.24H571.111H567.98H564.848H561.715H558.581H555.446H552.31H549.172H546.033H542.893H539.752H536.61H533.466H530.322H527.176H524.028H520.88H517.73H514.579H511.427H508.274H505.119H501.963H498.806H495.648H492.488H489.327H486.164H483.001H479.836H476.669H473.502H470.333H467.162H463.991H460.817H457.643H454.467H451.29H448.111H444.931H441.75H438.567H435.383H432.198H429.011H425.822H422.632H419.441H416.248H413.054H409.858H406.661H403.462H400.262H397.06H393.857H390.652H387.446H384.238H381.029H377.818H374.606H371.392H368.177H364.96H361.741H358.521H355.299H352.076H348.851H345.625H342.396H339.167H335.935H332.702H329.468H326.231H322.993H319.754H316.513H313.27H310.025H306.779H303.531H300.281H297.03H293.777H290.522H287.265H284.007H280.747H277.485H274.222H270.956H267.689H264.42H261.15H257.878H254.603H251.327H248.05H244.77H241.489H238.205H234.92H231.633H228.344H225.054H221.761H218.467H215.171H211.873H208.573H205.271H201.967H198.661H195.354H192.044H188.733H185.419H182.104H178.786H175.467H172.146H168.823H165.498H162.17H158.841H155.51H152.177H148.842H145.505H142.165H138.824H135.481H132.135H128.788H125.439H122.087H118.734H115.378H112.02H108.66H105.298H101.934H98.5682H95.2H91.8296H88.457H85.0824H81.7055H78.3266H74.9454H71.5621H68.1766H64.789H61.3991H58.0071H54.6128H51.2164H47.8177H44.4168H41.0137H37.6084H34.2008H30.7909H27.3788H23.9645H20.5478H17.1289H13.7077H10.2842H6.85847H3.43039H1.0297C23.1586 826.411 95.4282 675.5 329.971 473.84C450.903 369.884 504.247 274.153 547.009 197.413L547.204 197.064L546.544 196.696L547.204 197.063C573.428 149.989 596.034 109.417 628.674 75.0299C675.509 25.8518 734.244 0.75505 802.619 0.75505C870.994 0.75505 929.519 25.6457 976.563 75.03C1009.2 109.417 1031.81 149.989 1058.03 197.063L1058.23 197.413C1100.99 274.153 1154.33 369.884 1275.27 473.84C1509.81 675.5 1582.08 826.411 1604.21 896.245Z" stroke="#F7F7F6" stroke-opacity="0.08" stroke-width="1.5101"/>
</g>
<path d="M962.302 134.052H1204.68C1204.23 122.769 1199.42 112.099 1191.26 104.279C1183.1 96.4588 1172.23 92.096 1160.92 92.105C1155.53 79.9253 1146.38 69.7908 1134.8 63.1896C1123.22 56.5885 1109.82 53.8685 1096.58 55.4292C1083.34 56.9899 1070.94 62.7489 1061.22 71.8606C1051.5 80.9724 1044.96 92.9567 1042.56 106.054C1041.45 106.054 1040.34 106.054 1039.19 106.054C1034.51 106.054 1029.9 107.148 1025.72 109.249C1021.54 111.351 1017.91 114.4 1015.12 118.154C1010.86 117.107 1006.4 117.226 1002.21 118.498C998.015 119.769 994.242 122.147 991.287 125.38C986.272 122.786 980.437 122.259 975.037 123.912C969.637 125.565 965.101 129.266 962.403 134.22L962.302 134.052Z" fill="white"/>
<path d="M1257.2 137.447H932.139C931.567 137.447 931.019 137.221 930.615 136.817C930.211 136.414 929.984 135.867 929.984 135.296C929.984 134.722 930.21 134.172 930.613 133.763C931.016 133.354 931.564 133.12 932.139 133.111H1257.2C1257.77 133.12 1258.32 133.354 1258.73 133.763C1259.13 134.172 1259.35 134.722 1259.35 135.296C1259.35 135.867 1259.13 136.414 1258.72 136.817C1258.32 137.221 1257.77 137.447 1257.2 137.447Z" fill="white"/>
<path d="M1017.48 149.682H898.273C897.699 149.673 897.151 149.439 896.748 149.03C896.344 148.621 896.119 148.07 896.119 147.497C896.119 146.926 896.346 146.379 896.75 145.976C897.154 145.572 897.702 145.346 898.273 145.346H1017.48C1018.05 145.346 1018.6 145.572 1019 145.976C1019.41 146.379 1019.63 146.926 1019.63 147.497C1019.63 148.07 1019.41 148.621 1019 149.03C1018.6 149.439 1018.05 149.673 1017.48 149.682Z" fill="white"/>
<path d="M1156.91 149.682H1091.47C1091.18 149.682 1090.9 149.625 1090.63 149.516C1090.37 149.406 1090.13 149.245 1089.92 149.042C1089.72 148.839 1089.56 148.598 1089.45 148.333C1089.34 148.068 1089.28 147.784 1089.28 147.497C1089.28 147.212 1089.34 146.929 1089.45 146.666C1089.56 146.403 1089.72 146.164 1089.93 145.964C1090.13 145.764 1090.37 145.606 1090.64 145.5C1090.9 145.394 1091.19 145.342 1091.47 145.346H1156.91C1157.2 145.342 1157.48 145.394 1157.75 145.5C1158.01 145.606 1158.26 145.764 1158.46 145.964C1158.66 146.164 1158.83 146.403 1158.94 146.666C1159.05 146.929 1159.1 147.212 1159.1 147.497C1159.1 147.784 1159.05 148.068 1158.94 148.333C1158.83 148.598 1158.66 148.839 1158.46 149.042C1158.26 149.245 1158.02 149.406 1157.75 149.516C1157.49 149.625 1157.2 149.682 1156.91 149.682Z" fill="white"/>
<defs>
<filter id="filter0_b_6719_10273" x="-380.998" y="-380.998" width="2367.23" height="1659" filterUnits="userSpaceOnUse" color-interpolation-filters="sRGB">
<feFlood flood-opacity="0" result="BackgroundImageFix"/>
<feGaussianBlur in="BackgroundImageFix" stdDeviation="190.499"/>
<feComposite in2="SourceAlpha" operator="in" result="effect1_backgroundBlur_6719_10273"/>
<feBlend mode="normal" in="SourceGraphic" in2="effect1_backgroundBlur_6719_10273" result="shape"/>
</filter>
</defs>
</svg>
