<svg xmlns="http://www.w3.org/2000/svg" width="52" height="51" viewBox="0 0 52 51" fill="none">
  <path d="M24.9042 21.3456C24.6969 21.6358 24.4214 22.1095 24.2249 22.5014C23.4784 23.8822 22.3401 25.934 19.8782 28.1019L19.8774 28.1027C18.0435 29.7249 16.939 31.0377 16.3082 31.9835H12.8687C13.3982 30.7269 14.72 28.56 17.8914 25.7928C19.9635 23.9942 20.8672 22.3428 21.5576 21.0387L21.5587 21.0367C21.9758 20.2404 22.3233 19.624 22.8299 19.1173L22.83 19.1174L22.8381 19.109C23.5407 18.3729 24.3563 18.0165 25.3488 18.0165C26.3404 18.0165 27.1554 18.3722 27.8576 19.1069C28.3195 19.6025 28.6591 20.1971 29.0959 20.962C29.1126 20.9913 29.1295 21.0209 29.1466 21.0507C29.1592 21.0733 29.1719 21.096 29.1846 21.1188C29.9013 22.4019 30.8079 24.0251 32.8033 25.7903L32.8059 25.7925C35.9665 28.5503 37.2685 30.7158 37.8158 31.9835H34.3149C33.6925 31.038 32.6183 29.6939 30.7405 28.099C28.2781 25.9297 27.1407 23.9141 26.3984 22.504C26.2148 22.137 25.9269 21.5943 25.6951 21.3161L25.2806 20.8186L24.9042 21.3456ZM25.5 0.5C11.9577 0.5 1 11.4577 1 25C1 38.504 11.9572 49.5 25.5 49.5C39.0423 49.5 50 38.5423 50 25C50 11.4572 39.004 0.5 25.5 0.5Z" fill="#EAEBED" stroke="white"/>
  <path d="M41 30.5C35.4727 30.5 31 34.9727 31 40.5C31 46.0119 35.4722 50.5 41 50.5C46.5273 50.5 51 46.0273 51 40.5C51 34.9722 46.5119 30.5 41 30.5Z" fill="#FFE6E6" stroke="white"/>
  <path d="M44.5 37L37.5 44" stroke="white" stroke-width="2" stroke-linecap="round" stroke-linejoin="round"/>
  <path d="M44.5 44L37.5 37" stroke="white" stroke-width="2" stroke-linecap="round" stroke-linejoin="round"/>
</svg>