<svg width="80" height="80" viewBox="0 0 80 80" fill="none" xmlns="http://www.w3.org/2000/svg">
<path d="M16.5122 1.24805C13.0752 1.24805 10.2646 4.05855 10.2646 7.49541V72.5007C10.2646 75.9376 13.0752 78.7481 16.5122 78.7481H34.6543H43.9927H51.5122H54.6128H64.044C67.4339 78.7481 70.0918 75.7471 69.6909 72.3811L66.6831 47.062C66.646 46.7578 66.4984 46.4779 66.2684 46.2753C66.0384 46.0728 65.742 45.9618 65.4356 45.9634H57.7671V7.49541C57.7671 4.05855 54.9492 1.24805 51.5122 1.24805H16.5122ZM16.5122 3.75041H51.5122C53.5981 3.75041 55.2671 5.40961 55.2671 7.49541V45.9634H52.7671V8.75025C52.7671 7.38439 51.633 6.25033 50.2671 6.25033H44.0098C43.6799 6.25165 43.364 6.38325 43.1308 6.61646C42.8976 6.84968 42.766 7.1656 42.7646 7.49541V8.75025C42.7646 9.45539 42.2247 9.99534 41.5195 9.99534H26.5146C25.8095 9.99534 25.2598 9.45539 25.2598 8.75025V7.49541C25.2584 7.1656 25.1268 6.84968 24.8936 6.61646C24.6604 6.38325 24.3445 6.25165 24.0146 6.25033H17.7671C16.4012 6.25033 15.2671 7.38439 15.2671 8.75025V71.2458C15.2671 72.6117 16.4012 73.7458 17.7671 73.7458H34.5151H38.3408C38.4546 74.658 38.7884 75.5111 39.2905 76.2457H34.6543H16.5122C14.4263 76.2457 12.7671 74.5865 12.7671 72.5007V7.49541C12.7671 5.40961 14.4263 3.75041 16.5122 3.75041ZM17.7671 8.75025H22.7695C22.7695 10.8064 24.4584 12.4977 26.5146 12.4977H41.5195C43.5758 12.4977 45.2647 10.8064 45.2647 8.75025H50.2671V45.9634H42.5889C42.2845 45.9648 41.9911 46.0771 41.7637 46.2794C41.5362 46.4817 41.3904 46.7599 41.3535 47.062L39.2149 64.9985H22.7695C22.6054 64.9978 22.4427 65.0296 22.2908 65.0918C22.1389 65.154 22.0007 65.2455 21.8842 65.3612C21.7677 65.4768 21.6751 65.6142 21.6117 65.7656C21.5483 65.917 21.5153 66.0794 21.5146 66.2436C21.514 66.4085 21.546 66.572 21.6089 66.7245C21.6717 66.8771 21.7641 67.0157 21.8807 67.1323C21.9974 67.249 22.136 67.3414 22.2886 67.4042C22.4411 67.467 22.6046 67.4991 22.7695 67.4984H38.917L38.4702 71.2458H34.5151H17.7671V8.75025ZM34.0171 23.7547C29.1994 23.7547 25.2598 27.6844 25.2598 32.5019C25.2598 37.3195 29.1994 41.2492 34.0171 41.2492C38.8348 41.2492 42.7646 37.3195 42.7646 32.5019C42.7646 27.6844 38.8348 23.7547 34.0171 23.7547ZM34.0171 26.2448C37.4837 26.2448 40.2646 29.0355 40.2646 32.5019C40.2646 35.9684 37.4837 38.7469 34.0171 38.7469C30.5505 38.7469 27.7598 35.9684 27.7598 32.5019C27.7598 29.0355 30.5505 26.2448 34.0171 26.2448ZM36.478 29.8043C36.1945 29.8132 35.9225 29.9182 35.7065 30.1021L33.1308 32.2798L32.3569 31.5694C32.1132 31.346 31.7908 31.2283 31.4604 31.242C31.1301 31.2557 30.8186 31.3998 30.5942 31.6426C30.4821 31.7635 30.3951 31.9054 30.338 32.0601C30.281 32.2148 30.2551 32.3793 30.2619 32.5441C30.2687 32.7088 30.3081 32.8706 30.3777 33.0201C30.4473 33.1695 30.5458 33.3038 30.6675 33.415L32.2544 34.8627C32.4781 35.069 32.7695 35.1866 33.0738 35.1934C33.3781 35.2001 33.6744 35.0957 33.9072 34.8996L37.3203 32.0115C37.4459 31.9056 37.5494 31.776 37.6249 31.6301C37.7004 31.4841 37.7463 31.3248 37.7602 31.161C37.774 30.9973 37.7554 30.8325 37.7055 30.676C37.6556 30.5195 37.5753 30.3743 37.4692 30.2489C37.3636 30.123 37.2342 30.0191 37.0884 29.9433C36.9426 29.8675 36.7833 29.8212 36.6196 29.807C36.5725 29.8035 36.5252 29.8024 36.478 29.8043ZM43.7046 48.4634H64.3296L67.208 72.6765C67.4368 74.5972 65.9783 76.2457 64.044 76.2457H54.6128H51.5122H43.9927C42.0584 76.2457 40.5877 74.5972 40.8164 72.6765L43.7046 48.4634ZM46.8613 51.2514C46.6972 51.2507 46.5345 51.2824 46.3826 51.3446C46.2307 51.4069 46.0925 51.4984 45.976 51.614C45.8595 51.7296 45.7669 51.8671 45.7035 52.0185C45.64 52.1699 45.6071 52.3323 45.6064 52.4964C45.6064 57.1494 49.3791 60.9581 54.0122 60.9581C58.6453 60.9581 62.418 57.1494 62.418 52.4964C62.4167 52.1666 62.2851 51.8507 62.0519 51.6175C61.8186 51.3842 61.5027 51.2526 61.1728 51.2514C61.0087 51.2507 60.846 51.2824 60.6941 51.3446C60.5422 51.4069 60.404 51.4984 60.2875 51.614C60.171 51.7296 60.0784 51.8671 60.015 52.0185C59.9516 52.1699 59.9186 52.3323 59.918 52.4964C59.918 55.8087 57.2838 58.4557 54.0122 58.4557C50.7406 58.4557 48.1064 55.8086 48.1064 52.4964C48.1051 52.1666 47.9735 51.8507 47.7403 51.6175C47.5071 51.3842 47.1911 51.2526 46.8613 51.2514Z" fill="#F7F7F6"/>
</svg>
