<svg width="1203" height="699" viewBox="0 0 1203 699" fill="none" xmlns="http://www.w3.org/2000/svg">
<path d="M973.902 -117.855C1127.64 -293.64 1249.84 -388.576 1331 -438.8L1331 -836C1227.79 -804.15 1003 -699.109 702.251 -354.889C547.897 -178.186 405.793 -100.4 291.864 -37.9255C222.037 0.355093 161.705 33.4298 110.559 81.2041C37.0573 150.109 -5.56071e-05 235.858 -5.12297e-05 336C-4.68524e-05 436.142 37.3635 522.197 110.559 590.796C161.705 638.57 222.037 671.645 291.864 709.925C405.793 772.399 547.897 850.186 702.251 1026.89C1003 1371.11 1227.79 1476.15 1331 1508L1331 1110.8C1249.84 1060.58 1127.64 965.64 973.902 789.855C777.284 564.765 589.548 461.867 465.207 393.88C432.131 375.812 388.948 352.231 367.204 336C389.255 319.769 432.131 296.494 465.207 278.119C589.548 210.133 777.591 107.235 973.902 -117.855Z" fill="white" fill-opacity="0.54"/>
<path d="M973.15 -118.514L973.149 -118.513C776.956 106.441 589.041 209.27 464.727 277.242L464.721 277.245C461.244 279.177 457.656 281.164 453.995 283.192C422.873 300.429 386.4 320.629 366.611 335.195L365.525 335.994L366.606 336.801C388.364 353.043 431.456 376.583 464.466 394.615L464.727 394.758C589.04 462.729 776.65 565.559 973.149 790.513L973.15 790.514C1126.65 966.02 1248.74 1061 1330 1111.36L1330 1506.64C1226.42 1474.38 1002.4 1368.9 703.004 1026.23C548.764 849.659 406.729 771.772 292.863 709.333L292.345 709.048L291.864 709.925L292.345 709.048C222.497 670.756 162.28 637.739 111.243 590.066C38.2485 521.656 0.999953 435.865 0.999949 336C0.999944 236.135 37.9422 150.651 111.242 81.9349C162.279 34.2613 222.496 1.24401 292.345 -37.0487L292.864 -37.3329C406.729 -99.7725 548.764 -177.659 703.004 -354.231C1002.4 -696.904 1226.42 -802.38 1330 -834.643L1330 -439.357C1248.74 -388.997 1126.65 -294.02 973.15 -118.514Z" stroke="white" stroke-opacity="0.08" stroke-width="2"/>
</svg>
