<svg width="36" height="42" viewBox="0 0 36 42" fill="none" xmlns="http://www.w3.org/2000/svg">
<path d="M7.23633 40.7006L1.40057 36.2796L3.31425 33.7536C3.71004 33.2311 4.13724 32.8462 4.59585 32.5988C5.0489 32.3472 5.51172 32.2385 5.98431 32.2729C6.45689 32.3073 6.91272 32.4908 7.35179 32.8234C7.78531 33.1518 8.08257 33.5388 8.24358 33.9845C8.40459 34.4301 8.42808 34.9072 8.31406 35.4156C8.19448 35.9199 7.93679 36.4332 7.54101 36.9557L6.19575 38.7314L6.0419 37.6701L8.25948 39.3501L7.23633 40.7006ZM6.19196 37.7838L5.09529 37.8977L6.38371 36.197C6.6995 35.7802 6.84636 35.4016 6.8243 35.0612C6.80223 34.7208 6.6328 34.4306 6.31601 34.1906C5.99365 33.9464 5.66565 33.8598 5.33201 33.9307C4.99837 34.0016 4.67366 34.2454 4.35787 34.6623L3.06945 36.363L2.88225 35.2764L6.19196 37.7838ZM13.4778 32.6005C13.0905 33.1118 12.6494 33.4862 12.1545 33.7237C11.6639 33.9556 11.1663 34.0466 10.6618 33.9967C10.1516 33.9427 9.67422 33.7472 9.22959 33.4104C8.77941 33.0693 8.45991 32.6655 8.27111 32.1988C8.08097 31.7223 8.02548 31.2298 8.10463 30.7211C8.17824 30.2083 8.38767 29.724 8.73293 29.2683C9.06556 28.8292 9.45899 28.5062 9.91322 28.2992C10.3661 28.0824 10.8455 28.0039 11.3514 28.0635C11.8518 28.1189 12.3438 28.3297 12.8273 28.6961C12.8773 28.734 12.9336 28.7809 12.9961 28.837C13.053 28.8889 13.1071 28.9387 13.1585 28.9863L10.3985 32.6295L9.63987 32.0548L11.882 29.0952L11.7281 29.766C11.4947 29.5891 11.256 29.4827 11.0122 29.4466C10.7683 29.4106 10.536 29.4401 10.3152 29.5353C10.0888 29.6262 9.89141 29.7829 9.72299 30.0052C9.55456 30.2275 9.45511 30.4627 9.42463 30.7108C9.3928 30.9491 9.43002 31.1829 9.53629 31.4121C9.637 31.6371 9.80686 31.8401 10.0458 32.0212L10.2459 32.1728C10.4905 32.358 10.7472 32.4694 11.0162 32.507C11.2838 32.5348 11.5413 32.4893 11.7887 32.3706C12.0348 32.2421 12.2589 32.0444 12.461 31.7776C12.642 31.5387 12.7638 31.3029 12.8263 31.0703C12.893 30.8321 12.9109 30.5833 12.8801 30.3238L14.1546 30.2002C14.2323 30.5827 14.2171 30.978 14.1092 31.3861C13.9956 31.7899 13.7852 32.1947 13.4778 32.6005ZM13.2226 23.342C13.492 22.9863 13.8043 22.7242 14.1593 22.5558C14.513 22.3776 14.8982 22.3195 15.3148 22.3815C15.726 22.4393 16.1594 22.6408 16.6151 22.986L19.1829 24.9313L18.1976 26.2318L15.83 24.4381C15.4687 24.1645 15.1409 24.0429 14.8465 24.0736C14.5563 24.0987 14.3017 24.2557 14.0828 24.5448C13.927 24.7504 13.8304 24.9703 13.793 25.2044C13.7543 25.4287 13.788 25.6555 13.8943 25.8847C14.0048 26.1084 14.199 26.3255 14.4769 26.536L16.6944 28.216L15.7092 29.5165L11.224 26.1186L12.165 24.8765L13.4072 25.8175L12.8552 25.7667C12.6772 25.3782 12.6213 24.9728 12.6875 24.5506C12.7537 24.1283 12.932 23.7255 13.2226 23.342ZM21.6263 21.8446C21.3063 22.267 20.9234 22.5761 20.4775 22.772C20.0262 22.9636 19.5524 23.029 19.0562 22.968C18.5643 22.9015 18.0849 22.6914 17.618 22.3377C17.1456 21.9798 16.8108 21.5731 16.6136 21.1175C16.4206 20.6564 16.358 20.1847 16.4259 19.7025C16.4937 19.2203 16.6877 18.768 17.0077 18.3456C17.294 17.9677 17.6279 17.7002 18.0094 17.543C18.3908 17.3859 18.81 17.3579 19.267 17.4592C19.7239 17.5604 20.2163 17.811 20.7443 18.211C21.2668 18.6068 21.6434 19.0102 21.8743 19.4213C22.0997 19.8283 22.1884 20.2366 22.1404 20.6464C22.0966 21.0506 21.9252 21.45 21.6263 21.8446ZM20.7297 20.8111C20.8897 20.5999 20.9849 20.3702 21.0154 20.1221C21.0459 19.8741 21.0073 19.6305 20.8997 19.3915C20.7907 19.1428 20.6084 18.9216 20.3528 18.7279C20.0915 18.53 19.8292 18.4144 19.5658 18.381C19.3066 18.3421 19.0617 18.3709 18.8312 18.4674C18.6006 18.5639 18.4053 18.7178 18.2453 18.929C18.0811 19.1457 17.9838 19.3781 17.9533 19.6262C17.9228 19.8743 17.9592 20.1206 18.0627 20.3652C18.1703 20.6042 18.3547 20.8226 18.6159 21.0205C18.8716 21.2142 19.1318 21.3326 19.3965 21.3757C19.66 21.409 19.9069 21.3775 20.1375 21.281C20.3681 21.1845 20.5655 21.0278 20.7297 20.8111ZM22.6206 20.3935L21.7036 19.6987L20.3886 18.6632L18.9999 17.7424L16.3905 15.7655L17.3758 14.465L23.5617 19.1513L22.6206 20.3935ZM24.4736 17.9476L19.9884 14.5497L20.9736 13.2492L25.4588 16.6471L24.4736 17.9476ZM19.8557 13.4258C19.6747 13.6647 19.4578 13.8066 19.2052 13.8514C18.9526 13.8962 18.7234 13.8407 18.5178 13.685C18.3122 13.5292 18.1967 13.3236 18.1715 13.0683C18.1462 12.813 18.2241 12.5658 18.4051 12.3268C18.5862 12.0878 18.8002 11.9438 19.0473 11.8948C19.2888 11.8416 19.5124 11.8929 19.7181 12.0487C19.9348 12.2129 20.0586 12.4248 20.0894 12.6843C20.1189 12.9341 20.041 13.1812 19.8557 13.4258ZM23.8866 9.26551C24.1561 8.90981 24.4683 8.64775 24.8233 8.47933C25.177 8.30114 25.5622 8.24303 25.9789 8.30501C26.39 8.36278 26.8234 8.5643 27.2792 8.90956L29.8469 10.8548L28.8616 12.1554L26.494 10.3617C26.1327 10.088 25.8049 9.96648 25.5105 9.99713C25.2203 10.0222 24.9657 10.1793 24.7468 10.4683C24.591 10.6739 24.4944 10.8938 24.457 11.1279C24.4183 11.3522 24.4521 11.579 24.5583 11.8082C24.6688 12.0319 24.863 12.249 25.1409 12.4595L27.3585 14.1395L26.3732 15.4401L21.888 12.0422L22.8291 10.8L24.0713 11.741L23.5193 11.6903C23.3412 11.3017 23.2853 10.8963 23.3515 10.4741C23.4177 10.0519 23.5961 9.649 23.8866 9.26551ZM34.0466 8.80996C33.7266 9.23236 33.3643 9.60086 32.9598 9.91547C32.565 10.2287 32.1658 10.4381 31.7623 10.5435L31.2202 9.31926C31.5189 9.24818 31.8223 9.10183 32.1301 8.88019C32.4478 8.6572 32.714 8.40398 32.9287 8.12053C33.2782 7.65923 33.428 7.24786 33.3781 6.88643C33.3325 6.51944 33.1068 6.18226 32.7011 5.8749L32.0258 5.36332L30.9635 4.42732L29.8171 3.58505L28.85 2.85242L29.7847 1.61858L33.5196 4.44804C34.3533 5.07962 34.8032 5.76164 34.8694 6.4941C34.9356 7.22656 34.6613 7.99851 34.0466 8.80996ZM31.9942 7.57004C31.6784 7.98688 31.3032 8.29745 30.8685 8.50174C30.4325 8.69627 29.9754 8.77425 29.4972 8.73568C29.0177 8.68734 28.5612 8.49896 28.1277 8.17054C27.6886 7.83791 27.3837 7.44945 27.2129 7.00515C27.0408 6.55109 26.9921 6.08996 27.0669 5.62175C27.1459 5.14798 27.3433 4.70268 27.6591 4.28584C27.9454 3.90791 28.2758 3.63338 28.6504 3.46227C29.0194 3.28694 29.4262 3.2408 29.8706 3.32383C30.3095 3.40265 30.7791 3.63154 31.2793 4.01048C31.7739 4.38522 32.1214 4.77528 32.3216 5.18067C32.5163 5.58185 32.582 5.98589 32.5187 6.39279C32.4554 6.79969 32.2805 7.19211 31.9942 7.57004ZM31.1229 6.50319C31.2955 6.27531 31.4047 6.03877 31.4506 5.79355C31.4908 5.54412 31.4655 5.30622 31.3745 5.07987C31.2836 4.85351 31.1297 4.65823 30.913 4.49402C30.6906 4.3256 30.461 4.23035 30.224 4.20829C29.9815 4.18202 29.7484 4.22412 29.5248 4.3346C29.2955 4.44088 29.0946 4.60795 28.922 4.83582C28.7494 5.06369 28.6429 5.30234 28.6027 5.55177C28.5568 5.79699 28.5773 6.03556 28.664 6.26748C28.7494 6.48962 28.9033 6.68491 29.1256 6.85333C29.3424 7.01754 29.572 7.11278 29.8145 7.13905C30.0613 7.15977 30.2992 7.11699 30.5285 7.01072C30.7521 6.90024 30.9503 6.73106 31.1229 6.50319Z" fill="#5C80B6"/>
</svg>
