<svg xmlns="http://www.w3.org/2000/svg" width="64" height="68" viewBox="0 0 64 68" fill="none">
<path d="M45.0163 13.0168C47.1096 13.0168 48.8129 11.3135 48.8129 9.22019C48.8129 7.12691 47.1096 5.42358 45.0163 5.42358C42.923 5.42358 41.2197 7.12691 41.2197 9.22019C41.2197 11.3135 42.923 13.0168 45.0163 13.0168ZM45.0163 7.59308C45.9137 7.59308 46.6435 8.32284 46.6435 9.22019C46.6435 10.1175 45.9137 10.8473 45.0163 10.8473C44.119 10.8473 43.3892 10.1175 43.3892 9.22019C43.3892 8.32284 44.119 7.59308 45.0163 7.59308Z" fill="#F7F7F6"/>
<path d="M54.2371 4.33893C54.8362 4.33893 55.3218 3.85327 55.3218 3.25418C55.3218 2.65509 54.8362 2.16943 54.2371 2.16943C53.638 2.16943 53.1523 2.65509 53.1523 3.25418C53.1523 3.85327 53.638 4.33893 54.2371 4.33893Z" fill="#F7F7F6"/>
<path d="M28.0708 18.5718C28.2826 18.7836 28.5603 18.8896 28.8377 18.8896C29.1152 18.8896 29.3929 18.7836 29.6047 18.5718L30.3716 17.8049L31.1385 18.5718C31.3503 18.7836 31.628 18.8896 31.9054 18.8896C32.1828 18.8896 32.4605 18.7836 32.6723 18.5718C33.0959 18.1482 33.0959 17.4615 32.6723 17.0379L31.9054 16.271L32.6723 15.5041C33.0959 15.0805 33.0959 14.3939 32.6723 13.9703C32.2487 13.5467 31.5621 13.5467 31.1385 13.9703L30.3716 14.7372L29.6047 13.9703C29.1811 13.5467 28.4944 13.5467 28.0708 13.9703C27.6472 14.3939 27.6472 15.0805 28.0708 15.5041L28.8377 16.271L28.0708 17.0379C27.647 17.4618 27.647 18.1482 28.0708 18.5718Z" fill="#F7F7F6"/>
<path d="M62.9153 22.7797H59.1645L60.3935 13.5615C60.5212 12.6028 60.2289 11.6355 59.5916 10.9079C58.9543 10.1803 58.0339 9.76271 57.0668 9.76271C55.5753 9.76271 54.2622 10.752 53.8454 12.1779L49.4416 22.7797H15.1864V6.50848C15.1864 5.90888 14.7007 5.42373 14.1017 5.42373C12.5323 5.42373 11.0492 5.86332 9.76271 6.61017V5.9661C9.76271 4.47024 8.54671 3.25424 7.05139 3.25424H2.97193C2.52963 3.25424 2.16949 2.8941 2.16949 2.45234V1.08475C2.16949 0.485153 1.6838 0 1.08475 0C0.485695 0 0 0.485153 0 1.08475V2.45234C0 4.09112 1.33315 5.42373 2.97193 5.42373H7.05139C7.35024 5.42373 7.59322 5.66725 7.59322 5.9661V8.37505C6.25275 9.87281 5.42373 11.8121 5.42373 13.9045V29.2881C5.42373 35.8151 9.96285 41.5073 16.2712 42.9991V57.4915C15.7315 57.4915 15.2738 57.8888 15.1976 58.4228L14.1128 66.016C14.0683 66.3273 14.1611 66.643 14.3672 66.8806C14.5733 67.1181 14.8719 67.2542 15.1864 67.2542H26.0339C26.3485 67.2542 26.6473 67.1176 26.8532 66.8803C27.059 66.643 27.152 66.3273 27.1075 66.0157L26.0228 58.4225C25.9466 57.8888 25.4888 57.4915 24.9492 57.4915V43.3898H28.2034V50.4407C28.2034 53.7299 30.8797 56.4068 34.1695 56.4068H37.4237C40.7135 56.4068 43.3898 53.7299 43.3898 50.4407V37.4191L48.8136 37.049V50.4407C48.8136 52.534 50.5169 54.2373 52.6102 54.2373H53.6949C55.7882 54.2373 57.4915 52.534 57.4915 50.4407V35.245C61.3703 33.0603 64 28.9085 64 24.1483V23.8644C64 23.2648 63.5143 22.7797 62.9153 22.7797ZM55.8739 12.9502C55.8923 12.9058 55.9078 12.8602 55.9205 12.8136C56.0588 12.2945 56.5302 11.9322 57.0668 11.9322C57.4137 11.9322 57.731 12.0762 57.9599 12.3368C58.1882 12.5985 58.2888 12.931 58.2433 13.2754L56.9757 22.7797H51.7904L55.8739 12.9502ZM7.59322 29.2881V13.9045C7.59322 10.841 9.98346 8.20231 13.0169 7.68515V32.7265C13.0169 35.0899 14.3224 37.152 16.2712 38.2368V40.7645C11.1954 39.328 7.59322 34.6381 7.59322 29.2881ZM16.4369 65.0848L17.2117 59.661H19.5254V61.8305C19.5254 62.4301 20.0111 62.9153 20.6102 62.9153C21.2092 62.9153 21.6949 62.4301 21.6949 61.8305V59.661H24.0084L24.7832 65.0848H16.4369ZM18.4407 57.4915V38.9692C18.7572 39.0164 19.0788 39.0487 19.4094 39.0487H19.4142L22.7797 38.8201V57.4915H18.4407ZM24.9492 41.2203V38.6725L28.2034 38.4515V41.2203H24.9492ZM55.322 50.4407C55.322 51.338 54.5923 52.0678 53.6949 52.0678H52.6102C51.7128 52.0678 50.9831 51.338 50.9831 50.4407V36.9006L51.267 36.8814C52.6858 36.8814 54.0466 36.6381 55.322 36.208V50.4407ZM51.1932 34.714L43.3898 35.2442V32.5424C43.3898 31.9428 42.9041 31.4576 42.3051 31.4576C41.706 31.4576 41.2203 31.9428 41.2203 32.5424V50.4407C41.2203 52.534 39.517 54.2373 37.4237 54.2373H34.1695C32.0762 54.2373 30.3729 52.534 30.3729 50.4407V34.7119C30.3729 34.1123 29.8872 33.6271 29.2881 33.6271C28.6891 33.6271 28.2034 34.1123 28.2034 34.7119V36.2766L19.3405 36.8814C17.0498 36.8814 15.1864 35.018 15.1864 32.7268V24.9492H61.8004C61.3898 30.4014 56.819 34.7119 51.1932 34.714Z" fill="#F7F7F6"/>
<path d="M53.1531 49.8985C53.7522 49.8985 54.2379 49.4128 54.2379 48.8137C54.2379 48.2147 53.7522 47.729 53.1531 47.729C52.554 47.729 52.0684 48.2147 52.0684 48.8137C52.0684 49.4128 52.554 49.8985 53.1531 49.8985Z" fill="#F7F7F6"/>
<path d="M53.1531 45.5594C53.7522 45.5594 54.2379 45.0737 54.2379 44.4746C54.2379 43.8755 53.7522 43.3899 53.1531 43.3899C52.554 43.3899 52.0684 43.8755 52.0684 44.4746C52.0684 45.0737 52.554 45.5594 53.1531 45.5594Z" fill="#F7F7F6"/>
<path d="M53.1531 41.2205C53.7522 41.2205 54.2379 40.7349 54.2379 40.1358C54.2379 39.5367 53.7522 39.051 53.1531 39.051C52.554 39.051 52.0684 39.5367 52.0684 40.1358C52.0684 40.7349 52.554 41.2205 53.1531 41.2205Z" fill="#F7F7F6"/>
<path d="M58.5769 28.2034C59.176 28.2034 59.6617 27.7178 59.6617 27.1187C59.6617 26.5196 59.176 26.0339 58.5769 26.0339C57.9778 26.0339 57.4922 26.5196 57.4922 27.1187C57.4922 27.7178 57.9778 28.2034 58.5769 28.2034Z" fill="#F7F7F6"/>
<path d="M18.4402 34.712C19.0393 34.712 19.525 34.2263 19.525 33.6272C19.525 33.0281 19.0393 32.5425 18.4402 32.5425C17.8411 32.5425 17.3555 33.0281 17.3555 33.6272C17.3555 34.2263 17.8411 34.712 18.4402 34.712Z" fill="#F7F7F6"/>
<path d="M20.6101 53.1524C21.2092 53.1524 21.6949 52.6667 21.6949 52.0677C21.6949 51.4686 21.2092 50.9829 20.6101 50.9829C20.011 50.9829 19.5254 51.4686 19.5254 52.0677C19.5254 52.6667 20.011 53.1524 20.6101 53.1524Z" fill="#F7F7F6"/>
<path d="M20.6101 48.8135C21.2092 48.8135 21.6949 48.3279 21.6949 47.7288C21.6949 47.1297 21.2092 46.644 20.6101 46.644C20.011 46.644 19.5254 47.1297 19.5254 47.7288C19.5254 48.3279 20.011 48.8135 20.6101 48.8135Z" fill="#F7F7F6"/>
<path d="M20.6101 44.4744C21.2092 44.4744 21.6949 43.9888 21.6949 43.3897C21.6949 42.7906 21.2092 42.3049 20.6101 42.3049C20.011 42.3049 19.5254 42.7906 19.5254 43.3897C19.5254 43.9888 20.011 44.4744 20.6101 44.4744Z" fill="#F7F7F6"/>
<path d="M32.5428 45.5594H39.0512C39.6503 45.5594 40.136 45.0742 40.136 44.4746C40.136 43.875 39.6503 43.3899 39.0512 43.3899H32.5428C31.9437 43.3899 31.458 43.875 31.458 44.4746C31.458 45.0742 31.9437 45.5594 32.5428 45.5594Z" fill="#F7F7F6"/>
</svg>
