<svg xmlns="http://www.w3.org/2000/svg" width="64" height="64" viewBox="0 0 64 64" fill="none">
  <g clip-path="url(#clip0_7098_2859)">
    <mask id="mask0_7098_2859" style="mask-type:luminance" maskUnits="userSpaceOnUse" x="0" y="0" width="64" height="64">
      <path d="M0 7.62939e-06H64V64H0V7.62939e-06Z" fill="white"/>
    </mask>
    <g mask="url(#mask0_7098_2859)">
      <path d="M54.9396 5.06249C53.1513 3.91937 50.7749 4.44249 49.6318 6.23087L43.8221 15.3202C42.961 16.6672 41.3013 17.2646 39.7859 16.7734C35.8198 15.4869 28.8303 14.1382 21.8028 13.5911C22.4848 14.8324 22.9344 16.268 22.9344 17.8985C22.9344 19.1807 22.4948 20.3596 21.7598 21.2954C28.2794 21.8436 34.425 23.115 37.414 24.0846C38.5506 24.4532 39.7121 24.6306 40.86 24.6306C44.6023 24.6306 48.1983 22.7455 50.2985 19.4597L56.1081 10.3704C57.2511 8.58199 56.7281 6.20562 54.9396 5.06249Z" stroke="#F7F7F6" stroke-width="2" stroke-miterlimit="10" stroke-linecap="round" stroke-linejoin="round"/>
      <path d="M55.9834 33.5207C56.8248 31.8054 57.2981 29.8768 57.2981 27.8376V16.6692H52.0828L50.2991 19.4599C48.1989 22.7457 44.6028 24.6308 40.8607 24.6308C39.7127 24.6308 38.5512 24.4534 37.4146 24.0848C36.7138 23.8574 35.8387 23.6136 34.8262 23.3662L34.7783 23.3546L37.4676 40.7583H44.3784C48.1322 40.7583 51.5113 39.1567 53.8717 36.6003" stroke="#F7F7F6" stroke-width="2" stroke-miterlimit="10" stroke-linecap="round" stroke-linejoin="round"/>
      <path d="M17.2685 23.4017C14.3023 23.3167 11.9236 20.8855 11.9236 17.8986C11.9236 17.4795 11.905 17.0701 11.8731 16.6692H6.70215V27.8375C6.70215 33.2561 10.0388 37.8953 14.7691 39.8145L17.3053 23.401L17.2685 23.4017Z" stroke="#F7F7F6" stroke-width="2" stroke-miterlimit="10" stroke-linecap="round" stroke-linejoin="round"/>
      <path d="M7.12625 41.7284C9.42862 43.801 12.2487 45.3099 15.3694 46.0364C14.6052 44.6836 14.2661 43.0709 14.5251 41.3941L14.7694 39.8145C10.039 37.8954 6.70225 33.2563 6.70225 27.8376V16.6693C6.70225 15.744 5.95225 14.994 5.02712 14.994H2.61275C1.6875 14.994 0.9375 15.744 0.9375 16.6693V27.8376C0.9375 32.0003 2.299 35.8448 4.60062 38.9506" stroke="#F7F7F6" stroke-width="2" stroke-miterlimit="10" stroke-linecap="round" stroke-linejoin="round"/>
      <path d="M53.8716 36.6004C51.5111 39.1568 48.1321 40.7584 44.3784 40.7584H37.4675L37.5656 41.3942C37.8566 43.2771 37.3938 45.0796 36.4209 46.5232H44.3784C54.6806 46.5232 63.0626 38.1412 63.0626 27.8376V16.6693C63.0626 15.7441 62.3126 14.9941 61.3874 14.9941H58.9731C58.0479 14.9941 57.2979 15.7441 57.2979 16.6693V27.8376C57.2979 29.8769 56.8248 31.8056 55.9834 33.5208" stroke="#F7F7F6" stroke-width="2" stroke-miterlimit="10" stroke-linecap="round" stroke-linejoin="round"/>
      <path d="M33.6027 48.9806C32.65 49.4474 31.5766 49.7129 30.4325 49.7129H21.6566C20.6847 49.7129 19.7632 49.5223 18.9239 49.1789L17.3107 57.1615C16.7884 59.7456 18.7639 62.1604 21.4004 62.1604H31.1664C33.8027 62.1604 35.7782 59.7456 35.2561 57.1615L33.6027 48.9806Z" stroke="#F7F7F6" stroke-width="2" stroke-miterlimit="10" stroke-linecap="round" stroke-linejoin="round"/>
      <path d="M28.5233 49.713H24.0443L23.0258 54.7531C22.7871 55.9333 23.6894 57.0361 24.8935 57.0361H27.6739C28.878 57.0361 29.7804 55.9333 29.5418 54.7531L28.5233 49.713Z" stroke="#F7F7F6" stroke-width="2" stroke-miterlimit="10" stroke-linecap="round" stroke-linejoin="round"/>
      <path d="M34.7786 23.3548C31.4761 22.5508 26.7278 21.7134 21.7606 21.2956C20.7527 22.5789 19.1881 23.4043 17.4297 23.4043C17.3882 23.4043 17.3472 23.402 17.3059 23.4011L14.5257 41.3943C13.8498 45.7674 17.2329 49.7131 21.6578 49.7131H30.4337C34.8588 49.7131 38.2417 45.7674 37.5659 41.3943L34.7786 23.3548Z" stroke="#F7F7F6" stroke-width="2" stroke-miterlimit="10" stroke-linecap="round" stroke-linejoin="round"/>
      <path d="M15.1687 7.69568H8.42285C8.42285 7.69568 11.9239 11.9044 11.9239 17.8987C11.9239 20.9393 14.3887 23.4041 17.4292 23.4041C20.4698 23.4041 22.9347 20.9393 22.9347 17.8987C22.9347 11.1172 15.1687 7.69568 15.1687 7.69568Z" stroke="#F7F7F6" stroke-width="2" stroke-miterlimit="10" stroke-linecap="round" stroke-linejoin="round"/>
      <path d="M15.169 1.83981H8.42299C6.80612 1.83981 5.49512 3.15068 5.49512 4.76768C5.49512 6.38468 6.80612 7.69556 8.42299 7.69556H15.169C16.786 7.69556 18.0969 6.38468 18.0969 4.76768C18.0969 3.15068 16.786 1.83981 15.169 1.83981Z" stroke="#F7F7F6" stroke-width="2" stroke-miterlimit="10" stroke-linecap="round" stroke-linejoin="round"/>
    </g>
  </g>
  <defs>
    <clipPath id="clip0_7098_2859">
      <rect width="64" height="64" fill="white"/>
    </clipPath>
  </defs>
</svg>