<svg width="1166" height="2054" viewBox="0 0 1166 2054" fill="none" xmlns="http://www.w3.org/2000/svg">
<path d="M853.171 629.296C987.854 475.259 1094.9 392.068 1166 348.058L1166 -5.09675e-05C1075.59 27.909 878.659 119.955 615.195 421.587C479.976 576.429 355.488 644.592 255.683 699.337C194.512 732.881 141.659 761.864 96.8536 803.727C32.4634 864.108 -4.87274e-05 939.247 -4.48916e-05 1027C-4.10558e-05 1114.75 32.7317 1190.16 96.8536 1250.27C141.659 1292.14 194.512 1321.12 255.683 1354.66C355.488 1409.41 479.976 1477.57 615.195 1632.41C878.659 1934.04 1075.59 2026.09 1166 2054L1166 1705.94C1094.9 1661.93 987.854 1578.74 853.171 1424.7C680.927 1227.46 516.463 1137.29 407.536 1077.72C378.561 1061.89 340.732 1041.22 321.683 1027C341 1012.78 378.561 992.382 407.536 976.28C516.463 916.705 681.195 826.538 853.171 629.296Z" fill="white" fill-opacity="0.54"/>
<path d="M852.418 628.637L852.417 628.638C680.561 825.744 515.956 915.843 407.057 975.403L407.051 975.406C404.004 977.099 400.861 978.841 397.653 980.618C370.391 995.721 338.433 1013.43 321.09 1026.19L320.004 1026.99L321.085 1027.8C340.153 1042.04 377.91 1062.67 406.823 1078.47L407.057 1078.6C515.955 1138.16 680.292 1228.26 852.417 1425.36L852.418 1425.36C986.857 1579.12 1093.8 1662.35 1165 1706.5L1165 2052.64C1074.22 2024.32 878.061 1931.84 615.948 1631.75C480.815 1477.01 356.372 1408.75 256.618 1354.04L256.164 1353.79L255.711 1354.61L256.164 1353.79C194.971 1320.23 142.233 1291.3 97.5364 1249.54C33.6163 1189.62 0.999959 1114.47 0.999955 1027C0.999951 939.524 33.3488 864.648 97.5377 804.457C142.234 762.695 194.972 733.77 256.164 700.213L255.705 699.377L256.164 700.213L256.619 699.964C356.372 645.248 480.815 576.989 615.948 422.245C878.061 122.159 1074.22 29.6794 1165 1.35737L1165 347.501C1093.8 391.648 986.857 474.879 852.418 628.637Z" stroke="white" stroke-opacity="0.08" stroke-width="2"/>
</svg>
