<svg width="28" height="28" viewBox="0 0 28 28" fill="none" xmlns="http://www.w3.org/2000/svg">
<path id="Vector" d="M14 0C6.26714 0 0 6.26714 0 14C0 21.7329 6.26714 28 14 28C21.7329 28 28 21.7329 28 14C28 6.26714 21.7314 0 14 0ZM18.9948 18.371C18.6647 17.8388 18.0424 17.0347 16.8864 16.0256C15.409 14.7343 14.7329 13.4998 14.2865 12.684C14.1672 12.4659 14.0131 12.1838 13.9069 12.0399C13.8008 12.1838 13.6467 12.4659 13.5274 12.684C13.081 13.5012 12.4049 14.7343 10.9275 16.0256C9.7715 17.0347 9.14915 17.8388 8.81907 18.371H6.20897C6.41836 17.6934 7.1076 16.216 9.36726 14.2414C10.5276 13.2279 11.038 12.2944 11.4481 11.5455C11.6996 11.086 11.9163 10.689 12.2318 10.3546C12.684 9.87183 13.2468 9.62754 13.9055 9.62754C14.5642 9.62754 15.1269 9.87183 15.5791 10.3546C15.8932 10.6905 16.1113 11.0875 16.3629 11.5455C16.773 12.2944 17.2833 13.2264 18.4437 14.2414C20.7034 16.216 21.3941 17.6934 21.602 18.371H18.9919H18.9948Z" fill="#5B7FB4"/>
</svg>
