<svg width="155" height="76" viewBox="0 0 155 76" fill="none" xmlns="http://www.w3.org/2000/svg">
<path d="M70.1892 24.9942C70.1892 23.1602 70.5948 21.6437 71.4059 20.4446C72.2524 19.2455 73.4691 17.9229 75.0562 16.4769C76.2201 15.4188 77.0665 14.5371 77.5955 13.8318C78.1598 13.0911 78.442 12.2623 78.442 11.3453C78.442 10.0404 77.9129 9.01764 76.8549 8.277C75.8321 7.5011 74.4567 7.11315 72.7285 7.11315C71.0709 7.11315 69.5896 7.46583 68.2847 8.1712C67.015 8.84129 65.9394 9.79354 65.0576 11.0279L58.6564 7.27186C60.1377 5.01468 62.1304 3.2689 64.6344 2.03451C67.1737 0.80012 70.1716 0.182926 73.6278 0.182926C77.6837 0.182926 80.9284 1.047 83.3619 2.77514C85.8307 4.50329 87.0651 6.90154 87.0651 9.96988C87.0651 11.4159 86.8182 12.6855 86.3244 13.7789C85.866 14.8722 85.284 15.8068 84.5787 16.5827C83.9086 17.3233 83.0269 18.1874 81.9335 19.1749C80.6286 20.3388 79.6764 21.3263 79.0768 22.1375C78.4772 22.9134 78.1775 23.8656 78.1775 24.9942H70.1892ZM74.2098 38.2727C72.7638 38.2727 71.547 37.8142 70.5595 36.8972C69.6073 35.945 69.1311 34.7988 69.1311 33.4586C69.1311 32.1184 69.6073 31.0074 70.5595 30.1257C71.5117 29.2087 72.7285 28.7503 74.2098 28.7503C75.691 28.7503 76.9078 29.2087 77.86 30.1257C78.8123 31.0074 79.2884 32.1184 79.2884 33.4586C79.2884 34.7988 78.7947 35.945 77.8071 36.8972C76.8549 37.8142 75.6558 38.2727 74.2098 38.2727Z" fill="#2B364B"/>
<path fill-rule="evenodd" clip-rule="evenodd" d="M143.033 69.19C146.152 69.19 148.552 66.4085 147.839 63.3725C140.315 31.3723 111.583 7.54993 77.2863 7.54993C42.9901 7.54993 14.2578 31.3723 6.73399 63.3725C6.02017 66.4085 8.42086 69.19 11.5397 69.19C14.0178 69.19 16.1157 67.4003 16.7106 64.9946C23.4373 37.7934 48.0067 17.6266 77.2863 17.6266C106.566 17.6266 131.135 37.7934 137.862 64.9946C138.457 67.4003 140.555 69.19 143.033 69.19Z" fill="#2B364B" fill-opacity="0.08"/>
<path d="M27.8174 63.717C27.217 63.717 26.6346 63.6374 26.0703 63.4783C25.5133 63.3119 25.0647 63.0985 24.7247 62.838L25.3215 61.5141C25.6471 61.7528 26.0341 61.9446 26.4827 62.0892C26.9312 62.2339 27.3798 62.3063 27.8283 62.3063C28.3275 62.3063 28.6964 62.2339 28.9352 62.0892C29.1739 61.9373 29.2933 61.7384 29.2933 61.4924C29.2933 61.3115 29.2209 61.1632 29.0763 61.0475C28.9388 60.9245 28.7579 60.8268 28.5337 60.7545C28.3166 60.6821 28.02 60.6025 27.6438 60.5157C27.0651 60.3783 26.5912 60.2408 26.2222 60.1034C25.8533 59.9659 25.535 59.7453 25.2673 59.4414C25.0068 59.1376 24.8766 58.7324 24.8766 58.226C24.8766 57.7847 24.996 57.3868 25.2347 57.0323C25.4735 56.6706 25.8316 56.3848 26.309 56.175C26.7938 55.9652 27.3834 55.8603 28.0779 55.8603C28.5626 55.8603 29.0365 55.9182 29.4995 56.0339C29.9625 56.1497 30.3676 56.3161 30.7149 56.5331L30.1723 57.8679C29.4705 57.47 28.7688 57.2711 28.067 57.2711C27.5751 57.2711 27.2097 57.3506 26.971 57.5098C26.7395 57.6689 26.6238 57.8788 26.6238 58.1392C26.6238 58.3996 26.7576 58.595 27.0253 58.7252C27.3002 58.8482 27.7162 58.9712 28.2732 59.0942C28.852 59.2316 29.3258 59.3691 29.6948 59.5065C30.0638 59.644 30.3785 59.861 30.6389 60.1576C30.9066 60.4542 31.0404 60.8558 31.0404 61.3622C31.0404 61.7962 30.9174 62.1941 30.6715 62.5559C30.4327 62.9104 30.071 63.1925 29.5863 63.4023C29.1016 63.6121 28.512 63.717 27.8174 63.717ZM37.8412 60.6894C37.8412 60.7111 37.8303 60.863 37.8086 61.1451H33.392C33.4715 61.5069 33.6596 61.7926 33.9563 62.0024C34.2529 62.2122 34.6218 62.3171 35.0631 62.3171C35.367 62.3171 35.6347 62.2737 35.8662 62.1869C36.1049 62.0929 36.3256 61.9482 36.5281 61.7528L37.4288 62.7295C36.879 63.3589 36.076 63.6736 35.0197 63.6736C34.3614 63.6736 33.779 63.547 33.2726 63.2938C32.7662 63.0334 32.3755 62.6752 32.1006 62.2195C31.8257 61.7637 31.6882 61.2464 31.6882 60.6677C31.6882 60.0961 31.8221 59.5825 32.0897 59.1267C32.3647 58.6637 32.7372 58.3056 33.2075 58.0524C33.685 57.7919 34.2167 57.6617 34.8027 57.6617C35.3742 57.6617 35.8915 57.7847 36.3545 58.0307C36.8175 58.2766 37.1792 58.6311 37.4397 59.0942C37.7074 59.5499 37.8412 60.0817 37.8412 60.6894ZM34.8135 58.9422C34.4301 58.9422 34.1082 59.0507 33.8477 59.2678C33.5873 59.4848 33.4281 59.7814 33.3703 60.1576H36.246C36.1881 59.7887 36.0289 59.4957 35.7685 59.2786C35.5081 59.0544 35.1897 58.9422 34.8135 58.9422ZM38.9683 55.5348H40.6611V63.5868H38.9683V55.5348ZM47.9512 60.6894C47.9512 60.7111 47.9403 60.863 47.9186 61.1451H43.5019C43.5815 61.5069 43.7696 61.7926 44.0662 62.0024C44.3628 62.2122 44.7318 62.3171 45.1731 62.3171C45.477 62.3171 45.7446 62.2737 45.9761 62.1869C46.2149 62.0929 46.4355 61.9482 46.6381 61.7528L47.5388 62.7295C46.989 63.3589 46.1859 63.6736 45.1297 63.6736C44.4714 63.6736 43.889 63.547 43.3826 63.2938C42.8761 63.0334 42.4855 62.6752 42.2106 62.2195C41.9357 61.7637 41.7982 61.2464 41.7982 60.6677C41.7982 60.0961 41.932 59.5825 42.1997 59.1267C42.4746 58.6637 42.8472 58.3056 43.3174 58.0524C43.7949 57.7919 44.3267 57.6617 44.9127 57.6617C45.4842 57.6617 46.0015 57.7847 46.4645 58.0307C46.9275 58.2766 47.2892 58.6311 47.5496 59.0942C47.8173 59.5499 47.9512 60.0817 47.9512 60.6894ZM44.9235 58.9422C44.5401 58.9422 44.2181 59.0507 43.9577 59.2678C43.6973 59.4848 43.5381 59.7814 43.4802 60.1576H46.356C46.2981 59.7887 46.1389 59.4957 45.8785 59.2786C45.618 59.0544 45.2997 58.9422 44.9235 58.9422ZM51.8997 63.6736C51.2775 63.6736 50.7168 63.547 50.2177 63.2938C49.7257 63.0334 49.3387 62.6752 49.0565 62.2195C48.7816 61.7637 48.6442 61.2464 48.6442 60.6677C48.6442 60.0889 48.7816 59.5716 49.0565 59.1159C49.3387 58.6601 49.7257 58.3056 50.2177 58.0524C50.7168 57.7919 51.2775 57.6617 51.8997 57.6617C52.5146 57.6617 53.05 57.7919 53.5058 58.0524C53.9688 58.3056 54.3052 58.6709 54.515 59.1484L53.2019 59.8538C52.8981 59.3184 52.4604 59.0507 51.8888 59.0507C51.4475 59.0507 51.0822 59.1954 50.7928 59.4848C50.5034 59.7742 50.3587 60.1685 50.3587 60.6677C50.3587 61.1668 50.5034 61.5611 50.7928 61.8505C51.0822 62.1399 51.4475 62.2846 51.8888 62.2846C52.4676 62.2846 52.9053 62.0169 53.2019 61.4815L54.515 62.1978C54.3052 62.6608 53.9688 63.0225 53.5058 63.2829C53.05 63.5434 52.5146 63.6736 51.8997 63.6736ZM59.34 63.3046C59.1736 63.4276 58.9675 63.5217 58.7215 63.5868C58.4827 63.6447 58.2295 63.6736 57.9619 63.6736C57.2673 63.6736 56.7284 63.4964 56.3449 63.1419C55.9687 62.7874 55.7806 62.2665 55.7806 61.5792V59.181H54.8799V57.8788H55.7806V56.4572H57.4735V57.8788H58.9277V59.181H57.4735V61.5575C57.4735 61.8035 57.535 61.9952 57.658 62.1327C57.7882 62.2629 57.9691 62.328 58.2006 62.328C58.4683 62.328 58.6962 62.2556 58.8843 62.1109L59.34 63.3046ZM69.1584 57.7485L66.5215 63.9449C66.2538 64.6177 65.921 65.0916 65.5231 65.3665C65.1324 65.6414 64.6586 65.7789 64.1015 65.7789C63.7977 65.7789 63.4974 65.7318 63.2008 65.6378C62.9042 65.5437 62.6618 65.4135 62.4737 65.2471L63.0923 64.0426C63.2225 64.1583 63.3708 64.2488 63.5372 64.3139C63.7108 64.379 63.8809 64.4115 64.0472 64.4115C64.2788 64.4115 64.4669 64.3537 64.6115 64.2379C64.7562 64.1294 64.8865 63.9449 65.0022 63.6845L65.0239 63.6302L62.4954 57.7485H64.2426L65.8812 61.7094L67.5307 57.7485H69.1584ZM72.4683 63.6736C71.8534 63.6736 71.2999 63.547 70.808 63.2938C70.3233 63.0334 69.9435 62.6752 69.6686 62.2195C69.3936 61.7637 69.2562 61.2464 69.2562 60.6677C69.2562 60.0889 69.3936 59.5716 69.6686 59.1159C69.9435 58.6601 70.3233 58.3056 70.808 58.0524C71.2999 57.7919 71.8534 57.6617 72.4683 57.6617C73.0833 57.6617 73.6331 57.7919 74.1178 58.0524C74.6025 58.3056 74.9823 58.6601 75.2572 59.1159C75.5321 59.5716 75.6696 60.0889 75.6696 60.6677C75.6696 61.2464 75.5321 61.7637 75.2572 62.2195C74.9823 62.6752 74.6025 63.0334 74.1178 63.2938C73.6331 63.547 73.0833 63.6736 72.4683 63.6736ZM72.4683 62.2846C72.9024 62.2846 73.2569 62.1399 73.5318 61.8505C73.8139 61.5539 73.955 61.1596 73.955 60.6677C73.955 60.1757 73.8139 59.785 73.5318 59.4957C73.2569 59.1991 72.9024 59.0507 72.4683 59.0507C72.0343 59.0507 71.6761 59.1991 71.394 59.4957C71.1118 59.785 70.9708 60.1757 70.9708 60.6677C70.9708 61.1596 71.1118 61.5539 71.394 61.8505C71.6761 62.1399 72.0343 62.2846 72.4683 62.2846ZM82.6828 57.7485V63.5868H81.0768V62.8923C80.8525 63.1455 80.5848 63.3408 80.2737 63.4783C79.9626 63.6085 79.6262 63.6736 79.2645 63.6736C78.4977 63.6736 77.89 63.453 77.4414 63.0116C76.9929 62.5703 76.7686 61.9156 76.7686 61.0475V57.7485H78.4615V60.7979C78.4615 61.7384 78.8558 62.2086 79.6443 62.2086C80.0495 62.2086 80.375 62.0784 80.621 61.818C80.867 61.5503 80.9899 61.156 80.9899 60.6351V57.7485H82.6828ZM85.8681 58.519C86.0706 58.2369 86.3419 58.0234 86.682 57.8788C87.0292 57.7341 87.4271 57.6617 87.8757 57.6617V59.2244C87.6876 59.2099 87.561 59.2027 87.4958 59.2027C87.0111 59.2027 86.6313 59.3401 86.3564 59.615C86.0815 59.8827 85.944 60.2878 85.944 60.8304V63.5868H84.2512V57.7485H85.8681V58.519ZM95.5464 57.6617C96.2699 57.6617 96.8523 57.8788 97.2936 58.3128C97.7421 58.7469 97.9664 59.3908 97.9664 60.2444V63.5868H96.2735V60.5049C96.2735 60.0419 96.1722 59.6982 95.9697 59.474C95.7671 59.2425 95.4741 59.1267 95.0907 59.1267C94.6638 59.1267 94.3238 59.2605 94.0706 59.5282C93.8174 59.7887 93.6908 60.1793 93.6908 60.7002V63.5868H91.9979V55.5348H93.6908V58.3562C93.915 58.132 94.1863 57.9619 94.5047 57.8462C94.823 57.7232 95.1702 57.6617 95.5464 57.6617ZM102.343 63.6736C101.728 63.6736 101.174 63.547 100.682 63.2938C100.197 63.0334 99.8177 62.6752 99.5428 62.2195C99.2679 61.7637 99.1304 61.2464 99.1304 60.6677C99.1304 60.0889 99.2679 59.5716 99.5428 59.1159C99.8177 58.6601 100.197 58.3056 100.682 58.0524C101.174 57.7919 101.728 57.6617 102.343 57.6617C102.957 57.6617 103.507 57.7919 103.992 58.0524C104.477 58.3056 104.857 58.6601 105.131 59.1159C105.406 59.5716 105.544 60.0889 105.544 60.6677C105.544 61.2464 105.406 61.7637 105.131 62.2195C104.857 62.6752 104.477 63.0334 103.992 63.2938C103.507 63.547 102.957 63.6736 102.343 63.6736ZM102.343 62.2846C102.777 62.2846 103.131 62.1399 103.406 61.8505C103.688 61.5539 103.829 61.1596 103.829 60.6677C103.829 60.1757 103.688 59.785 103.406 59.4957C103.131 59.1991 102.777 59.0507 102.343 59.0507C101.908 59.0507 101.55 59.1991 101.268 59.4957C100.986 59.785 100.845 60.1757 100.845 60.6677C100.845 61.1596 100.986 61.5539 101.268 61.8505C101.55 62.1399 101.908 62.2846 102.343 62.2846ZM108.292 58.519C108.495 58.2369 108.766 58.0234 109.106 57.8788C109.453 57.7341 109.851 57.6617 110.3 57.6617V59.2244C110.112 59.2099 109.985 59.2027 109.92 59.2027C109.435 59.2027 109.056 59.3401 108.781 59.615C108.506 59.8827 108.368 60.2878 108.368 60.8304V63.5868H106.675V57.7485H108.292V58.519ZM113.292 63.6736C112.807 63.6736 112.333 63.6157 111.87 63.5C111.407 63.377 111.038 63.2251 110.763 63.0442L111.328 61.8288C111.588 61.9952 111.903 62.1327 112.272 62.2412C112.641 62.3425 113.002 62.3931 113.357 62.3931C114.073 62.3931 114.431 62.2158 114.431 61.8614C114.431 61.695 114.334 61.5756 114.138 61.5032C113.943 61.4309 113.643 61.3694 113.238 61.3188C112.76 61.2464 112.366 61.1632 112.055 61.0692C111.744 60.9751 111.472 60.8087 111.241 60.57C111.017 60.3313 110.904 59.9912 110.904 59.5499C110.904 59.181 111.009 58.8554 111.219 58.5733C111.436 58.2839 111.747 58.0596 112.152 57.9005C112.565 57.7413 113.049 57.6617 113.607 57.6617C114.019 57.6617 114.428 57.7087 114.833 57.8028C115.245 57.8896 115.585 58.0126 115.853 58.1717L115.289 59.3763C114.775 59.0869 114.214 58.9422 113.607 58.9422C113.245 58.9422 112.974 58.9929 112.793 59.0942C112.612 59.1954 112.521 59.3257 112.521 59.4848C112.521 59.6657 112.619 59.7923 112.814 59.8646C113.01 59.937 113.321 60.0057 113.748 60.0708C114.225 60.1504 114.616 60.2372 114.92 60.3313C115.223 60.4181 115.487 60.5808 115.712 60.8196C115.936 61.0583 116.048 61.3911 116.048 61.818C116.048 62.1797 115.94 62.5016 115.723 62.7838C115.506 63.0659 115.187 63.2866 114.768 63.4457C114.355 63.5976 113.863 63.6736 113.292 63.6736ZM122.812 60.6894C122.812 60.7111 122.801 60.863 122.779 61.1451H118.362C118.442 61.5069 118.63 61.7926 118.927 62.0024C119.223 62.2122 119.592 62.3171 120.033 62.3171C120.337 62.3171 120.605 62.2737 120.837 62.1869C121.075 62.0929 121.296 61.9482 121.498 61.7528L122.399 62.7295C121.849 63.3589 121.046 63.6736 119.99 63.6736C119.332 63.6736 118.749 63.547 118.243 63.2938C117.737 63.0334 117.346 62.6752 117.071 62.2195C116.796 61.7637 116.659 61.2464 116.659 60.6677C116.659 60.0961 116.792 59.5825 117.06 59.1267C117.335 58.6637 117.708 58.3056 118.178 58.0524C118.655 57.7919 119.187 57.6617 119.773 57.6617C120.345 57.6617 120.862 57.7847 121.325 58.0307C121.788 58.2766 122.15 58.6311 122.41 59.0942C122.678 59.5499 122.812 60.0817 122.812 60.6894ZM119.784 58.9422C119.4 58.9422 119.079 59.0507 118.818 59.2678C118.558 59.4848 118.398 59.7814 118.341 60.1576H121.216C121.158 59.7887 120.999 59.4957 120.739 59.2786C120.478 59.0544 120.16 58.9422 119.784 58.9422Z" fill="#2B364B"/>
<path d="M24.4208 64.672H123.159V65.2146H24.4208V64.672Z" fill="#2B364B"/>
</svg>
