<svg width="76" height="76" viewBox="0 0 76 76" fill="none" xmlns="http://www.w3.org/2000/svg">
<g id="shopping-cart">
<rect width="75" height="76" transform="translate(0.28125)" fill="white"/>
<path id="Vector" d="M28.4062 69.6667C30.1321 69.6667 31.5312 68.2489 31.5312 66.5C31.5312 64.7511 30.1321 63.3334 28.4062 63.3334C26.6804 63.3334 25.2812 64.7511 25.2812 66.5C25.2812 68.2489 26.6804 69.6667 28.4062 69.6667Z" stroke="#5B7FB4" stroke-width="2" stroke-linecap="round" stroke-linejoin="round"/>
<path id="Vector_2" d="M62.7812 69.6667C64.5071 69.6667 65.9062 68.2489 65.9062 66.5C65.9062 64.7511 64.5071 63.3334 62.7812 63.3334C61.0554 63.3334 59.6562 64.7511 59.6562 66.5C59.6562 68.2489 61.0554 69.6667 62.7812 69.6667Z" stroke="#5B7FB4" stroke-width="2" stroke-linecap="round" stroke-linejoin="round"/>
<path id="Vector_3" d="M3.40625 3.16669H15.9062L24.2812 45.5684C24.567 47.0263 25.3497 48.3359 26.4923 49.268C27.6349 50.2 29.0647 50.6952 30.5313 50.6667H60.9062C62.3728 50.6952 63.8026 50.2 64.9452 49.268C66.0878 48.3359 66.8705 47.0263 67.1562 45.5684L72.1562 19H19.0312" stroke="#5B7FB4" stroke-width="2" stroke-linecap="round" stroke-linejoin="round"/>
</g>
</svg>
