<svg width="306" height="24" viewBox="0 0 306 24" fill="none" xmlns="http://www.w3.org/2000/svg">
<path d="M88.2031 18.8103C88.2519 18.7438 88.3385 18.7109 88.3903 18.646C88.4371 18.5868 88.4595 18.5047 88.4923 18.4324C88.5346 18.4968 88.5779 18.5607 88.6187 18.6256L89 18.3346L92.8406 21.2686C92.8286 21.1958 92.8152 21.1231 92.8067 21.0498C92.7992 20.9854 92.8122 20.8645 92.8336 20.8593C92.9018 20.8431 93.0267 20.8451 93.0441 20.8839C93.1322 21.0838 93.1935 21.2973 93.2636 21.5062C93.2427 21.514 93.2218 21.5219 93.2014 21.5297C93.2024 21.5349 93.2024 21.5402 93.2034 21.5454L96.4163 24L93.5837 14.8327L95.0137 13.7399C94.9719 13.7363 94.9276 13.7164 94.8848 13.7049C94.9107 13.6368 94.9246 13.5196 94.9639 13.5081C95.1207 13.4636 95.281 13.4327 95.4422 13.4128L101 9.16728H91.8326L91.4514 7.93423C91.3712 7.89393 91.2936 7.84473 91.2154 7.79868C91.2597 7.75786 91.307 7.67935 91.3468 7.68354C91.3563 7.68458 91.3658 7.6872 91.3752 7.68877L89 0L86.1674 9.16728H85.8827C85.8528 9.19031 85.818 9.217 85.7931 9.23898C85.7075 9.21648 85.6413 9.19397 85.5855 9.16728H84.053C84.0828 9.22276 84.1147 9.27719 84.1416 9.33371C84.1655 9.38395 84.0833 9.50328 84.0355 9.58074C83.7907 9.98059 83.8569 10.4239 84.2093 10.7117C84.4527 10.9106 84.596 10.8509 84.6532 10.5286C84.6652 10.46 84.6647 10.3511 84.7015 10.3318C84.9564 10.1999 84.9185 9.95599 84.927 9.7231C84.934 9.52526 85.0325 9.4164 85.2182 9.45827C85.3038 9.47764 85.3799 9.54881 85.4601 9.59644C85.4158 9.66134 85.3575 9.71996 85.3302 9.7927C85.2595 9.9785 85.1669 10.1669 85.151 10.3606C85.1365 10.5375 85.0718 10.5997 84.9434 10.6835C84.717 10.8316 84.5283 11.0472 84.3008 11.1927C84.0973 11.3225 83.8648 11.401 83.6393 11.4858C83.6199 11.4931 83.5328 11.3837 83.5274 11.323C83.5169 11.2089 83.5433 11.0912 83.5542 10.975C83.5328 10.9713 83.5119 10.9671 83.4905 10.9629C83.5303 10.7374 83.5891 10.5134 83.6025 10.2857C83.611 10.1423 83.5896 9.96123 83.5129 9.85498C83.3492 9.62784 83.2989 9.40855 83.3865 9.16571H80.1039C80.08 9.18926 80.0561 9.21281 80.0377 9.23532C80.0268 9.21072 80.0173 9.18979 80.0063 9.16571H77L84.4163 14.8317L81.5837 23.999L83.4482 22.5749C83.3711 22.488 83.3079 22.3859 83.2765 22.2561C83.2446 22.1222 83.2098 22.0437 83.4094 22.0667C83.6304 22.0918 83.8534 22.0944 84.0769 22.0949L88.0717 19.0432C88.112 18.9626 88.1514 18.8804 88.2036 18.8093L88.2031 18.8103ZM93.962 9.82777C93.962 9.82777 94.0162 9.85603 94.061 9.88011C94.0033 9.98059 93.9555 10.0638 93.9082 10.147C93.8843 10.1245 93.836 10.0905 93.84 10.0806C93.8744 9.99315 93.9172 9.90994 93.9625 9.82829L93.962 9.82777ZM93.4642 18.1278C93.5663 18.3288 93.402 18.345 93.303 18.4413C93.0053 18.7302 92.6579 18.8647 92.2044 18.9176C92.199 18.8579 92.1611 18.7438 92.1905 18.7177C92.4842 18.457 92.7788 18.1948 93.0944 17.9672C93.2392 17.863 93.3816 17.9661 93.4637 18.1284L93.4642 18.1278ZM91.6719 9.88168C91.7077 9.86754 91.752 9.87906 91.8501 9.87906C92.2134 10.114 92.4185 9.78381 92.6439 9.50224C92.6967 9.43629 92.7594 9.37872 92.8226 9.32481C92.8525 9.29917 92.9112 9.26515 92.9297 9.27823C93.1437 9.4321 93.0302 9.72362 93.1457 9.92459C93.1516 9.93454 93.0481 10.0434 92.9829 10.0696C92.8893 10.1078 92.7455 10.0758 92.6927 10.1402C92.5897 10.2658 92.519 10.4323 92.4742 10.594C92.4653 10.6269 92.6325 10.7112 92.7111 10.7813C92.7475 10.8138 92.7669 10.8693 92.7938 10.9138C92.7475 10.9342 92.6927 10.9823 92.6569 10.9692C92.4225 10.886 92.2015 10.8195 91.982 11.0315C91.9496 11.0629 91.761 10.9891 91.7271 10.9179C91.6574 10.7719 91.7595 10.7374 91.8914 10.717C92.1109 10.6835 92.093 10.5678 91.9401 10.4375C91.8237 10.338 91.7087 10.236 91.5957 10.1313C91.5494 10.0884 91.5106 10.0361 91.4678 9.98792C91.5355 9.95128 91.6012 9.90837 91.6714 9.88011L91.6719 9.88168ZM91.9481 12.3352C91.9431 12.3876 91.8919 12.4352 91.8366 12.521C91.7814 12.4331 91.7187 12.3755 91.7266 12.3331C91.7346 12.2876 91.8058 12.2384 91.856 12.2264C91.8809 12.2206 91.9516 12.2996 91.9481 12.3347V12.3352ZM91.4658 14.9704C91.5484 14.851 91.6236 14.7249 91.7117 14.6108C91.7495 14.5621 91.8122 14.5114 91.8655 14.5088C91.9282 14.5056 91.9929 14.5543 92.0566 14.5799C92.0302 14.6087 92.0034 14.6375 91.977 14.6658C91.98 14.8463 91.6375 15.1028 91.4529 15.0572C91.4349 15.0525 91.42 15.0353 91.4036 15.0243C91.4245 15.0065 91.4504 14.9923 91.4653 14.9704H91.4658ZM91.5091 18.041C91.5255 18.0315 91.6156 18.1121 91.6101 18.1346C91.5962 18.1927 91.5479 18.2409 91.4942 18.3225C91.4444 18.2534 91.3852 18.2006 91.3936 18.176C91.4125 18.1216 91.4603 18.0687 91.5086 18.041H91.5091ZM90.8187 17.8976C90.7013 17.9452 90.642 17.9949 90.6052 17.9797C90.4693 17.9237 90.3359 17.8546 90.211 17.773C90.1548 17.7364 90.0781 17.6128 90.0846 17.606C90.1627 17.5192 90.3135 17.3653 90.3334 17.3826C90.4947 17.5197 90.6316 17.6898 90.8187 17.8976ZM90.0726 12.8225C90.1438 12.845 90.2468 12.8429 90.2802 12.8942C90.3633 13.0224 90.4151 13.1747 90.4967 13.3563C90.436 13.3668 90.3797 13.3961 90.3583 13.3778C90.2548 13.2867 90.1448 13.1956 90.0706 13.0794C90.0338 13.0219 90.0696 12.9099 90.0726 12.8225ZM89.9606 18.6789C89.9915 18.7004 90.0224 18.7224 90.0751 18.759C90.0114 18.8496 89.9567 18.9275 89.9014 19.0055C89.877 18.9788 89.8272 18.9401 89.8322 18.9281C89.8686 18.8417 89.9163 18.7611 89.9606 18.6789ZM89.1896 17.3302C89.2479 17.471 89.3026 17.5401 89.2887 17.582C89.2593 17.6694 89.1931 17.7421 89.1424 17.8211C89.117 17.7646 89.0657 17.705 89.0717 17.6526C89.0811 17.5689 89.1284 17.4898 89.1896 17.3302ZM81.0576 11.8443C80.9446 11.7893 80.8316 11.7349 80.7181 11.68C80.741 11.6491 80.7759 11.5873 80.7858 11.592C80.8913 11.6381 80.9929 11.6941 81.0939 11.747C81.075 11.7977 81.066 11.8213 81.0576 11.8443ZM81.744 12.544C81.6708 12.5032 81.6036 12.4493 81.4916 12.3671C81.5837 12.3174 81.6374 12.2672 81.6603 12.2803C81.7226 12.3159 81.7763 12.3739 81.8211 12.4341C81.8281 12.4436 81.7514 12.5482 81.7445 12.5446L81.744 12.544ZM83.0172 12.219C82.8459 12.1321 82.6598 12.0604 82.5169 11.9333C82.3512 11.7857 82.2083 11.6575 81.9814 11.771C81.9505 11.7862 81.8928 11.7386 81.847 11.7197C81.8898 11.6946 81.9336 11.6459 81.9749 11.648C82.2073 11.6611 82.2467 11.5271 82.2223 11.3152C82.2108 11.2157 82.1974 11.0812 82.2462 11.0153C82.3492 10.875 82.4926 10.7693 82.6195 10.6495C82.6623 10.774 82.7076 10.897 82.7474 11.0226C82.7778 11.1189 82.8012 11.2178 82.8275 11.3141C82.8131 11.3769 82.7987 11.4335 82.7872 11.49C82.7046 11.8982 82.7056 11.8966 83.0714 12.1112C83.1112 12.1348 83.1356 12.1897 83.1675 12.23C83.1172 12.2269 83.0595 12.24 83.0172 12.2185V12.219ZM84.1784 19.6309C84.1555 19.6022 84.1097 19.5671 84.1147 19.5451C84.1306 19.4734 84.165 19.4064 84.2127 19.2871C84.269 19.3713 84.3237 19.4263 84.3148 19.4441C84.2804 19.5127 84.2257 19.5697 84.1789 19.6309H84.1784ZM84.2346 12.2248C84.1012 12.3493 84.0176 12.3268 83.9514 12.1787C83.9031 12.0704 83.8852 11.9464 83.8534 11.8296C83.9494 11.803 84.0455 11.7763 84.1416 11.7496C84.156 11.7804 84.1704 11.8113 84.1849 11.8422C84.269 11.7778 84.3835 11.7328 84.4317 11.6454C84.5497 11.4335 84.6463 11.4905 84.7209 11.6569C84.809 11.8527 84.8713 12.062 84.937 12.2682C84.9459 12.2965 84.9081 12.342 84.8922 12.3792C84.8717 12.3687 84.8329 12.3556 84.8339 12.3473C84.8508 12.1704 84.8399 11.9919 84.6239 12.0254C84.487 12.0468 84.3407 12.1253 84.2346 12.2237V12.2248ZM84.7314 14.1293C84.7244 14.1105 84.7707 14.0466 84.7757 14.0492C84.8633 14.0874 84.9484 14.133 85.0828 14.2015C84.9215 14.3287 84.8847 14.358 84.8474 14.3873C84.8075 14.302 84.7632 14.2183 84.7309 14.1298L84.7314 14.1293ZM84.9967 18.9375C84.9733 18.882 84.9499 18.827 84.937 18.7972C84.9852 18.6381 85.0211 18.5183 85.0574 18.3984C85.0987 18.5136 85.1684 18.6287 85.1709 18.7449C85.1719 18.8077 85.0584 18.8731 84.9967 18.9375ZM86.8055 8.12788C86.8607 8.21266 86.9334 8.28436 86.9209 8.31472C86.8951 8.37752 86.8289 8.43404 86.7676 8.46021C86.7467 8.46911 86.6492 8.36653 86.6571 8.34089C86.679 8.2718 86.7388 8.21685 86.8055 8.12735V8.12788ZM87.0812 10.6306C87.0454 10.6243 87.0075 10.6076 86.9777 10.584C86.8985 10.5207 86.7781 10.3794 86.7532 10.3972C86.6243 10.4904 86.5098 10.6144 86.4118 10.7458C86.351 10.8274 86.3525 10.9849 86.2823 11.0331C86.1639 11.1137 86.0111 11.1367 85.8707 11.1754C85.8578 11.1791 85.8115 11.1194 85.8115 11.0891C85.8145 10.5903 86.3769 10.114 86.8174 10.2569C86.9433 10.2978 87.0434 10.4312 87.1544 10.5207C87.1096 10.5887 87.0917 10.6317 87.0807 10.6296L87.0812 10.6306ZM88.016 18.0729C88.0647 18.0922 88.1095 18.1106 88.1548 18.1289C88.0657 18.1681 87.9791 18.2236 87.8866 18.2409C87.8363 18.2503 87.7761 18.1959 87.7203 18.1702C87.8164 18.1388 87.9124 18.1069 88.016 18.0729Z" fill="#2B364B"/>
<path d="M133 9.1672H129.511C129.554 9.20174 129.6 9.2321 129.646 9.26454C129.707 9.3085 129.75 9.38491 129.8 9.44614C129.738 9.48853 129.679 9.5372 129.614 9.57279C129.494 9.63873 129.37 9.69525 129.249 9.75857C128.906 9.93755 128.591 9.84858 128.289 9.64134C128.257 9.61989 128.238 9.57802 128.214 9.54557C128.256 9.51522 128.296 9.4655 128.341 9.45765C128.556 9.42207 128.771 9.3802 128.986 9.37444C129.193 9.36921 129.261 9.29647 129.243 9.16668H123.833L122.457 4.71522C122.334 4.75133 122.303 4.63934 122.295 4.25573C122.295 4.25626 122.299 4.24213 122.305 4.22276L121.199 0.644222L121.1 0.321849L121 0L120.903 0.313999L120.783 0.701265L118.25 8.89769C118.381 9.01282 118.503 9.14208 118.622 9.27187C118.645 9.29647 118.658 9.35299 118.648 9.38491C118.639 9.41579 118.594 9.43463 118.541 9.47859C118.395 9.37654 118.251 9.27449 118.11 9.1672H114.226C114.203 9.20017 114.182 9.23524 114.16 9.2703C114.134 9.23524 114.109 9.20174 114.083 9.1672H109L110.009 9.93807C110.019 9.91295 110.028 9.88679 110.038 9.86166C110.061 9.91295 110.084 9.96214 110.107 10.0124L116.417 14.8323L113.92 22.9109C113.963 22.9528 114.004 22.9931 114.051 23.0392C113.951 23.1381 113.898 23.1899 113.845 23.2417C113.839 23.2302 113.834 23.2187 113.828 23.2077L113.583 23.9995L120.472 18.7369C120.468 18.7342 120.465 18.7306 120.461 18.728C120.485 18.6971 120.509 18.6406 120.534 18.64C120.55 18.64 120.569 18.6458 120.586 18.6495L120.999 18.3344L121.382 18.627C121.418 18.5971 121.455 18.5668 121.515 18.5186C121.611 18.6034 121.694 18.6782 121.778 18.7531C121.735 18.7782 121.677 18.8363 121.65 18.8227C121.625 18.8101 121.602 18.7928 121.579 18.7777L128.416 24L125.583 14.8333L133 9.16773L133 9.1672ZM111.639 10.2181C111.517 10.0972 111.403 9.96529 111.288 9.83602C111.351 9.79573 111.443 9.70467 111.472 9.72403C111.593 9.80515 111.695 9.91923 111.837 10.0516C111.727 10.1453 111.646 10.2249 111.639 10.2181ZM112.502 10.1778C112.431 10.0945 112.36 10.0113 112.273 9.90772C112.34 9.82922 112.402 9.74706 112.408 9.75124C112.5 9.82085 112.585 9.90144 112.671 9.97994C112.615 10.0459 112.558 10.1118 112.502 10.1772L112.502 10.1778ZM113.935 10.6645C113.921 10.6299 113.891 10.5901 113.898 10.5608C113.928 10.4295 113.969 10.3007 114.006 10.1715C114.045 10.2018 114.085 10.2317 114.144 10.2777C114.067 10.4211 114.001 10.543 113.935 10.665V10.6645ZM114.596 12.0052C114.47 11.921 114.341 11.8388 114.227 11.7373C114.185 11.7001 114.155 11.5986 114.173 11.5473C114.19 11.4966 114.287 11.429 114.327 11.4437C114.492 11.5034 114.652 11.5855 114.808 11.6724C114.845 11.6928 114.858 11.7635 114.874 11.7949C114.814 11.9498 114.797 12.1397 114.596 12.0052ZM115.449 12.4244C115.401 12.3611 115.355 12.3271 115.36 12.3041C115.375 12.2245 115.407 12.1486 115.432 12.0717C115.468 12.101 115.539 12.1361 115.536 12.1596C115.525 12.2381 115.489 12.313 115.45 12.4244H115.449ZM122.123 6.05966C122.18 6.14549 122.228 6.19049 122.238 6.24387C122.244 6.27998 122.195 6.32761 122.171 6.37C122.126 6.32028 122.072 6.27632 122.042 6.21823C122.032 6.19782 122.08 6.14182 122.124 6.05914L122.123 6.05966ZM121.717 6.04082C121.602 5.94924 121.474 5.84509 121.418 5.71217C121.376 5.61535 121.42 5.4594 121.463 5.34584C121.475 5.31339 121.669 5.30502 121.688 5.34165C121.771 5.50022 121.82 5.6792 121.897 5.89586C121.842 5.94191 121.736 6.05547 121.717 6.04082H121.717ZM121.893 9.29228C121.872 9.39747 121.831 9.49847 121.78 9.65652C121.718 9.55604 121.658 9.49586 121.668 9.46812C121.707 9.36712 121.771 9.27658 121.824 9.18238C121.849 9.21954 121.898 9.26245 121.892 9.29228H121.893ZM121.439 8.69778C121.354 8.74645 121.274 8.80925 121.184 8.83646C121.151 8.84588 121.097 8.76738 121.053 8.72917C121.132 8.69934 121.211 8.66952 121.291 8.63916C121.348 8.66167 121.394 8.67998 121.44 8.69778H121.439ZM121.323 3.58849C121.454 3.56651 121.526 3.26559 121.682 3.45713C121.799 3.59895 121.895 3.80201 121.718 4.00192C121.683 4.04065 121.689 4.12124 121.677 4.18247C121.664 4.25573 121.652 4.32952 121.639 4.40331C121.596 4.32377 121.551 4.24632 121.514 4.16415C121.505 4.14531 121.528 4.11025 121.544 4.05792C121.591 3.87527 121.485 3.79206 121.32 3.74549C121.274 3.7324 121.235 3.69263 121.194 3.66542C121.237 3.63873 121.278 3.59634 121.324 3.58901L121.323 3.58849ZM121.256 7.05242C121.207 7.15761 121.144 7.25547 121.029 7.45172C120.987 7.3345 120.951 7.28112 120.963 7.25914C121.023 7.15133 121.097 7.05242 121.166 6.94985C121.198 6.98491 121.263 7.03777 121.256 7.0519L121.256 7.05242ZM120.45 5.17261C120.458 5.05853 120.483 4.94025 120.526 4.83611C120.547 4.78378 120.626 4.72621 120.675 4.72987C120.716 4.73301 120.752 4.82198 120.761 4.83454C120.787 5.08051 120.572 5.29874 120.829 5.46097C120.837 5.4662 120.842 5.47614 120.849 5.48347C120.823 5.48766 120.797 5.49027 120.772 5.49708C120.6 5.5447 120.339 5.69071 120.276 5.62268C120.096 5.42905 120.436 5.3563 120.449 5.17314L120.45 5.17261ZM117.064 18.1905C117.051 18.2004 116.933 18.102 116.94 18.0795C116.964 17.9969 117.02 17.9257 117.085 17.8163C117.155 17.9027 117.237 17.9744 117.227 17.9963C117.192 18.0727 117.13 18.1408 117.064 18.1905ZM117.911 12.0706C117.806 12.1031 117.616 12.1444 117.592 12.0994C117.437 11.8163 117.317 11.5096 117.168 11.1721C117.26 11.0229 117.325 10.8141 117.411 10.8037C117.521 10.7906 117.704 10.9068 117.757 11.0203C117.888 11.304 117.97 11.6159 118.054 11.922C118.064 11.9555 117.97 12.0529 117.911 12.0706H117.911ZM118.22 10.934C118.155 10.8811 118.111 10.7984 118.06 10.7267C118.111 10.7 118.168 10.643 118.21 10.6545C118.272 10.6718 118.323 10.7377 118.408 10.8058C118.318 10.8686 118.236 10.9476 118.22 10.934H118.22ZM118.554 15.4739C118.52 15.477 118.481 15.4205 118.445 15.3907C118.479 15.3509 118.513 15.3116 118.568 15.2473C118.613 15.3069 118.643 15.3457 118.672 15.3844C118.633 15.4163 118.595 15.4697 118.554 15.4739ZM118.606 11.1794C118.642 11.0648 118.655 10.9293 118.721 10.8413C118.801 10.7367 118.921 10.6618 119.035 10.5985C119.07 10.5792 119.143 10.6414 119.256 10.6922C119.105 10.8324 119.002 10.9439 118.885 11.0334C118.801 11.0967 118.699 11.1313 118.606 11.1789V11.1794ZM119.14 14.8616C119.217 14.8276 119.294 14.7684 119.371 14.7679C119.425 14.7674 119.479 14.8459 119.534 14.8888C119.473 14.9505 119.412 15.0123 119.318 15.1086C119.24 15.0013 119.191 14.9312 119.141 14.8616H119.14ZM120.229 18.1659C119.916 18.5882 119.789 18.5819 119.492 18.1565C119.47 18.1251 119.444 18.0832 119.446 18.0487C119.463 17.8383 119.481 17.6274 119.515 17.4196C119.527 17.3464 119.587 17.282 119.643 17.1805C119.699 17.2511 119.763 17.2966 119.757 17.3265C119.713 17.5489 119.763 17.5981 119.985 17.573C120.101 17.5599 120.264 17.7059 120.345 17.8268C120.383 17.8823 120.299 18.0717 120.229 18.1654L120.229 18.1659ZM120.451 8.87623C120.403 8.97776 120.336 9.06934 120.276 9.16459C120.249 9.1222 120.19 9.0662 120.199 9.04003C120.239 8.92961 120.3 8.82808 120.394 8.64335C120.431 8.78517 120.466 8.84483 120.451 8.87623ZM120.242 8.09333C120.047 8.01273 119.856 7.91696 119.713 7.85102C119.368 8.02529 119.317 7.68565 119.14 7.62024C119.156 7.5836 119.169 7.51871 119.19 7.51452C119.457 7.46742 119.732 7.45277 119.992 7.37793C120.094 7.3481 120.202 7.20471 120.242 7.08696C120.318 6.86925 120.331 6.62747 120.396 6.40506C120.483 6.10571 120.667 6.04972 120.862 6.25748C120.911 6.31086 120.95 6.44431 120.923 6.50188C120.838 6.6819 120.729 6.85251 120.611 7.01055C120.372 7.33031 120.399 7.559 120.714 7.78142C120.781 7.82904 120.833 7.90074 120.897 7.95412C120.967 8.01221 121.043 8.0614 121.116 8.11426C121.013 8.17601 120.904 8.299 120.81 8.28696C120.616 8.26132 120.428 8.17078 120.242 8.09385L120.242 8.09333ZM120.96 17.6839C120.874 17.6326 120.791 17.5735 120.714 17.5081C120.703 17.4986 120.725 17.4432 120.731 17.4086C120.831 17.472 120.931 17.5353 121.051 17.6112C121.01 17.6447 120.971 17.6907 120.959 17.6834L120.96 17.6839ZM120.894 10.1788C120.833 10.1071 120.736 9.98727 120.757 9.93807C120.794 9.84858 120.903 9.75124 120.99 9.74287C121.048 9.73764 121.137 9.87004 121.176 9.95953C121.207 10.0307 121.182 10.1301 121.182 10.217C121.187 10.217 121.191 10.217 121.196 10.217C121.191 10.2887 121.186 10.3599 121.181 10.4316C121.142 10.3824 121.11 10.3243 121.063 10.285C121.012 10.2416 120.936 10.228 120.894 10.1783V10.1788ZM121.943 15.4754C121.744 15.5252 121.515 15.3111 121.506 15.0259C121.525 15.0118 121.615 14.9202 121.629 14.9322C121.789 15.0714 122.151 14.8192 122.152 15.2284C122.152 15.3137 122.029 15.4535 121.943 15.4749V15.4754ZM122.288 13.8939C121.875 13.8777 121.557 13.829 121.321 13.5517C121.24 13.4564 121.152 13.3565 121.108 13.2408C121.077 13.1607 121.086 13.021 121.134 12.9619C121.169 12.919 121.299 12.9556 121.383 12.9744C121.497 12.9996 121.607 13.0582 121.722 13.0723C121.954 13.1006 122.332 13.4617 122.356 13.7197C122.362 13.7882 122.3 13.8641 122.288 13.8939H122.288ZM122.724 15.4535C122.669 15.4027 122.634 15.3279 122.59 15.2625C122.627 15.2546 122.672 15.2284 122.697 15.2431C122.76 15.2802 122.814 15.3352 122.93 15.4325C122.81 15.4472 122.747 15.4749 122.723 15.4535H122.724ZM123.176 9.77793C123.135 9.74339 123.093 9.70885 123.052 9.67431C123.04 9.64605 123.014 9.59581 123.019 9.59215C123.089 9.53511 123.163 9.48434 123.238 9.43567C123.239 9.43515 123.279 9.48016 123.274 9.49481C123.245 9.59058 123.21 9.68373 123.176 9.77793ZM127.854 11.3662C127.906 11.4353 127.943 11.485 127.981 11.5342C127.939 11.5562 127.889 11.6059 127.857 11.5944C127.808 11.5771 127.772 11.518 127.731 11.4767C127.766 11.4447 127.801 11.4128 127.854 11.3662ZM126.182 10.8905C126.254 10.9298 126.301 11.0235 126.359 11.0931C126.285 11.0643 126.211 11.0345 126.135 11.0078C126.037 10.9732 125.939 10.9382 125.839 10.9099C125.777 10.8921 125.711 10.8863 125.647 10.8754C125.719 10.8508 125.792 10.8256 125.852 10.8058C125.976 10.8351 126.089 10.8408 126.182 10.8911V10.8905ZM125.705 9.78055C125.725 9.75177 125.776 9.74706 125.812 9.73136C125.804 9.77741 125.804 9.82817 125.786 9.86899C125.749 9.95639 125.696 10.037 125.659 10.1249C125.639 10.173 125.636 10.2301 125.626 10.2829C125.602 10.2181 125.578 10.1532 125.542 10.0558C125.593 9.96738 125.644 9.86899 125.706 9.78003L125.705 9.78055ZM124.278 14.4874C124.249 14.4968 124.201 14.4377 124.162 14.4094C124.231 14.3597 124.301 14.31 124.356 14.2707C124.457 14.3027 124.519 14.3225 124.582 14.3419C124.481 14.3922 124.383 14.4508 124.278 14.4869L124.278 14.4874ZM125.513 20.2671C125.431 20.1326 125.343 20.0012 125.272 19.8604C125.255 19.8264 125.296 19.7594 125.33 19.6312C125.503 19.8327 125.611 19.9128 125.65 20.0216C125.669 20.0766 125.562 20.1839 125.513 20.2671H125.513ZM125.66 18.0654C125.585 18.158 125.503 18.2433 125.395 18.359C125.344 18.2711 125.294 18.1978 125.301 18.191C125.385 18.1062 125.476 18.0288 125.572 17.9587C125.577 17.955 125.664 18.0602 125.66 18.0654Z" fill="#2B364B"/>
<path d="M155.834 9.16708L153.544 1.75638C153.55 1.80924 153.543 1.87047 153.522 1.90449C153.457 2.00707 153.358 2.084 153.273 2.17192C153.224 2.08295 153.175 1.9945 153.117 1.8914C153.18 1.75795 153.23 1.64961 153.281 1.54076C153.363 1.58524 153.463 1.61246 153.52 1.68154C153.52 1.68154 153.52 1.68154 153.52 1.68206L153 0L152.333 2.16145C152.36 2.21222 152.383 2.25461 152.403 2.29805C152.407 2.3059 152.35 2.34672 152.322 2.37237C152.309 2.3551 152.297 2.3373 152.284 2.32003L150.168 9.1676H141L143.612 11.1626C143.604 11.0224 143.56 10.8847 143.464 10.7476C143.448 10.7235 143.508 10.6121 143.555 10.5739C143.574 10.5576 143.687 10.6131 143.699 10.655C143.758 10.8638 144.118 10.936 143.911 11.2396C143.919 11.2998 143.928 11.3558 143.937 11.4112L146.624 13.4638C146.486 13.3414 146.298 13.0436 146.334 12.9305C146.379 12.7945 146.518 12.6945 146.573 12.6291C146.848 12.6463 147.122 13.0221 147.054 13.2257C147.012 13.3497 146.86 13.4534 146.735 13.5141C146.711 13.5256 146.671 13.5046 146.626 13.4654L148.416 14.8329L145.583 24L153 18.3342L160.417 24L159.287 20.3449C159.283 20.3496 159.28 20.3527 159.276 20.3575C159.226 20.2769 159.185 20.225 159.165 20.1654C159.162 20.1565 159.188 20.1287 159.214 20.1078L157.583 14.8329L165 9.16708H155.832H155.834ZM143.167 9.83069C143.134 9.83907 143.089 9.78516 143.049 9.75847C143.078 9.70823 143.107 9.65799 143.155 9.57425C143.208 9.64386 143.263 9.68625 143.258 9.7166C143.25 9.76109 143.205 9.82075 143.167 9.83069ZM148.686 14.3635C148.649 14.2667 148.616 14.207 148.606 14.1431C148.602 14.1233 148.659 14.0918 148.688 14.0657C148.717 14.1233 148.754 14.1782 148.771 14.24C148.777 14.2609 148.733 14.2981 148.686 14.3635ZM148.975 12.0476C148.904 12.0419 148.836 12.011 148.766 11.9906C148.803 11.9613 148.839 11.9095 148.878 11.9068C148.949 11.9021 149.022 11.9257 149.19 11.9539C149.058 12.0147 149.015 12.0518 148.975 12.0481V12.0476ZM151.757 8.37629C151.795 8.40298 151.869 8.43229 151.867 8.45584C151.862 8.53121 151.829 8.60448 151.786 8.7484C151.733 8.64268 151.692 8.59924 151.695 8.55999C151.7 8.49719 151.735 8.43752 151.757 8.37629H151.757ZM151.832 12.8128C151.769 12.8478 151.709 12.896 151.642 12.9122C151.613 12.919 151.57 12.8604 151.535 12.8316C151.6 12.7725 151.66 12.6987 151.735 12.66C151.771 12.6416 151.835 12.6898 151.887 12.7081C151.868 12.7432 151.85 12.7777 151.832 12.8128ZM152.255 5.73911C152.183 5.59414 152.104 5.45231 152.046 5.30106C152.036 5.27437 152.118 5.20686 152.217 5.08753C152.28 5.27856 152.339 5.39788 152.353 5.52349C152.361 5.58995 152.291 5.66688 152.255 5.73911ZM154.048 16.7589C154.004 16.6463 153.963 16.5328 153.919 16.4161C153.958 16.3433 153.987 16.2899 154.015 16.236C154.039 16.2852 154.079 16.3323 154.083 16.3831C154.093 16.5056 154.086 16.6296 154.083 16.7531C154.083 16.7552 154.048 16.7615 154.047 16.7583L154.048 16.7589ZM158.874 21.0577C158.919 21.2074 158.956 21.2948 158.968 21.3858C158.971 21.4104 158.899 21.446 158.861 21.4764C158.827 21.4136 158.771 21.3524 158.766 21.2864C158.761 21.232 158.816 21.1718 158.874 21.0577ZM158.099 10.1149C158.101 10.0835 158.182 10.0249 158.21 10.0353C158.25 10.0505 158.274 10.1164 158.328 10.1934C158.259 10.219 158.205 10.2598 158.177 10.2447C158.138 10.2237 158.097 10.1583 158.1 10.1149H158.099Z" fill="#2B364B"/>
<path d="M187.834 9.16708L185.544 1.75638C185.55 1.80924 185.543 1.87047 185.522 1.90449C185.457 2.00707 185.358 2.084 185.273 2.17192C185.224 2.08295 185.175 1.9945 185.117 1.8914C185.18 1.75795 185.23 1.64961 185.281 1.54076C185.363 1.58524 185.463 1.61246 185.52 1.68154C185.52 1.68154 185.52 1.68154 185.52 1.68206L185 0L184.333 2.16145C184.36 2.21222 184.383 2.25461 184.403 2.29805C184.407 2.3059 184.35 2.34672 184.322 2.37237C184.309 2.3551 184.297 2.3373 184.284 2.32003L182.168 9.1676H173L175.612 11.1626C175.604 11.0224 175.56 10.8847 175.464 10.7476C175.448 10.7235 175.508 10.6121 175.555 10.5739C175.574 10.5576 175.687 10.6131 175.699 10.655C175.758 10.8638 176.118 10.936 175.911 11.2396C175.919 11.2998 175.928 11.3558 175.937 11.4112L178.624 13.4638C178.486 13.3414 178.298 13.0436 178.334 12.9305C178.379 12.7945 178.518 12.6945 178.573 12.6291C178.848 12.6463 179.122 13.0221 179.054 13.2257C179.012 13.3497 178.86 13.4534 178.735 13.5141C178.711 13.5256 178.671 13.5046 178.626 13.4654L180.416 14.8329L177.583 24L185 18.3342L192.417 24L191.287 20.3449C191.283 20.3496 191.28 20.3527 191.276 20.3575C191.226 20.2769 191.185 20.225 191.165 20.1654C191.162 20.1565 191.188 20.1287 191.214 20.1078L189.583 14.8329L197 9.16708H187.832H187.834ZM175.167 9.83069C175.134 9.83907 175.089 9.78516 175.049 9.75847C175.078 9.70823 175.107 9.65799 175.155 9.57425C175.208 9.64386 175.263 9.68625 175.258 9.7166C175.25 9.76109 175.205 9.82075 175.167 9.83069ZM180.686 14.3635C180.649 14.2667 180.616 14.207 180.606 14.1431C180.602 14.1233 180.659 14.0918 180.688 14.0657C180.717 14.1233 180.754 14.1782 180.771 14.24C180.777 14.2609 180.733 14.2981 180.686 14.3635ZM180.975 12.0476C180.904 12.0419 180.836 12.011 180.766 11.9906C180.803 11.9613 180.839 11.9095 180.878 11.9068C180.949 11.9021 181.022 11.9257 181.19 11.9539C181.058 12.0147 181.015 12.0518 180.975 12.0481V12.0476ZM183.757 8.37629C183.795 8.40298 183.869 8.43229 183.867 8.45584C183.862 8.53121 183.829 8.60448 183.786 8.7484C183.733 8.64268 183.692 8.59924 183.695 8.55999C183.7 8.49719 183.735 8.43752 183.757 8.37629H183.757ZM183.832 12.8128C183.769 12.8478 183.709 12.896 183.642 12.9122C183.613 12.919 183.57 12.8604 183.535 12.8316C183.6 12.7725 183.66 12.6987 183.735 12.66C183.771 12.6416 183.835 12.6898 183.887 12.7081C183.868 12.7432 183.85 12.7777 183.832 12.8128ZM184.255 5.73911C184.183 5.59414 184.104 5.45231 184.046 5.30106C184.036 5.27437 184.118 5.20686 184.217 5.08753C184.28 5.27856 184.339 5.39788 184.353 5.52349C184.361 5.58995 184.291 5.66688 184.255 5.73911ZM186.048 16.7589C186.004 16.6463 185.963 16.5328 185.919 16.4161C185.958 16.3433 185.987 16.2899 186.015 16.236C186.039 16.2852 186.079 16.3323 186.083 16.3831C186.093 16.5056 186.086 16.6296 186.083 16.7531C186.083 16.7552 186.048 16.7615 186.047 16.7583L186.048 16.7589ZM190.874 21.0577C190.919 21.2074 190.956 21.2948 190.968 21.3858C190.971 21.4104 190.899 21.446 190.861 21.4764C190.827 21.4136 190.771 21.3524 190.766 21.2864C190.761 21.232 190.816 21.1718 190.874 21.0577ZM190.099 10.1149C190.101 10.0835 190.182 10.0249 190.21 10.0353C190.25 10.0505 190.274 10.1164 190.328 10.1934C190.259 10.219 190.205 10.2598 190.177 10.2447C190.138 10.2237 190.097 10.1583 190.1 10.1149H190.099Z" fill="#2B364B"/>
<path d="M219.834 9.16708L217.544 1.75638C217.55 1.80924 217.543 1.87047 217.522 1.90449C217.457 2.00707 217.358 2.084 217.273 2.17192C217.224 2.08295 217.175 1.9945 217.117 1.8914C217.18 1.75795 217.23 1.64961 217.281 1.54076C217.363 1.58524 217.463 1.61246 217.52 1.68154C217.52 1.68154 217.52 1.68154 217.52 1.68206L217 0L216.333 2.16145C216.36 2.21222 216.383 2.25461 216.403 2.29805C216.407 2.3059 216.35 2.34672 216.322 2.37237C216.309 2.3551 216.297 2.3373 216.284 2.32003L214.168 9.1676H205L207.612 11.1626C207.604 11.0224 207.56 10.8847 207.464 10.7476C207.448 10.7235 207.508 10.6121 207.555 10.5739C207.574 10.5576 207.687 10.6131 207.699 10.655C207.758 10.8638 208.118 10.936 207.911 11.2396C207.919 11.2998 207.928 11.3558 207.937 11.4112L210.624 13.4638C210.486 13.3414 210.298 13.0436 210.334 12.9305C210.379 12.7945 210.518 12.6945 210.573 12.6291C210.848 12.6463 211.122 13.0221 211.054 13.2257C211.012 13.3497 210.86 13.4534 210.735 13.5141C210.711 13.5256 210.671 13.5046 210.626 13.4654L212.416 14.8329L209.583 24L217 18.3342L224.417 24L223.287 20.3449C223.283 20.3496 223.28 20.3527 223.276 20.3575C223.226 20.2769 223.185 20.225 223.165 20.1654C223.162 20.1565 223.188 20.1287 223.214 20.1078L221.583 14.8329L229 9.16708H219.832H219.834ZM207.167 9.83069C207.134 9.83907 207.089 9.78516 207.049 9.75847C207.078 9.70823 207.107 9.65799 207.155 9.57425C207.208 9.64386 207.263 9.68625 207.258 9.7166C207.25 9.76109 207.205 9.82075 207.167 9.83069ZM212.686 14.3635C212.649 14.2667 212.616 14.207 212.606 14.1431C212.602 14.1233 212.659 14.0918 212.688 14.0657C212.717 14.1233 212.754 14.1782 212.771 14.24C212.777 14.2609 212.733 14.2981 212.686 14.3635ZM212.975 12.0476C212.904 12.0419 212.836 12.011 212.766 11.9906C212.803 11.9613 212.839 11.9095 212.878 11.9068C212.949 11.9021 213.022 11.9257 213.19 11.9539C213.058 12.0147 213.015 12.0518 212.975 12.0481V12.0476ZM215.757 8.37629C215.795 8.40298 215.869 8.43229 215.867 8.45584C215.862 8.53121 215.829 8.60448 215.786 8.7484C215.733 8.64268 215.692 8.59924 215.695 8.55999C215.7 8.49719 215.735 8.43752 215.757 8.37629H215.757ZM215.832 12.8128C215.769 12.8478 215.709 12.896 215.642 12.9122C215.613 12.919 215.57 12.8604 215.535 12.8316C215.6 12.7725 215.66 12.6987 215.735 12.66C215.771 12.6416 215.835 12.6898 215.887 12.7081C215.868 12.7432 215.85 12.7777 215.832 12.8128ZM216.255 5.73911C216.183 5.59414 216.104 5.45231 216.046 5.30106C216.036 5.27437 216.118 5.20686 216.217 5.08753C216.28 5.27856 216.339 5.39788 216.353 5.52349C216.361 5.58995 216.291 5.66688 216.255 5.73911ZM218.048 16.7589C218.004 16.6463 217.963 16.5328 217.919 16.4161C217.958 16.3433 217.987 16.2899 218.015 16.236C218.039 16.2852 218.079 16.3323 218.083 16.3831C218.093 16.5056 218.086 16.6296 218.083 16.7531C218.083 16.7552 218.048 16.7615 218.047 16.7583L218.048 16.7589ZM222.874 21.0577C222.919 21.2074 222.956 21.2948 222.968 21.3858C222.971 21.4104 222.899 21.446 222.861 21.4764C222.827 21.4136 222.771 21.3524 222.766 21.2864C222.761 21.232 222.816 21.1718 222.874 21.0577ZM222.099 10.1149C222.101 10.0835 222.182 10.0249 222.21 10.0353C222.25 10.0505 222.274 10.1164 222.328 10.1934C222.259 10.219 222.205 10.2598 222.177 10.2447C222.138 10.2237 222.097 10.1583 222.1 10.1149H222.099Z" fill="#2B364B"/>
</svg>
