<svg width="189" height="36" viewBox="0 0 189 36" fill="none" xmlns="http://www.w3.org/2000/svg">
<path d="M16.0739 2.9302C16.9063 1.86319 18.5201 1.86318 19.3524 2.9302L23.7977 8.62865C24.038 8.93665 24.3602 9.17072 24.7274 9.30406L31.5206 11.7709C32.7926 12.2328 33.2913 13.7675 32.5337 14.8889L28.4878 20.8775C28.2691 21.2012 28.1461 21.58 28.1327 21.9704L27.8859 29.1934C27.8396 30.5459 26.5341 31.4944 25.2335 31.1204L18.2877 29.1232C17.9123 29.0152 17.5141 29.0152 17.1386 29.1232L10.1929 31.1204C8.89228 31.4944 7.58674 30.5459 7.54051 29.1934L7.29365 21.9704C7.28031 21.58 7.15724 21.2012 6.93857 20.8775L2.8927 14.8889C2.13512 13.7675 2.63379 12.2328 3.9058 11.7709L10.699 9.30406C11.0662 9.17072 11.3884 8.93665 11.6286 8.62865L16.0739 2.9302Z" fill="#F9AE0E"/>
<path d="M54.5356 2.93045C55.3679 1.86343 56.9817 1.86343 57.814 2.93045L62.2593 8.62889C62.4996 8.93689 62.8218 9.17097 63.189 9.3043L69.9822 11.7711C71.2542 12.233 71.7529 13.7678 70.9953 14.8891L66.9494 20.8778C66.7307 21.2015 66.6077 21.5802 66.5943 21.9706L66.3475 29.1937C66.3012 30.5461 64.9957 31.4947 63.6951 31.1207L56.7493 29.1234C56.3739 29.0155 55.9757 29.0155 55.6003 29.1234L48.6545 31.1207C47.3539 31.4947 46.0483 30.5461 46.0021 29.1936L45.7553 21.9706C45.7419 21.5802 45.6189 21.2015 45.4002 20.8778L41.3543 14.8891C40.5967 13.7678 41.0954 12.233 42.3674 11.7711L49.1606 9.3043C49.5278 9.17097 49.85 8.93689 50.0903 8.62889L54.5356 2.93045Z" fill="#F9AE0E"/>
<path d="M92.9974 2.93045C93.8298 1.86343 95.4435 1.86343 96.2759 2.93045L100.721 8.62889C100.961 8.93689 101.284 9.17097 101.651 9.3043L108.444 11.7711C109.716 12.233 110.215 13.7678 109.457 14.8891L105.411 20.8778C105.193 21.2015 105.07 21.5802 105.056 21.9706L104.809 29.1937C104.763 30.5461 103.458 31.4947 102.157 31.1207L95.2112 29.1234C94.8358 29.0155 94.4375 29.0155 94.0621 29.1234L87.1163 31.1207C85.8157 31.4947 84.5102 30.5461 84.464 29.1936L84.2171 21.9706C84.2038 21.5802 84.0807 21.2015 83.862 20.8778L79.8162 14.8891C79.0586 13.7678 79.5573 12.233 80.8293 11.7711L87.6225 9.3043C87.9897 9.17097 88.3118 8.93689 88.5521 8.62889L92.9974 2.93045Z" fill="#F9AE0E"/>
<path d="M131.459 2.93045C132.292 1.86343 133.905 1.86343 134.738 2.93045L139.183 8.62889C139.423 8.93689 139.746 9.17097 140.113 9.3043L146.906 11.7711C148.178 12.233 148.677 13.7678 147.919 14.8891L143.873 20.8778C143.655 21.2015 143.531 21.5802 143.518 21.9706L143.271 29.1937C143.225 30.5461 141.919 31.4947 140.619 31.1207L133.673 29.1234C133.298 29.0155 132.899 29.0155 132.524 29.1234L125.578 31.1207C124.278 31.4947 122.972 30.5461 122.926 29.1936L122.679 21.9706C122.666 21.5802 122.543 21.2015 122.324 20.8778L118.278 14.8891C117.52 13.7678 118.019 12.233 119.291 11.7711L126.084 9.3043C126.452 9.17097 126.774 8.93689 127.014 8.62889L131.459 2.93045Z" fill="#F9AE0E"/>
<path d="M169.921 2.93045C170.753 1.86343 172.367 1.86343 173.2 2.93045L177.645 8.62889C177.885 8.93689 178.207 9.17097 178.575 9.3043L185.368 11.7711C186.64 12.233 187.138 13.7678 186.381 14.8891L182.335 20.8778C182.116 21.2015 181.993 21.5802 181.98 21.9706L181.733 29.1937C181.687 30.5461 180.381 31.4947 179.081 31.1207L172.135 29.1234C171.759 29.0155 171.361 29.0155 170.986 29.1234L164.04 31.1207C162.739 31.4947 161.434 30.5461 161.388 29.1936L161.141 21.9706C161.127 21.5802 161.004 21.2015 160.786 20.8778L156.74 14.8891C155.982 13.7678 156.481 12.233 157.753 11.7711L164.546 9.3043C164.913 9.17097 165.236 8.93689 165.476 8.62889L169.921 2.93045Z" fill="#F9AE0E"/>
</svg>
