<svg width="835" height="33" viewBox="0 0 835 33" fill="none" xmlns="http://www.w3.org/2000/svg">
<g clip-path="url(#clip0_7862_380)">
<path d="M330.665 25.8647C330.736 25.7733 330.862 25.728 330.937 25.6387C331.005 25.5574 331.037 25.4444 331.085 25.3451C331.147 25.4337 331.209 25.5214 331.269 25.6107L331.822 25.2106L337.397 29.2447C337.38 29.1447 337.361 29.0447 337.348 28.9439C337.337 28.8554 337.356 28.6892 337.387 28.682C337.486 28.6597 337.668 28.6626 337.693 28.7158C337.821 28.9907 337.91 29.2843 338.012 29.5714C337.981 29.5822 337.951 29.593 337.921 29.6038C337.923 29.611 337.923 29.6182 337.924 29.6254L342.588 33.0004L338.476 20.3956L340.552 18.8931C340.491 18.8881 340.427 18.8607 340.365 18.8449C340.403 18.7513 340.423 18.5901 340.48 18.5743C340.707 18.5131 340.94 18.4707 341.174 18.4433L349.242 12.6058H335.934L335.381 10.9104C335.264 10.855 335.152 10.7874 335.038 10.724C335.103 10.6679 335.171 10.56 335.229 10.5657C335.243 10.5672 335.256 10.5708 335.27 10.5729L331.822 0.00109863L327.71 12.6058H327.297C327.253 12.6375 327.203 12.6742 327.167 12.7044C327.042 12.6735 326.946 12.6425 326.865 12.6058H324.641C324.684 12.6821 324.73 12.757 324.769 12.8347C324.804 12.9038 324.685 13.0678 324.615 13.1743C324.26 13.7241 324.356 14.3336 324.867 14.7294C325.221 15.0029 325.429 14.9208 325.512 14.4775C325.529 14.3833 325.529 14.2336 325.582 14.207C325.952 14.0256 325.897 13.6903 325.909 13.3701C325.919 13.0981 326.063 12.9484 326.332 13.0059C326.456 13.0326 326.567 13.1304 326.683 13.1959C326.619 13.2852 326.534 13.3657 326.495 13.4658C326.392 13.7212 326.258 13.9803 326.235 14.2466C326.214 14.4898 326.12 14.5754 325.933 14.6906C325.604 14.8942 325.331 15.1907 325 15.3907C324.705 15.5692 324.367 15.6771 324.04 15.7937C324.012 15.8038 323.885 15.6534 323.878 15.5699C323.862 15.413 323.901 15.2511 323.917 15.0914C323.885 15.0863 323.855 15.0806 323.824 15.0748C323.882 14.7647 323.967 14.4567 323.987 14.1436C323.999 13.9465 323.968 13.6975 323.857 13.5514C323.619 13.2391 323.546 12.9376 323.673 12.6037H318.908C318.873 12.6361 318.838 12.6684 318.812 12.6994C318.796 12.6656 318.782 12.6368 318.766 12.6037H314.402L325.168 20.3942L321.056 32.9989L323.763 31.0409C323.651 30.9214 323.559 30.7811 323.513 30.6026C323.467 30.4184 323.417 30.3105 323.706 30.3421C324.027 30.3767 324.351 30.3803 324.675 30.381L330.475 26.1849C330.533 26.0741 330.59 25.9611 330.666 25.8633L330.665 25.8647ZM339.025 13.514C339.025 13.514 339.104 13.5528 339.169 13.5859C339.085 13.7241 339.016 13.8385 338.947 13.953C338.913 13.922 338.843 13.8752 338.848 13.8616C338.898 13.7414 338.96 13.627 339.026 13.5147L339.025 13.514ZM338.303 24.9263C338.451 25.2027 338.212 25.225 338.069 25.3574C337.637 25.7546 337.132 25.9395 336.474 26.0122C336.466 25.9302 336.411 25.7733 336.454 25.7373C336.88 25.379 337.308 25.0184 337.766 24.7054C337.976 24.5622 338.183 24.704 338.302 24.927L338.303 24.9263ZM335.701 13.5881C335.753 13.5687 335.817 13.5845 335.959 13.5845C336.487 13.9076 336.785 13.4535 337.112 13.0664C337.189 12.9757 337.28 12.8966 337.371 12.8224C337.415 12.7872 337.5 12.7404 337.527 12.7584C337.837 12.97 337.673 13.3708 337.84 13.6471C337.849 13.6608 337.699 13.8105 337.604 13.8464C337.468 13.899 337.259 13.8551 337.183 13.9436C337.033 14.1163 336.931 14.3451 336.866 14.5675C336.853 14.6128 337.095 14.7287 337.21 14.8251C337.262 14.8697 337.29 14.946 337.329 15.0072C337.262 15.0352 337.183 15.1015 337.131 15.0835C336.79 14.969 336.47 14.8777 336.151 15.1691C336.104 15.2123 335.83 15.1108 335.781 15.0129C335.68 14.8122 335.828 14.7647 336.019 14.7366C336.338 14.6906 336.312 14.5315 336.09 14.3523C335.921 14.2156 335.754 14.0753 335.59 13.9314C335.523 13.8724 335.467 13.8004 335.405 13.7342C335.503 13.6838 335.598 13.6248 335.7 13.5859L335.701 13.5881ZM336.102 16.9617C336.095 17.0336 336.02 17.0991 335.94 17.2171C335.86 17.0962 335.769 17.0171 335.78 16.9588C335.792 16.8962 335.895 16.8285 335.968 16.812C336.004 16.8041 336.107 16.9127 336.102 16.9609V16.9617ZM335.402 20.5849C335.522 20.4208 335.631 20.2474 335.759 20.0905C335.814 20.0236 335.905 19.9538 335.982 19.9502C336.073 19.9459 336.167 20.0128 336.259 20.0481C336.221 20.0876 336.182 20.1272 336.144 20.1661C336.148 20.4144 335.651 20.767 335.383 20.7044C335.357 20.6979 335.335 20.6741 335.311 20.659C335.342 20.6346 335.379 20.6151 335.401 20.5849H335.402ZM335.465 24.8069C335.488 24.7939 335.619 24.9047 335.611 24.9357C335.591 25.0156 335.521 25.0818 335.443 25.194C335.371 25.099 335.285 25.0264 335.297 24.9925C335.324 24.9177 335.394 24.845 335.464 24.8069H335.465ZM334.462 24.6097C334.292 24.6752 334.206 24.7435 334.152 24.7227C333.955 24.6457 333.761 24.5507 333.58 24.4384C333.498 24.3881 333.387 24.2182 333.397 24.2089C333.51 24.0894 333.729 23.8778 333.758 23.9016C333.992 24.0901 334.191 24.324 334.462 24.6097ZM333.379 17.6316C333.483 17.6626 333.632 17.6597 333.681 17.7302C333.801 17.9065 333.876 18.1159 333.995 18.3656C333.907 18.38 333.825 18.4203 333.794 18.3951C333.644 18.2699 333.484 18.1447 333.376 17.9849C333.323 17.9058 333.375 17.7518 333.379 17.6316ZM333.217 25.6841C333.261 25.7136 333.306 25.7438 333.383 25.7942C333.29 25.9187 333.211 26.0259 333.131 26.1331C333.095 26.0964 333.023 26.0432 333.03 26.0266C333.083 25.9079 333.152 25.7971 333.217 25.6841ZM332.097 23.8296C332.182 24.0232 332.261 24.1182 332.241 24.1758C332.199 24.2959 332.102 24.396 332.029 24.5046C331.992 24.4269 331.917 24.3449 331.926 24.2729C331.94 24.1578 332.009 24.0491 332.097 23.8296ZM320.292 16.2867C320.128 16.2111 319.964 16.1363 319.799 16.0607C319.833 16.0182 319.883 15.9333 319.898 15.9398C320.051 16.0031 320.198 16.0801 320.345 16.1528C320.317 16.2226 320.304 16.255 320.292 16.2867ZM321.289 17.2488C321.182 17.1926 321.085 17.1185 320.922 17.0055C321.056 16.9372 321.134 16.8681 321.167 16.8861C321.258 16.935 321.336 17.0149 321.401 17.0977C321.411 17.1106 321.299 17.2545 321.289 17.2495L321.289 17.2488ZM323.137 16.8019C322.888 16.6824 322.618 16.5839 322.411 16.409C322.17 16.2061 321.963 16.0298 321.633 16.1859C321.588 16.2068 321.505 16.1413 321.438 16.1154C321.5 16.0808 321.564 16.0139 321.624 16.0168C321.961 16.0348 322.018 15.8506 321.983 15.5591C321.966 15.4224 321.947 15.2375 322.018 15.1468C322.167 14.9539 322.375 14.8086 322.56 14.6438C322.622 14.815 322.687 14.9842 322.745 15.1569C322.789 15.2893 322.823 15.4253 322.862 15.5577C322.841 15.644 322.82 15.7218 322.803 15.7995C322.683 16.3608 322.685 16.3586 323.216 16.6537C323.273 16.686 323.309 16.7616 323.355 16.817C323.282 16.8127 323.198 16.8307 323.137 16.8012V16.8019ZM324.823 26.9931C324.789 26.9535 324.723 26.9053 324.73 26.875C324.753 26.7765 324.803 26.6843 324.872 26.5203C324.954 26.6361 325.034 26.7117 325.021 26.7362C324.971 26.8304 324.891 26.9089 324.823 26.9931H324.823ZM324.904 16.8098C324.711 16.9811 324.589 16.9501 324.493 16.7465C324.423 16.5975 324.397 16.427 324.351 16.2665C324.49 16.2298 324.63 16.1931 324.769 16.1564C324.79 16.1989 324.811 16.2413 324.832 16.2838C324.954 16.1953 325.12 16.1334 325.19 16.0132C325.362 15.7218 325.502 15.8002 325.61 16.029C325.738 16.2982 325.828 16.586 325.924 16.8695C325.937 16.9084 325.882 16.971 325.859 17.0221C325.829 17.0077 325.773 16.9897 325.774 16.9782C325.799 16.735 325.783 16.4896 325.469 16.5356C325.271 16.5651 325.058 16.6731 324.904 16.8084V16.8098ZM325.625 19.4285C325.615 19.4026 325.682 19.3148 325.69 19.3184C325.817 19.3709 325.94 19.4335 326.136 19.5278C325.901 19.7027 325.848 19.743 325.794 19.7833C325.736 19.666 325.672 19.5508 325.625 19.4292L325.625 19.4285ZM326.011 26.0396C325.977 25.9633 325.943 25.8877 325.924 25.8467C325.994 25.6279 326.046 25.4632 326.099 25.2984C326.159 25.4567 326.26 25.615 326.263 25.7747C326.265 25.8611 326.1 25.9511 326.011 26.0396ZM328.636 11.1767C328.717 11.2933 328.822 11.3918 328.804 11.4336C328.766 11.5199 328.67 11.5977 328.581 11.6336C328.551 11.6459 328.409 11.5048 328.421 11.4696C328.453 11.3746 328.54 11.299 328.636 11.176V11.1767ZM329.037 14.6179C328.985 14.6092 328.93 14.5862 328.886 14.5538C328.771 14.4668 328.597 14.2725 328.56 14.2969C328.373 14.425 328.207 14.5956 328.065 14.7762C327.977 14.8884 327.979 15.1051 327.877 15.1713C327.705 15.2821 327.483 15.3137 327.279 15.367C327.261 15.372 327.193 15.29 327.193 15.2483C327.198 14.5625 328.014 13.9076 328.654 14.1041C328.836 14.1602 328.982 14.3437 329.143 14.4668C329.078 14.5603 329.052 14.6193 329.036 14.6164L329.037 14.6179ZM330.394 24.8508C330.464 24.8774 330.529 24.9026 330.595 24.9278C330.466 24.9817 330.34 25.058 330.206 25.0818C330.133 25.0947 330.045 25.0199 329.964 24.9846C330.104 24.9414 330.243 24.8975 330.394 24.8508Z" fill="#2B364B"/>
<path d="M392.081 12.6055H387.016C387.078 12.653 387.146 12.6947 387.212 12.7393C387.301 12.7998 387.363 12.9048 387.437 12.989C387.346 13.0473 387.26 13.1142 387.166 13.1632C386.992 13.2538 386.812 13.3315 386.636 13.4186C386.138 13.6647 385.681 13.5424 385.242 13.2574C385.197 13.2279 385.169 13.1704 385.133 13.1257C385.195 13.084 385.252 13.0156 385.319 13.0048C385.629 12.9559 385.942 12.8983 386.255 12.8904C386.554 12.8832 386.653 12.7832 386.628 12.6047H378.774L376.777 6.48371C376.598 6.53336 376.553 6.37937 376.542 5.85189C376.542 5.85261 376.548 5.83318 376.556 5.80656L374.951 0.885843L374.806 0.442562L374.662 0L374.521 0.431768L374.347 0.964281L370.67 12.2349C370.86 12.3932 371.037 12.5709 371.21 12.7494C371.243 12.7832 371.262 12.8609 371.248 12.9048C371.234 12.9473 371.169 12.9732 371.092 13.0336C370.88 12.8933 370.671 12.753 370.467 12.6055H364.828C364.795 12.6508 364.764 12.699 364.732 12.7472C364.695 12.699 364.659 12.653 364.621 12.6055H357.242L358.708 13.6654C358.722 13.6309 358.735 13.5949 358.749 13.5604C358.783 13.6309 358.815 13.6985 358.848 13.7676L368.008 20.3953L364.384 31.5039C364.446 31.5615 364.506 31.6169 364.574 31.6802C364.429 31.8162 364.352 31.8875 364.276 31.9587C364.267 31.9429 364.259 31.9271 364.25 31.9119L363.895 33.0007L373.896 25.7643C373.89 25.7607 373.885 25.7557 373.879 25.7521C373.915 25.7096 373.949 25.6319 373.985 25.6312C374.009 25.6312 374.036 25.6391 374.061 25.6441L374.66 25.2109L375.216 25.6132C375.269 25.5722 375.323 25.5304 375.41 25.4642C375.548 25.5808 375.67 25.6837 375.792 25.7866C375.728 25.8211 375.644 25.901 375.605 25.8823C375.569 25.865 375.536 25.8413 375.502 25.8204L385.426 33.0014L381.314 20.3967L392.081 12.6062L392.081 12.6055ZM361.073 14.0504C360.895 13.8842 360.731 13.7029 360.564 13.5251C360.656 13.4697 360.789 13.3445 360.83 13.3711C361.006 13.4827 361.155 13.6395 361.361 13.8216C361.2 13.9504 361.083 14.0598 361.073 14.0504ZM362.325 13.995C362.223 13.8806 362.12 13.7662 361.993 13.6237C362.091 13.5158 362.18 13.4028 362.189 13.4085C362.323 13.5043 362.446 13.6151 362.572 13.723C362.49 13.8137 362.408 13.9044 362.326 13.9943L362.325 13.995ZM364.406 14.6643C364.386 14.6168 364.342 14.5621 364.352 14.5218C364.396 14.3412 364.456 14.1641 364.509 13.9864C364.566 14.0281 364.623 14.0691 364.71 14.1325C364.597 14.3296 364.502 14.4973 364.406 14.665V14.6643ZM365.366 16.5079C365.182 16.3921 364.995 16.2791 364.83 16.1395C364.769 16.0884 364.726 15.9488 364.751 15.8783C364.776 15.8085 364.917 15.7156 364.974 15.7358C365.215 15.8178 365.447 15.9308 365.673 16.0502C365.727 16.0783 365.746 16.1755 365.769 16.2186C365.682 16.4316 365.658 16.6929 365.366 16.5079ZM366.604 17.0843C366.534 16.9973 366.468 16.9505 366.474 16.9188C366.496 16.8094 366.542 16.7051 366.579 16.5993C366.632 16.6396 366.734 16.6878 366.729 16.7202C366.714 16.8281 366.662 16.931 366.605 17.0843H366.604ZM376.293 8.3324C376.374 8.45041 376.445 8.5123 376.459 8.5857C376.468 8.63535 376.397 8.70084 376.361 8.75913C376.297 8.69076 376.218 8.63032 376.175 8.55044C376.16 8.52237 376.229 8.44538 376.293 8.33168L376.293 8.3324ZM375.702 8.30649C375.536 8.18056 375.35 8.03736 375.268 7.85457C375.208 7.72145 375.272 7.507 375.334 7.35084C375.352 7.30623 375.633 7.29471 375.661 7.34509C375.781 7.56313 375.852 7.80924 375.964 8.10716C375.884 8.17048 375.73 8.32664 375.703 8.30649H375.702ZM375.958 12.7774C375.928 12.9221 375.868 13.061 375.795 13.2783C375.704 13.1401 375.616 13.0574 375.631 13.0192C375.688 12.8803 375.78 12.7559 375.858 12.6263C375.894 12.6774 375.966 12.7364 375.957 12.7774H375.958ZM375.299 11.96C375.176 12.0269 375.059 12.1132 374.928 12.1507C374.881 12.1636 374.803 12.0557 374.738 12.0031C374.853 11.9621 374.968 11.9211 375.084 11.8794C375.168 11.9103 375.233 11.9355 375.3 11.96H375.299ZM375.131 4.93438C375.321 4.90416 375.425 4.49038 375.652 4.75376C375.821 4.94878 375.961 5.22799 375.704 5.50288C375.654 5.55613 375.662 5.66695 375.645 5.75115C375.625 5.85189 375.608 5.95336 375.589 6.05482C375.527 5.94544 375.461 5.83894 375.407 5.72596C375.395 5.70005 375.428 5.65184 375.451 5.57988C375.519 5.32873 375.365 5.21431 375.126 5.15027C375.06 5.13228 375.003 5.07759 374.943 5.04017C375.006 5.00347 375.065 4.94518 375.131 4.9351L375.131 4.93438ZM375.034 9.6975C374.962 9.84214 374.871 9.97671 374.704 10.2466C374.643 10.0854 374.59 10.012 374.608 9.98175C374.696 9.83351 374.803 9.6975 374.902 9.55646C374.949 9.60467 375.043 9.67735 375.033 9.69678L375.034 9.6975ZM373.863 7.11265C373.876 6.95578 373.912 6.79314 373.973 6.64994C374.004 6.57798 374.119 6.49882 374.191 6.50386C374.25 6.50818 374.301 6.63051 374.314 6.64778C374.352 6.986 374.041 7.28608 374.414 7.50916C374.425 7.51636 374.433 7.53003 374.442 7.5401C374.404 7.54586 374.367 7.54946 374.33 7.55881C374.081 7.6243 373.703 7.82507 373.61 7.73152C373.349 7.46526 373.843 7.36524 373.863 7.11337L373.863 7.11265ZM368.948 25.013C368.93 25.0267 368.758 24.8914 368.768 24.8605C368.803 24.7468 368.885 24.6489 368.978 24.4985C369.08 24.6172 369.2 24.7158 369.185 24.746C369.133 24.8511 369.044 24.9447 368.948 25.013ZM370.177 16.5979C370.025 16.6425 369.75 16.6993 369.714 16.6374C369.489 16.2481 369.315 15.8264 369.099 15.3623C369.232 15.1572 369.327 14.8701 369.452 14.8557C369.612 14.8377 369.877 14.9974 369.954 15.1536C370.144 15.5436 370.263 15.9725 370.386 16.3935C370.399 16.4396 370.263 16.5734 370.178 16.5979H370.177ZM370.626 15.0349C370.532 14.9622 370.469 14.8485 370.394 14.7499C370.467 14.7132 370.551 14.6348 370.611 14.6506C370.701 14.6743 370.776 14.765 370.899 14.8586C370.769 14.9449 370.65 15.0536 370.625 15.0349H370.626ZM371.11 21.2775C371.061 21.2818 371.006 21.2041 370.952 21.1631C371.002 21.1084 371.051 21.0544 371.132 20.9659C371.197 21.048 371.24 21.1012 371.282 21.1545C371.225 21.1984 371.17 21.2718 371.11 21.2775ZM371.186 15.3724C371.239 15.2148 371.258 15.0284 371.354 14.9075C371.469 14.7636 371.644 14.6607 371.81 14.5736C371.86 14.547 371.967 14.6326 372.13 14.7024C371.911 14.8953 371.761 15.0485 371.591 15.1716C371.47 15.2587 371.322 15.3062 371.186 15.3716V15.3724ZM371.962 20.4356C372.073 20.3888 372.185 20.3075 372.297 20.3068C372.375 20.306 372.454 20.414 372.533 20.473C372.445 20.5579 372.357 20.6428 372.219 20.7752C372.107 20.6277 372.035 20.5313 371.963 20.4356H371.962ZM373.542 24.9792C373.089 25.5599 372.904 25.5513 372.472 24.9662C372.441 24.9231 372.402 24.8655 372.406 24.818C372.431 24.5287 372.456 24.2387 372.506 23.953C372.524 23.8523 372.61 23.7638 372.691 23.6242C372.774 23.7213 372.865 23.7839 372.857 23.8249C372.793 24.1308 372.866 24.1984 373.188 24.1639C373.356 24.1459 373.593 24.3467 373.712 24.5129C373.766 24.5892 373.644 24.8497 373.543 24.9785L373.542 24.9792ZM373.865 12.2054C373.795 12.345 373.698 12.4709 373.611 12.6019C373.571 12.5436 373.485 12.4666 373.499 12.4306C373.558 12.2788 373.646 12.1391 373.782 11.8851C373.836 12.0801 373.886 12.1622 373.865 12.2054ZM373.562 11.1288C373.278 11.018 373.001 10.8863 372.793 10.7956C372.293 11.0353 372.219 10.5682 371.961 10.4783C371.985 10.4279 372.003 10.3387 372.034 10.3329C372.422 10.2682 372.821 10.248 373.198 10.1451C373.347 10.1041 373.503 9.90691 373.562 9.745C373.671 9.44564 373.69 9.11318 373.785 8.80734C373.912 8.39572 374.178 8.31872 374.461 8.60441C374.533 8.67781 374.589 8.86131 374.55 8.94047C374.426 9.18802 374.268 9.42261 374.097 9.63993C373.75 10.0796 373.79 10.3941 374.247 10.6999C374.345 10.7654 374.42 10.864 374.512 10.9374C374.613 11.0173 374.724 11.0849 374.83 11.1576C374.681 11.2425 374.523 11.4116 374.386 11.3951C374.105 11.3598 373.831 11.2353 373.561 11.1295L373.562 11.1288ZM374.603 24.3164C374.479 24.2459 374.358 24.1646 374.246 24.0746C374.23 24.0617 374.262 23.9854 374.272 23.9379C374.417 24.025 374.562 24.1121 374.735 24.2164C374.676 24.2625 374.62 24.3258 374.602 24.3157L374.603 24.3164ZM374.508 13.9965C374.42 13.8979 374.279 13.7331 374.308 13.6654C374.363 13.5424 374.522 13.4085 374.647 13.397C374.731 13.3898 374.86 13.5719 374.917 13.695C374.962 13.7928 374.925 13.9295 374.925 14.049C374.933 14.049 374.939 14.049 374.946 14.049C374.939 14.1476 374.932 14.2455 374.925 14.344C374.868 14.2764 374.821 14.1965 374.753 14.1425C374.679 14.0828 374.569 14.0641 374.508 13.9957V13.9965ZM376.031 21.2797C375.742 21.348 375.41 21.0537 375.397 20.6615C375.423 20.6421 375.554 20.5162 375.574 20.5327C375.807 20.7241 376.332 20.3773 376.334 20.94C376.334 21.0573 376.156 21.2494 376.031 21.2789V21.2797ZM376.532 19.105C375.932 19.0827 375.471 19.0158 375.128 18.6344C375.01 18.5034 374.882 18.366 374.818 18.2069C374.773 18.0968 374.786 17.9047 374.856 17.8234C374.907 17.7644 375.095 17.8147 375.217 17.8406C375.384 17.8752 375.543 17.9558 375.71 17.9752C376.046 18.0141 376.595 18.5106 376.63 18.8654C376.639 18.9596 376.549 19.064 376.531 19.105H376.532ZM377.164 21.2494C377.084 21.1796 377.033 21.0767 376.97 20.9868C377.023 20.976 377.089 20.94 377.125 20.9602C377.217 21.0113 377.295 21.0868 377.463 21.2207C377.29 21.2408 377.198 21.2789 377.163 21.2494H377.164ZM377.821 13.4452C377.761 13.3977 377.7 13.3503 377.64 13.3028C377.623 13.2639 377.585 13.1948 377.592 13.1898C377.694 13.1113 377.802 13.0415 377.911 12.9746C377.913 12.9739 377.97 13.0358 377.963 13.0559C377.921 13.1876 377.87 13.3157 377.821 13.4452ZM384.611 15.6293C384.687 15.7243 384.741 15.7926 384.796 15.8603C384.735 15.8905 384.662 15.9589 384.616 15.943C384.545 15.9193 384.492 15.838 384.432 15.7811C384.483 15.7372 384.535 15.6933 384.611 15.6293ZM382.184 14.9751C382.288 15.0291 382.357 15.1579 382.442 15.2536C382.333 15.2141 382.225 15.173 382.116 15.1363C381.973 15.0888 381.831 15.0406 381.686 15.0018C381.595 14.9773 381.5 14.9694 381.407 14.9543C381.512 14.9205 381.618 14.8859 381.705 14.8586C381.885 14.8989 382.049 14.9068 382.184 14.9759V14.9751ZM381.492 13.4488C381.521 13.4093 381.594 13.4028 381.647 13.3812C381.635 13.4445 381.636 13.5143 381.61 13.5705C381.555 13.6906 381.479 13.8015 381.425 13.9223C381.395 13.9886 381.392 14.067 381.376 14.1397C381.342 14.0504 381.307 13.9612 381.255 13.8274C381.33 13.7057 381.403 13.5705 381.493 13.4481L381.492 13.4488ZM379.42 19.921C379.379 19.934 379.309 19.8527 379.251 19.8138C379.353 19.7455 379.454 19.6771 379.534 19.6231C379.68 19.667 379.77 19.6944 379.861 19.721C379.715 19.7901 379.572 19.8707 379.421 19.9203L379.42 19.921ZM381.212 27.8684C381.094 27.6835 380.966 27.5029 380.863 27.3093C380.839 27.2625 380.897 27.1704 380.947 26.9941C381.199 27.2712 381.356 27.3813 381.411 27.5309C381.439 27.6065 381.285 27.754 381.213 27.8684H381.212ZM381.426 24.841C381.318 24.9684 381.198 25.0857 381.041 25.2447C380.968 25.1238 380.895 25.0231 380.905 25.0137C381.027 24.8972 381.16 24.7907 381.298 24.6942C381.306 24.6892 381.432 24.8338 381.426 24.841Z" fill="#2B364B"/>
<path d="M421.614 12.6055L418.29 2.41575C418.298 2.48843 418.289 2.57263 418.259 2.6194C418.165 2.76045 418.021 2.86623 417.897 2.98713C417.826 2.86479 417.754 2.74318 417.671 2.60141C417.761 2.41791 417.835 2.26895 417.908 2.11927C418.027 2.18044 418.173 2.21786 418.256 2.31285C418.256 2.31285 418.256 2.31285 418.256 2.31357L417.501 0.000732422L416.532 2.97273C416.572 3.04254 416.605 3.10082 416.634 3.16055C416.639 3.17135 416.558 3.22748 416.516 3.26274C416.497 3.23899 416.48 3.21452 416.461 3.19078L413.389 12.6062H400.081L403.872 15.3494C403.861 15.1565 403.797 14.9672 403.658 14.7787C403.635 14.7456 403.721 14.5923 403.789 14.5398C403.818 14.5175 403.981 14.5938 403.999 14.6513C404.085 14.9385 404.607 15.0378 404.307 15.4551C404.319 15.5379 404.332 15.6149 404.345 15.6912L408.245 18.5135C408.045 18.3451 407.771 17.9356 407.825 17.7802C407.889 17.5931 408.091 17.4557 408.172 17.3657C408.57 17.3895 408.968 17.9061 408.869 18.1861C408.809 18.3566 408.587 18.4991 408.406 18.5826C408.371 18.5984 408.314 18.5696 408.248 18.5156L410.847 20.396L406.734 33.0007L417.501 25.2102L428.267 33.0007L426.627 27.975C426.621 27.9814 426.617 27.9858 426.611 27.9922C426.539 27.8814 426.478 27.8102 426.45 27.7281C426.446 27.7159 426.483 27.6778 426.52 27.649L424.154 20.396L434.92 12.6055H421.612H421.614ZM403.226 13.5179C403.179 13.5295 403.113 13.4553 403.055 13.4186C403.097 13.3495 403.139 13.2805 403.209 13.1653C403.286 13.261 403.366 13.3193 403.359 13.3611C403.348 13.4222 403.282 13.5043 403.226 13.5179ZM411.239 19.7505C411.184 19.6174 411.137 19.5353 411.122 19.4475C411.117 19.4202 411.199 19.377 411.241 19.341C411.283 19.4202 411.336 19.4958 411.361 19.5807C411.37 19.6095 411.306 19.6606 411.239 19.7505ZM411.658 16.5662C411.555 16.5583 411.456 16.5158 411.354 16.4878C411.408 16.4475 411.46 16.3762 411.516 16.3726C411.62 16.3662 411.726 16.3985 411.97 16.4374C411.778 16.5209 411.716 16.572 411.658 16.5669V16.5662ZM415.696 11.5181C415.752 11.5548 415.858 11.5951 415.856 11.6275C415.848 11.7311 415.8 11.8319 415.738 12.0298C415.661 11.8844 415.602 11.8247 415.607 11.7707C415.614 11.6844 415.664 11.6023 415.696 11.5181H415.696ZM415.805 17.6183C415.714 17.6665 415.626 17.7327 415.529 17.755C415.487 17.7644 415.425 17.6838 415.373 17.6442C415.469 17.5629 415.555 17.4614 415.665 17.4082C415.716 17.383 415.81 17.4492 415.884 17.4744C415.857 17.5226 415.831 17.5701 415.805 17.6183ZM416.42 7.89201C416.315 7.69267 416.199 7.49766 416.115 7.28969C416.101 7.25299 416.221 7.16016 416.363 6.99609C416.455 7.25875 416.541 7.42282 416.562 7.59553C416.573 7.68692 416.471 7.7927 416.42 7.89201ZM419.022 23.0442C418.958 22.8895 418.898 22.7333 418.835 22.5728C418.892 22.4728 418.933 22.3994 418.975 22.3253C419.009 22.3929 419.066 22.4577 419.072 22.5275C419.087 22.6959 419.076 22.8664 419.073 23.0363C419.073 23.0391 419.022 23.0478 419.021 23.0435L419.022 23.0442ZM426.027 28.9551C426.093 29.1609 426.146 29.2811 426.163 29.4063C426.168 29.4401 426.064 29.489 426.009 29.5308C425.96 29.4444 425.878 29.3602 425.87 29.2695C425.864 29.1947 425.944 29.1119 426.027 28.9551ZM424.903 13.9087C424.905 13.8655 425.023 13.7849 425.063 13.7993C425.121 13.8202 425.156 13.9108 425.235 14.0166C425.135 14.0519 425.056 14.108 425.015 14.0872C424.959 14.0584 424.9 13.9684 424.903 13.9087H424.903Z" fill="#2B364B"/>
<path d="M464.453 12.6055L461.129 2.41575C461.138 2.48843 461.128 2.57263 461.098 2.6194C461.004 2.76045 460.86 2.86623 460.737 2.98713C460.665 2.86479 460.594 2.74318 460.51 2.60141C460.601 2.41791 460.674 2.26895 460.747 2.11927C460.867 2.18044 461.012 2.21786 461.095 2.31285C461.095 2.31285 461.095 2.31285 461.095 2.31357L460.341 0.000732422L459.371 2.97273C459.411 3.04254 459.445 3.10082 459.474 3.16055C459.479 3.17135 459.397 3.22748 459.355 3.26274C459.336 3.23899 459.319 3.21452 459.3 3.19078L456.229 12.6062H442.92L446.712 15.3494C446.7 15.1565 446.637 14.9672 446.498 14.7787C446.474 14.7456 446.561 14.5923 446.629 14.5398C446.657 14.5175 446.821 14.5938 446.838 14.6513C446.924 14.9385 447.447 15.0378 447.146 15.4551C447.158 15.5379 447.171 15.6149 447.184 15.6912L451.085 18.5135C450.884 18.3451 450.611 17.9356 450.664 17.7802C450.728 17.5931 450.93 17.4557 451.011 17.3657C451.409 17.3895 451.807 17.9061 451.708 18.1861C451.648 18.3566 451.426 18.4991 451.245 18.5826C451.21 18.5984 451.153 18.5696 451.088 18.5156L453.686 20.396L449.574 33.0007L460.34 25.2102L471.106 33.0007L469.467 27.975C469.461 27.9814 469.456 27.9858 469.451 27.9922C469.378 27.8814 469.318 27.8102 469.29 27.7281C469.285 27.7159 469.323 27.6778 469.36 27.649L466.993 20.396L477.759 12.6055H464.451H464.453ZM446.066 13.5179C446.019 13.5295 445.952 13.4553 445.894 13.4186C445.936 13.3495 445.978 13.2805 446.048 13.1653C446.126 13.261 446.205 13.3193 446.198 13.3611C446.187 13.4222 446.121 13.5043 446.066 13.5179ZM454.078 19.7505C454.023 19.6174 453.976 19.5353 453.961 19.4475C453.956 19.4202 454.038 19.377 454.08 19.341C454.122 19.4202 454.176 19.4958 454.2 19.5807C454.209 19.6095 454.145 19.6606 454.078 19.7505ZM454.497 16.5662C454.395 16.5583 454.295 16.5158 454.194 16.4878C454.247 16.4475 454.299 16.3762 454.356 16.3726C454.459 16.3662 454.565 16.3985 454.809 16.4374C454.617 16.5209 454.555 16.572 454.497 16.5669V16.5662ZM458.535 11.5181C458.591 11.5548 458.698 11.5951 458.695 11.6275C458.687 11.7311 458.64 11.8319 458.578 12.0298C458.5 11.8844 458.442 11.8247 458.446 11.7707C458.453 11.6844 458.503 11.6023 458.536 11.5181H458.535ZM458.644 17.6183C458.553 17.6665 458.466 17.7327 458.368 17.755C458.326 17.7644 458.265 17.6838 458.213 17.6442C458.308 17.5629 458.395 17.4614 458.504 17.4082C458.555 17.383 458.649 17.4492 458.724 17.4744C458.697 17.5226 458.671 17.5701 458.644 17.6183ZM459.259 7.89201C459.154 7.69267 459.039 7.49766 458.955 7.28969C458.94 7.25299 459.06 7.16016 459.203 6.99609C459.294 7.25875 459.38 7.42282 459.401 7.59553C459.412 7.68692 459.31 7.7927 459.259 7.89201ZM461.861 23.0442C461.797 22.8895 461.737 22.7333 461.675 22.5728C461.731 22.4728 461.773 22.3994 461.814 22.3253C461.848 22.3929 461.906 22.4577 461.912 22.5275C461.926 22.6959 461.916 22.8664 461.912 23.0363C461.912 23.0391 461.862 23.0478 461.86 23.0435L461.861 23.0442ZM468.866 28.9551C468.933 29.1609 468.985 29.2811 469.003 29.4063C469.007 29.4401 468.903 29.489 468.848 29.5308C468.799 29.4444 468.717 29.3602 468.709 29.2695C468.703 29.1947 468.783 29.1119 468.866 28.9551ZM467.742 13.9087C467.744 13.8655 467.863 13.7849 467.902 13.7993C467.961 13.8202 467.995 13.9108 468.074 14.0166C467.975 14.0519 467.895 14.108 467.855 14.0872C467.798 14.0584 467.739 13.9684 467.743 13.9087H467.742Z" fill="#2B364B"/>
<path d="M507.292 12.6055L503.968 2.41575C503.977 2.48843 503.967 2.57263 503.937 2.6194C503.843 2.76045 503.699 2.86623 503.575 2.98713C503.504 2.86479 503.432 2.74318 503.349 2.60141C503.44 2.41791 503.513 2.26895 503.586 2.11927C503.706 2.18044 503.851 2.21786 503.934 2.31285C503.934 2.31285 503.934 2.31285 503.934 2.31357L503.18 0.000732422L502.21 2.97273C502.25 3.04254 502.284 3.10082 502.312 3.16055C502.318 3.17135 502.236 3.22748 502.194 3.26274C502.175 3.23899 502.158 3.21452 502.139 3.19078L499.067 12.6062H485.759L489.551 15.3494C489.539 15.1565 489.475 14.9672 489.337 14.7787C489.313 14.7456 489.4 14.5923 489.467 14.5398C489.496 14.5175 489.66 14.5938 489.677 14.6513C489.763 14.9385 490.285 15.0378 489.985 15.4551C489.997 15.5379 490.01 15.6149 490.023 15.6912L493.924 18.5135C493.723 18.3451 493.449 17.9356 493.503 17.7802C493.567 17.5931 493.769 17.4557 493.85 17.3657C494.248 17.3895 494.646 17.9061 494.547 18.1861C494.487 18.3566 494.265 18.4991 494.084 18.5826C494.049 18.5984 493.992 18.5696 493.926 18.5156L496.525 20.396L492.413 33.0007L503.179 25.2102L513.945 33.0007L512.305 27.975C512.3 27.9814 512.295 27.9858 512.29 27.9922C512.217 27.8814 512.157 27.8102 512.128 27.7281C512.124 27.7159 512.162 27.6778 512.199 27.649L509.832 20.396L520.598 12.6055H507.29H507.292ZM488.905 13.5179C488.858 13.5295 488.791 13.4553 488.733 13.4186C488.775 13.3495 488.817 13.2805 488.887 13.1653C488.965 13.261 489.044 13.3193 489.037 13.3611C489.026 13.4222 488.96 13.5043 488.905 13.5179ZM496.917 19.7505C496.862 19.6174 496.815 19.5353 496.8 19.4475C496.795 19.4202 496.877 19.377 496.919 19.341C496.961 19.4202 497.015 19.4958 497.039 19.5807C497.048 19.6095 496.984 19.6606 496.917 19.7505ZM497.336 16.5662C497.234 16.5583 497.134 16.5158 497.033 16.4878C497.086 16.4475 497.138 16.3762 497.195 16.3726C497.298 16.3662 497.404 16.3985 497.648 16.4374C497.456 16.5209 497.394 16.572 497.336 16.5669V16.5662ZM501.374 11.5181C501.43 11.5548 501.536 11.5951 501.534 11.6275C501.526 11.7311 501.479 11.8319 501.416 12.0298C501.339 11.8844 501.281 11.8247 501.285 11.7707C501.292 11.6844 501.342 11.6023 501.375 11.5181H501.374ZM501.483 17.6183C501.392 17.6665 501.304 17.7327 501.207 17.755C501.165 17.7644 501.104 17.6838 501.052 17.6442C501.147 17.5629 501.234 17.4614 501.343 17.4082C501.394 17.383 501.488 17.4492 501.562 17.4744C501.536 17.5226 501.51 17.5701 501.483 17.6183ZM502.098 7.89201C501.993 7.69267 501.877 7.49766 501.794 7.28969C501.779 7.25299 501.899 7.16016 502.041 6.99609C502.133 7.25875 502.219 7.42282 502.24 7.59553C502.251 7.68692 502.149 7.7927 502.098 7.89201ZM504.7 23.0442C504.636 22.8895 504.576 22.7333 504.513 22.5728C504.57 22.4728 504.612 22.3994 504.653 22.3253C504.687 22.3929 504.745 22.4577 504.75 22.5275C504.765 22.6959 504.755 22.8664 504.751 23.0363C504.751 23.0391 504.701 23.0478 504.699 23.0435L504.7 23.0442ZM511.705 28.9551C511.772 29.1609 511.824 29.2811 511.842 29.4063C511.846 29.4401 511.742 29.489 511.687 29.5308C511.638 29.4444 511.556 29.3602 511.548 29.2695C511.542 29.1947 511.622 29.1119 511.705 28.9551ZM510.581 13.9087C510.583 13.8655 510.701 13.7849 510.741 13.7993C510.8 13.8202 510.834 13.9108 510.913 14.0166C510.813 14.0519 510.734 14.108 510.693 14.0872C510.637 14.0584 510.578 13.9684 510.581 13.9087H510.581Z" fill="#2B364B"/>
</g>
<defs>
<clipPath id="clip0_7862_380">
<rect width="834.119" height="33.0014" fill="white" transform="translate(0.44043)"/>
</clipPath>
</defs>
</svg>
