<svg width="27" height="27" viewBox="0 0 27 27" fill="none" xmlns="http://www.w3.org/2000/svg">
<path id="Subtract" fill-rule="evenodd" clip-rule="evenodd" d="M26.3412 13.5707C26.3412 20.8315 20.6461 26.7176 13.6209 26.7176C6.5957 26.7176 0.900635 20.8315 0.900635 13.5707C0.900635 6.30989 6.5957 0.423828 13.6209 0.423828C20.6461 0.423828 26.3412 6.30989 26.3412 13.5707ZM20.6688 9.14749C20.746 9.14554 20.7479 9.14944 20.7479 9.2254C20.7472 9.29674 20.7522 9.63596 20.7585 10.0595C20.7678 10.6884 20.78 11.5031 20.78 11.9035C20.78 12.0573 20.7592 12.0651 20.6104 12.0651C20.1355 12.0651 19.67 11.9989 19.2083 11.8898C18.4149 11.7029 17.6819 11.3698 17.0034 10.9082C16.9942 10.9017 16.9849 10.8935 16.9754 10.8852C16.9482 10.8613 16.9202 10.8368 16.8923 10.8498C16.8569 10.8673 16.8619 10.9079 16.8666 10.946C16.8681 10.9587 16.8696 10.971 16.8696 10.9822C16.869 11.6484 16.8697 12.3144 16.8705 12.9802C16.8718 14.2006 16.8732 15.4204 16.8659 16.6402C16.8583 17.9588 16.4532 19.1372 15.6183 20.1422C14.7326 21.2095 13.6057 21.8289 12.2527 22.0003C11.2105 22.1308 10.2212 21.936 9.2827 21.4569C9.13006 21.3809 8.98495 21.2894 8.84927 21.1842C8.8276 21.1647 8.8064 21.1452 8.7852 21.1258C8.764 21.1063 8.7428 21.0868 8.72112 21.0673C8.63325 21.0287 8.55943 20.9667 8.48631 20.9054C8.47476 20.8957 8.46322 20.886 8.45164 20.8765C7.61305 20.1889 7.02132 19.3242 6.69719 18.2685C6.58412 17.9004 6.51251 17.5245 6.47858 17.1408C6.4522 16.8623 6.45032 16.5838 6.46728 16.3072C6.50874 15.6683 6.65384 15.0548 6.91013 14.4705C7.17585 13.8589 7.53955 13.3175 8.00313 12.8481C8.5421 12.3027 9.16586 11.8937 9.8782 11.6288C10.3248 11.4633 10.7846 11.362 11.2576 11.327C11.6006 11.2997 11.9417 11.3094 12.2828 11.3503C12.328 11.3562 12.3544 11.3659 12.3544 11.4224C12.3488 11.6172 12.3488 11.8139 12.3488 12.0086C12.3525 12.0125 12.377 13.4967 12.377 14.1764V14.2485C12.3733 14.3167 12.3393 14.3381 12.2772 14.3205C12.0981 14.268 11.9134 14.2426 11.7269 14.2329C11.4386 14.2154 11.154 14.2582 10.8845 14.3615C9.97996 14.7062 9.43158 15.3762 9.31662 16.3617C9.20355 17.3336 9.5748 18.1107 10.3569 18.6697C10.37 18.6791 10.3833 18.6883 10.3966 18.6976C10.4496 18.7347 10.5027 18.7718 10.551 18.8139C10.5642 18.8275 10.5792 18.8411 10.5943 18.8548C10.6023 18.858 10.6102 18.8613 10.6182 18.8645C10.7911 18.9354 10.9647 19.0064 11.1502 19.0437C11.7646 19.1703 12.3431 19.0729 12.8745 18.734C13.4889 18.3425 13.8507 17.768 13.9788 17.0356C14.0033 16.8973 14.0071 16.7571 14.0071 16.6149V5.25601C14.0071 5.1673 14.0013 5.12897 14.0176 5.11275C14.0335 5.09692 14.0703 5.10215 14.1541 5.10215H16.6887H16.749C16.8357 5.10215 16.8357 5.10409 16.8357 5.19369C16.8357 5.39625 16.9168 5.87148 16.9243 5.90849C17.2899 7.82306 19.4495 8.99362 20.1147 9.09685C20.2975 9.12607 20.4822 9.14749 20.6688 9.14749Z" fill="#F7F7F6"/>
</svg>
