<svg width="565" height="173" viewBox="0 0 565 173" fill="none" xmlns="http://www.w3.org/2000/svg">
<path fill-rule="evenodd" clip-rule="evenodd" d="M88.8506 43.2075C59.004 26.0122 34.7185 8.33479 15.4099 -7.88085C-14.4164 -32.9293 4.83233 -73 43.7814 -73L521.219 -73C560.168 -73 579.416 -32.9293 549.59 -7.88089C530.282 8.33477 505.996 26.0122 476.149 43.2075C426.695 71.6932 404.884 97.9214 387.386 118.962L387.308 119.057L387.305 119.06C376.576 131.964 367.307 143.114 353.917 152.566C334.689 166.094 310.569 173 282.5 173C254.431 173 230.397 166.151 211.083 152.566C197.693 143.113 188.423 131.963 177.694 119.058L177.692 119.057L177.614 118.962C160.116 97.9213 138.305 71.6931 88.8506 43.2075Z" fill="white"/>
</svg>
