<svg width="14" height="15" viewBox="0 0 14 15" fill="none" xmlns="http://www.w3.org/2000/svg">
<path id="Union" fill-rule="evenodd" clip-rule="evenodd" d="M4.20006 5.10256C4.20006 3.58184 5.45363 2.34905 6.99998 2.34905C8.54634 2.34905 9.79991 3.58184 9.79991 5.10256C9.79991 6.62328 8.54634 7.85607 6.99998 7.85607C5.45363 7.85607 4.20006 6.62328 4.20006 5.10256ZM6.99998 0.97229C4.68045 0.97229 2.8001 2.82147 2.8001 5.10256C2.8001 7.38364 4.68045 9.23283 6.99998 9.23283C9.31952 9.23283 11.1999 7.38364 11.1999 5.10256C11.1999 2.82147 9.31952 0.97229 6.99998 0.97229ZM1.36854 14.256C1.64784 13.3733 2.11312 12.8509 2.91291 12.5131C3.77612 12.1485 5.06031 11.9863 7 11.9863C8.93969 11.9863 10.2239 12.1485 11.0871 12.5131C11.8869 12.8509 12.3522 13.3733 12.6315 14.256C12.7463 14.619 13.1387 14.8217 13.5078 14.7088C13.8769 14.5958 14.0831 14.2099 13.9682 13.8469C13.5774 12.612 12.8457 11.7576 11.6396 11.2481C10.4969 10.7654 8.96622 10.6096 7 10.6096C5.03378 10.6096 3.50309 10.7654 2.36038 11.2481C1.15426 11.7576 0.422575 12.612 0.0317999 13.8469C-0.0830671 14.2099 0.123053 14.5958 0.492183 14.7088C0.861313 14.8217 1.25367 14.619 1.36854 14.256Z" fill="#2B364B"/>
</svg>
