<svg xmlns="http://www.w3.org/2000/svg" width="14" height="14" viewBox="0 0 14 14" fill="none">
    <path fill-rule="evenodd" clip-rule="evenodd" d="M4.20006 4.19989C4.20006 2.65353 5.45363 1.39996 6.99998 1.39996C8.54634 1.39996 9.79991 2.65353 9.79991 4.19989C9.79991 5.74624 8.54634 6.99981 6.99998 6.99981C5.45363 6.99981 4.20006 5.74624 4.20006 4.19989ZM6.99998 0C4.68045 0 2.8001 1.88035 2.8001 4.19989C2.8001 6.51942 4.68045 8.39978 6.99998 8.39978C9.31952 8.39978 11.1999 6.51942 11.1999 4.19989C11.1999 1.88035 9.31952 0 6.99998 0ZM1.36854 13.5076C1.64784 12.6101 2.11312 12.0789 2.91291 11.7353C3.77612 11.3646 5.06031 11.1997 7 11.1997C8.93969 11.1997 10.2239 11.3646 11.0871 11.7353C11.8869 12.0789 12.3522 12.6101 12.6315 13.5076C12.7463 13.8768 13.1387 14.0829 13.5078 13.968C13.8769 13.8531 14.0831 13.4608 13.9682 13.0917C13.5774 11.8359 12.8457 10.9671 11.6396 10.449C10.4969 9.95818 8.96622 9.79974 7 9.79974C5.03378 9.79974 3.50309 9.95818 2.36038 10.449C1.15426 10.9671 0.422575 11.8359 0.0317999 13.0917C-0.0830671 13.4608 0.123053 13.8531 0.492183 13.968C0.861313 14.0829 1.25367 13.8768 1.36854 13.5076Z" fill="white"/>
</svg>