<svg width="1203" height="699" viewBox="0 0 1203 699" fill="none" xmlns="http://www.w3.org/2000/svg">
<path d="M1331 -836C1227.79 -804.15 1003 -699.109 702.251 -354.889C547.897 -178.186 405.793 -100.4 291.864 -37.9255C222.037 0.355093 161.705 33.4298 110.559 81.2041C37.0573 150.109 -5.56071e-05 235.858 -5.12297e-05 336C-4.68524e-05 436.142 37.3635 522.197 110.559 590.796C161.705 638.57 222.037 671.645 291.864 709.925C405.793 772.399 547.897 850.186 702.251 1026.89C1003 1371.11 1227.79 1476.15 1331 1508C1331 651.929 1331 124.323 1331 -836Z" fill="white"/>
</svg>
