<svg width="26" height="27" viewBox="0 0 26 27" fill="none" xmlns="http://www.w3.org/2000/svg">
<g id="Layer_1" clip-path="url(#clip0_5488_14400)">
<path id="Vector" d="M11.4163 15.4958L15.3554 13.3362L11.4163 11.2192V15.4958Z" fill="#F7F7F6"/>
<path id="Vector_2" d="M12.8582 0.423828C5.83382 0.423828 0.137939 6.31073 0.137939 13.5707C0.137939 20.8307 5.83382 26.7176 12.8582 26.7176C19.8826 26.7176 25.5785 20.8307 25.5785 13.5707C25.5785 6.31073 19.8852 0.423828 12.8582 0.423828ZM19.96 16.6341C19.7898 17.7433 19.2713 18.3458 18.1801 18.4738C16.9599 18.6151 14.2203 18.6818 13.0001 18.6818C11.7799 18.6818 9.18995 18.6258 7.91818 18.5165C6.82441 18.4231 6.07631 17.7913 5.92669 16.6661C5.81834 15.8476 5.74611 14.8745 5.74611 13.3281C5.74611 11.6057 5.80545 10.8779 5.94733 10.0994C6.14854 8.99023 6.66189 8.45167 7.83306 8.32636C9.06097 8.19571 10.2218 8.12906 12.8221 8.12906C14.0913 8.12906 16.8309 8.19571 18.0949 8.31569C19.199 8.41967 19.8233 9.11821 19.9574 10.23C20.0529 11.0085 20.138 12.1203 20.138 13.3174C20.138 15.4184 19.9574 16.6341 19.9574 16.6341H19.96Z" fill="#F7F7F6"/>
</g>
<defs>
<clipPath id="clip0_5488_14400">
<rect width="25.4406" height="26.2938" fill="white" transform="translate(0.137939 0.423828)"/>
</clipPath>
</defs>
</svg>
