<svg width="82" height="73" viewBox="0 0 82 73" fill="none" xmlns="http://www.w3.org/2000/svg">
<g id="icons" clipPath="url(#clip0_142_3764)">
<g id="Group">
<path id="Vector" d="M13.0299 37.83C12.2299 37.83 11.6299 37.23 11.6299 36.43C11.6299 30.23 16.6299 25.23 22.8299 25.23C23.6299 25.23 24.2299 25.83 24.2299 26.63C24.2299 27.43 23.6299 28.03 22.8299 28.03C18.2299 28.03 14.4299 31.83 14.4299 36.43C14.4299 37.23 13.7299 37.83 13.0299 37.83Z" fill="#2B364B"/>
<path id="Vector_2" d="M29.4299 49.03C29.1299 49.03 28.8299 48.93 28.6299 48.73C28.0299 48.33 27.8299 47.43 28.3299 46.83C29.3299 45.43 29.8299 43.73 29.8299 42.03C29.8299 41.23 30.4299 40.63 31.2299 40.63C32.0299 40.63 32.6299 41.23 32.6299 42.03C32.6299 44.33 31.9299 46.53 30.6299 48.43C30.3299 48.83 29.8299 49.03 29.4299 49.03Z" fill="#2B364B"/>
<path id="Vector_3" d="M4.62998 37.83C3.82998 37.83 3.22998 37.23 3.22998 36.43C3.22998 30.23 8.22998 25.23 14.43 25.23C15.23 25.23 15.83 25.83 15.83 26.63C15.83 27.43 15.23 28.03 14.43 28.03C9.82998 28.03 6.02998 31.83 6.02998 36.43C6.02998 37.23 5.42998 37.83 4.62998 37.83Z" fill="#2B364B"/>
<path id="Vector_4" d="M4.62998 61.64C3.82998 61.64 3.22998 61.04 3.22998 60.24V36.44C3.22998 35.64 3.82998 35.04 4.62998 35.04C5.42998 35.04 6.02998 35.64 6.02998 36.44V60.24C6.02998 60.94 5.42998 61.64 4.62998 61.64Z" fill="#2B364B"/>
<path id="Vector_5" d="M13.0299 53.23C12.2299 53.23 11.6299 52.63 11.6299 51.83V36.43C11.6299 35.63 12.2299 35.03 13.0299 35.03C13.8299 35.03 14.4299 35.63 14.4299 36.43V51.83C14.4299 52.53 13.7299 53.23 13.0299 53.23Z" fill="#2B364B"/>
<path id="Vector_6" d="M24.2299 28.03H14.4299C13.6299 28.03 13.0299 27.43 13.0299 26.63C13.0299 25.83 13.6299 25.23 14.4299 25.23H24.2299C25.0299 25.23 25.6299 25.83 25.6299 26.63C25.6299 27.43 24.9299 28.03 24.2299 28.03Z" fill="#2B364B"/>
<path id="Vector_7" d="M1.82993 64.33C1.02993 64.33 0.429932 63.73 0.429932 62.93C0.429932 62.13 1.02993 61.53 1.82993 61.53C7.22993 61.53 11.6299 57.13 11.6299 51.73C11.6299 50.93 12.2299 50.33 13.0299 50.33C13.8299 50.33 14.4299 50.93 14.4299 51.73C14.4299 58.73 8.72993 64.33 1.82993 64.33Z" fill="#2B364B"/>
<path id="Vector_8" d="M1.82993 64.44C1.02993 64.44 0.429932 63.84 0.429932 63.04C0.429932 62.24 1.02993 61.64 1.82993 61.64C2.62993 61.64 3.22993 61.04 3.22993 60.24C3.22993 59.44 3.82993 58.84 4.62993 58.84C5.42993 58.84 6.02993 59.44 6.02993 60.24C6.02993 62.54 4.12993 64.44 1.82993 64.44Z" fill="#2B364B"/>
<path id="Vector_9" d="M22.8299 72.7299C22.0299 72.7299 21.4299 72.1299 21.4299 71.3299V58.8299C21.4299 58.5299 21.5299 58.3299 21.6299 58.1299L28.2299 46.9299C28.6299 46.2299 29.5299 46.0299 30.1299 46.4299C30.8299 46.8299 31.0299 47.7299 30.6299 48.3299L24.2299 59.2299V71.3299C24.2299 72.1299 23.5299 72.7299 22.8299 72.7299Z" fill="#2B364B"/>
<path id="Vector_10" d="M17.23 72.73C16.43 72.73 15.83 72.13 15.83 71.33V48.93C15.83 48.13 16.43 47.53 17.23 47.53C18.03 47.53 18.63 48.13 18.63 48.93V71.33C18.63 72.13 17.93 72.73 17.23 72.73Z" fill="#2B364B"/>
<path id="Vector_11" d="M22.83 72.7301H17.23C16.43 72.7301 15.83 72.1301 15.83 71.3301C15.83 70.5301 16.43 69.9301 17.23 69.9301H22.83C23.63 69.9301 24.23 70.5301 24.23 71.3301C24.23 72.1301 23.53 72.7301 22.83 72.7301Z" fill="#2B364B"/>
<path id="Vector_12" d="M47.9299 28.03H42.3299C41.5299 28.03 40.9299 27.43 40.9299 26.63C40.9299 25.83 41.5299 25.23 42.3299 25.23H47.9299C48.7299 25.23 49.3299 25.83 49.3299 26.63C49.3299 27.43 48.7299 28.03 47.9299 28.03Z" fill="#2B364B"/>
<path id="Vector_13" d="M47.9299 28.0301C47.7299 28.0301 47.5299 28.0301 47.3299 27.9301C46.6299 27.6301 46.3299 26.7301 46.7299 26.0301L59.3299 0.830064C59.6299 0.130064 60.5299 -0.169936 61.2299 0.230064C61.9299 0.530064 62.2299 1.43006 61.8299 2.13006L49.2299 27.3301C48.9299 27.7301 48.4299 28.0301 47.9299 28.0301Z" fill="#2B364B"/>
<path id="Vector_14" d="M42.33 28.03C42.13 28.03 41.93 28.03 41.73 27.93C41.03 27.63 40.73 26.73 41.13 26.03L50.93 6.43004C51.23 5.73004 52.13 5.43004 52.83 5.83004C53.53 6.13004 53.83 7.03004 53.43 7.73004L43.63 27.33C43.33 27.73 42.83 28.03 42.33 28.03Z" fill="#2B364B"/>
<path id="Vector_15" d="M63.33 8.44C62.83 8.44 62.33 8.14001 62.03 7.64L59.23 2.04C58.93 1.34 59.13 0.540005 59.83 0.140005C60.53 -0.159995 61.33 0.0400049 61.73 0.740005L64.53 6.34C64.83 7.04 64.63 7.84 63.93 8.24C63.73 8.44 63.53 8.44 63.33 8.44Z" fill="#2B364B"/>
<path id="Vector_16" d="M80.1299 12.64H79.8299L63.0299 8.44C62.3299 8.24 61.8299 7.54 62.0299 6.74C62.2299 6.04 62.9299 5.54 63.7299 5.74L80.5299 9.94C81.2299 10.14 81.7299 10.84 81.5299 11.64C81.3299 12.24 80.7299 12.64 80.1299 12.64Z" fill="#2B364B"/>
<path id="Vector_17" d="M77.33 19.64C77.13 19.64 77.03 19.64 76.83 19.54C76.13 19.24 75.73 18.44 76.03 17.74L78.83 10.74C79.13 10.04 79.93 9.64001 80.63 9.94001C81.33 10.24 81.73 11.04 81.43 11.74L78.63 18.74C78.43 19.34 77.83 19.64 77.33 19.64Z" fill="#2B364B"/>
<path id="Vector_18" d="M77.3299 19.64H63.3299C62.5299 19.64 61.9299 19.04 61.9299 18.24C61.9299 17.44 62.5299 16.84 63.3299 16.84H77.3299C78.1299 16.84 78.7299 17.44 78.7299 18.24C78.7299 19.04 78.0299 19.64 77.3299 19.64Z" fill="#2B364B"/>
<path id="Vector_19" d="M61.9299 43.44C61.0299 43.44 60.5299 42.74 60.5299 41.94L61.9299 18.14C61.9299 17.34 62.6299 16.74 63.4299 16.84C64.2299 16.84 64.8299 17.54 64.7299 18.34L63.3299 42.14C63.3299 42.84 62.6299 43.44 61.9299 43.44Z" fill="#2B364B"/>
<path id="Vector_20" d="M56.3299 49.03C55.5299 49.03 54.9299 48.43 54.9299 47.63C54.9299 46.83 55.5299 46.23 56.3299 46.23C58.6299 46.23 60.5299 44.33 60.5299 42.03C60.5299 41.23 61.1299 40.63 61.9299 40.63C62.7299 40.63 63.3299 41.23 63.3299 42.03C63.3299 45.83 60.2299 49.03 56.3299 49.03Z" fill="#2B364B"/>
<path id="Vector_21" d="M56.3299 72.73C55.5299 72.73 54.9299 72.13 54.9299 71.33V47.53C54.9299 46.73 55.5299 46.13 56.3299 46.13C57.1299 46.13 57.7299 46.73 57.7299 47.53V71.33C57.7299 72.13 57.1299 72.73 56.3299 72.73Z" fill="#2B364B"/>
<path id="Vector_22" d="M50.73 72.73C49.93 72.73 49.33 72.13 49.33 71.33V47.53C49.33 46.73 49.93 46.13 50.73 46.13C51.53 46.13 52.13 46.73 52.13 47.53V71.33C52.13 72.13 51.53 72.73 50.73 72.73Z" fill="#2B364B"/>
<path id="Vector_23" d="M56.33 72.7301H50.73C49.93 72.7301 49.33 72.1301 49.33 71.3301C49.33 70.5301 49.93 69.9301 50.73 69.9301H56.33C57.13 69.9301 57.73 70.5301 57.73 71.3301C57.73 72.1301 57.13 72.7301 56.33 72.7301Z" fill="#2B364B"/>
<path id="Vector_24" d="M50.7299 49.03H29.4299C28.6299 49.03 28.0299 48.43 28.0299 47.63C28.0299 46.83 28.6299 46.23 29.4299 46.23H50.7299C51.5299 46.23 52.1299 46.83 52.1299 47.63C52.1299 48.43 51.5299 49.03 50.7299 49.03Z" fill="#2B364B"/>
<path id="Vector_25" d="M57.63 8.44001H52.13C51.33 8.44001 50.73 7.84001 50.73 7.04001C50.73 6.24001 51.33 5.64001 52.13 5.64001H57.63C58.43 5.64001 59.03 6.24001 59.03 7.04001C59.03 7.84001 58.43 8.44001 57.63 8.44001Z" fill="#2B364B"/>
<path id="Vector_26" d="M17.2299 50.4399C14.1299 50.4399 11.6299 47.9399 11.6299 44.8399C11.6299 44.0399 12.2299 43.4399 13.0299 43.4399C13.8299 43.4399 14.4299 44.0399 14.4299 44.8399C14.4299 46.3399 15.7299 47.6399 17.2299 47.6399C18.0299 47.6399 18.6299 48.2399 18.6299 49.0399C18.6299 49.8399 17.9299 50.4399 17.2299 50.4399Z" fill="#2B364B"/>
</g>
<path id="Vector_27" d="M42.33 39.23H24.13C23.33 39.23 22.73 38.63 22.73 37.83V25.23C22.73 24.43 23.33 23.83 24.13 23.83C24.93 23.83 25.53 24.43 25.53 25.23V36.43H40.93V25.23C40.93 24.43 41.53 23.83 42.33 23.83C43.13 23.83 43.73 24.43 43.73 25.23V37.83C43.73 38.63 43.13 39.23 42.33 39.23Z" fill="#2B364B"/>
<path id="Vector_28" d="M38.1299 30.8301H28.3299C27.5299 30.8301 26.9299 30.2301 26.9299 29.4301V23.8301C26.9299 23.0301 27.5299 22.4301 28.3299 22.4301H38.1299C38.9299 22.4301 39.5299 23.0301 39.5299 23.8301V29.4301C39.5299 30.2301 38.9299 30.8301 38.1299 30.8301ZM29.7299 28.0301H36.7299V25.2301H29.7299V28.0301Z" fill="#2B364B"/>
<path id="Vector_29" d="M28.33 26.64H24.13C23.33 26.64 22.73 26.04 22.73 25.24C22.73 24.44 23.33 23.84 24.13 23.84H28.33C29.13 23.84 29.73 24.44 29.73 25.24C29.73 26.04 29.13 26.64 28.33 26.64Z" fill="#2B364B"/>
<path id="Vector_30" d="M42.33 26.64H38.13C37.33 26.64 36.73 26.04 36.73 25.24C36.73 24.44 37.33 23.84 38.13 23.84H42.33C43.13 23.84 43.73 24.44 43.73 25.24C43.73 26.04 43.13 26.64 42.33 26.64Z" fill="#2B364B"/>
<path id="Vector_31" d="M42.3299 49.0301C41.5299 49.0301 40.9299 48.4301 40.9299 47.6301V37.8301C40.9299 37.0301 41.5299 36.4301 42.3299 36.4301C43.1299 36.4301 43.7299 37.0301 43.7299 37.8301V47.6301C43.7299 48.3301 43.1299 49.0301 42.3299 49.0301Z" fill="#2B364B"/>
<path id="Vector_32" d="M38.13 49.0301C37.33 49.0301 36.73 48.4301 36.73 47.6301V37.8301C36.73 37.0301 37.33 36.4301 38.13 36.4301C38.93 36.4301 39.53 37.0301 39.53 37.8301V47.6301C39.53 48.3301 38.93 49.0301 38.13 49.0301Z" fill="#2B364B"/>
</g>
<defs>
<clipPath id="clip0_142_3764">
<rect width="81.14" height="72.73" fill="white" transform="translate(0.429932)"/>
</clipPath>
</defs>
</svg>
