<svg width="135" height="140" viewBox="0 0 135 140" fill="none" xmlns="http://www.w3.org/2000/svg">
<g clipPath="url(#clip0_288_3239)">
<path d="M0.395113 108.748C0.921839 108.827 1.44857 108.854 1.97529 108.854C9.03343 108.854 13.5369 102.398 17.1187 97.2332L17.3557 96.8907C17.4347 96.8643 17.5137 96.8116 17.5664 96.7326C21.0691 92.1212 26.7578 88.8011 32.6308 87.8261C30.4185 89.5125 28.1536 91.278 26.152 93.307C23.6238 95.863 21.8065 98.8933 20.7794 102.266C19.489 106.43 19.3836 110.883 19.3836 115.468L19.3573 115.52C19.3573 115.547 19.3309 115.573 19.3309 115.599C18.3038 117.26 17.0133 119.157 15.4332 120.87C12.7732 123.715 9.29679 126.087 4.21388 128.59C4.00319 128.696 3.89784 128.933 3.95052 129.144C4.00319 129.381 4.21388 129.539 4.45091 129.539C4.47724 129.539 4.52992 129.539 4.58259 129.513C8.45403 128.564 12.3781 126.509 16.6446 123.162C20.0947 120.448 23.1497 117.444 25.7307 114.177C24.2295 117.708 21.3852 120.448 18.6199 123.136C18.1985 123.557 17.7508 123.979 17.3294 124.401C16.2759 125.428 15.3015 126.509 14.4587 127.642C12.4572 130.145 10.9823 132.938 10.0079 136.153C9.98153 136.285 9.92886 136.39 9.90253 136.522L9.79718 136.838C9.63916 137.391 9.53382 137.839 9.42847 138.287C9.42847 138.314 9.42847 138.34 9.42847 138.393V139.526C9.42847 139.736 9.58649 139.947 9.79718 139.974C9.82352 139.974 9.84985 139.974 9.84985 139.974C10.0342 139.974 10.1922 139.868 10.2449 139.684C11.5881 134.625 14.8011 130.066 19.7523 126.113C20.358 125.613 20.9901 125.138 21.6222 124.664C23.5974 123.136 25.6253 121.581 27.3898 119.736C28.5486 118.524 29.6548 117.154 30.6819 115.679C30.1815 117.839 29.9445 120.264 29.9708 123.004C29.9708 123.241 30.1552 123.452 30.4185 123.452C30.6556 123.452 30.8399 123.267 30.8662 123.03V123.004L30.9716 122.661C30.9716 122.635 30.9979 122.582 31.0243 122.556C31.5247 116.364 34.3426 110.672 38.8988 106.561C40.716 104.928 42.7703 103.531 44.7718 102.187C45.3249 101.818 45.8779 101.423 46.431 101.054L46.6944 100.87C48.8013 99.4203 50.9609 97.9183 52.5147 95.863C52.5674 95.7839 52.62 95.6522 52.5937 95.5468C52.62 95.4414 52.6727 95.3096 52.7254 95.0988L52.7781 95.1779C52.9097 95.3887 53.0414 95.5995 53.1731 95.7839C53.4365 96.1792 53.6735 96.5744 53.9369 96.9434L54.2266 97.365C54.5426 97.8129 54.8323 98.2872 55.1483 98.7352C55.9648 99.9473 56.8075 101.133 57.624 102.292C58.1243 103.004 58.6774 103.768 59.3358 104.638L59.6518 105.059C60.2049 105.797 60.758 106.535 61.311 107.273L61.3374 107.325L61.4164 107.431C62.0221 108.221 62.6278 109.038 63.2599 109.829L63.3653 109.96L63.497 110.119C64.0237 110.777 64.5504 111.436 65.0771 112.121L65.4985 112.648C66.0516 113.333 66.6046 114.018 67.1577 114.704L67.3157 114.888C67.9215 115.626 68.5272 116.364 69.1329 117.101L69.4226 117.47L69.6333 117.708C70.081 118.261 70.5551 118.788 71.0028 119.341L71.0818 119.42L71.5559 120C72.1616 120.711 72.7673 121.423 73.3731 122.134C73.6628 122.477 73.9525 122.82 74.2685 123.162L74.4529 123.373C74.7689 123.742 75.0849 124.084 75.401 124.427C76.4544 125.586 77.4289 126.588 78.377 127.484L78.5087 127.589C78.614 127.668 78.693 127.773 78.7984 127.852C78.93 127.984 79.0881 128.116 79.2197 128.248L79.2724 128.3L79.3251 128.353C79.6411 128.643 79.9572 128.906 80.2205 129.117L80.2995 129.17C80.4575 129.302 80.5892 129.407 80.7736 129.539C80.8789 129.618 80.9843 129.697 81.0896 129.776L81.116 129.802C81.2213 129.881 81.353 129.96 81.4583 130.04C82.3011 130.593 83.5916 131.331 84.1446 131.515C84.724 131.7 85.1717 131.831 85.5931 131.91C85.6195 131.91 85.6721 131.91 85.6721 131.91H85.7512H85.7775C85.8038 131.91 85.8302 131.91 85.8828 131.91H85.9355H85.9882C86.0935 131.91 86.1725 131.91 86.2515 131.937H86.3042H86.3832C86.6466 131.937 86.9363 131.91 87.226 131.884C87.2523 131.884 87.2523 131.884 87.2787 131.884L87.4893 131.858C87.6474 131.831 87.8581 131.779 87.9371 131.779C88.3584 131.673 88.7008 131.568 88.9905 131.436C89.0695 131.41 89.1485 131.383 89.1749 131.357C89.2012 131.357 89.2012 131.331 89.2275 131.331C89.2539 131.304 89.3065 131.278 89.3856 131.252C89.4646 131.225 89.5172 131.173 89.5963 131.146L89.6489 131.12C89.9123 130.988 90.123 130.856 90.3337 130.751C90.597 130.593 90.8341 130.461 91.0448 130.303C91.1238 130.25 91.2818 130.119 91.4661 129.987C91.5978 129.881 91.7295 129.802 91.8085 129.75C91.8348 129.723 91.8875 129.723 91.9138 129.697C92.2299 129.433 92.4932 129.223 92.7303 129.012C93.3624 128.432 93.9944 127.852 94.5738 127.246C94.6528 127.167 94.7318 127.088 94.8108 126.983L94.9689 126.825C96.1277 125.586 97.2601 124.295 98.2082 123.188L98.4716 122.872C98.9983 122.24 99.525 121.634 100.078 121.001C100.21 120.843 100.341 120.685 100.473 120.553L100.816 120.158C100.974 120 101.105 119.842 101.263 119.657L101.606 119.289L101.737 119.157L101.843 119.051L101.948 118.92L102.185 118.682L102.29 118.577L102.422 118.445L102.475 118.393L102.527 118.34C102.764 118.103 103.001 117.866 103.238 117.655C103.291 117.602 103.344 117.549 103.396 117.497L103.502 117.391C103.792 117.128 104.055 116.891 104.318 116.654C104.555 116.469 104.766 116.258 105.003 116.074L105.082 115.995C105.108 115.968 105.135 115.942 105.187 115.916L105.214 115.889L105.24 115.863C105.424 115.731 105.451 115.468 105.319 115.283C105.056 114.941 104.766 114.545 104.792 114.203C104.898 113.254 105.029 112.306 105.135 111.357L105.161 111.173C105.635 106.877 106.135 102.477 106.399 98.0764C107.215 99.2885 108.19 100.395 109.296 101.344C109.638 101.634 110.007 101.924 110.349 102.187L110.481 102.292C111.218 102.872 111.455 103.478 111.771 104.374L111.877 104.69C112.351 106.008 113.115 107.984 114.089 109.671C115.617 112.279 118.54 113.834 121.911 113.834C123.386 113.834 124.887 113.544 126.204 112.964C127.679 112.332 128.943 111.12 129.654 109.671C129.785 109.381 129.891 109.091 129.97 108.801C130.075 108.775 130.207 108.775 130.312 108.722C130.786 108.511 131.102 108.221 131.418 107.8C131.919 107.141 132.235 106.324 132.524 105.507C132.709 105.007 132.893 104.559 133.104 104.137C133.288 103.768 133.525 103.399 133.789 103.004C134.236 102.345 134.684 101.66 134.895 100.922C135.263 99.6574 134.921 98.0764 134.605 96.7062C134.526 96.3373 134.447 95.9947 134.394 95.7049C134.263 95.0461 134.157 94.3874 134.026 93.7286L133.789 92.7536C133.762 92.6746 133.762 92.5692 133.736 92.4638C133.657 91.9631 133.552 91.3044 132.946 90.9091C132.656 90.7246 132.34 90.5665 132.05 90.4084C131.313 90.0395 130.707 89.7497 130.47 88.9592C130.207 88.1423 130.075 87.22 129.943 86.3505L129.891 85.9816C129.443 83.1884 129.206 80.7378 129.153 78.4717C129.101 76.7325 129.522 74.9671 129.917 73.2806C130.26 71.8577 130.602 70.4084 130.681 68.9328C130.813 66.614 130.391 64.2688 129.996 62.0026L129.943 61.6337C129.812 60.8959 129.654 60.1581 129.496 59.3939C129.259 58.2609 129.601 57.2069 129.97 56.0738C130.049 55.863 130.102 55.6258 130.181 55.415C130.444 54.5718 130.576 53.7286 130.707 52.78C131.102 51.9368 131.26 51.0935 131.339 50.6192C132.735 49.8551 132.814 48.3004 132.814 48.2477C132.814 48.0369 132.682 47.8524 132.472 47.8261C132.445 47.8261 132.419 47.8261 132.419 47.8261C132.235 47.8261 132.077 47.9578 132.024 48.1423C131.919 48.5376 131.708 48.722 131.471 48.8274C131.471 48.8011 131.471 48.7484 131.471 48.722C131.497 48.5112 131.445 48.3267 131.392 48.1423C131.366 48.0369 131.339 47.9051 131.339 47.8524C131.524 47.2991 131.629 46.7194 131.734 46.166C131.919 44.9539 131.892 43.9262 131.023 42.8459C130.391 42.0553 129.364 41.3702 127.968 40.7642C126.388 40.1054 125.861 38.419 125.493 36.8906C125.229 35.7576 124.966 34.8353 124.281 33.7549C123.675 32.8063 122.885 31.8841 121.779 30.7773C121.674 30.6983 121.595 30.5929 121.516 30.5138C121.174 30.1976 120.884 29.9341 120.752 29.4862C120.647 29.17 120.647 28.722 120.752 28.1423C120.936 28.0896 121.279 27.9842 121.49 27.9315C121.858 27.8261 122.201 27.7207 122.359 27.668C123.517 27.1673 124.413 26.4559 125.045 25.5072C125.229 25.2174 125.414 24.9275 125.545 24.585C125.888 23.7945 126.125 22.8986 126.283 21.7918C126.335 21.2912 126.388 20.7642 126.441 20.2899C126.52 19.473 126.599 18.6298 126.757 17.8129C126.915 16.917 126.941 16.1265 126.836 15.2833C126.599 13.3333 125.914 11.4625 125.177 9.53887C124.992 9.06456 124.755 8.59025 124.545 8.11594L124.413 7.85244C124.229 7.43083 124.071 7.06192 123.965 6.82477C123.833 6.48221 123.728 6.19236 123.675 5.9025C123.386 4.63768 123.517 3.21476 123.623 1.81818L123.675 1.31752C123.702 1.13307 123.596 0.974967 123.438 0.869565L122.095 0.0263505C121.937 0.0263505 121.832 0 121.753 0C121.49 0 121.279 0.210804 121.279 0.474308C121.279 1.39657 121.332 2.34519 121.384 3.26746C121.411 3.61001 121.437 3.97892 121.437 4.32148C121.463 5.29644 121.49 6.42951 121.463 7.48353C121.411 8.3531 121.305 9.09091 121.147 9.80237C120.936 10.6983 120.515 11.5942 119.857 12.5692L119.83 12.6219L119.804 12.6746C119.751 12.7273 119.725 12.8063 119.672 12.859L119.62 12.9381L119.567 13.0171C119.541 13.0698 119.488 13.1225 119.462 13.1752C119.383 13.2806 119.304 13.3597 119.251 13.4651L119.225 13.5178L119.172 13.5968C118.751 14.1238 118.329 14.6509 117.881 15.1515C117.671 15.3887 117.46 15.6522 117.249 15.8893C117.17 15.863 117.091 15.8366 117.012 15.8366C115.669 15.863 114.379 16.1265 113.141 16.39C112.667 16.4954 112.166 16.6008 111.692 16.6798C110.929 16.8116 110.165 16.8379 109.533 16.8379C109.296 16.8379 109.059 16.8379 108.822 16.8379C108.585 16.8379 108.348 16.8379 108.111 16.8379C107.215 16.8379 106.241 16.8643 105.24 17.1278H105.214C105.082 17.0224 104.95 16.917 104.819 16.8379C104.397 16.5217 104.002 16.2319 103.792 15.9157C103.344 15.2833 103.08 14.4401 102.87 13.7813C102.896 13.7286 102.949 13.5968 103.001 13.5441C103.054 13.4387 103.107 13.3597 103.133 13.2543C103.344 12.6746 103.449 12.1739 103.502 11.6996C103.607 10.6192 103.581 9.53887 103.581 8.48485C103.581 7.66798 103.555 6.82477 103.607 6.00791C103.66 4.90119 103.739 3.74177 103.871 2.23979C103.897 2.05534 103.818 1.89723 103.66 1.79183L103.159 1.44928L102.659 1.10672C102.58 1.05402 102.501 1.02767 102.396 1.02767C102.264 1.02767 102.132 1.08037 102.027 1.18577C101.948 1.29117 101.895 1.42292 101.895 1.55468C102.08 3.71542 101.026 5.639 98.6823 7.40448C96.4964 9.06456 95.1532 11.5415 93.8627 13.913C93.573 14.4401 93.2833 14.9671 92.9936 15.4677L92.8093 15.8103C92.5196 16.3109 92.2299 16.8116 91.9929 17.2859C91.7032 17.8129 91.4398 18.3399 91.2554 18.9196C91.0447 19.4993 90.8867 20.0264 90.7814 20.5797C90.597 21.5283 90.5444 22.5823 90.6234 23.7154C89.5436 24.3478 88.3848 24.8748 87.2523 25.4018C86.8573 25.5863 86.4886 25.7444 86.1199 25.9289C84.803 26.5613 83.4336 27.1146 82.0904 27.668C80.0625 28.4848 77.9556 29.3544 76.033 30.4611C74.1895 31.5415 72.8727 32.7536 72.1879 34.1238C72.1089 34.2556 72.0563 34.3874 72.0036 34.5191C71.5032 34.4928 70.5551 34.4664 68.6325 34.4664C68.1848 34.4664 67.8424 34.4664 67.7371 34.4664C60.679 34.6772 54.4636 35.8893 49.2753 38.0501C43.6394 40.3953 39.7943 44.2424 38.4774 48.8801C38.2141 49.776 38.0824 50.6719 38.0561 51.5942C38.0297 52.3057 37.1343 53.0435 36.4495 53.5968C36.3442 53.6759 36.2389 53.7813 36.1335 53.8603C33.5525 55.9947 29.9708 57.444 26.2574 57.8129C25.8623 57.8393 25.4936 57.8656 25.0986 57.8656C23.2287 57.8656 21.7275 57.3913 20.8848 56.5481C20.279 55.942 19.9893 55.1252 19.9893 54.1238C19.9893 51.8841 22.3069 49.8814 24.2822 48.8538C24.4929 48.7484 24.5982 48.4849 24.5455 48.2477C24.4929 48.0105 24.2822 47.8261 24.0188 47.8261C23.9398 47.8261 23.8871 47.8261 23.8344 47.8524C20.9374 48.9855 16.8026 52.2793 18.0668 56.2055C19.489 60.5797 25.8887 60.5797 27.9692 60.5797C28.1273 60.5797 28.2853 60.5797 28.417 60.5797C30.0762 60.5534 31.709 60.3953 33.3155 60.2635C34.29 60.1581 35.3171 60.0791 36.3179 60C39.8733 59.7892 43.0336 59.6574 46.036 59.6047C49.4597 59.552 52.304 58.9987 55.0167 57.8393C55.7804 57.5231 56.5178 57.1805 57.2289 56.7852C57.0709 56.917 56.9392 57.0488 56.7812 57.1805C53.2258 60.1318 48.8013 61.7918 44.5085 63.4256C43.7974 63.6891 43.1126 63.9526 42.4279 64.2161C37.5557 66.1133 32.9205 68.1159 29.7601 71.9104C28.9174 72.9117 27.4952 74.9144 27.3635 76.9697C18.7779 81.7655 14.7484 87.2464 14.9854 93.7022C14.9854 93.7549 14.9854 93.7813 15.0118 93.834C14.8011 94.2293 14.6167 94.5982 14.4324 94.9934C13.774 96.2846 13.1156 97.6021 12.3781 98.8933C9.27045 104.269 5.8204 107.194 1.89628 107.852H1.94896H0.869166H0.737485C0.658476 107.852 0.579467 107.852 0.500458 107.826C0.474122 107.826 0.474122 107.826 0.447785 107.826C0.210758 107.826 0.026404 108.011 6.76266e-05 108.248C-0.0262687 108.485 0.158086 108.696 0.395113 108.748ZM75.8223 33.9921L75.9277 33.913C78.614 31.9631 81.6163 31.0935 84.7767 30.1713C84.9611 30.1186 85.1191 30.0659 85.3034 30.0132C84.803 30.6719 84.3553 31.3307 83.9339 31.9895C83.6706 32.3847 83.4072 32.78 83.1175 33.1752C81.59 33.8603 79.8782 34.3347 77.8503 34.5982C76.8231 34.7299 75.7697 34.7826 74.7689 34.809C75.1113 34.5191 75.48 34.2556 75.8223 33.9921ZM46.7207 42.2925C50.1971 40.2108 54.5426 38.7352 59.9415 37.8129C62.1538 37.4177 64.4187 37.2069 66.6046 37.1805C66.631 37.1805 66.6573 37.1805 66.6836 37.1805C61.9168 38.0237 57.624 39.2095 53.6472 40.7642C47.7215 43.083 43.2443 46.166 40.2946 49.9078C40.9531 47.0092 43.0863 44.4532 46.7207 42.2925ZM50.5922 53.386C47.0631 54.1502 43.5077 55.1252 39.5836 56.39C45.6409 52.6482 53.8579 48.5639 63.0756 48.195L63.0492 48.2213C59.7045 51.4098 54.8586 52.4638 50.5922 53.386ZM46.8261 65.9816C49.9864 65.1647 53.2521 64.3478 56.1228 63.083C51.4349 66.8775 45.5619 69.17 39.8733 71.3834C37.3186 72.3847 34.685 73.4124 32.2094 74.5455C30.9979 75.0988 29.9181 75.6258 28.9437 76.1528C32.3938 69.6443 39.7152 67.7734 46.8261 65.9816ZM17.382 89.1963C18.5935 86.5349 20.5687 84.4269 23.6501 82.5823C24.2558 82.2134 24.8616 81.8709 25.4936 81.5283C23.176 83.1884 21.0955 85.0593 19.3046 87.0883C18.4092 88.1159 17.6191 89.249 16.7763 90.6456C16.9607 90.1713 17.145 89.697 17.382 89.1963Z" fill="black"/>
<path d="M46.5099 94.7828C44.877 91.7789 49.4859 89.0648 51.3031 92.0687C57.8082 102.714 65.5247 112.385 73.6363 121.818C75.3482 123.795 77.0864 125.745 79.0089 127.51C79.878 128.301 80.7471 129.065 81.6162 129.645C82.4326 130.172 83.6968 130.909 84.1972 131.067C84.6449 131.226 85.1189 131.357 85.593 131.436C85.672 131.436 86.1724 131.463 86.2777 131.463C86.5411 131.463 86.8045 131.436 87.0678 131.41C87.2259 131.384 87.5682 131.305 87.6736 131.278C88.0159 131.173 88.3583 131.094 88.7007 130.962C88.806 130.936 88.8587 130.909 88.9114 130.883C88.9377 130.857 88.9904 130.83 89.0694 130.804C89.6225 130.514 90.1755 130.198 90.7022 129.855C90.8866 129.724 91.7557 129.065 91.545 129.249C91.8084 129.038 92.0981 128.801 92.3351 128.564C92.9672 128.011 93.5729 127.431 94.1523 126.825C95.4165 125.534 96.6016 124.164 97.7867 122.767C99.999 120.185 102.159 117.55 104.819 115.442C104.555 115.073 104.318 114.704 104.081 114.388C104.081 114.388 106.083 98.5773 105.846 89.7763C105.846 89.7763 106.188 83.821 106.188 83.0042C106.188 82.161 107.874 60.0793 108.69 56.7328C109.533 53.3863 108.69 36.6537 107.347 33.6234C106.004 30.6195 98.8138 24.9278 98.1554 24.5852C97.497 24.2426 91.9664 23.4258 91.9664 23.4258L87.6209 26.7723L87.0415 28.7749C85.5403 30.2769 84.7766 31.7789 83.2754 33.8079L78.9299 37.655L62.3644 60.2637L44.9561 94.0714C45.4828 94.2558 46.0095 94.5193 46.5099 94.7828Z" fill="#9F4223"/>
<path d="M73.6627 121.792C74.3211 122.556 75.0058 123.32 75.6643 124.084C75.7169 121.449 76.2963 118.603 75.7169 116.153C74.1631 109.697 65.0244 108.116 62.2854 101.581C59.9678 96.0738 60.5999 89.2491 60.7052 83.1885C58.493 88.8538 58.888 94.8881 58.0453 101.08C57.9926 101.397 57.9662 101.713 57.9136 102.003C62.8121 108.88 68.1321 115.389 73.6627 121.792Z" fill="url(#paint0_radial_288_3239)"/>
<path d="M46.5099 94.783C44.877 91.7791 49.4859 89.065 51.3031 92.0689C52.6462 94.256 54.0157 96.3904 55.4642 98.4984C59.1513 81.6605 64.4712 64.8226 71.8454 48.4589C71.6084 48.4062 71.3187 48.3799 71.0553 48.3535L62.338 60.2376L44.9297 94.0452C45.4828 94.256 46.0095 94.5195 46.5099 94.783Z" fill="#923C1C"/>
<path d="M78.2454 115.416C78.2454 115.416 78.4824 120.659 78.6404 127.115C78.7721 127.247 78.9038 127.379 79.0618 127.484C79.9309 128.275 80.8 129.039 81.6691 129.619C82.4855 130.146 83.7497 130.883 84.25 131.042C84.6978 131.2 85.1718 131.331 85.6459 131.41C85.7249 131.41 86.2253 131.437 86.3306 131.437C86.594 131.437 86.8573 131.41 87.1207 131.384C87.2787 131.358 87.6211 131.279 87.7264 131.252C88.0688 131.147 88.4112 131.068 88.7536 130.936C88.8589 130.91 88.9116 130.883 88.9642 130.857C88.9906 130.831 89.0433 130.804 89.1223 130.778C89.2013 130.725 89.3066 130.699 89.3856 130.646C88.7272 125.982 86.515 110.304 86.3043 108.617C86.0409 106.615 76.2701 71.9638 76.2701 71.9638C76.2701 71.9638 69.2383 56.8913 66.7364 62.4249C64.2344 67.9585 62.2065 88.0376 62.2065 94.0718C62.2065 100.106 67.4738 103.874 70.2391 107.142C72.9781 110.383 78.2454 115.416 78.2454 115.416Z" fill="url(#paint1_linear_288_3239)"/>
<path d="M94.5737 126.43C95.6799 125.244 96.7596 124.032 97.8131 122.793C100.025 120.211 102.185 117.576 104.845 115.468C104.582 115.099 104.345 114.73 104.107 114.414C104.107 114.414 104.213 113.676 104.345 112.411C101.105 116.311 97.4707 121.634 94.5737 126.43Z" fill="url(#paint2_linear_288_3239)"/>
<path d="M97.7869 122.793C99.9992 120.211 102.159 117.576 104.819 115.468C104.555 115.099 104.318 114.73 104.081 114.414C104.081 114.414 104.345 112.411 104.661 109.46C102.317 109.618 98.735 112.069 98.3136 114.177C98.1293 115.125 97.4972 119.262 96.7861 123.979C97.1285 123.557 97.4709 123.189 97.7869 122.793Z" fill="url(#paint3_linear_288_3239)"/>
<path d="M79.5357 113.175C81.3792 115.731 80.6945 119.025 80.3258 128.59C80.7735 128.959 81.2212 129.302 81.6689 129.618C82.4854 130.145 83.7495 130.883 84.2499 131.041C84.6976 131.199 85.1717 131.331 85.6457 131.41C85.7247 131.41 86.2251 131.436 86.3305 131.436C86.5938 131.436 86.8572 131.41 87.1206 131.384C87.2786 131.357 87.621 131.278 87.7263 131.252C88.0687 131.146 88.411 131.067 88.7534 130.936C88.8588 130.909 88.9114 130.883 88.9641 130.857C88.9904 130.83 89.0431 130.804 89.1221 130.778C89.6752 130.488 90.2283 130.171 90.755 129.829C90.9393 129.697 91.8084 129.038 91.5977 129.223C91.8611 129.012 92.1508 128.775 92.3878 128.538C93.0199 127.984 93.6256 127.405 94.205 126.799C95.4692 125.507 96.6543 124.137 97.8395 122.741C99.683 120.58 101.527 118.393 103.633 116.469C103.87 115.073 104.055 114.256 104.055 114.256C104.055 114.256 104.108 114.203 104.187 114.124C104.424 112.148 106.135 97.9185 105.925 89.7499C105.925 89.7499 106.267 83.7947 106.267 82.9778C106.267 82.1346 107.953 60.0529 108.769 56.7064C109.612 53.3599 108.769 36.6273 107.426 33.597C106.083 30.5931 98.8929 24.9014 98.2345 24.5588C97.5761 24.2163 92.0455 23.3994 92.0455 23.3994L87.7 26.7459L87.1206 28.7486C85.6194 30.2505 84.8556 31.7525 83.3545 33.7815L79.009 37.6287L68.2638 52.3059C67.4473 55.099 66.8943 57.0226 66.8153 57.4179C66.4466 59.2887 67.579 63.4521 66.4466 67.2202C65.3141 70.9883 63.4442 82.2927 64.1816 92.0687C64.84 101.871 77.6395 110.54 79.5357 113.175Z" fill="url(#paint4_linear_288_3239)"/>
<path d="M84.0393 116.944C84.0393 116.944 79.1407 100.738 78.4033 89.4603C77.6395 78.1559 78.772 52.1744 78.772 52.1744L83.6706 48.4062C83.6706 48.4062 81.4056 81.5551 82.5381 90.9622C83.6705 100.369 83.2755 115.047 84.0393 116.944Z" fill="url(#paint5_linear_288_3239)"/>
<path d="M86.7782 115.652C86.1461 119.684 85.9617 125.428 85.8037 131.41C85.9881 131.41 86.2514 131.436 86.3041 131.436C86.5675 131.436 86.8308 131.41 87.0942 131.383C87.2522 131.357 87.5946 131.278 87.6999 131.252C88.0423 131.146 88.3847 131.067 88.727 130.936C88.8324 130.909 88.8851 130.883 88.9377 130.856C88.9641 130.83 89.0167 130.804 89.0958 130.777C89.6488 130.488 90.2019 130.171 90.7286 129.829C90.913 129.697 91.7821 129.038 91.5714 129.223C91.8347 129.012 92.1244 128.775 92.3615 128.538C92.9935 127.984 93.5993 127.405 94.1787 126.798C95.4428 125.507 96.6279 124.137 97.8131 122.741C98.4715 121.95 99.1299 121.186 99.8146 120.422C99.8146 120.316 99.841 120.237 99.841 120.132C101.342 109.592 104.371 89.4862 104.371 89.4862L88.8061 47.7998C84.2762 60.3426 87.8053 79.9474 87.8053 87.4836C87.7789 95.0725 88.2793 106.113 86.7782 115.652Z" fill="url(#paint6_linear_288_3239)"/>
<path d="M83.3282 33.8346C84.5924 32.1745 85.6458 30.3563 87.0943 28.828C87.1733 28.749 87.0416 28.6172 86.9626 28.6963C85.4615 30.1982 84.4343 32.0428 83.1965 33.7555C83.1702 33.8346 83.2755 33.8873 83.3282 33.8346Z" fill="url(#paint7_linear_288_3239)"/>
<path d="M104.713 115.547C104.766 115.494 104.845 115.441 104.897 115.388C104.555 114.94 104.239 114.493 104.292 113.992C104.397 113.043 104.529 112.095 104.634 111.146C105.424 104.084 106.267 96.8904 105.977 89.7758C105.977 89.6177 105.714 89.6177 105.714 89.7758C105.766 95.204 105.345 100.606 104.845 106.008C104.634 108.116 104.423 110.25 104.186 112.358C104.081 113.175 103.712 114.124 104.213 114.809C104.397 115.072 104.555 115.309 104.713 115.547Z" fill="url(#paint8_linear_288_3239)"/>
<path d="M78.2451 47.1934C78.2451 47.1934 84.4342 39.3146 93.4675 38.814L96.1538 38.1552L96.8122 34.9668L90.7812 36.1262L85.2506 38.4714L82.0639 41.4754L78.2451 47.1934Z" fill="url(#paint9_linear_288_3239)"/>
<path d="M79.246 29.4332C72.899 31.9365 72.3986 34.9668 72.3986 34.9668C63.7076 34.6243 51.8299 36.1262 44.9561 41.0011C38.1087 45.8496 38.6091 52.0419 38.6091 52.0419C34.2373 58.0762 21.8592 60.5795 19.8576 56.0735C17.8561 51.5413 24.0451 48.3792 24.0451 48.3792C22.702 48.8799 16.3549 52.3845 19.0149 56.9167C21.7012 61.449 32.3937 59.7626 32.3937 59.7626C32.3937 59.7626 40.5843 59.1038 47.2737 59.1038C53.9632 59.1038 60.4946 54.2554 60.4946 54.2554C54.3055 61.9497 45.4302 62.951 36.7392 67.3252C28.0482 71.673 27.8639 77.2066 27.8639 77.2066C32.5517 65.8232 48.6169 66.8245 57.8083 61.8179L59.9942 59.9734C53.6471 68.0103 41.9275 70.5136 33.2101 74.7033C25.5463 78.1552 15.0117 83.8469 15.5121 93.7283C15.5121 93.7283 16.1705 87.536 20.8584 83.8469C25.5463 80.1579 35.5804 76.6532 35.5804 76.6532L35.6331 76.8377C26.9948 80.0261 19.1992 85.7442 15.3541 94.229C12.4835 100.421 8.32232 107.457 1.94892 108.3H0.447754C7.82192 109.301 12.6678 102.951 16.3549 97.4174C16.7236 96.8904 17.066 96.3897 17.4347 95.8627L17.1977 96.3897C21.0428 91.1987 28.2326 87.3515 34.606 87.009L37.3449 84.8746C31.6563 89.565 25.1249 93.0959 22.0699 100.237C20.0683 105.27 19.884 110.276 19.884 115.626H19.9366C19.6469 116.126 19.3309 116.627 19.0412 117.128C15.3541 122.819 10.3502 126.166 4.47721 129.012C12.3518 127.167 21.3851 119.473 26.5734 112.437L26.9158 112.016C26.9158 112.174 26.9158 112.279 26.9158 112.279C25.5726 118.471 19.7259 122.319 15.6965 126.851C12.6941 130.197 10.8506 134.045 9.84982 138.392V139.552C11.193 134.018 14.5377 129.67 19.0412 125.981C21.5432 123.979 24.0714 122.134 26.4154 119.947C28.654 117.707 30.5765 114.993 32.2094 112.279L32.3147 112.305C30.9979 115.362 30.4185 118.84 30.4185 122.951L30.5765 122.45C30.9189 117.602 32.262 114.071 35.2644 109.723C37.582 106.35 41.4534 103.689 44.9561 101.344C47.1421 99.8417 50.4868 97.6546 52.146 95.4938C52.146 95.4938 58.414 73.7811 65.3141 61.0801C72.2142 48.4056 82.0113 35.0986 82.0113 35.0986L84.2763 33.0432C81.2739 34.8878 77.0864 35.2303 73.5574 35.2303C77.4025 31.5413 81.59 30.1974 86.7782 29.038C86.7782 29.038 90.281 25.4279 91.6768 24.3212L92.8092 22.6875C91.4661 23.926 85.6194 26.9299 79.246 29.4332ZM63.3652 48.5373C59.8625 52.0419 53.9895 53.2277 49.3016 54.229C44.4558 55.2303 40.1103 56.7323 35.4224 58.4187C44.2977 52.3845 53.3311 47.6941 64.208 47.6941L63.3652 48.5373ZM39.7679 51.3832L39.6099 51.5413C39.6099 39.8153 62.5225 35.3094 71.3978 36.9695C60.8369 38.3133 46.1149 42.0024 39.7679 51.3832Z" fill="url(#paint10_linear_288_3239)"/>
<path d="M49.1439 57.6547C43.745 59.1567 37.3452 59.2885 37.3452 59.2885L37.793 59.3939C40.6109 59.2358 44.1137 59.0777 47.3004 59.0777C53.9898 59.0777 60.5212 54.2292 60.5212 54.2292C60.3895 54.4136 60.2315 54.5717 60.0998 54.7298C62.6281 52.6218 64.2083 50.3557 64.2083 50.3557C64.2083 50.3557 54.5429 56.1528 49.1439 57.6547ZM32.394 59.7364C32.394 59.7364 32.9734 59.6837 33.9215 59.631C34.6326 59.0777 35.449 58.4716 35.6597 58.3135C35.5807 58.3399 35.5017 58.3662 35.4227 58.3926C44.298 52.3583 53.3314 47.6679 64.2083 47.6679L64.1556 47.7206C66.4205 46.6666 71.2401 43.3201 71.2401 43.3201L67.1053 44.8221C58.8357 45.5862 47.9061 48.8273 39.8735 54.2292C39.8735 54.2292 44.6404 49.1962 54.0425 46.1923C63.4445 43.1883 70.3447 41.5546 70.3447 41.5546C70.3447 41.5546 53.6474 44.4532 47.2477 47.9578C42.5072 50.5665 39.0044 54.0447 37.5033 55.7048C30.7612 59.631 26.284 59.631 26.284 59.631L26.0733 59.9472C29.339 60.2107 32.394 59.7364 32.394 59.7364ZM59.0464 61.1594C60.1788 60.5269 63.0495 55.5204 63.0495 55.5204C59.0464 61.1594 53.0154 63.1883 45.3515 65.3227C39.6102 66.9301 37.1872 68.3267 36.3181 68.9064C43.0602 65.7443 51.8566 65.0065 57.8086 61.7654L59.9945 59.9209C59.6258 60.3952 59.2044 60.8695 58.783 61.3175C58.9147 61.2384 58.9937 61.2121 59.0464 61.1594ZM43.982 48.6165C43.982 48.6165 51.0138 44.8484 56.4127 43.4782C56.4127 43.4518 49.6443 44.216 43.982 48.6165ZM29.9447 113.017C26.8107 118.419 23.1763 121.686 17.277 126.693C11.9307 131.252 10.2978 137.681 10.0345 138.814C11.483 133.649 14.7223 129.539 19.0415 126.008C21.5434 124.005 24.0717 122.161 26.4157 119.974C28.6542 117.734 30.5768 115.02 32.2097 112.306L32.315 112.332C31.999 113.07 31.7356 113.834 31.4986 114.598C31.7619 113.966 31.999 113.333 32.2097 112.727C35.1066 104.69 47.6427 97.0223 47.6427 97.0223C39.4785 100.474 33.0788 107.615 29.9447 113.017ZM26.5473 112.49L26.8897 112.068C26.8897 112.227 26.8897 112.332 26.8897 112.332C26.8634 112.385 26.8634 112.464 26.837 112.516C29.6024 108.142 39.3468 99.4729 39.3468 99.4729C39.3468 99.4729 30.7085 104.848 23.1763 114.888C24.0981 112.595 26.6527 107.062 30.5505 103.742C35.5807 99.4729 41.6117 96.7061 41.6117 96.7061C41.6117 96.7061 33.3421 99.8418 29.813 103.373C26.3103 106.877 22.0438 116.047 21.5434 116.68C21.4118 116.838 21.3591 117.022 21.3327 117.207C14.1693 125.507 6.11035 128.485 6.11035 128.485L6.18936 128.59C13.6162 126.113 21.7278 118.999 26.5473 112.49ZM79.2463 38.4189C75.5066 38.6561 67.79 39.4729 60.8109 42.2134C60.8109 42.2134 71.4244 39.7891 78.3246 39.6574C76.6127 41.9499 74.5848 44.9011 72.4252 48.1422C69.5019 49.4071 65.4988 51.4887 62.1804 54.5454C62.1804 54.5454 67.8954 51.1462 71.5825 49.4334C68.7908 53.6758 65.9202 58.3399 63.4709 62.6086C59.7311 65.4281 54.5955 68.6165 48.7489 70.382C48.7489 70.382 56.4127 68.4584 61.8117 65.5862C61.5483 66.0605 61.3113 66.5349 61.0479 66.9828C60.3895 68.2476 59.7311 69.5652 59.1254 70.9354C54.0688 74.0974 47.1423 77.5493 40.1105 78.2872C40.1105 78.2872 50.8294 77.4439 58.1246 73.3069C58.1246 73.3069 58.1246 73.3333 58.0983 73.3333C54.9116 76.9696 50.3554 81.66 46.2469 84.0579C46.2469 84.0579 53.1207 80.2107 56.7024 76.8115C56.3864 77.6811 56.0704 78.5507 55.7543 79.3939C50.8031 84.6903 44.0873 90.9354 37.5823 93.8339C37.5823 93.8339 47.6164 89.855 54.2795 83.7681C53.3051 86.7984 52.515 89.5915 51.8829 91.8577C49.9867 93.3333 47.9324 94.7298 46.1942 95.4677C47.4057 95.0461 49.5126 94.2555 51.4878 93.3333C50.9084 95.5467 50.5661 96.996 50.5134 97.2858C51.1455 96.7325 51.6985 96.1528 52.1199 95.5731C52.1199 95.5731 58.388 73.8603 65.2881 61.1594C71.8458 49.1172 80.9845 36.5217 81.9063 35.2832C81.3006 35.8629 80.3788 36.9433 79.2463 38.4189ZM46.1942 95.4413C45.5358 95.6785 45.1145 95.8102 45.1145 95.8102C45.4568 95.7312 45.8255 95.5994 46.1942 95.4413ZM25.0725 104.954C21.9648 109.275 20.2266 114.203 19.8579 115.389C19.8052 115.547 19.7789 115.652 19.7789 115.652C19.7789 115.652 19.8052 115.599 19.8579 115.494C20.332 114.624 22.9919 110.039 28.0485 103.715C33.6845 96.6798 40.7163 94.6771 40.7163 94.6771C40.5583 94.7298 40.3739 94.7825 40.2159 94.8089C35.9494 96.0474 31.3142 98.2081 27.5481 102.003C30.1818 97.3649 35.5807 91.5151 35.5807 91.5151C30.1554 95.9683 26.7317 101.713 25.0725 104.954ZM35.5807 76.6534L35.607 76.7588C38.7147 75.8102 41.8487 75.1251 43.3763 74.7298C46.2733 73.9657 50.9084 71.2252 50.9084 71.2252C50.9084 71.2252 42.3755 73.7285 33.0787 76.6271C24.9145 79.1567 21.1221 83.3464 20.332 84.3214C20.5163 84.1633 20.6743 84.0052 20.885 83.8735C25.5466 80.158 35.5807 76.6534 35.5807 76.6534ZM25.2042 82.3715C25.6782 82.0553 26.1523 81.7127 26.6527 81.3702C26.1786 81.6864 25.6782 82.0289 25.2042 82.3715ZM36.5815 81.1594C36.6342 81.1594 36.6605 81.133 36.7132 81.133C36.7132 81.133 36.6605 81.133 36.5815 81.1594ZM26.1786 96.9433C23.624 100.211 21.7541 103.505 20.411 106.324C20.0423 108.722 19.9106 111.146 19.8843 113.649H19.9106C19.9106 113.649 21.1747 104.348 26.8107 97.9446C32.4467 91.5414 38.6094 87.1409 43.5079 84.6376C43.4816 84.6376 32.8154 88.4057 26.1786 96.9433ZM36.8185 85.2964C35.8967 86.0342 34.9486 86.772 34.0005 87.4835C34.8433 86.9565 35.8441 86.166 36.8185 85.2964ZM16.3288 97.4176C16.6976 96.8906 17.0399 96.3899 17.4086 95.8629L17.1716 96.3899C21.0167 91.1989 28.2065 87.3517 34.5799 87.0092L36.9765 85.1119C39.6365 82.7404 42.2175 79.8418 42.2175 79.8418C42.2175 79.8418 35.449 84.9802 30.5505 86.3767C25.6519 87.747 22.5179 89.3807 22.5179 89.3807C27.5218 83.1883 35.4754 81.3438 36.5551 81.133C22.4915 83.9262 19.2258 91.6732 15.4861 97.5494C12.0887 102.872 7.1638 106.772 6.24203 107.483C10.5349 105.665 13.7215 101.344 16.3288 97.4176Z" fill="#FFC44D"/>
<path d="M40.9531 102.319C41.0057 102.293 40.9531 102.187 40.9004 102.24C37.5557 104.691 34.5797 107.563 32.6835 111.278C32.5781 111.489 32.4728 111.673 32.3938 111.884C32.3674 111.884 32.3411 111.911 32.3148 111.937C30.6029 114.651 28.812 117.286 26.5998 119.631C24.2295 122.108 21.2798 124.058 18.6199 126.219C14.3797 129.724 11.0877 134.203 9.79719 139.605C9.79719 139.631 9.82353 139.631 9.82353 139.605C11.3247 133.966 14.9591 129.407 19.4626 125.824C22.0436 123.768 24.7826 121.871 27.0475 119.473C28.891 117.523 30.5239 115.31 31.8934 113.017C30.6819 116.179 30.3395 119.658 30.3395 123.031C30.3395 123.057 30.3922 123.057 30.3922 123.031C30.4449 118.999 31.0243 115.02 32.8415 111.384C34.7114 107.695 37.74 104.77 40.9531 102.319ZM52.1197 95.547C50.1181 97.9185 47.4318 99.605 44.9035 101.344C42.3489 103.083 39.7943 104.822 37.5557 106.983C33.3419 111.041 30.9453 116.759 30.5502 122.53C30.5502 122.556 30.5766 122.556 30.5766 122.53C31.1033 116.285 33.9213 110.461 38.5828 106.245C40.9004 104.137 43.5867 102.477 46.1677 100.685C48.3009 99.2097 50.5922 97.6814 52.1723 95.5734C52.1987 95.547 52.146 95.5207 52.1197 95.547ZM26.8368 112.306C25.52 117.576 21.3588 121.081 17.6191 124.743C13.695 128.59 11.035 133.07 9.82353 138.446C10.5083 135.652 11.5354 133.017 13.0102 130.54C14.5114 128.09 16.4603 126.061 18.5145 124.085C21.9646 120.738 25.8887 117.26 26.9421 112.332C26.9421 112.253 26.8368 112.227 26.8368 112.306ZM26.5471 112.49C26.5471 112.464 26.5734 112.464 26.5471 112.49C22.3333 118.024 16.987 123.004 10.877 126.377C9.45482 127.168 7.95365 127.826 6.42614 128.38C6.08377 128.511 5.7414 128.59 5.42536 128.696C5.37269 128.722 5.32002 128.722 5.26735 128.749C5.95209 128.406 6.6105 128.063 7.29524 127.695C9.98155 126.219 12.5362 124.48 14.7748 122.398C19.2519 118.261 21.7276 112.438 25.2039 107.51C28.812 102.398 33.2892 97.6814 39.2675 95.4416C39.7153 95.2835 40.163 95.1254 40.6107 94.9936C40.716 94.9673 40.6634 94.8092 40.558 94.8355C32.7625 96.9699 27.4162 103.663 23.176 110.145C22.0173 111.911 20.9638 113.755 19.8577 115.547C19.884 111.278 20.042 107.009 21.2008 102.872C22.2543 99.1307 24.3085 95.995 27.0738 93.2545C29.3651 90.9884 31.9724 89.0911 34.527 87.1412C34.5797 87.1412 34.606 87.1149 34.6324 87.0622C37.3977 84.9541 40.084 82.7934 42.2699 80.0529C42.3226 79.9739 42.2172 79.8948 42.1645 79.9475C39.8996 82.6353 37.187 84.796 34.4217 86.9304C28.18 87.273 21.8856 90.5931 17.8298 95.3889C20.042 92.2795 22.4123 89.3019 25.283 86.7987C28.6013 83.9265 32.5518 82.1346 36.8709 81.4232C36.9763 81.3968 36.9499 81.2387 36.8446 81.2387C28.9437 82.24 23.2814 87.6155 18.6989 93.7815C14.1164 99.9475 9.48116 109.276 0.368789 108.248C0.316117 108.248 0.342453 108.301 0.368789 108.301C8.3487 109.328 13.0629 102.161 17.066 96.4429C17.0924 96.4693 17.145 96.4693 17.1714 96.4166C21.1482 91.2255 27.5742 87.7736 34.053 87.1676C31.393 89.1965 28.733 91.1728 26.3891 93.5707C23.9135 96.074 22.1489 99.0253 21.0955 102.372C19.7787 106.641 19.726 111.226 19.726 115.652C19.726 115.652 19.726 115.652 19.726 115.679C18.5145 117.629 17.224 119.5 15.6702 121.186C12.5098 124.559 8.45404 126.957 4.34557 128.986C4.24023 129.038 4.31924 129.17 4.42458 129.144C8.79641 128.09 12.7995 125.639 16.3286 122.872C20.2264 119.895 23.6764 116.417 26.5471 112.49ZM37.2396 88.4851C28.417 94.2031 21.6485 102.477 20.1737 113.149C20.1737 113.175 20.2264 113.202 20.2264 113.149C20.9901 108.063 22.8863 103.32 25.8624 99.1307C28.891 94.8619 32.9468 91.4363 37.2923 88.5905C37.345 88.5378 37.2923 88.4587 37.2396 88.4851ZM92.7566 22.7143C90.9131 24.269 88.4111 25.2703 86.2516 26.298C82.9595 27.879 79.3778 28.9594 76.2174 30.8039C74.7689 31.6471 73.2941 32.7802 72.5303 34.3085C72.425 34.5193 72.3196 34.7301 72.2933 34.9673C72.3196 34.8882 68.1322 34.8619 67.7635 34.8882C61.5744 35.0727 55.201 36.0477 49.4597 38.4456C44.6928 40.4218 40.3737 43.9001 38.8988 49.0121C38.6618 49.8553 38.5038 50.7512 38.4775 51.6208C38.4511 52.6748 37.187 53.5444 36.4232 54.1768C33.6316 56.4956 29.8918 57.8658 26.3101 58.2084C23.3604 58.4983 19.5943 57.8131 19.6206 54.1241C19.6206 51.6471 22.1226 49.5391 24.1505 48.4851C24.2822 48.4324 24.1768 48.1952 24.0451 48.2479C21.0428 49.4337 17.3821 52.5167 18.5409 56.1004C19.7787 59.9475 25.2039 60.2374 28.5223 60.1847C31.1823 60.1583 33.7369 59.7631 36.3969 59.605C39.6363 59.3942 42.8756 59.2624 46.1413 59.2097C49.249 59.157 52.0933 58.7091 54.964 57.4706C56.6759 56.7328 58.335 55.8632 59.9152 54.8355C59.9152 54.8355 59.9152 54.8355 59.9416 54.8355C59.0988 55.8105 58.1507 56.7064 57.1499 57.5496C52.9624 61.0279 47.6688 62.7143 42.6649 64.6643C38.1351 66.4297 33.3682 68.406 30.1552 72.2269C29.049 73.5444 27.9166 75.4153 27.8376 77.1807C27.8376 77.2071 27.8376 77.2334 27.8639 77.2598C21.4115 80.8171 15.1698 85.9291 15.4595 93.7552C15.4595 93.8079 15.5122 93.8342 15.5648 93.8342C14.6431 95.5997 13.8003 97.3915 12.7732 99.157C10.3766 103.268 6.95287 107.51 2.00164 108.301C1.97531 108.301 2.00164 108.327 2.00164 108.327C11.5617 107.009 13.8003 95.4153 18.6989 88.9067C24.6509 80.9752 34.211 76.6801 43.692 74.7301C43.7974 74.7038 43.7447 74.572 43.6394 74.572C34.6324 76.1794 25.7307 80.3955 19.6733 87.352C18.0141 89.2756 16.7763 91.41 15.6439 93.6234C15.8282 92.0424 16.3813 90.4614 17.0397 89.0121C18.4092 86.0081 20.6741 83.9001 23.4657 82.2137C27.2582 79.9475 31.472 78.1557 35.6331 76.7064C35.7121 76.6801 35.6595 76.5747 35.6068 76.601C31.9197 77.8922 28.2853 79.4205 24.8352 81.2651C22.465 82.5299 20.2264 83.9792 18.5672 86.1135C17.224 87.8527 16.3286 89.9607 15.7755 92.0951C15.6439 92.5958 15.5385 93.1228 15.4595 93.6234C15.5648 92.8856 15.6965 91.2519 15.9336 90.1979C16.5393 87.4574 18.1721 85.0595 20.0947 83.0832C23.9135 79.1307 29.0227 76.7328 33.9213 74.4403C42.7966 70.2769 53.7525 68.1162 60.0469 59.9212C60.0732 59.8948 60.0206 59.8685 59.9942 59.8948C53.0678 68.1425 41.7695 70.5668 32.3938 74.9409C30.9716 75.5997 29.4968 76.3112 28.0219 77.128C32.9732 65.5865 48.3272 66.9831 57.861 61.7921C57.8873 61.7657 57.861 61.713 57.8347 61.7394C49.328 66.2453 38.1087 65.4548 30.8926 72.4904C30.1288 73.2282 29.4704 74.0714 28.9174 74.9673C28.6013 75.4416 28.338 75.9423 28.1009 76.4429C28.3116 75.4153 28.8384 74.4139 29.3914 73.518C32.8151 68.0371 39.8733 65.9027 45.5619 63.7157C51.2242 61.5549 56.6759 59.078 60.6 54.2822C60.679 54.1768 60.5736 54.0187 60.4683 54.0977C56.4388 57.0753 51.5139 58.9199 46.51 58.9462C43.2443 58.9726 39.9523 59.1307 36.6866 59.3151C35.2644 59.3942 33.7896 59.3942 32.3938 59.605C29.0754 60.1056 25.362 60.1583 22.1753 59.078C19.6997 58.2084 17.8298 55.8896 18.8042 53.2018C19.3309 51.7262 20.5951 50.5404 21.9646 49.6445C21.8066 49.7763 21.6222 49.9344 21.4642 50.0925C20.1737 51.3046 19.0412 53.0964 19.41 54.9673C20.1737 58.8935 24.8616 58.7881 27.9956 58.2348C30.3395 57.8131 32.6045 56.9172 34.6587 55.7315C35.5805 55.1781 36.4496 54.5457 37.2396 53.8079C37.582 53.518 38.7672 52.5431 38.7408 52.0424C38.4511 47.6419 41.6905 43.5575 45.0352 41.1333C48.7486 38.4456 53.4102 37.1017 57.8347 36.2058C62.6015 35.2571 67.5528 34.9146 72.3986 35.099C72.4513 35.099 72.504 35.0727 72.504 35.02C72.6357 34.2558 73.2414 33.5707 73.7155 33.0174C75.5327 31.0147 78.1663 30.0134 80.5892 29.0384C83.2492 27.9581 85.8828 26.746 88.4375 25.4548C89.9386 24.6906 91.5452 23.9265 92.8356 22.8197C92.9146 22.7407 92.8356 22.6616 92.7566 22.7143ZM86.7783 29.0648C81.8271 29.8026 77.2445 31.9106 73.5574 35.2835C73.5311 35.3098 73.5574 35.3362 73.5838 35.3362C77.1128 35.5207 81.274 35.099 84.329 33.1755C84.3817 33.1491 84.329 33.0437 84.2763 33.0964C82.2748 34.1768 80.1679 34.7301 77.9293 35.02C76.8758 35.1517 75.796 35.2045 74.7426 35.2572C74.2685 35.2835 73.5574 35.3889 74.2159 34.8092C74.6899 34.3876 75.2166 33.9923 75.7434 33.6234C79.0881 31.1728 82.9595 30.3823 86.831 29.1965C86.831 29.1175 86.831 29.0648 86.7783 29.0648ZM64.1817 47.6419C53.4628 47.6946 44.0344 52.4113 35.3171 58.2875C35.1854 58.3929 35.2644 58.63 35.4488 58.5773C40.716 56.7064 45.9833 55.1518 51.4613 53.9133C55.7014 52.9647 60.1786 51.6998 63.3916 48.5641C63.418 48.5378 63.3653 48.4851 63.3389 48.5114C59.9416 51.7525 55.122 52.8329 50.6712 53.7815C45.8516 54.8092 41.1901 56.2321 36.5286 57.8395C44.8508 52.2795 53.9896 47.8 64.208 47.7473C64.2607 47.7473 64.2607 47.6419 64.1817 47.6419ZM71.4242 36.8909C65.0508 35.7315 57.8873 37.128 51.8826 39.2361C46.431 41.1597 39.5572 44.9278 39.5046 51.5417C39.5046 51.6998 39.7416 51.6998 39.7416 51.5417C39.8206 47.1676 43.0073 44.0319 46.5364 41.9238C50.5922 39.4996 55.28 38.1821 59.8889 37.3915C62.1011 37.0226 64.3661 36.7855 66.6047 36.7328C67.5001 36.7064 68.3955 36.7328 69.291 36.8118C69.7387 36.8382 70.1864 36.8909 70.6341 36.9436C70.6868 36.9436 70.7395 36.9699 70.7658 36.9699C70.6605 36.9699 70.5551 36.9699 70.4234 36.9963C64.7611 37.7604 59.1251 39.0516 53.7789 41.1333C48.3536 43.2677 43.0336 46.4297 39.7153 51.3573C39.7153 51.3836 39.7416 51.3836 39.7416 51.3836C43.2443 46.4561 48.6169 43.3467 54.1739 41.186C59.6782 39.0516 65.5249 37.8131 71.3715 37.0753C71.5032 37.0753 71.5296 36.8909 71.4242 36.8909Z" fill="url(#paint11_linear_288_3239)"/>
<path d="M133.13 92.0424C132.972 90.883 130.786 91.0411 130.128 89.5391C129.469 88.0372 128.626 80.8435 128.626 78.1558C128.626 75.468 129.785 72.6222 130.128 69.4601C130.47 66.2717 128.969 59.4206 128.969 59.4206C128.626 58.4193 129.127 57.0754 129.627 55.5734C130.128 54.0714 130.47 50.3824 130.786 49.5392C131.128 48.6959 130.786 47.8527 130.786 47.8527C130.786 47.8527 131.286 46.5089 131.286 44.8488C131.286 43.1623 129.1 41.8448 127.441 41.1597C125.756 40.5009 125.097 37.9713 124.755 36.1268C124.413 34.2822 121.753 31.4364 120.752 30.5932C119.751 29.75 120.251 27.7473 120.251 27.7473C120.251 27.7473 122.437 27.5892 124.255 25.7447C126.098 23.9002 125.598 20.2111 126.256 17.3652C126.915 14.5194 123.754 7.48382 123.254 6.4825C122.753 5.48118 123.096 1.29146 123.096 1.29146L121.753 0.448242C121.753 3.29409 122.095 6.6406 121.753 9.1439C121.252 12.3323 118.566 14.6775 116.722 17.1808L102.343 28.327C102.817 27.9054 103.185 27.5365 103.344 27.4048C103.844 26.9041 106.188 20.0266 106.03 19.0253C105.872 18.024 104.687 17.3389 103.844 16.6801C103.001 16.0214 102.343 13.6762 102.343 13.6762C103.344 11.9897 103.001 9.6709 103.001 7.98447C103.001 6.29804 103.344 2.13467 103.344 2.13467L102.343 1.47591C102.343 1.47591 102.685 5.16497 99.4984 7.32571C96.3117 9.5128 95.1529 12.8593 92.4666 17.2071C89.7803 21.555 91.6238 26.746 91.6238 26.746C93.3094 27.7473 94.9686 28.9331 95.8113 30.7513L99.0244 30.9094L95.9693 33.2809C95.9693 33.2809 95.4689 34.7829 94.2838 37.2862C93.125 39.7895 89.754 39.9739 88.9375 45.4812C88.0948 51.0148 86.7516 69.5919 88.9375 74.0978C91.1235 78.6301 94.4682 78.9463 96.3117 80.9489C98.1553 82.9515 103.001 88.8277 103.001 88.8277C105.345 97.8659 109.19 100.554 110.691 101.713C112.193 102.872 111.534 102.872 112.693 105.402C113.852 107.905 114.879 113.096 121.726 113.096C128.574 113.096 129.416 108.248 129.416 108.248C130.918 107.905 131.102 107.089 131.76 105.402C132.419 103.716 133.762 101.555 134.262 100.712C134.815 99.9212 133.288 93.2282 133.13 92.0424Z" fill="#9F4223"/>
<path d="M96.312 30.1188C96.312 30.1188 94.7318 27.7736 93.968 27.1149C93.2043 26.4561 91.3871 22.5826 92.2825 19.8421C93.2043 17.0753 95.7852 12.991 96.549 11.7262C97.3127 10.4614 98.2345 9.72357 99.3933 8.61685C100.552 7.53648 102.501 5.00684 102.501 5.00684C102.501 5.00684 102.001 8.6959 101.5 9.43371C101 10.1979 97.5761 16.1267 97.5761 16.1267L97.9185 25.5865C97.9185 25.5865 99.841 28.5905 99.999 28.854C100.157 29.1175 99.5777 29.4337 99.5777 29.4337L96.312 30.1188Z" fill="url(#paint12_linear_288_3239)"/>
<path d="M122.517 7.77324L122.437 5.92871C122.437 5.92871 123.438 8.85361 123.939 9.53872C124.439 10.1975 125.44 13.3859 125.624 14.8879C125.782 16.3898 125.624 17.8128 125.545 18.8141C125.466 19.8154 125.466 23.1619 124.544 24.5058C123.623 25.8497 121.7 27.0881 119.936 27.1935C118.171 27.2726 117.012 25.9287 117.012 25.9287L120.357 24.1632C120.357 24.1632 121.858 21.2383 122.279 19.8945C122.701 18.5506 123.122 16.1263 123.122 16.1263L123.386 13.7811V11.3569L123.043 9.59143L122.517 7.77324Z" fill="url(#paint13_linear_288_3239)"/>
<path d="M102.106 10.5137C101.605 11.8576 100.341 14.0184 100.341 14.0184C100.341 14.0184 100.262 19.9736 100.921 20.7904C101.579 21.6336 102.606 24.4004 102.606 24.4004L105.003 23.241C105.609 21.3965 106.109 19.5256 106.03 19.0249C105.872 18.0236 104.687 17.3385 103.844 16.6797C103.001 16.021 102.343 13.6758 102.343 13.6758C103.344 11.9894 103.001 9.67053 103.001 7.9841C103.001 7.48344 103.028 6.77198 103.08 6.00781C103.028 6.03416 103.001 6.03416 103.001 6.03416C103.001 6.03416 102.606 9.19622 102.106 10.5137Z" fill="url(#paint14_linear_288_3239)"/>
<path d="M121.489 18.2345C122.148 16.7326 122.148 12.4638 122.148 12.4638C122.148 12.4638 122.306 8.53757 121.884 7.7734C121.884 7.74705 121.858 7.74705 121.832 7.7207C121.805 8.24771 121.779 8.72202 121.7 9.19633C121.2 12.3847 118.513 14.7299 116.67 17.2332L114.062 19.2622L119.83 22.3189C119.83 22.3189 120.831 19.7365 121.489 18.2345Z" fill="url(#paint15_linear_288_3239)"/>
<path d="M93.6782 47.2203C93.6782 47.2203 93.6782 44.4536 95.4428 44.0846C97.2073 43.7157 98.9455 43.584 98.9455 43.584L100.578 44.7171C100.578 44.7171 103.344 47.8528 102.975 53.0175L101.342 55.2836L98.3397 50.8831L93.6782 47.2203Z" fill="url(#paint16_linear_288_3239)"/>
<path d="M94.0729 52.6221C94.0729 52.6221 96.2062 57.655 98.0761 58.8935C99.9459 60.1583 97.0753 63.9264 102.711 71.0674C102.711 71.0674 97.3123 68.0634 95.4424 63.1623C93.5462 58.2874 93.6779 53.7551 94.0729 52.6221Z" fill="url(#paint17_linear_288_3239)"/>
<path d="M111.008 96.9435C111.008 96.9435 111.376 89.7762 111.64 88.037C111.903 86.2716 109.506 83.7683 108.374 79.8684C108.374 79.8684 107.241 77.2333 102.843 75.5996C102.843 75.5996 103.107 79.6049 104.608 82.7669C106.109 85.9026 110.112 90.3032 111.008 96.9435Z" fill="url(#paint18_linear_288_3239)"/>
<path d="M113.272 84.0315C113.272 84.0315 110.27 77.4966 108.506 75.125C106.741 72.7272 105.003 70.4874 105.609 67.9577C106.241 65.4544 104.845 63.0565 103.739 62.187C102.606 61.3174 100.736 58.9195 100.736 58.9195C100.736 58.9195 104.002 57.7864 106.135 59.5519C108.269 61.3174 110.27 69.3543 110.902 72.0947C111.534 74.8615 113.536 79.8681 114.036 80.1316C114.537 80.3951 112.535 66.9564 112.535 66.9564C112.535 66.9564 115.3 68.959 115.432 72.3582C115.564 75.7575 115.801 80.2634 116.196 81.8971C116.564 83.5308 116.828 85.2963 115.932 85.797C115.063 86.2976 113.931 86.4294 113.931 86.4294L113.272 84.0315Z" fill="url(#paint19_linear_288_3239)"/>
<path d="M92.6771 43.4519C92.6771 43.4519 93.4409 42.0817 94.8104 41.6864C96.1799 41.3175 99.2085 41.9499 99.2085 41.9499C99.2085 41.9499 98.2077 39.5521 98.4448 38.8142C98.7081 38.0501 99.0769 36.9434 99.0769 36.9434L95.5741 37.444L94.31 39.2095C94.31 39.1832 91.6763 40.8169 92.6771 43.4519Z" fill="url(#paint20_linear_288_3239)"/>
<path d="M94.8105 65.1123C94.8105 65.1123 97.6549 68.1163 99.6564 69.8027C101.658 71.4891 109.19 77.1808 109.875 78.6828C110.533 80.1848 111.876 83.8738 111.876 83.8738C111.876 83.8738 111.876 88.7223 111.876 90.4087C111.876 90.4087 111.034 87.0622 110.533 84.5589C110.033 82.0556 109.533 79.0253 107.531 77.3653C105.529 75.6788 102 74.3613 102 74.3613C102 74.3613 102.501 82.0557 105.687 87.0886C108.874 92.1215 96.1537 75.0464 96.1537 75.0464L94.8105 65.1123Z" fill="url(#paint21_linear_288_3239)"/>
<path d="M119.751 108.538C116.643 108.617 115.485 106.773 114.062 103.347C112.64 99.9215 109.717 99.4208 109.717 99.4208C109.717 99.4208 109.717 98.077 109.717 96.4169C109.717 94.7304 108.374 90.7252 107.531 89.5658C106.688 88.4063 103.844 83.8741 102 79.3418C100.157 74.8095 101 72.6488 99.156 70.8042C97.3125 68.9597 91.9662 62.1086 92.967 48.6962C92.967 48.6962 91.6238 45.3497 91.4658 43.1626C91.3078 41.1336 91.7292 40.712 92.5983 39.3154C91.2025 40.5276 89.5169 41.8187 88.9375 45.5078C88.0948 51.0414 86.7516 69.6185 88.9375 74.1244C91.1235 78.6567 94.4682 78.9729 96.3117 80.9755C98.1553 82.9781 103.001 88.8543 103.001 88.8543C105.345 97.8925 109.19 100.58 110.691 101.74C112.193 102.899 111.534 102.899 112.693 105.429C113.852 107.932 114.879 113.123 121.726 113.123C128.574 113.123 129.416 108.275 129.416 108.275C129.627 108.222 129.812 108.169 129.996 108.09C129.812 108.037 129.627 107.985 129.416 107.932C127.863 107.616 122.832 108.459 119.751 108.538Z" fill="url(#paint22_linear_288_3239)"/>
<path d="M121.752 113.149C126.203 113.149 128.126 111.12 128.916 109.67C126.019 109.117 122.911 110.277 120.041 110.382C117.038 110.514 115.274 108.379 114.51 106.877C113.746 105.375 111.876 102.872 111.876 102.872L111.745 102.925C111.955 103.399 112.034 104.031 112.693 105.454C113.878 107.958 114.905 113.149 121.752 113.149Z" fill="url(#paint23_linear_288_3239)"/>
<path d="M90.8074 48.2746C91.5448 52.6488 92.1769 60.0005 93.046 63.1889C94.3101 67.7212 97.5758 69.961 98.5766 74.4933C99.5774 79.0256 103.344 86.799 106.109 89.8029C108.874 92.8069 109.375 99.3418 109.375 99.3418L109.717 96.5486C109.717 96.4959 109.717 96.4696 109.717 96.4169C109.717 94.7304 108.374 90.7252 107.531 89.5658C106.688 88.4063 103.844 83.8741 102 79.3418C100.157 74.8095 101 72.6488 99.156 70.8042C97.3125 68.9597 91.9662 62.1086 92.967 48.6962C92.967 48.6962 91.6238 45.3497 91.4658 43.1626C91.3078 41.1336 91.7292 40.712 92.5983 39.3154C91.2025 40.5276 89.5169 41.8187 88.9375 45.5078C88.0948 51.0414 86.7516 69.6185 88.9375 74.1244C89.2272 74.7304 89.5433 75.2575 89.8593 75.7318C89.2799 74.3088 88.8585 72.4907 88.7532 70.1982C88.3845 61.766 90.149 51.6474 90.8074 48.2746Z" fill="url(#paint24_linear_288_3239)"/>
<path d="M134.315 100.765C134.815 99.9215 133.314 93.2285 133.156 92.0691C132.998 90.9096 130.812 91.0678 130.154 89.5658C129.495 88.0638 128.653 80.8701 128.653 78.1824C128.653 75.4946 129.811 72.6488 130.154 69.4867C130.496 66.2983 128.995 59.4472 128.995 59.4472C128.653 58.4459 129.153 57.102 129.653 55.6C130.154 54.0981 130.496 50.409 130.812 49.5658C131.154 48.7226 130.812 47.8793 130.812 47.8793C130.812 47.8793 131.313 46.5355 131.313 44.8754C131.313 43.189 129.127 41.8714 127.467 41.1863C125.782 40.5276 125.123 37.9979 124.781 36.1534C124.439 34.3089 121.779 31.463 120.778 30.6198C119.777 29.7766 120.278 27.7739 120.278 27.7739C120.278 27.7739 120.357 27.7739 120.515 27.7476C119.646 27.405 117.565 27.0361 117.565 27.0361C117.565 27.0361 106.135 28.4064 101.263 34.7041C96.3642 40.9755 102.132 42.6093 103.896 43.5052C105.661 44.3747 106.398 48.6435 107.03 50.6725C107.662 52.6751 111.165 61.2127 112.061 63.4788C112.93 65.745 114.457 66.1139 114.457 66.1139C117.46 71.1468 116.59 79.5526 116.59 80.6857C116.59 81.8187 117.591 84.0849 117.091 86.2193C116.59 88.3537 114.958 86.351 113.694 88.6172C112.429 90.8833 111.929 97.023 112.561 98.5249C113.193 100.027 116.195 105.798 118.092 106.931C119.962 108.064 122.859 107.194 126.256 106.931C129.653 106.667 131.154 107.194 131.154 107.194C131.392 106.773 131.576 106.219 131.866 105.508C132.471 103.769 133.788 101.608 134.315 100.765Z" fill="url(#paint25_linear_288_3239)"/>
<path d="M118.039 106.878C119.909 108.011 122.806 107.141 126.204 106.878C129.601 106.614 131.102 107.141 131.102 107.141C131.339 106.719 131.524 106.166 131.813 105.455C132.419 103.926 133.604 101.95 134.184 101.001C133.92 101.028 133.42 101.054 132.998 100.975C132.366 100.843 131.998 97.0752 131.998 97.0752C131.998 97.0752 131.629 97.7076 130.734 97.8394C129.864 97.9711 124.465 98.2083 123.201 98.1029C121.937 97.9711 120.699 97.1015 120.699 97.1015C120.699 97.1015 121.2 101.107 120.963 101.634C120.699 102.134 115.564 101.265 115.564 101.265C115.564 101.265 115.353 103.215 115.959 104.585C116.67 105.613 117.407 106.509 118.039 106.878Z" fill="url(#paint26_linear_288_3239)"/>
<path d="M93.7306 47.0093C93.7306 47.0093 94.6524 44.585 95.3108 44.1634C95.3108 44.1634 98.9188 43.004 101.842 46.4296C101.842 46.4296 101.184 42.0027 95.2318 42.5033C95.2318 42.5033 93.4672 43.0831 92.7298 45.3492C92.7298 45.3492 92.6508 46.5086 93.7306 47.0093Z" fill="url(#paint27_linear_288_3239)"/>
<path d="M130.128 69.4599C130.47 66.2714 128.969 59.4203 128.969 59.4203C128.626 58.419 129.127 57.0751 129.627 55.5732C130.128 54.0712 130.47 50.3821 130.786 49.5389C131.128 48.6957 130.786 47.8525 130.786 47.8525C130.786 47.8525 131.286 46.5086 131.286 44.8485C131.286 43.1621 129.1 41.8446 127.441 41.1595C125.756 40.5007 125.097 37.9711 124.755 36.1265C124.413 34.282 121.753 31.4361 120.752 30.5929C119.751 29.7497 120.251 27.7471 120.251 27.7471C120.251 27.7471 119.093 30.0923 119.409 30.5929C119.751 31.0936 122.411 34.0975 122.911 35.9421C123.412 37.7866 124.255 40.975 122.253 42.477C120.251 43.979 122.911 52.0158 122.911 54.7036C122.911 57.3913 124.755 64.9276 125.756 70.4348C126.756 75.9684 128.6 82.6614 128.6 82.6614L128.89 82.5297C128.705 80.7906 128.6 79.1305 128.6 78.1292C128.626 75.4678 129.785 72.6219 130.128 69.4599Z" fill="url(#paint28_linear_288_3239)"/>
<path d="M126.361 51.6212C126.361 51.6212 127.125 48.1957 128.363 47.0889L129.522 46.9308C129.522 46.9308 130.101 46.7727 130.68 47.9322C130.68 47.9322 131.102 46.7727 131.181 46.0876C131.181 46.0876 129.68 45.1654 128.337 45.5079C127.02 45.8505 126.44 49.4605 126.361 51.6212Z" fill="#5D1C03"/>
<path d="M126.282 42.8459C127.283 42.4243 129.68 42.7405 131.076 43.8999C130.47 42.6614 128.811 41.7128 127.468 41.1595C125.782 40.5007 125.124 37.9711 124.781 36.1265C124.439 34.282 121.779 31.4361 120.778 30.5929C119.777 29.7497 120.278 27.7471 120.278 27.7471C120.278 27.7471 119.119 30.0923 119.435 30.5929C119.777 31.0936 122.437 34.0975 122.938 35.9421C123.438 37.7866 124.281 40.975 122.279 42.477C120.278 43.979 122.938 52.0158 122.938 54.7036C122.938 56.9697 124.255 62.7405 125.282 67.8261C124.676 63.6627 123.78 56.9697 123.78 55.0461C123.78 52.2003 123.122 47.668 123.122 46.0079C123.096 44.3479 125.097 43.3465 126.282 42.8459ZM129.627 55.5468C129.653 55.4678 129.68 55.3887 129.706 55.3097C128.732 56.7853 127.468 57.0488 127.468 57.0488L127.626 58.5508C127.626 58.5508 128.284 61.0541 128.969 64.585C129.627 68.0896 129.311 71.1199 128.626 73.1226C127.968 75.1252 127.968 77.3123 127.968 77.3123L126.862 75.5732C127.757 79.4203 128.626 82.6614 128.626 82.6614L128.916 82.5297C128.732 80.7906 128.626 79.1305 128.626 78.1292C128.626 75.4414 129.785 72.5956 130.128 69.4335C130.47 66.2451 128.969 59.394 128.969 59.394C128.626 58.3927 129.127 57.0751 129.627 55.5468Z" fill="url(#paint29_linear_288_3239)"/>
<path d="M95.8115 53.7285C95.8115 53.7285 97.1547 55.7312 98.6559 56.4163C100.157 57.075 101.342 57.075 102.001 56.7588C102.659 56.4163 103.344 54.5717 103.844 54.5717C104.344 54.5717 106.188 56.9169 106.188 56.9169L106.03 58.9196C106.03 58.9196 104.687 57.5757 103.186 57.4176C101.685 57.2595 99.999 58.2608 99.999 58.2608C99.999 58.2608 96.8123 57.7338 95.8115 53.7285Z" fill="url(#paint30_linear_288_3239)"/>
<path d="M104.739 34.1764C104.739 34.1764 103.106 36.9432 103.106 38.0762C103.106 39.2093 105.74 41.9761 106.609 43.1092C107.478 44.2422 109.243 50.1447 110.007 52.5163C110.77 54.9142 112.64 62.0551 113.641 63.8206C114.642 65.5861 115.906 66.2185 116.538 68.7218C117.17 71.2251 117.67 74.6243 117.67 76.8905C117.67 79.1566 117.407 81.0275 117.934 83.1619C118.434 85.2963 117.302 89.1961 117.934 91.067C118.566 92.9379 120.936 94.5716 121.7 95.7047C122.464 96.8378 130.865 97.0749 131.497 96.2053C132.129 95.3358 132.498 92.3055 131.629 91.8048C130.76 91.3042 129.495 90.9353 128.495 85.6652C127.494 80.3951 126.23 75.2567 125.598 73.4912C124.966 71.7258 124.228 64.8219 123.728 62.6876C123.227 60.5532 122.464 55.652 122.095 52.8852C121.726 50.1184 120.33 45.349 120.462 43.5835C120.594 41.818 121.595 39.4465 121.331 36.8114C121.068 34.1764 118.329 32.9115 117.828 31.1724C117.328 29.4069 117.328 27.4043 117.328 27.4043L104.739 34.1764Z" fill="#F9B99C"/>
<path d="M120.989 83.6623C123.359 83.3988 125.466 81.8177 127.099 79.2617C126.493 76.6267 125.914 74.4923 125.571 73.4646C124.939 71.6992 124.202 64.7953 123.701 62.661C123.201 60.5266 122.437 55.6254 122.068 52.8586C121.7 50.0918 120.304 45.3224 120.436 43.5569C120.567 41.7914 121.568 39.4198 121.305 36.7848C121.147 35.0984 119.962 33.9653 118.987 32.9113C117.881 32.437 116.722 32.2262 115.59 32.3579C111.587 32.7795 108.426 37.022 106.767 43.267C107.689 44.769 109.295 50.2235 110.033 52.4897C110.797 54.8876 112.666 62.0285 113.667 63.794C114.668 65.5595 115.932 66.1919 116.564 68.6952C117.196 71.1985 117.697 74.5977 117.697 76.8639C117.697 79.13 117.433 81.0009 117.96 83.1353C117.96 83.1616 117.96 83.2143 117.986 83.2407C118.934 83.6359 119.962 83.7677 120.989 83.6623Z" fill="url(#paint31_radial_288_3239)"/>
<path d="M118.54 89.3017C118.908 87.1673 119.303 84.664 119.04 83.3992C118.777 82.1344 118.276 80.2635 118.276 78.6298C118.276 76.996 118.276 71.7259 117.776 70.224C117.275 68.722 116.143 65.9552 116.143 65.9552C116.143 65.9552 113.746 62.556 112.64 58.2872C111.508 54.0184 109.375 47.8788 109.137 46.8511C108.874 45.8498 107.505 42.3188 107.004 41.7128C106.504 41.0804 103.607 39.0777 103.87 38.2082C104.134 37.3386 105.503 33.8076 105.503 33.8076C105.503 33.8076 105.503 33.8076 105.503 33.7813L104.766 34.1765C104.766 34.1765 103.133 36.9433 103.133 38.0764C103.133 39.2095 105.766 41.9763 106.636 43.1093C107.505 44.2424 109.269 50.1449 110.033 52.5165C110.797 54.9143 112.667 62.0553 113.667 63.8208C114.668 65.5863 115.932 66.2187 116.564 68.722C117.196 71.2253 117.697 74.6245 117.697 76.8906C117.697 79.1568 117.433 81.0276 117.96 83.162C118.461 85.2964 117.328 89.1963 117.96 91.0672C118.276 92.0421 119.066 92.9381 119.856 93.7286V93.7022C119.777 93.6759 118.145 91.4361 118.54 89.3017ZM131.576 91.805C130.707 91.3043 129.443 90.9354 128.442 85.6653C127.441 80.3952 126.177 75.2569 125.545 73.4914C124.913 71.7259 124.176 64.8221 123.675 62.6877C123.175 60.5533 122.411 55.6522 122.042 52.8854C121.674 50.1186 120.278 45.3491 120.409 43.5836C120.541 41.8182 121.542 39.4466 121.279 36.8116C121.015 34.1765 118.276 32.9117 117.776 31.1726C117.381 29.8024 117.302 28.274 117.275 27.668L116.275 28.274C116.275 28.274 117.038 31.7786 117.144 32.2793C117.275 32.78 119.409 34.4137 120.041 34.9143C120.673 35.415 121.173 37.8129 120.541 39.6838C119.909 41.5547 119.277 43.4519 119.277 43.4519C119.277 43.4519 119.777 45.4545 120.91 49.9868C122.042 54.5191 123.912 72.0948 124.544 73.3333C125.176 74.5981 126.414 79.473 127.31 83.5046C128.179 87.5099 129.574 91.1726 129.574 91.1726C129.574 91.1726 131.444 92.4374 131.444 93.307C131.444 94.1765 130.812 95.5731 129.179 95.7049C127.547 95.8366 123.649 95.8366 122.78 95.5731C121.911 95.3096 120.278 94.2029 120.278 94.2029H120.251C120.831 94.7562 121.358 95.2832 121.647 95.7049C122.411 96.8379 130.812 97.0751 131.444 96.2055C132.076 95.3096 132.471 92.3056 131.576 91.805Z" fill="#DF8663"/>
<path d="M102.343 6.35059C102.343 6.35059 100.973 10.9619 99.0769 12.701C97.2071 14.4665 94.3101 18.34 94.3101 21.1068C94.3101 23.8736 95.6795 28.7748 97.4441 29.9079L100.499 27.6154C102.501 25.4283 100.841 22.925 99.3403 21.0805C98.8399 18.8934 99.1823 16.3901 99.1823 14.0449C100.683 11.6997 102.343 9.19644 102.343 6.35059ZM124.175 13.5706C124.044 11.3045 122.595 7.66811 122.595 7.66811C123.596 14.203 123.438 20.7379 119.093 25.7445L119.54 26.8776C121.041 26.5087 123.043 25.6128 124.175 23.1095C125.308 20.6062 124.307 15.8368 124.175 13.5706Z" fill="url(#paint32_linear_288_3239)"/>
<path d="M116.907 91.8848C116.749 92.5435 117.065 93.3867 117.065 94.0719C119.751 93.7293 120.251 99.1048 119.909 100.923C119.066 100.58 118.25 100.422 117.223 100.58C116.222 98.894 115.537 97.392 115.721 95.3894C115.721 95.3894 115.879 94.5462 116.38 93.3077L116.907 91.8848Z" fill="url(#paint33_linear_288_3239)"/>
<path d="M132.788 94.0713C132.788 96.2584 132.946 98.261 133.446 100.264C133.604 99.763 133.604 99.1042 133.604 98.7617C133.604 98.7617 133.709 97.8394 133.63 97.0752C133.472 95.2044 132.788 94.0713 132.788 94.0713Z" fill="url(#paint34_linear_288_3239)"/>
<path d="M119.909 100.922C120.172 99.5255 119.935 96.1526 118.671 94.7297C118.039 94.677 117.433 94.9669 117.091 95.5993C116.564 96.5479 116.722 97.7864 116.986 98.7877C117.091 99.1829 117.328 100.105 117.723 100.553C118.513 100.5 119.224 100.659 119.909 100.922Z" fill="url(#paint35_linear_288_3239)"/>
<path d="M133.63 98.762C133.63 98.762 133.657 98.4722 133.683 98.0769C133.683 98.0242 133.683 97.9715 133.657 97.9188C133.604 97.4445 133.42 96.2324 132.867 96.1797C132.946 97.5763 133.13 98.9201 133.472 100.29C133.63 99.7634 133.63 99.0782 133.63 98.762Z" fill="url(#paint36_linear_288_3239)"/>
<path d="M119.593 26.7719C120.91 22.1869 108.795 29.5387 108.795 29.5387L95.8111 35.8101L94.7577 36.3634C94.7577 36.3634 93.9939 37.9445 93.8096 38.1816C93.8096 38.1816 99.3929 36.8641 103.343 36.0999C103.449 36.0736 103.58 36.0472 103.686 36.0209L104.976 33.5176L110.112 30.1974L115.695 27.5097C115.695 27.5097 117.328 26.7455 117.565 26.8246C117.802 26.8773 117.249 28.1948 117.565 29.5914C118.592 28.6955 119.329 27.7468 119.593 26.7719Z" fill="#4A1606"/>
<path d="M117.592 26.825C117.328 26.7723 115.722 27.5101 115.722 27.5101L110.138 30.1978L105.003 33.518L103.712 36.0213C107.004 35.3098 114.036 32.7802 117.592 29.5918C117.276 28.1952 117.829 26.8777 117.592 26.825Z" fill="#BA6747"/>
<path d="M95.8379 30.7768C95.2321 29.5647 94.363 28.6424 93.2832 27.8256C92.9672 27.5884 91.7557 27.0614 91.6504 26.7189C91.545 26.429 91.4924 26.1391 91.4134 25.8493C90.6233 22.5028 91.229 19.3934 92.9935 16.4949C94.6264 13.7808 95.9432 10.7505 98.2345 8.48434C99.1562 7.58842 100.315 7.03506 101.079 5.95469C101.737 5.03243 102.132 4.05746 102.343 2.95074C102.422 2.47643 102.475 1.97577 102.422 1.50146C102.448 1.71227 102.922 1.94942 103.159 2.10753C103.37 2.23928 103.265 2.47643 103.238 2.73994C103.054 5.08513 102.922 7.40397 103.001 9.74916C103.028 10.6187 102.975 11.4883 102.817 12.3315C102.738 12.7004 102.211 13.4382 102.29 13.7281C102.527 14.5713 102.87 15.4145 103.317 16.1787C103.976 17.3117 105.819 17.6806 105.977 19.1299C106.056 19.9204 105.661 20.8691 105.451 21.6069C105.135 22.7136 104.766 23.8203 104.371 24.9007C104.107 25.6648 103.87 26.7189 103.317 27.3513C102.211 28.6424 100.736 29.7228 99.4723 30.8559C99.3933 30.9349 99.4986 31.0403 99.5776 30.9613C100.394 30.2235 101.21 29.4857 102.001 28.7478C102.685 28.1154 103.396 27.6148 103.791 26.7452C104.819 24.4791 105.846 21.765 106.109 19.288C106.267 17.7861 104.134 17.0746 103.449 16.0469C102.975 15.3618 102.712 14.5186 102.448 13.7281C102.396 13.5436 102.659 13.1747 102.738 12.9903C102.896 12.516 103.028 12.0416 103.08 11.541C103.265 9.67011 103.08 7.77287 103.159 5.87564C103.238 4.61082 103.317 3.346 103.423 2.08117C103.423 2.05482 103.396 2.02847 103.396 2.02847C103.054 1.81767 102.738 1.58052 102.396 1.36971C102.369 1.34336 102.29 1.36971 102.29 1.42241C102.501 4.11016 100.947 6.1128 98.9192 7.64112C96.3119 9.61741 94.9161 12.8322 93.3359 15.599C92.3878 17.2327 91.5187 18.682 91.15 20.5792C90.8866 22.0021 90.9393 23.4778 91.15 24.8743C91.229 25.4277 91.308 26.2182 91.5977 26.7189C91.8347 27.1141 92.8619 27.5357 93.2569 27.7992C94.3367 28.5634 95.2058 29.5384 95.7852 30.7241C95.8115 30.8295 95.8642 30.8032 95.8379 30.7768Z" fill="url(#paint37_linear_288_3239)"/>
<path d="M116.775 17.233C118.303 15.1777 120.173 13.3858 121.279 11.0143C122.332 8.72182 121.99 5.87597 121.911 3.42537C121.885 2.71391 121.858 2.00245 121.858 1.29099C121.858 0.658574 121.621 0.447771 122.227 0.816677C122.885 1.23828 123.07 1.15923 123.017 1.8707C122.938 3.29362 122.648 5.13815 123.228 6.50838C124.545 9.64408 126.204 12.8852 126.335 16.3371C126.362 17.2857 126.072 18.2343 125.967 19.1566C125.782 20.6059 125.756 22.0551 125.414 23.4781C124.887 25.7706 122.622 27.457 120.304 27.6678C120.278 27.6678 120.225 27.6941 120.225 27.7205C120.067 28.3529 120.067 29.038 120.199 29.6704C120.383 30.5663 121.384 31.1988 121.964 31.8048C122.912 32.8061 123.781 33.9129 124.413 35.1513C125.019 36.3107 124.992 37.7337 125.519 38.9458C125.94 39.8944 126.493 40.7376 127.468 41.2119C128.995 41.9234 131.129 42.872 131.26 44.8219C131.313 45.6388 131.129 46.5347 130.918 47.3252C130.892 47.4306 130.734 47.7469 130.76 47.8523C131.129 48.8799 130.523 50.3819 130.365 51.4623C130.181 52.6744 130.023 53.8865 129.733 55.0723C129.443 56.3107 128.548 57.7864 128.864 59.1039C129.259 60.764 129.548 62.4768 129.786 64.1632C129.97 65.4807 130.128 66.8246 130.154 68.1421C130.181 69.8812 129.759 71.6204 129.364 73.3068C128.732 75.9945 128.521 78.3924 128.758 81.1065C128.969 83.6625 129.232 86.2976 129.865 88.8009C130.102 89.6968 130.523 90.2765 131.366 90.7244C131.998 91.067 132.92 91.2251 133.13 92.0156C133.236 92.4109 133.262 92.8061 133.341 93.2014C133.789 95.4675 134.5 97.9708 134.368 100.29C134.342 100.79 133.868 101.317 133.631 101.739C133.183 102.477 132.788 103.215 132.393 103.979C131.603 105.507 131.392 107.589 129.522 108.089C129.496 108.089 129.443 108.142 129.443 108.168C128.706 112.279 123.491 113.307 120.067 112.806C115.353 112.147 113.404 107.352 112.167 103.32C111.771 102.055 110.665 101.475 109.717 100.659C108.242 99.3938 107.084 97.8654 106.109 96.179C105.345 94.8878 104.766 93.4912 104.239 92.0947C103.95 91.3042 103.686 90.4873 103.449 89.6441C103.344 89.3279 103.344 88.9063 103.107 88.6164C101.922 87.1935 100.737 85.7706 99.5514 84.374C98.2609 82.8457 96.9968 81.0538 95.3639 79.8681C94.4948 79.2357 93.5467 78.7613 92.6776 78.1553C91.2555 77.1803 90.1757 75.8891 89.3329 74.3608C88.4375 72.7534 88.3058 70.7508 88.1478 68.9326C87.9371 66.5084 87.9371 64.0841 87.9898 61.6599C88.0688 56.8905 88.3585 52.121 88.8852 47.3779C89.1486 44.9274 89.5436 42.5558 91.2555 40.6586C91.8349 39.9998 92.5723 39.4465 93.2307 38.8667C94.0208 38.1553 94.4422 37.3648 94.8899 36.4161C95.3639 35.3621 95.8117 34.3081 96.1804 33.2277C96.233 33.096 96.0223 33.0433 95.996 33.175C95.3376 35.125 94.6265 37.3121 93.099 38.735C91.6242 40.1316 90.281 41.2383 89.5173 43.1882C88.8325 44.98 88.7272 47.0881 88.5428 48.9853C88.3058 51.3305 88.1478 53.6757 88.0161 56.0209C87.7527 60.8694 87.5421 65.8233 88.1478 70.6718C88.3848 72.4636 88.8062 73.9919 89.807 75.5466C91.1238 77.5756 93.1254 78.6559 95.1006 79.9471C96.9178 81.1329 98.2609 83.1619 99.6568 84.7956C100.789 86.1395 101.922 87.5097 103.054 88.8536C103.397 89.2752 103.502 90.4609 103.686 91.0143C103.923 91.7785 104.213 92.5426 104.503 93.2804C105.003 94.5189 105.582 95.7047 106.267 96.8378C107.163 98.3397 108.295 99.71 109.612 100.843C109.981 101.186 110.402 101.475 110.797 101.792C111.745 102.529 111.929 103.294 112.325 104.374C112.93 106.034 113.641 107.773 114.51 109.302C116.828 113.28 122.069 114.15 126.125 112.437C127.547 111.831 128.706 110.724 129.364 109.328C129.522 109.012 129.627 108.695 129.707 108.379C129.733 108.221 130.075 108.274 130.233 108.195C130.628 108.01 130.918 107.773 131.181 107.404C131.945 106.403 132.235 104.927 132.814 103.821C133.315 102.819 134.289 101.765 134.579 100.685C135 99.2093 134.315 97.1013 134.052 95.652C133.868 94.7034 133.683 93.7548 133.499 92.8061C133.394 92.2528 133.394 91.594 132.867 91.2515C131.84 90.5927 130.628 90.4082 130.207 89.0907C129.891 88.1158 129.759 87.0617 129.601 86.0604C129.206 83.5571 128.916 81.0275 128.864 78.4978C128.758 75.2304 130.207 72.1474 130.391 68.9326C130.523 66.5611 130.075 64.0841 129.654 61.7389C129.522 61.0011 129.364 60.2633 129.232 59.4992C128.916 58.0235 129.496 56.7324 129.917 55.3094C130.26 54.1764 130.391 52.9642 130.576 51.7785C130.734 50.7508 131.102 49.6968 131.181 48.6428C131.208 48.3266 130.971 47.9577 131.076 47.6678C131.26 47.1408 131.366 46.5874 131.445 46.0604C131.629 44.8746 131.55 43.9787 130.813 43.0565C130.102 42.1605 128.943 41.5281 127.916 41.1065C126.177 40.3951 125.598 38.6296 125.177 36.9432C124.913 35.8101 124.65 34.9405 124.018 33.9392C123.333 32.8852 122.464 31.9366 121.569 31.0407C121.095 30.5663 120.647 30.2501 120.436 29.565C120.278 29.0117 120.357 28.3529 120.436 27.7995C120.462 27.6941 121.937 27.3516 122.28 27.2198C124.755 26.1922 125.651 24.1895 125.94 21.6862C126.098 20.3424 126.151 18.9985 126.414 17.681C126.572 16.8641 126.599 16.1263 126.493 15.2831C126.256 13.3595 125.545 11.4623 124.861 9.64408C124.387 8.43196 123.623 7.19349 123.333 5.95502C122.991 4.47939 123.201 2.76661 123.307 1.23828C123.307 1.21193 123.28 1.18558 123.28 1.18558C122.833 0.895728 122.385 0.632224 121.937 0.342369C121.885 0.316018 121.832 0.342369 121.832 0.39507C121.858 3.47807 122.411 6.79823 121.7 9.82854C121.016 12.6744 118.566 14.8351 116.854 17.1013C116.67 17.233 116.749 17.2857 116.775 17.233Z" fill="url(#paint38_linear_288_3239)"/>
<path d="M129.469 107.905C125.598 107.378 121.569 109.275 117.802 108.01C115.379 107.193 114.853 104.664 113.852 102.635C113.009 100.922 111.508 99.5516 109.559 99.3672C109.48 99.3672 109.48 99.4726 109.533 99.4989C110.771 99.9205 111.798 100.316 112.693 101.317C113.562 102.318 114.01 103.636 114.458 104.848C115.063 106.455 116.091 107.694 117.723 108.326C119.409 108.985 121.463 108.695 123.201 108.484C125.282 108.221 127.362 107.773 129.469 108.01C129.496 108.01 129.522 107.905 129.469 107.905Z" fill="url(#paint39_linear_288_3239)"/>
<path d="M93.7048 47.5359C93.8891 46.5609 94.3105 45.7177 94.8372 44.9008C95.3376 44.1366 96.4964 44.2684 97.2865 44.2157C99.2354 44.1366 100.737 44.8745 101.79 46.5345C101.843 46.6136 101.948 46.5345 101.922 46.4555C101.079 44.7164 99.4987 43.9522 97.6289 43.8204C97.0758 43.7677 95.7063 43.5833 95.2849 44.1103C94.4948 45.138 93.8364 46.192 93.5994 47.4832C93.5731 47.5886 93.6784 47.6149 93.7048 47.5359Z" fill="url(#paint40_linear_288_3239)"/>
<path d="M126.441 52.0419C126.625 50.7771 126.915 49.5913 127.521 48.4582C127.81 47.9049 128.047 47.4569 128.627 47.2461C129.47 46.9299 130.102 47.088 130.497 47.9312C130.576 48.0893 130.839 47.9839 130.786 47.7995C130.628 47.3515 130.365 46.7718 129.838 46.6664C129.47 46.5874 128.627 46.5347 128.39 46.9036C127.363 48.5373 126.573 50.1183 126.441 52.0419Z" fill="#4C1403"/>
<path d="M102.343 6.34984C102.238 8.51058 101.342 10.4078 100.236 12.226C99.9463 12.7267 99.1562 13.5172 99.0245 14.0178C98.8138 14.8347 98.9455 15.9151 98.9192 16.7319C98.8928 17.6278 98.8928 18.4974 98.9455 19.3933C98.9982 20.1048 98.9191 20.8953 99.3669 21.475C100.736 23.2932 102.132 25.4539 100.473 27.562C100.447 27.6147 100.499 27.6674 100.526 27.6147C101.526 26.4816 101.79 25.2431 101.342 23.7938C101.105 23.056 100.657 22.4236 100.21 21.7912C99.8409 21.2906 99.3932 20.8689 99.3142 20.2102C99.2352 19.6305 99.2352 19.0508 99.2089 18.4711C99.1825 17.417 99.2615 16.3894 99.2879 15.3353C99.3405 13.7807 100.025 12.8057 100.763 11.5145C101.711 9.9335 102.343 8.22072 102.343 6.34984C102.343 6.32349 102.343 6.32349 102.343 6.34984Z" fill="url(#paint41_linear_288_3239)"/>
<path d="M122.569 7.66795C122.885 10.6983 123.201 13.6495 122.859 16.6798C122.701 18.1818 122.043 19.7628 121.516 21.1857C120.91 22.8195 120.015 24.2951 118.988 25.6917C118.935 25.7707 119.067 25.8761 119.146 25.7971C120.199 24.7167 121.042 23.4519 121.7 22.108C122.016 21.5019 122.227 20.8432 122.438 20.2108C122.754 19.2358 122.727 18.4716 122.859 17.4703C123.307 14.2292 123.228 10.8564 122.596 7.6416L122.569 7.66795Z" fill="url(#paint42_linear_288_3239)"/>
<path d="M116.881 91.8835C116.749 92.6213 116.96 93.3064 116.986 94.0706C116.986 94.097 117.012 94.1497 117.065 94.1497C119.593 94.0179 119.883 97.9968 119.909 99.7623C119.909 100.421 119.988 100.711 119.251 100.5C118.75 100.342 118.118 100.289 117.618 100.368C116.907 100.5 116.327 98.4975 116.169 98.1022C115.853 97.2327 115.801 96.3367 115.853 95.4145C115.853 95.2827 115.643 95.2827 115.643 95.4145C115.511 97.3908 116.222 98.9718 117.118 100.685C117.144 100.737 117.197 100.764 117.249 100.764C118.171 100.711 118.987 100.816 119.883 101.133C120.067 101.185 120.173 101.001 120.094 100.843C119.962 100.606 120.12 100.052 120.12 99.7623C120.12 99.2616 120.094 98.761 120.041 98.2603C119.962 97.3908 119.751 96.4685 119.382 95.678C119.093 95.0456 118.724 94.5186 118.118 94.176C117.881 94.0443 117.592 93.9916 117.302 93.9916C116.907 93.9652 116.933 92.0416 116.933 91.9099C116.933 91.8572 116.881 91.8572 116.881 91.8835Z" fill="url(#paint43_linear_288_3239)"/>
<path d="M133.631 98.7616C133.631 98.8143 133.552 100.237 133.473 99.8157C133.341 99.2359 133.236 98.6562 133.13 98.1029C132.92 96.759 132.92 95.4415 132.867 94.0976C132.867 93.9922 132.735 93.9922 132.709 94.0976C132.656 96.1529 132.867 98.3137 133.367 100.316C133.394 100.395 133.525 100.395 133.552 100.316C133.683 99.7366 133.683 99.2886 133.631 98.7616C133.631 98.7353 133.631 98.7353 133.631 98.7616Z" fill="url(#paint44_linear_288_3239)"/>
<path d="M120.173 23.7414C119.672 20.105 114.142 20.105 117.039 16.3369C114.905 16.3369 112.64 17.2065 110.507 17.3382C108.743 17.47 107.11 17.0747 105.372 17.6017L105.003 17.9706C105.872 19.1037 105.003 21.4753 104.134 22.6083L104.16 22.8718C102.633 24.2684 101 25.5596 99.6039 26.8771C96.6016 29.5121 93.5729 32.1472 90.7023 34.914L91.0183 34.8613C90.7023 34.993 90.3862 35.1511 90.0965 35.2829C85.6984 37.1538 81.3002 41.3172 78.9299 45.4542L78.2979 47.2197C81.3002 41.4489 86.3304 38.9456 91.7557 36.8903L91.3607 37.1538C95.8115 35.9944 102.975 35.3356 108.19 32.9377L108.032 33.1485C109.901 32.3053 112.219 31.1722 114.142 29.6966L114.168 29.8811C117.039 28.6426 120.673 27.6413 120.173 23.7414Z" fill="url(#paint45_linear_288_3239)"/>
<path d="M104.134 22.8452C105.082 21.9757 106.978 20.1311 107.531 18.8927L106.03 20.0521C106.03 20.0521 106.399 18.3657 105.714 17.4961C105.609 17.5224 105.477 17.5488 105.372 17.5751L105.003 17.9441C105.872 19.0771 105.003 21.4487 104.134 22.5817V22.8452ZM120.173 23.7412C120.094 23.2668 119.935 22.8452 119.725 22.45C119.751 22.5817 119.777 22.7398 119.83 22.8979C120.831 26.3235 116.564 27.0877 116.564 27.0877C118.408 24.9006 117.565 22.4763 117.565 22.4763C117.723 26.7451 113.562 28.5896 113.562 28.5896C114.405 27.5883 114.642 25.4012 114.642 25.4012C112.956 32.0152 101 33.5172 101 33.5172C110.533 29.1693 111.113 23.1351 111.113 23.1351C107.847 30.8294 96.8912 34.0178 89.7014 36.8637C84.6185 38.8663 81.6161 42.2655 80.2993 44.0837C83.3017 40.4473 87.3838 38.5238 91.6766 36.89L91.2816 37.1535C95.7324 35.9941 102.896 35.3354 108.11 32.9375L107.952 33.1483C109.822 32.3051 112.14 31.172 114.062 29.6964L114.089 29.8808C117.038 28.6423 120.673 27.641 120.173 23.7412ZM94.0732 33.5435C102.764 30.6977 106.293 25.6647 106.293 25.6647C103.923 28.2734 98.9718 30.4342 95.9168 31.5936L100.183 26.508C100.183 26.508 100.104 26.5343 99.9462 26.5607C99.8145 26.6661 99.7092 26.7715 99.5775 26.9032C96.5752 29.5383 93.5465 32.1733 90.6758 34.9401L90.9919 34.8874C90.8338 34.9664 90.6758 35.0191 90.5441 35.0982C92.177 34.3867 94.0732 33.5435 94.0732 33.5435Z" fill="#FFC44D"/>
<path d="M96.1011 35.5727C102.475 33.3592 110.349 30.0918 111.324 22.4765C111.324 22.3974 111.192 22.3711 111.192 22.4501C109.98 30.5134 100.368 33.4646 93.8362 35.8625C87.6208 38.155 81.3791 40.9745 78.2451 47.1932C78.2451 47.1932 78.2451 47.2196 78.2715 47.1932C80.1413 43.8994 82.7486 41.3961 86.0407 39.5516C87.8579 38.5239 89.8068 37.7598 91.782 37.0483C93.3885 36.7321 94.995 36.4159 96.6279 36.0997C95.074 36.3368 93.4938 36.574 91.9927 36.9956C93.3622 36.5213 94.7317 36.0733 96.1011 35.5727ZM116.933 20.711C116.907 20.6583 116.828 20.6847 116.854 20.7374C117.381 22.1603 117.75 23.5042 117.381 25.0061C117.065 26.4291 116.09 27.5885 115.116 28.6161C113.931 29.881 112.43 30.8296 110.876 31.6464C111.929 30.8823 112.851 29.96 113.562 28.8533C114.221 27.8256 114.589 26.6662 114.774 25.4804C114.984 23.9785 114.589 22.6609 114.458 21.1853C114.458 21.0799 114.3 21.0799 114.273 21.1853C114.142 22.5028 114.589 23.8467 114.431 25.1906C114.3 26.5081 113.799 27.7466 113.062 28.827C111.561 30.9877 109.085 32.2789 106.688 33.2538C103.475 34.545 100.025 35.3882 96.5489 36.0997C97.3916 35.9679 98.2344 35.8625 99.0508 35.7308C102 35.2301 104.976 34.545 107.742 33.3856C108.532 33.043 109.322 32.6478 110.059 32.1998C114.668 29.9864 120.357 25.9284 116.933 20.711ZM120.278 23.7413C120.146 22.3711 119.093 21.3698 118.092 20.5529C117.565 20.1313 117.012 19.7097 116.617 19.1563C115.959 18.2341 116.564 17.18 117.118 16.3895C117.17 16.3105 117.091 16.2051 117.012 16.2051C115.221 16.2578 113.509 16.7321 111.745 17.0483C109.612 17.4435 107.426 16.9165 105.319 17.4699C105.161 17.4963 105.24 17.7334 105.372 17.7071C107.215 17.2854 109.059 17.6017 110.902 17.4435C112.667 17.3118 114.379 16.7057 116.143 16.4949C117.065 16.3895 116.459 16.8111 116.248 17.3118C116.117 17.6807 116.038 17.9969 116.038 18.3658C116.064 18.9719 116.485 19.4725 116.881 19.8678C118.566 21.5542 120.462 22.5028 119.962 25.296C119.488 27.931 116.169 28.8797 114.089 29.8546C117.091 28.7479 120.647 27.5885 120.278 23.7413ZM78.8772 45.4804C78.9562 45.3487 79.0089 45.2433 79.0879 45.1115C79.0352 45.2169 78.9299 45.3487 78.8772 45.4804ZM85.5403 38.076C87.9369 36.2314 90.6759 35.072 93.4412 33.9126C98.1817 31.9627 103.449 29.9864 106.53 25.6385C106.557 25.5858 106.478 25.5331 106.451 25.5858C102.712 30.1972 97.2863 32.0681 91.9927 34.3342C91.5713 34.5187 91.1763 34.6768 90.7812 34.8612C93.8889 32.0154 97.1019 29.2749 100.21 26.4291C102.791 24.0575 105.846 21.9495 107.663 18.8665C107.715 18.7874 107.584 18.7084 107.531 18.7874C105.556 21.7914 102.685 23.8731 100.025 26.271C96.8649 29.1168 93.6255 31.8836 90.6232 34.8876C90.5969 34.9139 90.5969 34.9403 90.6232 34.9403C88.5426 35.9152 86.5937 37.0219 84.7765 38.4976C83.7231 39.3671 82.775 40.3158 81.8795 41.3171C83.0383 40.1576 84.2498 39.0509 85.5403 38.076ZM79.0879 45.1115C79.9306 43.794 80.8787 42.5292 81.9059 41.3434C80.8524 42.5028 79.878 43.7413 79.0879 45.1115ZM104.107 22.6346C104.95 21.5015 106.03 19.2617 105.003 17.9442C104.976 17.8915 104.924 17.9442 104.924 17.9969C105.767 19.4462 104.976 21.3698 104.107 22.6346Z" fill="url(#paint46_linear_288_3239)"/>
<path d="M97.0757 46.2972C95.8116 46.2445 94.8108 46.8242 94.2578 47.2458C93.7837 47.1141 92.9146 46.6661 92.5459 45.2959C92.5459 45.2959 92.5986 47.6411 93.9681 48.458C95.0215 52.9639 97.4445 53.5963 97.4445 53.5963L101.263 53.2274C101.974 48.6161 99.0246 46.3499 97.0757 46.2972Z" fill="black"/>
<path d="M99.4989 48.0101C98.0241 46.7453 95.9435 46.4291 94.416 47.7729C94.416 47.7729 94.495 49.6965 95.8382 51.9627C97.1813 54.2288 100.263 54.6504 100.263 54.6504L101.263 55.3092L101.105 54.0443C101.579 51.8046 101.395 49.6438 99.4989 48.0101Z" fill="url(#paint47_linear_288_3239)"/>
<path d="M95.9958 50.6716C96.1538 52.4371 97.497 53.7546 98.9981 53.6229C100.104 53.5175 100.973 52.6479 101.289 51.4885C101.184 50.1973 100.657 49.0116 99.4722 48.0102C99.0771 47.6677 98.6558 47.4042 98.208 47.2197C96.8122 47.4832 95.8378 48.9589 95.9958 50.6716Z" fill="url(#paint48_linear_288_3239)"/>
<path d="M98.4449 47.5889C97.1281 47.7206 96.18 49.0645 96.338 50.6192C96.496 52.1738 97.6548 53.3333 98.9716 53.2015C100.236 53.0961 101.131 51.8313 101.105 50.382C100.842 49.5124 100.341 48.6956 99.4984 48.0105C99.314 47.8524 99.1297 47.7206 98.9453 47.6152C98.7873 47.5889 98.6029 47.5889 98.4449 47.5889Z" fill="url(#paint49_linear_288_3239)"/>
<path d="M100.288 50.2505C100.394 51.2782 99.7618 52.2004 98.8663 52.2795C97.9972 52.3585 97.2071 51.5944 97.1018 50.5403C96.9965 49.5127 97.6285 48.5904 98.524 48.5114C99.3931 48.4587 100.183 49.2228 100.288 50.2505Z" fill="black"/>
<path d="M98.1556 49.5912C98.2082 50.0128 97.9449 50.4081 97.5762 50.4344C97.2074 50.4608 96.8914 50.1446 96.8387 49.723C96.7861 49.3014 97.0494 48.9061 97.4181 48.8798C97.7868 48.8271 98.1292 49.1433 98.1556 49.5912Z" fill="white"/>
<path d="M94.3896 47.7729C96.3122 46.4027 98.4454 46.9824 99.973 48.6425C101.316 50.0918 101.369 52.2262 101.053 54.0443C101.053 54.0443 101.079 54.0707 101.079 54.0443C101.606 51.8836 101.474 49.8546 99.8413 48.2209C98.3664 46.7189 96.0225 46.35 94.3896 47.7729Z" fill="black"/>
<path d="M132.393 48.2998C132.077 49.4856 130.892 49.3538 130.892 49.3538C130.575 48.9059 129.074 47.9045 127.757 49.4856C126.441 51.0666 126.625 53.7016 126.625 53.7016L128.811 54.255C130.154 53.8597 130.813 51.7254 130.944 50.4078C132.34 49.8018 132.393 48.2998 132.393 48.2998Z" fill="black"/>
<path d="M127.204 51.1195C126.783 52.1998 126.625 53.1221 126.546 55.0457L126.625 56.2051L127.389 55.2828C127.389 55.2828 128.231 55.2301 129.654 53.4383C130.575 52.2789 130.575 50.0127 130.575 50.0127C129.443 48.0365 127.705 49.7756 127.204 51.1195Z" fill="url(#paint50_linear_288_3239)"/>
<path d="M130.128 52.0675C130.365 50.7763 129.97 49.5905 129.232 49.1162C128.363 49.1953 127.52 50.2229 127.178 51.1188C126.888 51.883 126.704 52.5681 126.599 53.5694C126.836 54.0701 127.231 54.4127 127.705 54.5181C128.231 54.6235 128.758 54.3863 129.206 53.9383C129.285 53.8593 129.364 53.7539 129.443 53.6748C129.785 53.2269 130.022 52.6999 130.128 52.0675Z" fill="url(#paint51_linear_288_3239)"/>
<path d="M127.81 54.1756C128.732 54.3601 129.654 53.3851 129.917 52.0412C130.18 50.6974 129.627 49.4589 128.732 49.3008C128.074 49.6433 127.468 50.4339 127.204 51.1453C126.967 51.7514 126.809 52.3311 126.704 53.0425C126.888 53.6223 127.283 54.0702 127.81 54.1756Z" fill="url(#paint52_linear_288_3239)"/>
<path d="M128.574 50.0916C127.968 49.9861 127.336 50.6186 127.178 51.5145C127.02 52.4104 127.362 53.2273 127.968 53.359C128.574 53.4644 129.206 52.832 129.364 51.9361C129.522 51.0402 129.18 50.2233 128.574 50.0916Z" fill="black"/>
<path d="M127.494 51.5138C127.758 51.5665 128.021 51.303 128.074 50.9077C128.153 50.5388 127.995 50.1963 127.731 50.1436C127.494 50.4598 127.31 50.8023 127.178 51.1185V51.1449C127.231 51.3293 127.336 51.4611 127.494 51.5138Z" fill="white"/>
<path d="M126.52 55.0454C126.678 53.8596 126.757 52.7002 127.125 51.5672C127.599 50.1179 129.18 48.168 130.496 50.0652C130.549 50.1442 130.654 50.0652 130.602 49.9861C129.838 48.5896 128.6 48.9848 127.705 50.0388C126.625 51.3564 126.467 53.438 126.52 55.0454C126.52 55.0718 126.52 55.0718 126.52 55.0454Z" fill="black"/>
</g>
<defs>
<radialGradient id="paint0_radial_288_3239" cx="0" cy="0" r="1" gradientUnits="userSpaceOnUse" gradientTransform="translate(59.1751 126.207) scale(21.2733 21.2847)">
<stop stopColor="#B85A41"/>
<stop offset="1" stopColor="#A24426"/>
</radialGradient>
<linearGradient id="paint1_linear_288_3239" x1="77.5316" y1="97.6326" x2="61.2817" y2="82.5115" gradientUnits="userSpaceOnUse">
<stop stopColor="#873615"/>
<stop offset="1" stopColor="#9B4122"/>
</linearGradient>
<linearGradient id="paint2_linear_288_3239" x1="100.233" y1="119.698" x2="136.879" y2="133.245" gradientUnits="userSpaceOnUse">
<stop stopColor="#521C00"/>
<stop offset="1" stopColor="#7F3116"/>
</linearGradient>
<linearGradient id="paint3_linear_288_3239" x1="64.0634" y1="131.085" x2="109.747" y2="113.022" gradientUnits="userSpaceOnUse">
<stop stopColor="#581D0A"/>
<stop offset="1" stopColor="#792F16"/>
</linearGradient>
<linearGradient id="paint4_linear_288_3239" x1="95.2224" y1="81.8973" x2="73.3773" y2="61.5696" gradientUnits="userSpaceOnUse">
<stop stopColor="#6E2905"/>
<stop offset="1" stopColor="#9B4122"/>
</linearGradient>
<linearGradient id="paint5_linear_288_3239" x1="86.0495" y1="111.576" x2="79.0146" y2="52.3136" gradientUnits="userSpaceOnUse">
<stop stopColor="#6E2905"/>
<stop offset="1" stopColor="#9B4122"/>
</linearGradient>
<linearGradient id="paint6_linear_288_3239" x1="104.401" y1="136.001" x2="78.7739" y2="65.9413" gradientUnits="userSpaceOnUse">
<stop stopColor="#6E2905"/>
<stop offset="1" stopColor="#360F05"/>
</linearGradient>
<linearGradient id="paint7_linear_288_3239" x1="85.1608" y1="73.9574" x2="85.1608" y2="50.9729" gradientUnits="userSpaceOnUse">
<stop stopColor="#511A09"/>
<stop offset="1" stopColor="#722C14"/>
</linearGradient>
<linearGradient id="paint8_linear_288_3239" x1="105.006" y1="73.9568" x2="105.006" y2="50.9723" gradientUnits="userSpaceOnUse">
<stop stopColor="#511A09"/>
<stop offset="1" stopColor="#722C14"/>
</linearGradient>
<linearGradient id="paint9_linear_288_3239" x1="87.146" y1="42.0861" x2="91.8337" y2="36.7314" gradientUnits="userSpaceOnUse">
<stop stopColor="#6E2905"/>
<stop offset="1" stopColor="#360F05"/>
</linearGradient>
<linearGradient id="paint10_linear_288_3239" x1="64.0242" y1="92.383" x2="34.3944" y2="66.2826" gradientUnits="userSpaceOnUse">
<stop stopColor="#FFD16B"/>
<stop offset="1" stopColor="#FFF7BD"/>
</linearGradient>
<linearGradient id="paint11_linear_288_3239" x1="64.0402" y1="92.3656" x2="34.4105" y2="66.2653" gradientUnits="userSpaceOnUse">
<stop stopColor="#FFC44F"/>
<stop offset="1" stopColor="#FFD496"/>
</linearGradient>
<linearGradient id="paint12_linear_288_3239" x1="97.2823" y1="14.5912" x2="97.2823" y2="25.8312" gradientUnits="userSpaceOnUse">
<stop stopColor="#8E3618"/>
<stop offset="1" stopColor="#6A2A00"/>
</linearGradient>
<linearGradient id="paint13_linear_288_3239" x1="121.329" y1="14.0422" x2="121.329" y2="23.5604" gradientUnits="userSpaceOnUse">
<stop stopColor="#8E3618"/>
<stop offset="1" stopColor="#6A2A00"/>
</linearGradient>
<linearGradient id="paint14_linear_288_3239" x1="102.787" y1="15.2598" x2="100.11" y2="16.5142" gradientUnits="userSpaceOnUse">
<stop stopColor="#C76952"/>
<stop offset="1" stopColor="#9F4223"/>
</linearGradient>
<linearGradient id="paint15_linear_288_3239" x1="119.371" y1="14.6068" x2="121.714" y2="16.531" gradientUnits="userSpaceOnUse">
<stop stopColor="#C76952"/>
<stop offset="1" stopColor="#9F4223"/>
</linearGradient>
<linearGradient id="paint16_linear_288_3239" x1="96.6782" y1="45.4817" x2="99.9428" y2="48.9955" gradientUnits="userSpaceOnUse">
<stop stopColor="#AC522D"/>
<stop offset="1" stopColor="#9F4223"/>
</linearGradient>
<linearGradient id="paint17_linear_288_3239" x1="94.3514" y1="62.5319" x2="101.128" y2="61.403" gradientUnits="userSpaceOnUse">
<stop stopColor="#AC522D"/>
<stop offset="1" stopColor="#9F4223"/>
</linearGradient>
<linearGradient id="paint18_linear_288_3239" x1="104.101" y1="86.7498" x2="111.332" y2="85.5452" gradientUnits="userSpaceOnUse">
<stop stopColor="#AC522D"/>
<stop offset="1" stopColor="#9F4223"/>
</linearGradient>
<linearGradient id="paint19_linear_288_3239" x1="102.506" y1="74.3926" x2="111.543" y2="71.2567" gradientUnits="userSpaceOnUse">
<stop stopColor="#AC522D"/>
<stop offset="1" stopColor="#9F4223"/>
</linearGradient>
<linearGradient id="paint20_linear_288_3239" x1="91.9205" y1="40.9733" x2="99.4507" y2="39.2172" gradientUnits="userSpaceOnUse">
<stop stopColor="#AC522D"/>
<stop offset="1" stopColor="#9F4223"/>
</linearGradient>
<linearGradient id="paint21_linear_288_3239" x1="88.4743" y1="71.5659" x2="113.074" y2="81.7684" gradientUnits="userSpaceOnUse">
<stop stopColor="#7E2D14"/>
<stop offset="1" stopColor="#9F4223"/>
</linearGradient>
<linearGradient id="paint22_linear_288_3239" x1="103.008" y1="78.5386" x2="91.9627" y2="83.3055" gradientUnits="userSpaceOnUse">
<stop stopColor="#7E2D14"/>
<stop offset="1" stopColor="#9F4223"/>
</linearGradient>
<linearGradient id="paint23_linear_288_3239" x1="119.61" y1="111.743" x2="119.861" y2="109.86" gradientUnits="userSpaceOnUse">
<stop stopColor="#7E2D14"/>
<stop offset="1" stopColor="#651E00"/>
</linearGradient>
<linearGradient id="paint24_linear_288_3239" x1="96.344" y1="71.3314" x2="88.5274" y2="74.7049" gradientUnits="userSpaceOnUse">
<stop stopColor="#7A2C0F"/>
<stop offset="1" stopColor="#9B4122"/>
</linearGradient>
<linearGradient id="paint25_linear_288_3239" x1="103.137" y1="72.0904" x2="127.609" y2="66.1951" gradientUnits="userSpaceOnUse">
<stop stopColor="#7E2D14"/>
<stop offset="1" stopColor="#9F4223"/>
</linearGradient>
<linearGradient id="paint26_linear_288_3239" x1="124.663" y1="99.3122" x2="125.542" y2="111.994" gradientUnits="userSpaceOnUse">
<stop stopColor="#722811"/>
<stop offset="1" stopColor="#933C1F"/>
</linearGradient>
<linearGradient id="paint27_linear_288_3239" x1="97.7609" y1="44.5579" x2="103.198" y2="44.2234" gradientUnits="userSpaceOnUse">
<stop stopColor="#7A2C0F"/>
<stop offset="1" stopColor="#9B4122"/>
</linearGradient>
<linearGradient id="paint28_linear_288_3239" x1="126.943" y1="54.5742" x2="117.238" y2="57.0828" gradientUnits="userSpaceOnUse">
<stop stopColor="#7E2D14"/>
<stop offset="1" stopColor="#9F4223"/>
</linearGradient>
<linearGradient id="paint29_linear_288_3239" x1="126.92" y1="54.5802" x2="117.258" y2="57.0777" gradientUnits="userSpaceOnUse">
<stop stopColor="#722710"/>
<stop offset="1" stopColor="#933B1E"/>
</linearGradient>
<linearGradient id="paint30_linear_288_3239" x1="88.2356" y1="53.0635" x2="106.81" y2="57.5791" gradientUnits="userSpaceOnUse">
<stop stopColor="#7E2D14"/>
<stop offset="1" stopColor="#9F4223"/>
</linearGradient>
<radialGradient id="paint31_radial_288_3239" cx="0" cy="0" r="1" gradientUnits="userSpaceOnUse" gradientTransform="translate(118.281 58.0281) rotate(-6.02991) scale(12.5945 25.7835)">
<stop stopColor="#FFD7C5"/>
<stop offset="1" stopColor="#F9B99C"/>
</radialGradient>
<linearGradient id="paint32_linear_288_3239" x1="109.511" y1="15.3388" x2="109.511" y2="25.8857" gradientUnits="userSpaceOnUse">
<stop stopColor="#772D14"/>
<stop offset="1" stopColor="#532100"/>
</linearGradient>
<linearGradient id="paint33_linear_288_3239" x1="116.198" y1="95.8898" x2="120.716" y2="97.7086" gradientUnits="userSpaceOnUse">
<stop stopColor="#69230C"/>
<stop offset="1" stopColor="#1D0C00"/>
</linearGradient>
<linearGradient id="paint34_linear_288_3239" x1="133.925" y1="95.934" x2="132.544" y2="98.0677" gradientUnits="userSpaceOnUse">
<stop stopColor="#69230C"/>
<stop offset="1" stopColor="#1D0C00"/>
</linearGradient>
<linearGradient id="paint35_linear_288_3239" x1="117.118" y1="97.1921" x2="120.5" y2="98.5534" gradientUnits="userSpaceOnUse">
<stop stopColor="#3D1506"/>
<stop offset="1" stopColor="#090000"/>
</linearGradient>
<linearGradient id="paint36_linear_288_3239" x1="133.691" y1="97.3905" x2="132.79" y2="98.782" gradientUnits="userSpaceOnUse">
<stop stopColor="#3D1506"/>
<stop offset="1" stopColor="#090000"/>
</linearGradient>
<linearGradient id="paint37_linear_288_3239" x1="98.5434" y1="17.8912" x2="98.5434" y2="9.01838" gradientUnits="userSpaceOnUse">
<stop stopColor="#511A09"/>
<stop offset="1" stopColor="#722C14"/>
</linearGradient>
<linearGradient id="paint38_linear_288_3239" x1="111.112" y1="17.8917" x2="111.112" y2="9.01892" gradientUnits="userSpaceOnUse">
<stop stopColor="#511A09"/>
<stop offset="1" stopColor="#722C14"/>
</linearGradient>
<linearGradient id="paint39_linear_288_3239" x1="113.039" y1="101.044" x2="127.099" y2="110.58" gradientUnits="userSpaceOnUse">
<stop stopColor="#69230C"/>
<stop offset="1" stopColor="#1D0C00"/>
</linearGradient>
<linearGradient id="paint40_linear_288_3239" x1="98.1797" y1="45.4771" x2="103.213" y2="45.1675" gradientUnits="userSpaceOnUse">
<stop stopColor="#601E06"/>
<stop offset="1" stopColor="#813015"/>
</linearGradient>
<linearGradient id="paint41_linear_288_3239" x1="100.622" y1="14.4741" x2="100.622" y2="24.0124" gradientUnits="userSpaceOnUse">
<stop stopColor="#64230D"/>
<stop offset="1" stopColor="#401900"/>
</linearGradient>
<linearGradient id="paint42_linear_288_3239" x1="121.065" y1="14.6086" x2="121.065" y2="22.7524" gradientUnits="userSpaceOnUse">
<stop stopColor="#64230D"/>
<stop offset="1" stopColor="#401900"/>
</linearGradient>
<linearGradient id="paint43_linear_288_3239" x1="116.181" y1="95.9586" x2="120.85" y2="97.8382" gradientUnits="userSpaceOnUse">
<stop stopColor="#3D1506"/>
<stop offset="1" stopColor="#090000"/>
</linearGradient>
<linearGradient id="paint44_linear_288_3239" x1="133.956" y1="95.9084" x2="132.527" y2="98.1159" gradientUnits="userSpaceOnUse">
<stop stopColor="#3D1506"/>
<stop offset="1" stopColor="#090000"/>
</linearGradient>
<linearGradient id="paint45_linear_288_3239" x1="99.2301" y1="29.7777" x2="99.2301" y2="20.4864" gradientUnits="userSpaceOnUse">
<stop stopColor="#FFD16B"/>
<stop offset="1" stopColor="#FFF7BD"/>
</linearGradient>
<linearGradient id="paint46_linear_288_3239" x1="99.273" y1="29.7775" x2="99.273" y2="20.4862" gradientUnits="userSpaceOnUse">
<stop stopColor="#FFC44F"/>
<stop offset="1" stopColor="#FFD496"/>
</linearGradient>
<linearGradient id="paint47_linear_288_3239" x1="99.8639" y1="49.6301" x2="97.1854" y2="52.1398" gradientUnits="userSpaceOnUse">
<stop stopColor="#929292"/>
<stop offset="1" stopColor="white"/>
</linearGradient>
<linearGradient id="paint48_linear_288_3239" x1="98.7234" y1="51.8806" x2="98.4511" y2="48.9635" gradientUnits="userSpaceOnUse">
<stop stopColor="#471600"/>
<stop offset="1" stopColor="#1F0B00"/>
</linearGradient>
<linearGradient id="paint49_linear_288_3239" x1="98.8196" y1="51.6917" x2="98.5806" y2="49.1315" gradientUnits="userSpaceOnUse">
<stop stopColor="#601E00"/>
<stop offset="1" stopColor="#381400"/>
</linearGradient>
<linearGradient id="paint50_linear_288_3239" x1="127.689" y1="52.2828" x2="129.195" y2="53.5377" gradientUnits="userSpaceOnUse">
<stop stopColor="#929292"/>
<stop offset="1" stopColor="white"/>
</linearGradient>
<linearGradient id="paint51_linear_288_3239" x1="128.318" y1="53.0441" x2="128.795" y2="50.5175" gradientUnits="userSpaceOnUse">
<stop stopColor="#471600"/>
<stop offset="1" stopColor="#1F0B00"/>
</linearGradient>
<linearGradient id="paint52_linear_288_3239" x1="128.233" y1="52.868" x2="128.652" y2="50.6506" gradientUnits="userSpaceOnUse">
<stop stopColor="#601E00"/>
<stop offset="1" stopColor="#381400"/>
</linearGradient>
<clipPath id="clip0_288_3239">
<rect width="135" height="140" fill="white"/>
</clipPath>
</defs>
</svg>
