<svg width="186" height="208" viewBox="0 0 186 208" fill="none" xmlns="http://www.w3.org/2000/svg">
<path opacity="0.5" d="M105.5 0C47.1843 0 0 46.5134 0 104C0 161.323 47.1843 208 105.5 208C163.816 208 211 161.487 211 104C211 46.5134 163.65 0 105.5 0ZM143.048 136.428C140.556 132.498 135.904 126.438 127.098 119.068C115.967 109.405 110.817 100.397 107.494 94.1732C106.663 92.5354 105.5 90.4063 104.669 89.4236C103.839 90.5701 102.676 92.5354 101.845 94.1732C98.522 100.233 93.3717 109.405 82.2402 119.068C73.6008 126.602 68.7827 132.498 66.2906 136.428H46.852C48.3472 131.351 53.6638 120.378 70.6102 105.802C79.4157 98.2677 83.237 91.389 86.2276 85.8205C88.0551 82.3811 89.7165 79.4331 92.2087 76.9764C95.6976 73.3732 99.8512 71.5717 104.835 71.5717C109.82 71.5717 113.973 73.3732 117.462 76.9764C119.788 79.4331 121.45 82.3811 123.443 85.8205C126.6 91.389 130.421 98.2677 139.061 105.802C156.007 120.378 161.157 131.351 162.819 136.428H143.048Z" fill="#DEE6F0"/>
</svg>
