<svg width="92" height="69" viewBox="0 0 92 69" fill="none" xmlns="http://www.w3.org/2000/svg">
<g id="_&#195;&#171;&#195;&#142;&#195;&#147;&#195;&#136;_1" clipPath="url(#clip0_365_15456)">
<g id="Group">
<path id="Vector" d="M14.7858 55.6852L4.80147 42.4786C-2.01165 33.4669 4.41638 20.5499 15.714 20.5499C27.0099 20.5499 33.438 33.4685 26.6265 42.4786L16.6422 55.6852C16.1764 56.3007 15.2515 56.3007 14.7858 55.6852Z" stroke="#5C80B6" stroke-width="2.79766" stroke-miterlimit="10" stroke-linecap="round"/>
<path id="Vector_2" d="M20.8066 39.1872C23.6196 36.3742 23.6196 31.8134 20.8066 29.0004C17.9935 26.1874 13.4328 26.1874 10.6198 29.0004C7.80676 31.8134 7.80676 36.3742 10.6198 39.1872C13.4328 42.0002 17.9935 42.0002 20.8066 39.1872Z" stroke="#5C80B6" stroke-width="2.79766" stroke-miterlimit="10" stroke-linecap="round"/>
</g>
<g id="Group_2">
<path id="Vector_3" d="M75.3571 36.6218L65.3728 23.4152C58.5596 14.4035 64.9877 1.48651 76.2853 1.48651C87.5812 1.48651 94.0093 14.4051 87.1978 23.4152L77.2134 36.6218C76.7477 37.2373 75.8228 37.2373 75.3571 36.6218Z" stroke="#5C80B6" stroke-width="2.79766" stroke-miterlimit="10" stroke-linecap="round"/>
<path id="Vector_4" d="M81.3788 20.1239C84.1918 17.3108 84.1918 12.7501 81.3788 9.93706C78.5658 7.12406 74.005 7.12406 71.192 9.93706C68.379 12.7501 68.379 17.3108 71.192 20.1239C74.005 22.9369 78.5658 22.9369 81.3788 20.1239Z" stroke="#5C80B6" stroke-width="2.79766" stroke-miterlimit="10" stroke-linecap="round"/>
</g>
<path id="Vector_5" d="M35.0731 68.1565C34.5168 68.1565 34.0083 67.7813 33.8668 67.2168C33.6956 66.5503 34.1005 65.8723 34.767 65.7028C37.2108 65.084 39.8241 63.8629 42.7469 61.9721C43.3294 61.6001 44.0963 61.7663 44.4683 62.344C44.8435 62.9216 44.6756 63.6918 44.0996 64.0654C40.9416 66.1027 38.0879 67.4291 35.3759 68.117C35.2755 68.1417 35.1718 68.1549 35.0714 68.1549L35.0731 68.1565ZM25.9543 67.9047C25.8276 67.9047 25.6993 67.885 25.5725 67.8438C22.7996 66.9502 19.9871 65.3078 17.2141 62.9611C16.6891 62.5168 16.625 61.7318 17.066 61.2068C17.5153 60.6785 18.2953 60.6193 18.8203 61.0587C21.3448 63.1931 23.8742 64.6792 26.3345 65.4724C26.9878 65.6831 27.3499 66.3858 27.1376 67.0391C26.9664 67.5674 26.4777 67.9031 25.9527 67.9031L25.9543 67.9047ZM50.8634 58.7515C50.498 58.7515 50.136 58.5918 49.8924 58.2857C49.4645 57.7492 49.5468 56.9659 50.0833 56.5364L52.0993 54.9088C53.8272 53.51 55.5717 52.098 57.3539 50.7419C57.897 50.3239 58.6738 50.4292 59.0984 50.9756C59.5131 51.522 59.4094 52.3037 58.8614 52.72C57.1038 54.0629 55.3758 55.4617 53.6676 56.8441L51.6451 58.4783C51.4147 58.6626 51.1399 58.7515 50.865 58.7515H50.8634ZM65.793 47.8143C65.3569 47.8143 64.9356 47.5839 64.7085 47.1757C64.3695 46.5751 64.5851 45.8164 65.1874 45.4807C68.2714 43.756 71.1859 42.5991 74.0856 41.9457C74.7653 41.7762 75.4252 42.214 75.5766 42.8871C75.728 43.5569 75.305 44.2234 74.6353 44.3748C71.9692 44.9754 69.2769 46.0484 66.4003 47.6546C66.2094 47.7616 66.002 47.8143 65.7946 47.8143H65.793Z" fill="#5C80B6" stroke="#5C80B6" stroke-width="0.658273" stroke-miterlimit="10"/>
</g>
<defs>
<clipPath id="clip0_365_15456">
<rect width="90.7791" height="68.3978" fill="white" transform="translate(0.610352 0.0878906)"/>
</clipPath>
</defs>
</svg>
