<svg width="24" height="24" viewBox="0 0 24 24" fill="none" xmlns="http://www.w3.org/2000/svg">
<g clipPath="url(#clip0_3_444)">
<path d="M15.1272 5.95508H8.81452C7.23513 5.95508 5.9502 7.24001 5.9502 8.81941V15.1905C5.9502 16.7699 7.23513 18.0549 8.81452 18.0549H15.1272C16.7066 18.0549 17.9916 16.7699 17.9916 15.1905V8.81941C17.9916 7.24001 16.7066 5.95508 15.1272 5.95508ZM11.983 15.8208C9.8415 15.8208 8.09905 14.0978 8.09905 11.9782C8.09905 9.85855 9.8415 8.13557 11.983 8.13557C14.1246 8.13557 15.867 9.85855 15.867 11.9782C15.867 14.0978 14.1246 15.8208 11.983 15.8208ZM15.9352 8.89241C15.4314 8.89241 15.0202 8.48357 15.0202 7.97739C15.0202 7.4712 15.429 7.06236 15.9352 7.06236C16.4414 7.06236 16.8478 7.4712 16.8478 7.97739C16.8478 8.48357 16.4389 8.89241 15.9352 8.89241Z" fill="white"/>
<path d="M12 0C5.37335 0 0 5.37335 0 12C0 18.6266 5.37335 24 12 24C18.6266 24 24 18.6266 24 12C24 5.37335 18.6291 0 12 0ZM19.4103 15.1904C19.4103 17.551 17.4902 19.4735 15.1272 19.4735H8.81444C6.45386 19.4735 4.53133 17.5534 4.53133 15.1904V8.81931C4.53133 6.45873 6.45386 4.5362 8.81444 4.5362H15.1272C17.4877 4.5362 19.4103 6.45873 19.4103 8.81931V15.1904Z" fill="white"/>
<path d="M11.983 9.55176C10.6202 9.55176 9.51294 10.6396 9.51294 11.9805C9.51294 13.3214 10.6202 14.4092 11.983 14.4092C13.3458 14.4092 14.4531 13.3214 14.4531 11.9805C14.4531 10.6396 13.3458 9.55176 11.983 9.55176Z" fill="white"/>
</g>
<defs>
<clipPath id="clip0_3_444">
<rect width="24" height="24" fill="white"/>
</clipPath>
</defs>
</svg>
