<svg width="24" height="24" viewBox="0 0 24 24" fill="none" xmlns="http://www.w3.org/2000/svg">
<g clipPath="url(#clip0_3_455)">
<path d="M10.6396 13.757L14.3557 11.7858L10.6396 9.85352V13.757Z" fill="white"/>
<path d="M12 0C5.37335 0 0 5.37335 0 12C0 18.6266 5.37335 24 12 24C18.6266 24 24 18.6266 24 12C24 5.37335 18.6291 0 12 0ZM18.6997 14.7962C18.539 15.8086 18.0499 16.3585 17.0205 16.4754C15.8694 16.6043 13.2849 16.6652 12.1338 16.6652C10.9828 16.6652 8.53944 16.6141 7.33969 16.5143C6.30785 16.4291 5.60211 15.8524 5.46096 14.8254C5.35875 14.0783 5.29061 13.19 5.29061 11.7785C5.29061 10.2064 5.34658 9.54208 5.48043 8.83147C5.67025 7.8191 6.15453 7.32752 7.25938 7.21314C8.41777 7.0939 9.51288 7.03306 11.9659 7.03306C13.1633 7.03306 15.7477 7.0939 16.9402 7.20341C17.9817 7.29832 18.5707 7.93592 18.6972 8.95072C18.7873 9.66133 18.8676 10.6761 18.8676 11.7688C18.8676 13.6865 18.6972 14.7962 18.6972 14.7962H18.6997Z" fill="white"/>
</g>
<defs>
<clipPath id="clip0_3_455">
<rect width="24" height="24" fill="white"/>
</clipPath>
</defs>
</svg>
