<svg width="24" height="24" viewBox="0 0 24 24" fill="none" xmlns="http://www.w3.org/2000/svg">
<path fill-rule="evenodd" clip-rule="evenodd" d="M24 12C24 18.6274 18.6274 24 12 24C5.37258 24 0 18.6274 0 12C0 5.37258 5.37258 0 12 0C18.6274 0 24 5.37258 24 12ZM18.6489 7.96267C18.7218 7.96089 18.7236 7.96444 18.7236 8.03378C18.7228 8.0989 18.7276 8.4086 18.7335 8.7953C18.7424 9.36925 18.7538 10.1128 18.7538 10.4782C18.7538 10.6187 18.7342 10.6258 18.5938 10.6258C18.1458 10.6258 17.7067 10.5653 17.2711 10.4658C16.5227 10.2951 15.8311 9.99111 15.1911 9.56978C15.1824 9.56382 15.1736 9.55633 15.1647 9.54877C15.139 9.52698 15.1126 9.50457 15.0862 9.51644C15.0529 9.53246 15.0576 9.56952 15.062 9.6043C15.0635 9.61585 15.0649 9.62714 15.0649 9.63733C15.0643 10.2454 15.065 10.8533 15.0657 11.461C15.0669 12.5749 15.0682 13.6884 15.0613 14.8018C15.0542 16.0053 14.672 17.0809 13.8844 17.9982C13.0489 18.9724 11.9858 19.5378 10.7093 19.6942C9.72622 19.8133 8.79289 19.6356 7.90756 19.1982C7.76356 19.1289 7.62667 19.0453 7.49867 18.9493C7.47821 18.9315 7.45819 18.9138 7.43818 18.896C7.41819 18.8782 7.39821 18.8604 7.37778 18.8427C7.29488 18.8074 7.22524 18.7508 7.15627 18.6949C7.14536 18.686 7.13448 18.6772 7.12356 18.6684C6.33244 18.0409 5.77422 17.2516 5.46844 16.288C5.36178 15.952 5.29422 15.6089 5.26222 15.2587C5.23733 15.0044 5.23556 14.7502 5.25156 14.4978C5.29067 13.9147 5.42756 13.3547 5.66933 12.8213C5.92 12.2631 6.26311 11.7689 6.70044 11.3404C7.20889 10.8427 7.79733 10.4693 8.46933 10.2276C8.89067 10.0764 9.32444 9.984 9.77067 9.952C10.0942 9.92711 10.416 9.936 10.7378 9.97333C10.7804 9.97867 10.8053 9.98756 10.8053 10.0391C10.8 10.2169 10.8 10.3964 10.8 10.5742C10.8036 10.5778 10.8267 11.9324 10.8267 12.5529V12.6187C10.8231 12.6809 10.7911 12.7004 10.7324 12.6844C10.5636 12.6364 10.3893 12.6133 10.2133 12.6044C9.94133 12.5884 9.67289 12.6276 9.41867 12.7218C8.56533 13.0364 8.048 13.648 7.93956 14.5476C7.83289 15.4347 8.18311 16.144 8.92089 16.6542C8.93334 16.6628 8.94586 16.6712 8.95838 16.6797C9.00844 16.7135 9.05849 16.7474 9.104 16.7858C9.11644 16.7982 9.13067 16.8107 9.14489 16.8231C9.15238 16.8261 9.15987 16.829 9.16737 16.832C9.33057 16.8967 9.49426 16.9616 9.66933 16.9956C10.2489 17.1111 10.7947 17.0222 11.296 16.7129C11.8756 16.3556 12.2169 15.8311 12.3378 15.1627C12.3609 15.0364 12.3644 14.9084 12.3644 14.7787V4.41067C12.3644 4.33036 12.3591 4.29529 12.3739 4.28027C12.3887 4.26537 12.4234 4.27022 12.5031 4.27022H14.8942H14.9511C15.0329 4.27022 15.0329 4.272 15.0329 4.35378C15.0329 4.53867 15.1093 4.97244 15.1164 5.00622C15.4613 6.75378 17.4987 7.82222 18.1262 7.91644C18.2987 7.94311 18.4729 7.96267 18.6489 7.96267Z" fill="white"/>
</svg>
