<svg width="24" height="24" viewBox="0 0 24 24" fill="none" xmlns="http://www.w3.org/2000/svg">
<g clipPath="url(#clip0_3_458)">
<path d="M12 0C5.37335 0 0 5.37335 0 12C0 18.6266 5.37335 24 12 24C18.6266 24 24 18.6266 24 12C24 5.37335 18.6291 0 12 0ZM15.5263 6.87731H13.8106C13.4504 6.85297 13.0781 7.1304 13.0124 7.49057C13.0051 8.116 13.0075 8.739 13.0075 9.36443C13.8447 9.3693 14.6842 9.36443 15.5214 9.3693C15.4581 10.2722 15.3462 11.1726 15.2148 12.0657C14.475 12.073 13.7327 12.0657 12.9905 12.0706C12.9832 14.7353 12.9953 17.3977 12.9856 20.0625C11.8832 20.0673 10.7856 20.0576 9.68323 20.0673C9.66376 17.4026 9.68323 14.7378 9.67106 12.0706C9.13567 12.0657 8.59542 12.0754 8.06003 12.0657C8.0649 11.1701 8.06003 10.2722 8.06003 9.38146C8.59542 9.37416 9.13567 9.38146 9.67106 9.3766C9.68566 8.50781 9.65646 7.63415 9.68566 6.76536C9.74407 6.07179 10.0045 5.37579 10.5204 4.8988C11.1458 4.30501 12.0292 4.10302 12.8688 4.08112C13.7522 4.07382 14.638 4.07625 15.5214 4.07625C15.5263 5.01075 15.5263 5.94281 15.5214 6.87731H15.5263Z" fill="white"/>
</g>
<defs>
<clipPath id="clip0_3_458">
<rect width="24" height="24" fill="white"/>
</clipPath>
</defs>
</svg>
